<svg width="492" height="120" viewBox="0 0 492 120" fill="none" xmlns="http://www.w3.org/2000/svg">
<rect width="120" height="120" rx="24" fill="#252525"/>
<path d="M89.012 84.2984L75.8358 71.1172C79.7864 65.9692 81.6309 59.5113 80.995 53.0534C80.3591 46.5956 77.2905 40.6214 72.4116 36.3427C67.5327 32.0641 61.2089 29.8014 54.723 30.0137C48.2371 30.2259 42.0748 32.8973 37.4861 37.4857C32.8974 42.0742 30.226 48.2362 30.0137 54.7218C29.8014 61.2074 32.0642 67.5309 36.343 72.4096C40.6219 77.2883 46.5963 80.3568 53.0545 80.9927C59.5126 81.6285 65.9708 79.7841 71.1191 75.8337L84.3064 89.0232C84.6161 89.3329 84.9838 89.5785 85.3885 89.7461C85.7931 89.9137 86.2268 90 86.6648 90C87.1028 90 87.5365 89.9137 87.9411 89.7461C88.3458 89.5785 88.7134 89.3329 89.0231 89.0232C89.3328 88.7135 89.5785 88.3458 89.7461 87.9412C89.9137 87.5366 90 87.1029 90 86.6649C90 86.227 89.9137 85.7933 89.7461 85.3887C89.5785 84.984 89.3328 84.6164 89.0231 84.3067L89.012 84.2984ZM36.7149 55.5805C36.7149 51.8492 37.8214 48.2016 39.8945 45.0991C41.9676 41.9966 44.9142 39.5786 48.3617 38.1506C51.8091 36.7227 55.6026 36.3491 59.2624 37.0771C62.9222 37.805 66.284 39.6018 68.9226 42.2403C71.5611 44.8787 73.358 48.2403 74.086 51.8999C74.814 55.5596 74.4403 59.3529 73.0124 62.8002C71.5844 66.2475 69.1662 69.194 66.0635 71.267C62.9609 73.34 59.3132 74.4465 55.5817 74.4465C50.5795 74.4413 45.7836 72.452 42.2465 68.9151C38.7094 65.3781 36.72 60.5825 36.7149 55.5805Z" fill="url(#paint0_linear_1780_1111)"/>
<rect x="186" width="120" height="120" rx="24" fill="#252525"/>
<path d="M226.767 78.5926C223.869 78.5926 221.392 78.0905 219.334 77.0864C217.276 76.0822 215.704 74.7076 214.618 72.9626C213.531 71.2176 212.98 69.2257 212.963 66.9869C212.963 66.493 212.988 65.9827 213.037 65.4559C213.087 64.9291 213.169 64.4023 213.284 63.8756L217.828 42.3679H225.334L220.84 63.678C220.741 64.139 220.667 64.5834 220.618 65.0114C220.569 65.423 220.552 65.8263 220.569 66.2214C220.602 67.3737 220.89 68.3779 221.433 69.234C221.976 70.09 222.75 70.7485 223.754 71.2094C224.775 71.6703 225.985 71.9008 227.384 71.9008C228.783 71.9008 230.034 71.6374 231.137 71.1106C232.257 70.5674 233.187 69.7854 233.928 68.7648C234.685 67.7277 235.228 66.4766 235.557 65.0114L240.372 42.3679H247.879L242.718 66.6659C242.192 69.1681 241.212 71.3082 239.78 73.0861C238.348 74.864 236.529 76.2303 234.323 77.1851C232.133 78.1235 229.615 78.5926 226.767 78.5926ZM244.2 78L259.781 59.9741L251.904 42.3679H260.053L265.387 54.4428H265.584L275.585 42.3679H284.499L268.893 60.3444L276.77 78H268.621L263.263 65.8263H263.065L252.966 78H244.2Z" fill="url(#paint1_linear_1780_1111)"/>
<rect x="372" width="120" height="120" rx="24" fill="#252525"/>
<path d="M410.68 81.5064L419.767 38.7874H422.236L413.149 81.5064H410.68ZM401.173 67.135H408.013C408.145 68.0569 408.507 68.88 409.099 69.6044C409.692 70.3122 410.482 70.8719 411.47 71.2835C412.474 71.6786 413.627 71.8761 414.927 71.8761C416.129 71.8761 417.182 71.7115 418.088 71.3823C418.993 71.053 419.693 70.5756 420.187 69.9501C420.697 69.3245 420.952 68.5837 420.952 67.7277C420.952 66.707 420.606 65.8839 419.915 65.2584C419.224 64.6328 417.964 64.0319 416.137 63.4558L413.371 62.5421C410.589 61.6367 408.49 60.4597 407.075 59.011C405.675 57.5459 404.976 55.6692 404.976 53.381C404.976 51.2574 405.519 49.3972 406.605 47.8004C407.692 46.2035 409.19 44.9607 411.1 44.0717C413.026 43.1663 415.24 42.7136 417.742 42.7136C420.343 42.7136 422.598 43.1334 424.508 43.9729C426.418 44.796 427.899 45.9813 428.953 47.5287C430.023 49.0597 430.558 50.8952 430.558 53.0353H423.915C423.882 52.1463 423.619 51.3562 423.125 50.6648C422.631 49.9734 421.94 49.4383 421.051 49.0597C420.162 48.6646 419.092 48.4671 417.841 48.4671C416.623 48.4671 415.594 48.6564 414.754 49.035C413.915 49.4136 413.281 49.9075 412.853 50.5166C412.441 51.1257 412.235 51.7924 412.235 52.5167C412.235 53.4715 412.589 54.2699 413.297 54.912C414.005 55.554 415.207 56.1302 416.902 56.6405L419.742 57.5541C422.656 58.4595 424.804 59.6201 426.187 61.0359C427.57 62.4351 428.261 64.2871 428.261 66.5918C428.261 68.6825 427.726 70.5674 426.656 72.2465C425.586 73.9092 424.047 75.2261 422.039 76.1974C420.047 77.1687 417.635 77.6543 414.804 77.6543C412.12 77.6543 409.758 77.2345 407.717 76.3949C405.692 75.5554 404.103 74.3537 402.951 72.7898C401.815 71.2259 401.222 69.341 401.173 67.135ZM443.423 81.5064L452.51 38.7874H454.979L445.892 81.5064H443.423ZM433.916 67.135H440.756C440.888 68.0569 441.25 68.88 441.842 69.6044C442.435 70.3122 443.225 70.8719 444.213 71.2835C445.217 71.6786 446.37 71.8761 447.67 71.8761C448.872 71.8761 449.925 71.7115 450.831 71.3823C451.736 71.053 452.436 70.5756 452.93 69.9501C453.44 69.3245 453.695 68.5837 453.695 67.7277C453.695 66.707 453.349 65.8839 452.658 65.2584C451.967 64.6328 450.707 64.0319 448.88 63.4558L446.114 62.5421C443.332 61.6367 441.233 60.4597 439.818 59.011C438.418 57.5459 437.719 55.6692 437.719 53.381C437.719 51.2574 438.262 49.3972 439.348 47.8004C440.435 46.2035 441.933 44.9607 443.843 44.0717C445.769 43.1663 447.983 42.7136 450.485 42.7136C453.086 42.7136 455.341 43.1334 457.251 43.9729C459.161 44.796 460.642 45.9813 461.696 47.5287C462.766 49.0597 463.301 50.8952 463.301 53.0353H456.658C456.625 52.1463 456.362 51.3562 455.868 50.6648C455.374 49.9734 454.683 49.4383 453.794 49.0597C452.905 48.6646 451.835 48.4671 450.584 48.4671C449.366 48.4671 448.337 48.6564 447.497 49.035C446.658 49.4136 446.024 49.9075 445.596 50.5166C445.184 51.1257 444.979 51.7924 444.979 52.5167C444.979 53.4715 445.332 54.2699 446.04 54.912C446.748 55.554 447.95 56.1302 449.646 56.6405L452.485 57.5541C455.399 58.4595 457.547 59.6201 458.93 61.0359C460.313 62.4351 461.004 64.2871 461.004 66.5918C461.004 68.6825 460.469 70.5674 459.399 72.2465C458.329 73.9092 456.79 75.2261 454.782 76.1974C452.79 77.1687 450.378 77.6543 447.547 77.6543C444.863 77.6543 442.501 77.2345 440.46 76.3949C438.435 75.5554 436.846 74.3537 435.694 72.7898C434.558 71.2259 433.965 69.341 433.916 67.135Z" fill="url(#paint2_linear_1780_1111)"/>
<defs>
<linearGradient id="paint0_linear_1780_1111" x1="60" y1="30" x2="60" y2="90" gradientUnits="userSpaceOnUse">
<stop stop-color="#009F95"/>
<stop offset="1" stop-color="#44FD78"/>
</linearGradient>
<linearGradient id="paint1_linear_1780_1111" x1="245.5" y1="30" x2="245.5" y2="90" gradientUnits="userSpaceOnUse">
<stop stop-color="#009F95"/>
<stop offset="1" stop-color="#44FD78"/>
</linearGradient>
<linearGradient id="paint2_linear_1780_1111" x1="432" y1="30" x2="432" y2="90" gradientUnits="userSpaceOnUse">
<stop stop-color="#009F95"/>
<stop offset="1" stop-color="#44FD78"/>
</linearGradient>
</defs>
</svg>
