<svg width="264" height="120" viewBox="0 0 264 120" fill="none" xmlns="http://www.w3.org/2000/svg">
<rect width="120" height="120" rx="24" fill="#F7F7F7"/>
<g filter="url(#filter0_d_1762_1162)">
<path d="M49.8281 90.4688C55.4062 90.4688 59.9062 85.9687 59.9062 80.3906V70.3125H49.8281C44.25 70.3125 39.75 74.8125 39.75 80.3906C39.75 85.9687 44.25 90.4688 49.8281 90.4688Z" fill="#0ACF83"/>
<path d="M39.75 60.2344C39.75 54.6563 44.25 50.1562 49.8281 50.1562H59.9062V70.3125H49.8281C44.25 70.3125 39.75 65.8125 39.75 60.2344Z" fill="#A259FF"/>
<path d="M39.75 40.0781C39.75 34.5 44.25 30 49.8281 30H59.9062V50.1562H49.8281C44.25 50.1562 39.75 45.6562 39.75 40.0781Z" fill="#F24E1E"/>
<path d="M59.9062 30H69.9844C75.5625 30 80.0625 34.5 80.0625 40.0781C80.0625 45.6562 75.5625 50.1562 69.9844 50.1562H59.9062V30Z" fill="#FF7262"/>
<path d="M80.0625 60.2344C80.0625 65.8125 75.5625 70.3125 69.9844 70.3125C64.4063 70.3125 59.9062 65.8125 59.9062 60.2344C59.9062 54.6563 64.4063 50.1562 69.9844 50.1562C75.5625 50.1562 80.0625 54.6563 80.0625 60.2344Z" fill="#1ABCFE"/>
</g>
<rect x="144" width="120" height="120" rx="24" fill="#F9DE59"/>
<path d="M217.48 30H208.75L216.5 42.02L200.11 30H191.372L199.127 45.75L182.735 30H174L181.625 50.3275L174 90H182.735L199.125 47.4625L191.372 90H200.107L216.5 43.735L208.748 90H217.48L234 39.18L217.48 30Z" fill="black"/>
<defs>
<filter id="filter0_d_1762_1162" x="29.75" y="20" width="60.3125" height="80.4688" filterUnits="userSpaceOnUse" color-interpolation-filters="sRGB">
<feFlood flood-opacity="0" result="BackgroundImageFix"/>
<feColorMatrix in="SourceAlpha" type="matrix" values="0 0 0 0 0 0 0 0 0 0 0 0 0 0 0 0 0 0 127 0" result="hardAlpha"/>
<feOffset/>
<feGaussianBlur stdDeviation="5"/>
<feComposite in2="hardAlpha" operator="out"/>
<feColorMatrix type="matrix" values="0 0 0 0 0 0 0 0 0 0 0 0 0 0 0 0 0 0 0.25 0"/>
<feBlend mode="normal" in2="BackgroundImageFix" result="effect1_dropShadow_1762_1162"/>
<feBlend mode="normal" in="SourceGraphic" in2="effect1_dropShadow_1762_1162" result="shape"/>
</filter>
</defs>
</svg>
