<svg width="97" height="75" viewBox="0 0 97 75" fill="none" xmlns="http://www.w3.org/2000/svg">
<path d="M18.3338 74.1282V64.6482H27.9738V74.1282H18.3338ZM18.3338 10.1282V0.648208H27.9738V10.1282H18.3338ZM23.3738 67.3682C19.3205 67.3682 15.6938 66.6215 12.4938 65.1282C9.29381 63.6349 6.66714 61.5282 4.61381 58.8082C2.58714 56.0882 1.29381 52.8615 0.733809 49.1282L10.2538 47.6082C11.0005 50.8882 12.6005 53.5015 15.0538 55.4482C17.5338 57.3682 20.4938 58.3282 23.9338 58.3282C27.2405 58.3282 29.9605 57.5549 32.0938 56.0082C34.2271 54.4349 35.2938 52.4482 35.2938 50.0482C35.2938 48.3682 34.7871 47.0082 33.7738 45.9682C32.7605 44.9015 31.1338 44.0215 28.8938 43.3282L15.0138 39.0082C6.93381 36.5015 2.89381 31.5949 2.89381 24.2882C2.89381 20.8749 3.70714 17.9015 5.33381 15.3682C6.98714 12.8082 9.30714 10.8482 12.2938 9.48821C15.2805 8.10154 18.8005 7.42154 22.8538 7.44821C26.6138 7.47488 29.9605 8.15488 32.8938 9.48821C35.8538 10.8215 38.3071 12.7415 40.2538 15.2482C42.2271 17.7549 43.6271 20.7682 44.4538 24.2882L34.5738 26.0882C34.2005 24.1949 33.4671 22.5282 32.3738 21.0882C31.2805 19.6482 29.9071 18.5282 28.2538 17.7282C26.6005 16.9282 24.7605 16.5015 22.7338 16.4482C20.7871 16.4215 19.0405 16.7282 17.4938 17.3682C15.9471 17.9815 14.7205 18.8615 13.8138 20.0082C12.9071 21.1282 12.4538 22.3949 12.4538 23.8082C12.4538 25.3815 13.0805 26.7282 14.3338 27.8482C15.6138 28.9682 17.6271 29.9282 20.3738 30.7282L30.7338 33.7282C35.7205 35.1682 39.3071 37.1282 41.4938 39.6082C43.7071 42.0615 44.8138 45.3282 44.8138 49.4082C44.8138 52.9815 43.9205 56.1149 42.1338 58.8082C40.3471 61.5015 37.8405 63.6082 34.6138 65.1282C31.3871 66.6215 27.6405 67.3682 23.3738 67.3682ZM69.7401 74.1282V64.6482H79.3801V74.1282H69.7401ZM69.7401 10.1282V0.648208H79.3801V10.1282H69.7401ZM74.7801 67.3682C70.7267 67.3682 67.1001 66.6215 63.9001 65.1282C60.7001 63.6349 58.0734 61.5282 56.0201 58.8082C53.9934 56.0882 52.7001 52.8615 52.1401 49.1282L61.6601 47.6082C62.4067 50.8882 64.0067 53.5015 66.4601 55.4482C68.9401 57.3682 71.9001 58.3282 75.3401 58.3282C78.6467 58.3282 81.3667 57.5549 83.5001 56.0082C85.6334 54.4349 86.7001 52.4482 86.7001 50.0482C86.7001 48.3682 86.1934 47.0082 85.1801 45.9682C84.1667 44.9015 82.5401 44.0215 80.3001 43.3282L66.4201 39.0082C58.3401 36.5015 54.3001 31.5949 54.3001 24.2882C54.3001 20.8749 55.1134 17.9015 56.7401 15.3682C58.3934 12.8082 60.7134 10.8482 63.7001 9.48821C66.6867 8.10154 70.2067 7.42154 74.2601 7.44821C78.0201 7.47488 81.3667 8.15488 84.3001 9.48821C87.2601 10.8215 89.7134 12.7415 91.6601 15.2482C93.6334 17.7549 95.0334 20.7682 95.8601 24.2882L85.9801 26.0882C85.6067 24.1949 84.8734 22.5282 83.7801 21.0882C82.6867 19.6482 81.3134 18.5282 79.6601 17.7282C78.0067 16.9282 76.1667 16.5015 74.1401 16.4482C72.1934 16.4215 70.4467 16.7282 68.9001 17.3682C67.3534 17.9815 66.1267 18.8615 65.2201 20.0082C64.3134 21.1282 63.8601 22.3949 63.8601 23.8082C63.8601 25.3815 64.4867 26.7282 65.7401 27.8482C67.0201 28.9682 69.0334 29.9282 71.7801 30.7282L82.1401 33.7282C87.1267 35.1682 90.7134 37.1282 92.9001 39.6082C95.1134 42.0615 96.2201 45.3282 96.2201 49.4082C96.2201 52.9815 95.3267 56.1149 93.5401 58.8082C91.7534 61.5015 89.2467 63.6082 86.0201 65.1282C82.7934 66.6215 79.0467 67.3682 74.7801 67.3682Z" fill="url(#paint0_linear_221_239517)"/>
<defs>
<linearGradient id="paint0_linear_221_239517" x1="6.65381" y1="125.402" x2="118.57" y2="102.702" gradientUnits="userSpaceOnUse">
<stop stop-color="#FFEE01"/>
<stop offset="1" stop-color="#35E088"/>
</linearGradient>
</defs>
</svg>
