<svg width="1131" height="404" viewBox="0 0 1131 404" fill="none" xmlns="http://www.w3.org/2000/svg">
<g clip-path="url(#clip0_323_255704)">
<rect width="1131" height="404" fill="#021644"/>
<path fill-rule="evenodd" clip-rule="evenodd" d="M123.739 152H104.85C97.0583 151.772 89.6286 148.027 84.7656 141.865C80.0176 148.027 72.697 151.772 64.9769 152H51.6362C44.838 151.8 38.2427 148.916 33.4375 144.016C28.731 139.216 26.1092 132.997 26 126.424V125.566C26 125.562 26 125.558 26 125.553C26.241 111.463 37.8762 100 51.9372 100H72.3961V100.358C72.3961 103.881 70.6581 107.168 67.7474 109.151C65.5267 110.534 62.6173 110.55 62.494 110.55L53.907 110.552C53.821 110.551 53.7358 110.551 53.6505 110.551C51.0837 110.551 49.1899 110.925 48.8256 111.002C42.6961 112.516 37.9805 117.712 37.103 123.928C36.9621 124.903 36.9579 125.886 36.9712 126.719C37.0868 133.73 41.9723 139.813 48.8517 141.512C49.204 141.587 51.0837 141.961 53.6392 141.961C53.7315 141.961 53.8246 141.961 53.9183 141.96H61.8682C61.9556 141.96 62.0422 141.961 62.1289 141.961C64.9375 141.961 66.9884 141.502 67.0095 141.497C72.3306 140.18 76.7122 136.203 78.4389 131.118C78.5037 130.891 78.5474 130.679 78.5756 130.511L78.5763 130.504H53.6491L53.6653 130.131C53.9119 124.435 58.5621 119.974 64.2524 119.974H79.933L79.94 119.914L79.9724 119.78C82.8388 108.133 93.194 100 105.153 100H133.848V100.358C133.848 104.186 131.778 107.734 128.446 109.618C126.371 110.558 124.126 110.57 124.031 110.57L107.125 110.57C107.038 110.57 106.951 110.569 106.866 110.569C104.315 110.569 102.408 110.944 102.043 111.022C95.9546 112.525 91.2439 117.682 90.3327 123.851C89.9986 126.098 90.1459 128.425 90.7598 130.581C91.3426 132.63 92.3864 134.576 93.7776 136.208C95.1583 137.826 96.8983 139.158 98.8118 140.061C100.782 140.99 102.98 141.481 105.169 141.481H133.852L133.836 141.854C133.596 147.385 129.204 151.752 123.739 152Z" fill="#09235C" fill-opacity="0.5"/>
<path fill-rule="evenodd" clip-rule="evenodd" d="M123.739 228H104.85C97.0583 227.772 89.6286 224.027 84.7656 217.865C80.0176 224.027 72.697 227.772 64.9769 228H51.6362C44.838 227.8 38.2427 224.916 33.4375 220.016C28.731 215.216 26.1092 208.997 26 202.424V201.566C26 201.562 26 201.558 26 201.553C26.241 187.463 37.8762 176 51.9372 176H72.3961V176.358C72.3961 179.881 70.6581 183.168 67.7474 185.151C65.5267 186.534 62.6173 186.55 62.494 186.55L53.907 186.552C53.821 186.551 53.7358 186.551 53.6505 186.551C51.0837 186.551 49.1899 186.925 48.8256 187.002C42.6961 188.516 37.9805 193.712 37.103 199.928C36.9621 200.903 36.9579 201.886 36.9712 202.719C37.0868 209.73 41.9723 215.813 48.8517 217.512C49.204 217.587 51.0837 217.961 53.6392 217.961C53.7315 217.961 53.8246 217.961 53.9183 217.96H61.8682C61.9556 217.96 62.0422 217.961 62.1289 217.961C64.9375 217.961 66.9884 217.502 67.0095 217.497C72.3306 216.18 76.7122 212.203 78.4389 207.118C78.5037 206.891 78.5474 206.679 78.5756 206.511L78.5763 206.504H53.6491L53.6653 206.131C53.9119 200.435 58.5621 195.974 64.2524 195.974H79.933L79.94 195.914L79.9724 195.78C82.8388 184.133 93.194 176 105.153 176H133.848V176.358C133.848 180.186 131.778 183.734 128.446 185.618C126.371 186.558 124.126 186.57 124.031 186.57L107.125 186.57C107.038 186.57 106.951 186.569 106.866 186.569C104.315 186.569 102.408 186.944 102.043 187.022C95.9546 188.525 91.2439 193.682 90.3327 199.851C89.9986 202.098 90.1459 204.425 90.7598 206.581C91.3426 208.63 92.3864 210.576 93.7776 212.208C95.1583 213.826 96.8983 215.158 98.8118 216.061C100.782 216.99 102.98 217.481 105.169 217.481H133.852L133.836 217.854C133.596 223.385 129.204 227.752 123.739 228Z" fill="#09235C" fill-opacity="0.5"/>
<path fill-rule="evenodd" clip-rule="evenodd" d="M123.739 304H104.85C97.0583 303.772 89.6286 300.027 84.7656 293.865C80.0176 300.027 72.697 303.772 64.9769 304H51.6362C44.838 303.8 38.2427 300.916 33.4375 296.016C28.731 291.216 26.1092 284.997 26 278.424V277.566C26 277.562 26 277.558 26 277.553C26.241 263.463 37.8762 252 51.9372 252H72.3961V252.358C72.3961 255.881 70.6581 259.168 67.7474 261.151C65.5267 262.534 62.6173 262.55 62.494 262.55L53.907 262.552C53.821 262.551 53.7358 262.551 53.6505 262.551C51.0837 262.551 49.1899 262.925 48.8256 263.002C42.6961 264.516 37.9805 269.712 37.103 275.928C36.9621 276.903 36.9579 277.886 36.9712 278.719C37.0868 285.73 41.9723 291.813 48.8517 293.512C49.204 293.587 51.0837 293.961 53.6392 293.961C53.7315 293.961 53.8246 293.961 53.9183 293.96H61.8682C61.9556 293.96 62.0422 293.961 62.1289 293.961C64.9375 293.961 66.9884 293.502 67.0095 293.497C72.3306 292.18 76.7122 288.203 78.4389 283.118C78.5037 282.891 78.5474 282.679 78.5756 282.511L78.5763 282.504H53.6491L53.6653 282.131C53.9119 276.435 58.5621 271.974 64.2524 271.974H79.933L79.94 271.914L79.9724 271.78C82.8388 260.133 93.194 252 105.153 252H133.848V252.358C133.848 256.186 131.778 259.734 128.446 261.618C126.371 262.558 124.126 262.57 124.031 262.57L107.125 262.57C107.038 262.57 106.951 262.569 106.866 262.569C104.315 262.569 102.408 262.944 102.043 263.022C95.9546 264.525 91.2439 269.682 90.3327 275.851C89.9986 278.098 90.1459 280.425 90.7598 282.581C91.3426 284.63 92.3864 286.576 93.7776 288.208C95.1583 289.826 96.8983 291.158 98.8118 292.061C100.782 292.99 102.98 293.481 105.169 293.481H133.852L133.836 293.854C133.596 299.385 129.204 303.752 123.739 304Z" fill="#09235C" fill-opacity="0.5"/>
<path fill-rule="evenodd" clip-rule="evenodd" d="M123.739 380H104.85C97.0583 379.772 89.6286 376.027 84.7656 369.865C80.0176 376.027 72.697 379.772 64.9769 380H51.6362C44.838 379.8 38.2427 376.916 33.4375 372.016C28.731 367.216 26.1092 360.997 26 354.424V353.566C26 353.562 26 353.558 26 353.553C26.241 339.463 37.8762 328 51.9372 328H72.3961V328.358C72.3961 331.881 70.6581 335.168 67.7474 337.151C65.5267 338.534 62.6173 338.55 62.494 338.55L53.907 338.552C53.821 338.551 53.7358 338.551 53.6505 338.551C51.0837 338.551 49.1899 338.925 48.8256 339.002C42.6961 340.516 37.9805 345.712 37.103 351.928C36.9621 352.903 36.9579 353.886 36.9712 354.719C37.0868 361.73 41.9723 367.813 48.8517 369.512C49.204 369.587 51.0837 369.961 53.6392 369.961C53.7315 369.961 53.8246 369.961 53.9183 369.96H61.8682C61.9556 369.96 62.0422 369.961 62.1289 369.961C64.9375 369.961 66.9884 369.502 67.0095 369.497C72.3306 368.18 76.7122 364.203 78.4389 359.118C78.5037 358.891 78.5474 358.679 78.5756 358.511L78.5763 358.504H53.6491L53.6653 358.131C53.9119 352.435 58.5621 347.974 64.2524 347.974H79.933L79.94 347.914L79.9724 347.78C82.8388 336.133 93.194 328 105.153 328H133.848V328.358C133.848 332.186 131.778 335.734 128.446 337.618C126.371 338.558 124.126 338.57 124.031 338.57L107.125 338.57C107.038 338.57 106.951 338.569 106.866 338.569C104.315 338.569 102.408 338.944 102.043 339.022C95.9546 340.525 91.2439 345.682 90.3327 351.851C89.9986 354.098 90.1459 356.425 90.7598 358.581C91.3426 360.63 92.3864 362.576 93.7776 364.208C95.1583 365.826 96.8983 367.158 98.8118 368.061C100.782 368.99 102.98 369.481 105.169 369.481H133.852L133.836 369.854C133.596 375.385 129.204 379.752 123.739 380Z" fill="#09235C" fill-opacity="0.5"/>
<path fill-rule="evenodd" clip-rule="evenodd" d="M257.739 76H238.85C231.058 75.7716 223.629 72.0275 218.766 65.8654C214.018 72.0275 206.697 75.7716 198.977 76H185.636C178.838 75.8003 172.243 72.9158 167.438 68.0158C162.731 63.2156 160.109 56.997 160 50.4236V49.5659C160 49.5617 160 49.5576 160 49.5534C160.241 35.463 171.876 24 185.937 24H206.396V24.3576C206.396 27.8811 204.658 31.1678 201.747 33.1512C199.527 34.5341 196.617 34.5502 196.494 34.5502L187.907 34.5516C187.821 34.5509 187.736 34.5509 187.65 34.5509C185.084 34.5509 183.19 34.9245 182.826 35.002C176.696 36.5162 171.98 41.7116 171.103 47.9282C170.962 48.9032 170.958 49.8858 170.971 50.719C171.087 57.7303 175.972 63.8135 182.852 65.512C183.204 65.5867 185.084 65.9611 187.639 65.9611C187.732 65.9611 187.825 65.9611 187.918 65.9597H195.868C195.956 65.9604 196.042 65.9611 196.129 65.9611C198.937 65.9611 200.988 65.5015 201.01 65.4966C206.331 64.1801 210.712 60.2034 212.439 55.1183C212.504 54.8913 212.547 54.679 212.576 54.5107L212.576 54.5037H187.649L187.665 54.1307C187.912 48.4352 192.562 43.9738 198.252 43.9738H213.933L213.94 43.9144L213.972 43.7803C216.839 32.133 227.194 24 239.153 24H267.848V24.3576C267.848 28.1863 265.778 31.7342 262.446 33.6178C260.371 34.5578 258.126 34.5697 258.031 34.5697L241.125 34.5704C241.038 34.5697 240.951 34.569 240.866 34.569C238.315 34.569 236.408 34.9441 236.043 35.0216C229.955 36.5253 225.244 41.6816 224.333 47.8507C223.999 50.0981 224.146 52.4252 224.76 54.5805C225.343 56.6303 226.386 58.5761 227.778 60.2083C229.158 61.8258 230.898 63.1584 232.812 64.0607C234.782 64.9896 236.98 65.4806 239.169 65.4806H267.852L267.836 65.8542C267.596 71.3849 263.204 75.7521 257.739 76Z" fill="#09235C" fill-opacity="0.5"/>
<path fill-rule="evenodd" clip-rule="evenodd" d="M257.739 152H238.85C231.058 151.772 223.629 148.027 218.766 141.865C214.018 148.027 206.697 151.772 198.977 152H185.636C178.838 151.8 172.243 148.916 167.438 144.016C162.731 139.216 160.109 132.997 160 126.424V125.566C160 125.562 160 125.558 160 125.553C160.241 111.463 171.876 100 185.937 100H206.396V100.358C206.396 103.881 204.658 107.168 201.747 109.151C199.527 110.534 196.617 110.55 196.494 110.55L187.907 110.552C187.821 110.551 187.736 110.551 187.65 110.551C185.084 110.551 183.19 110.925 182.826 111.002C176.696 112.516 171.98 117.712 171.103 123.928C170.962 124.903 170.958 125.886 170.971 126.719C171.087 133.73 175.972 139.813 182.852 141.512C183.204 141.587 185.084 141.961 187.639 141.961C187.732 141.961 187.825 141.961 187.918 141.96H195.868C195.956 141.96 196.042 141.961 196.129 141.961C198.937 141.961 200.988 141.502 201.01 141.497C206.331 140.18 210.712 136.203 212.439 131.118C212.504 130.891 212.547 130.679 212.576 130.511L212.576 130.504H187.649L187.665 130.131C187.912 124.435 192.562 119.974 198.252 119.974H213.933L213.94 119.914L213.972 119.78C216.839 108.133 227.194 100 239.153 100H267.848V100.358C267.848 104.186 265.778 107.734 262.446 109.618C260.371 110.558 258.126 110.57 258.031 110.57L241.125 110.57C241.038 110.57 240.951 110.569 240.866 110.569C238.315 110.569 236.408 110.944 236.043 111.022C229.955 112.525 225.244 117.682 224.333 123.851C223.999 126.098 224.146 128.425 224.76 130.581C225.343 132.63 226.386 134.576 227.778 136.208C229.158 137.826 230.898 139.158 232.812 140.061C234.782 140.99 236.98 141.481 239.169 141.481H267.852L267.836 141.854C267.596 147.385 263.204 151.752 257.739 152Z" fill="#09235C" fill-opacity="0.5"/>
<path fill-rule="evenodd" clip-rule="evenodd" d="M257.739 228H238.85C231.058 227.772 223.629 224.027 218.766 217.865C214.018 224.027 206.697 227.772 198.977 228H185.636C178.838 227.8 172.243 224.916 167.438 220.016C162.731 215.216 160.109 208.997 160 202.424V201.566C160 201.562 160 201.558 160 201.553C160.241 187.463 171.876 176 185.937 176H206.396V176.358C206.396 179.881 204.658 183.168 201.747 185.151C199.527 186.534 196.617 186.55 196.494 186.55L187.907 186.552C187.821 186.551 187.736 186.551 187.65 186.551C185.084 186.551 183.19 186.925 182.826 187.002C176.696 188.516 171.98 193.712 171.103 199.928C170.962 200.903 170.958 201.886 170.971 202.719C171.087 209.73 175.972 215.813 182.852 217.512C183.204 217.587 185.084 217.961 187.639 217.961C187.732 217.961 187.825 217.961 187.918 217.96H195.868C195.956 217.96 196.042 217.961 196.129 217.961C198.937 217.961 200.988 217.502 201.01 217.497C206.331 216.18 210.712 212.203 212.439 207.118C212.504 206.891 212.547 206.679 212.576 206.511L212.576 206.504H187.649L187.665 206.131C187.912 200.435 192.562 195.974 198.252 195.974H213.933L213.94 195.914L213.972 195.78C216.839 184.133 227.194 176 239.153 176H267.848V176.358C267.848 180.186 265.778 183.734 262.446 185.618C260.371 186.558 258.126 186.57 258.031 186.57L241.125 186.57C241.038 186.57 240.951 186.569 240.866 186.569C238.315 186.569 236.408 186.944 236.043 187.022C229.955 188.525 225.244 193.682 224.333 199.851C223.999 202.098 224.146 204.425 224.76 206.581C225.343 208.63 226.386 210.576 227.778 212.208C229.158 213.826 230.898 215.158 232.812 216.061C234.782 216.99 236.98 217.481 239.169 217.481H267.852L267.836 217.854C267.596 223.385 263.204 227.752 257.739 228Z" fill="#09235C" fill-opacity="0.5"/>
<path fill-rule="evenodd" clip-rule="evenodd" d="M257.739 304H238.85C231.058 303.772 223.629 300.027 218.766 293.865C214.018 300.027 206.697 303.772 198.977 304H185.636C178.838 303.8 172.243 300.916 167.438 296.016C162.731 291.216 160.109 284.997 160 278.424V277.566C160 277.562 160 277.558 160 277.553C160.241 263.463 171.876 252 185.937 252H206.396V252.358C206.396 255.881 204.658 259.168 201.747 261.151C199.527 262.534 196.617 262.55 196.494 262.55L187.907 262.552C187.821 262.551 187.736 262.551 187.65 262.551C185.084 262.551 183.19 262.925 182.826 263.002C176.696 264.516 171.98 269.712 171.103 275.928C170.962 276.903 170.958 277.886 170.971 278.719C171.087 285.73 175.972 291.813 182.852 293.512C183.204 293.587 185.084 293.961 187.639 293.961C187.732 293.961 187.825 293.961 187.918 293.96H195.868C195.956 293.96 196.042 293.961 196.129 293.961C198.937 293.961 200.988 293.502 201.01 293.497C206.331 292.18 210.712 288.203 212.439 283.118C212.504 282.891 212.547 282.679 212.576 282.511L212.576 282.504H187.649L187.665 282.131C187.912 276.435 192.562 271.974 198.252 271.974H213.933L213.94 271.914L213.972 271.78C216.839 260.133 227.194 252 239.153 252H267.848V252.358C267.848 256.186 265.778 259.734 262.446 261.618C260.371 262.558 258.126 262.57 258.031 262.57L241.125 262.57C241.038 262.57 240.951 262.569 240.866 262.569C238.315 262.569 236.408 262.944 236.043 263.022C229.955 264.525 225.244 269.682 224.333 275.851C223.999 278.098 224.146 280.425 224.76 282.581C225.343 284.63 226.386 286.576 227.778 288.208C229.158 289.826 230.898 291.158 232.812 292.061C234.782 292.99 236.98 293.481 239.169 293.481H267.852L267.836 293.854C267.596 299.385 263.204 303.752 257.739 304Z" fill="#09235C" fill-opacity="0.5"/>
<path fill-rule="evenodd" clip-rule="evenodd" d="M257.739 380H238.85C231.058 379.772 223.629 376.027 218.766 369.865C214.018 376.027 206.697 379.772 198.977 380H185.636C178.838 379.8 172.243 376.916 167.438 372.016C162.731 367.216 160.109 360.997 160 354.424V353.566C160 353.562 160 353.558 160 353.553C160.241 339.463 171.876 328 185.937 328H206.396V328.358C206.396 331.881 204.658 335.168 201.747 337.151C199.527 338.534 196.617 338.55 196.494 338.55L187.907 338.552C187.821 338.551 187.736 338.551 187.65 338.551C185.084 338.551 183.19 338.925 182.826 339.002C176.696 340.516 171.98 345.712 171.103 351.928C170.962 352.903 170.958 353.886 170.971 354.719C171.087 361.73 175.972 367.813 182.852 369.512C183.204 369.587 185.084 369.961 187.639 369.961C187.732 369.961 187.825 369.961 187.918 369.96H195.868C195.956 369.96 196.042 369.961 196.129 369.961C198.937 369.961 200.988 369.502 201.01 369.497C206.331 368.18 210.712 364.203 212.439 359.118C212.504 358.891 212.547 358.679 212.576 358.511L212.576 358.504H187.649L187.665 358.131C187.912 352.435 192.562 347.974 198.252 347.974H213.933L213.94 347.914L213.972 347.78C216.839 336.133 227.194 328 239.153 328H267.848V328.358C267.848 332.186 265.778 335.734 262.446 337.618C260.371 338.558 258.126 338.57 258.031 338.57L241.125 338.57C241.038 338.57 240.951 338.569 240.866 338.569C238.315 338.569 236.408 338.944 236.043 339.022C229.955 340.525 225.244 345.682 224.333 351.851C223.999 354.098 224.146 356.425 224.76 358.581C225.343 360.63 226.386 362.576 227.778 364.208C229.158 365.826 230.898 367.158 232.812 368.061C234.782 368.99 236.98 369.481 239.169 369.481H267.852L267.836 369.854C267.596 375.385 263.204 379.752 257.739 380Z" fill="#09235C" fill-opacity="0.5"/>
<path fill-rule="evenodd" clip-rule="evenodd" d="M391.739 76H372.85C365.058 75.7716 357.629 72.0275 352.766 65.8654C348.018 72.0275 340.697 75.7716 332.977 76H319.636C312.838 75.8003 306.243 72.9158 301.438 68.0158C296.731 63.2156 294.109 56.997 294 50.4236V49.5659C294 49.5617 294 49.5576 294 49.5534C294.241 35.463 305.876 24 319.937 24H340.396V24.3576C340.396 27.8811 338.658 31.1678 335.747 33.1512C333.527 34.5341 330.617 34.5502 330.494 34.5502L321.907 34.5516C321.821 34.5509 321.736 34.5509 321.65 34.5509C319.084 34.5509 317.19 34.9245 316.826 35.002C310.696 36.5162 305.98 41.7116 305.103 47.9282C304.962 48.9032 304.958 49.8858 304.971 50.719C305.087 57.7303 309.972 63.8135 316.852 65.512C317.204 65.5867 319.084 65.9611 321.639 65.9611C321.732 65.9611 321.825 65.9611 321.918 65.9597H329.868C329.956 65.9604 330.042 65.9611 330.129 65.9611C332.937 65.9611 334.988 65.5015 335.01 65.4966C340.331 64.1801 344.712 60.2034 346.439 55.1183C346.504 54.8913 346.547 54.679 346.576 54.5107L346.576 54.5037H321.649L321.665 54.1307C321.912 48.4352 326.562 43.9738 332.252 43.9738H347.933L347.94 43.9144L347.972 43.7803C350.839 32.133 361.194 24 373.153 24H401.848V24.3576C401.848 28.1863 399.778 31.7342 396.446 33.6178C394.371 34.5578 392.126 34.5697 392.031 34.5697L375.125 34.5704C375.038 34.5697 374.951 34.569 374.866 34.569C372.315 34.569 370.408 34.9441 370.043 35.0216C363.955 36.5253 359.244 41.6816 358.333 47.8507C357.999 50.0981 358.146 52.4252 358.76 54.5805C359.343 56.6303 360.386 58.5761 361.778 60.2083C363.158 61.8258 364.898 63.1584 366.812 64.0607C368.782 64.9896 370.98 65.4806 373.169 65.4806H401.852L401.836 65.8542C401.596 71.3849 397.204 75.7521 391.739 76Z" fill="#09235C" fill-opacity="0.5"/>
<path fill-rule="evenodd" clip-rule="evenodd" d="M391.739 152H372.85C365.058 151.772 357.629 148.027 352.766 141.865C348.018 148.027 340.697 151.772 332.977 152H319.636C312.838 151.8 306.243 148.916 301.438 144.016C296.731 139.216 294.109 132.997 294 126.424V125.566C294 125.562 294 125.558 294 125.553C294.241 111.463 305.876 100 319.937 100H340.396V100.358C340.396 103.881 338.658 107.168 335.747 109.151C333.527 110.534 330.617 110.55 330.494 110.55L321.907 110.552C321.821 110.551 321.736 110.551 321.65 110.551C319.084 110.551 317.19 110.925 316.826 111.002C310.696 112.516 305.98 117.712 305.103 123.928C304.962 124.903 304.958 125.886 304.971 126.719C305.087 133.73 309.972 139.813 316.852 141.512C317.204 141.587 319.084 141.961 321.639 141.961C321.732 141.961 321.825 141.961 321.918 141.96H329.868C329.956 141.96 330.042 141.961 330.129 141.961C332.937 141.961 334.988 141.502 335.01 141.497C340.331 140.18 344.712 136.203 346.439 131.118C346.504 130.891 346.547 130.679 346.576 130.511L346.576 130.504H321.649L321.665 130.131C321.912 124.435 326.562 119.974 332.252 119.974H347.933L347.94 119.914L347.972 119.78C350.839 108.133 361.194 100 373.153 100H401.848V100.358C401.848 104.186 399.778 107.734 396.446 109.618C394.371 110.558 392.126 110.57 392.031 110.57L375.125 110.57C375.038 110.57 374.951 110.569 374.866 110.569C372.315 110.569 370.408 110.944 370.043 111.022C363.955 112.525 359.244 117.682 358.333 123.851C357.999 126.098 358.146 128.425 358.76 130.581C359.343 132.63 360.386 134.576 361.778 136.208C363.158 137.826 364.898 139.158 366.812 140.061C368.782 140.99 370.98 141.481 373.169 141.481H401.852L401.836 141.854C401.596 147.385 397.204 151.752 391.739 152Z" fill="#09235C" fill-opacity="0.5"/>
<path fill-rule="evenodd" clip-rule="evenodd" d="M391.739 228H372.85C365.058 227.772 357.629 224.027 352.766 217.865C348.018 224.027 340.697 227.772 332.977 228H319.636C312.838 227.8 306.243 224.916 301.438 220.016C296.731 215.216 294.109 208.997 294 202.424V201.566C294 201.562 294 201.558 294 201.553C294.241 187.463 305.876 176 319.937 176H340.396V176.358C340.396 179.881 338.658 183.168 335.747 185.151C333.527 186.534 330.617 186.55 330.494 186.55L321.907 186.552C321.821 186.551 321.736 186.551 321.65 186.551C319.084 186.551 317.19 186.925 316.826 187.002C310.696 188.516 305.98 193.712 305.103 199.928C304.962 200.903 304.958 201.886 304.971 202.719C305.087 209.73 309.972 215.813 316.852 217.512C317.204 217.587 319.084 217.961 321.639 217.961C321.732 217.961 321.825 217.961 321.918 217.96H329.868C329.956 217.96 330.042 217.961 330.129 217.961C332.937 217.961 334.988 217.502 335.01 217.497C340.331 216.18 344.712 212.203 346.439 207.118C346.504 206.891 346.547 206.679 346.576 206.511L346.576 206.504H321.649L321.665 206.131C321.912 200.435 326.562 195.974 332.252 195.974H347.933L347.94 195.914L347.972 195.78C350.839 184.133 361.194 176 373.153 176H401.848V176.358C401.848 180.186 399.778 183.734 396.446 185.618C394.371 186.558 392.126 186.57 392.031 186.57L375.125 186.57C375.038 186.57 374.951 186.569 374.866 186.569C372.315 186.569 370.408 186.944 370.043 187.022C363.955 188.525 359.244 193.682 358.333 199.851C357.999 202.098 358.146 204.425 358.76 206.581C359.343 208.63 360.386 210.576 361.778 212.208C363.158 213.826 364.898 215.158 366.812 216.061C368.782 216.99 370.98 217.481 373.169 217.481H401.852L401.836 217.854C401.596 223.385 397.204 227.752 391.739 228Z" fill="#09235C" fill-opacity="0.5"/>
<path fill-rule="evenodd" clip-rule="evenodd" d="M391.739 304H372.85C365.058 303.772 357.629 300.027 352.766 293.865C348.018 300.027 340.697 303.772 332.977 304H319.636C312.838 303.8 306.243 300.916 301.438 296.016C296.731 291.216 294.109 284.997 294 278.424V277.566C294 277.562 294 277.558 294 277.553C294.241 263.463 305.876 252 319.937 252H340.396V252.358C340.396 255.881 338.658 259.168 335.747 261.151C333.527 262.534 330.617 262.55 330.494 262.55L321.907 262.552C321.821 262.551 321.736 262.551 321.65 262.551C319.084 262.551 317.19 262.925 316.826 263.002C310.696 264.516 305.98 269.712 305.103 275.928C304.962 276.903 304.958 277.886 304.971 278.719C305.087 285.73 309.972 291.813 316.852 293.512C317.204 293.587 319.084 293.961 321.639 293.961C321.732 293.961 321.825 293.961 321.918 293.96H329.868C329.956 293.96 330.042 293.961 330.129 293.961C332.937 293.961 334.988 293.502 335.01 293.497C340.331 292.18 344.712 288.203 346.439 283.118C346.504 282.891 346.547 282.679 346.576 282.511L346.576 282.504H321.649L321.665 282.131C321.912 276.435 326.562 271.974 332.252 271.974H347.933L347.94 271.914L347.972 271.78C350.839 260.133 361.194 252 373.153 252H401.848V252.358C401.848 256.186 399.778 259.734 396.446 261.618C394.371 262.558 392.126 262.57 392.031 262.57L375.125 262.57C375.038 262.57 374.951 262.569 374.866 262.569C372.315 262.569 370.408 262.944 370.043 263.022C363.955 264.525 359.244 269.682 358.333 275.851C357.999 278.098 358.146 280.425 358.76 282.581C359.343 284.63 360.386 286.576 361.778 288.208C363.158 289.826 364.898 291.158 366.812 292.061C368.782 292.99 370.98 293.481 373.169 293.481H401.852L401.836 293.854C401.596 299.385 397.204 303.752 391.739 304Z" fill="#09235C" fill-opacity="0.5"/>
<path fill-rule="evenodd" clip-rule="evenodd" d="M391.739 380H372.85C365.058 379.772 357.629 376.027 352.766 369.865C348.018 376.027 340.697 379.772 332.977 380H319.636C312.838 379.8 306.243 376.916 301.438 372.016C296.731 367.216 294.109 360.997 294 354.424V353.566C294 353.562 294 353.558 294 353.553C294.241 339.463 305.876 328 319.937 328H340.396V328.358C340.396 331.881 338.658 335.168 335.747 337.151C333.527 338.534 330.617 338.55 330.494 338.55L321.907 338.552C321.821 338.551 321.736 338.551 321.65 338.551C319.084 338.551 317.19 338.925 316.826 339.002C310.696 340.516 305.98 345.712 305.103 351.928C304.962 352.903 304.958 353.886 304.971 354.719C305.087 361.73 309.972 367.813 316.852 369.512C317.204 369.587 319.084 369.961 321.639 369.961C321.732 369.961 321.825 369.961 321.918 369.96H329.868C329.956 369.96 330.042 369.961 330.129 369.961C332.937 369.961 334.988 369.502 335.01 369.497C340.331 368.18 344.712 364.203 346.439 359.118C346.504 358.891 346.547 358.679 346.576 358.511L346.576 358.504H321.649L321.665 358.131C321.912 352.435 326.562 347.974 332.252 347.974H347.933L347.94 347.914L347.972 347.78C350.839 336.133 361.194 328 373.153 328H401.848V328.358C401.848 332.186 399.778 335.734 396.446 337.618C394.371 338.558 392.126 338.57 392.031 338.57L375.125 338.57C375.038 338.57 374.951 338.569 374.866 338.569C372.315 338.569 370.408 338.944 370.043 339.022C363.955 340.525 359.244 345.682 358.333 351.851C357.999 354.098 358.146 356.425 358.76 358.581C359.343 360.63 360.386 362.576 361.778 364.208C363.158 365.826 364.898 367.158 366.812 368.061C368.782 368.99 370.98 369.481 373.169 369.481H401.852L401.836 369.854C401.596 375.385 397.204 379.752 391.739 380Z" fill="#09235C" fill-opacity="0.5"/>
<path fill-rule="evenodd" clip-rule="evenodd" d="M525.739 76H506.85C499.058 75.7716 491.629 72.0275 486.766 65.8654C482.018 72.0275 474.697 75.7716 466.977 76H453.636C446.838 75.8003 440.243 72.9158 435.438 68.0158C430.731 63.2156 428.109 56.997 428 50.4236V49.5659C428 49.5617 428 49.5576 428 49.5534C428.241 35.463 439.876 24 453.937 24H474.396V24.3576C474.396 27.8811 472.658 31.1678 469.747 33.1512C467.527 34.5341 464.617 34.5502 464.494 34.5502L455.907 34.5516C455.821 34.5509 455.736 34.5509 455.65 34.5509C453.084 34.5509 451.19 34.9245 450.826 35.002C444.696 36.5162 439.98 41.7116 439.103 47.9282C438.962 48.9032 438.958 49.8858 438.971 50.719C439.087 57.7303 443.972 63.8135 450.852 65.512C451.204 65.5867 453.084 65.9611 455.639 65.9611C455.732 65.9611 455.825 65.9611 455.918 65.9597H463.868C463.956 65.9604 464.042 65.9611 464.129 65.9611C466.937 65.9611 468.988 65.5015 469.01 65.4966C474.331 64.1801 478.712 60.2034 480.439 55.1183C480.504 54.8913 480.547 54.679 480.576 54.5107L480.576 54.5037H455.649L455.665 54.1307C455.912 48.4352 460.562 43.9738 466.252 43.9738H481.933L481.94 43.9144L481.972 43.7803C484.839 32.133 495.194 24 507.153 24H535.848V24.3576C535.848 28.1863 533.778 31.7342 530.446 33.6178C528.371 34.5578 526.126 34.5697 526.031 34.5697L509.125 34.5704C509.038 34.5697 508.951 34.569 508.866 34.569C506.315 34.569 504.408 34.9441 504.043 35.0216C497.955 36.5253 493.244 41.6816 492.333 47.8507C491.999 50.0981 492.146 52.4252 492.76 54.5805C493.343 56.6303 494.386 58.5761 495.778 60.2083C497.158 61.8258 498.898 63.1584 500.812 64.0607C502.782 64.9896 504.98 65.4806 507.169 65.4806H535.852L535.836 65.8542C535.596 71.3849 531.204 75.7521 525.739 76Z" fill="#09235C" fill-opacity="0.5"/>
<path fill-rule="evenodd" clip-rule="evenodd" d="M525.739 152H506.85C499.058 151.772 491.629 148.027 486.766 141.865C482.018 148.027 474.697 151.772 466.977 152H453.636C446.838 151.8 440.243 148.916 435.438 144.016C430.731 139.216 428.109 132.997 428 126.424V125.566C428 125.562 428 125.558 428 125.553C428.241 111.463 439.876 100 453.937 100H474.396V100.358C474.396 103.881 472.658 107.168 469.747 109.151C467.527 110.534 464.617 110.55 464.494 110.55L455.907 110.552C455.821 110.551 455.736 110.551 455.65 110.551C453.084 110.551 451.19 110.925 450.826 111.002C444.696 112.516 439.98 117.712 439.103 123.928C438.962 124.903 438.958 125.886 438.971 126.719C439.087 133.73 443.972 139.813 450.852 141.512C451.204 141.587 453.084 141.961 455.639 141.961C455.732 141.961 455.825 141.961 455.918 141.96H463.868C463.956 141.96 464.042 141.961 464.129 141.961C466.937 141.961 468.988 141.502 469.01 141.497C474.331 140.18 478.712 136.203 480.439 131.118C480.504 130.891 480.547 130.679 480.576 130.511L480.576 130.504H455.649L455.665 130.131C455.912 124.435 460.562 119.974 466.252 119.974H481.933L481.94 119.914L481.972 119.78C484.839 108.133 495.194 100 507.153 100H535.848V100.358C535.848 104.186 533.778 107.734 530.446 109.618C528.371 110.558 526.126 110.57 526.031 110.57L509.125 110.57C509.038 110.57 508.951 110.569 508.866 110.569C506.315 110.569 504.408 110.944 504.043 111.022C497.955 112.525 493.244 117.682 492.333 123.851C491.999 126.098 492.146 128.425 492.76 130.581C493.343 132.63 494.386 134.576 495.778 136.208C497.158 137.826 498.898 139.158 500.812 140.061C502.782 140.99 504.98 141.481 507.169 141.481H535.852L535.836 141.854C535.596 147.385 531.204 151.752 525.739 152Z" fill="#09235C" fill-opacity="0.5"/>
<path fill-rule="evenodd" clip-rule="evenodd" d="M525.739 228H506.85C499.058 227.772 491.629 224.027 486.766 217.865C482.018 224.027 474.697 227.772 466.977 228H453.636C446.838 227.8 440.243 224.916 435.438 220.016C430.731 215.216 428.109 208.997 428 202.424V201.566C428 201.562 428 201.558 428 201.553C428.241 187.463 439.876 176 453.937 176H474.396V176.358C474.396 179.881 472.658 183.168 469.747 185.151C467.527 186.534 464.617 186.55 464.494 186.55L455.907 186.552C455.821 186.551 455.736 186.551 455.65 186.551C453.084 186.551 451.19 186.925 450.826 187.002C444.696 188.516 439.98 193.712 439.103 199.928C438.962 200.903 438.958 201.886 438.971 202.719C439.087 209.73 443.972 215.813 450.852 217.512C451.204 217.587 453.084 217.961 455.639 217.961C455.732 217.961 455.825 217.961 455.918 217.96H463.868C463.956 217.96 464.042 217.961 464.129 217.961C466.937 217.961 468.988 217.502 469.01 217.497C474.331 216.18 478.712 212.203 480.439 207.118C480.504 206.891 480.547 206.679 480.576 206.511L480.576 206.504H455.649L455.665 206.131C455.912 200.435 460.562 195.974 466.252 195.974H481.933L481.94 195.914L481.972 195.78C484.839 184.133 495.194 176 507.153 176H535.848V176.358C535.848 180.186 533.778 183.734 530.446 185.618C528.371 186.558 526.126 186.57 526.031 186.57L509.125 186.57C509.038 186.57 508.951 186.569 508.866 186.569C506.315 186.569 504.408 186.944 504.043 187.022C497.955 188.525 493.244 193.682 492.333 199.851C491.999 202.098 492.146 204.425 492.76 206.581C493.343 208.63 494.386 210.576 495.778 212.208C497.158 213.826 498.898 215.158 500.812 216.061C502.782 216.99 504.98 217.481 507.169 217.481H535.852L535.836 217.854C535.596 223.385 531.204 227.752 525.739 228Z" fill="#09235C" fill-opacity="0.5"/>
<path fill-rule="evenodd" clip-rule="evenodd" d="M525.739 304H506.85C499.058 303.772 491.629 300.027 486.766 293.865C482.018 300.027 474.697 303.772 466.977 304H453.636C446.838 303.8 440.243 300.916 435.438 296.016C430.731 291.216 428.109 284.997 428 278.424V277.566C428 277.562 428 277.558 428 277.553C428.241 263.463 439.876 252 453.937 252H474.396V252.358C474.396 255.881 472.658 259.168 469.747 261.151C467.527 262.534 464.617 262.55 464.494 262.55L455.907 262.552C455.821 262.551 455.736 262.551 455.65 262.551C453.084 262.551 451.19 262.925 450.826 263.002C444.696 264.516 439.98 269.712 439.103 275.928C438.962 276.903 438.958 277.886 438.971 278.719C439.087 285.73 443.972 291.813 450.852 293.512C451.204 293.587 453.084 293.961 455.639 293.961C455.732 293.961 455.825 293.961 455.918 293.96H463.868C463.956 293.96 464.042 293.961 464.129 293.961C466.937 293.961 468.988 293.502 469.01 293.497C474.331 292.18 478.712 288.203 480.439 283.118C480.504 282.891 480.547 282.679 480.576 282.511L480.576 282.504H455.649L455.665 282.131C455.912 276.435 460.562 271.974 466.252 271.974H481.933L481.94 271.914L481.972 271.78C484.839 260.133 495.194 252 507.153 252H535.848V252.358C535.848 256.186 533.778 259.734 530.446 261.618C528.371 262.558 526.126 262.57 526.031 262.57L509.125 262.57C509.038 262.57 508.951 262.569 508.866 262.569C506.315 262.569 504.408 262.944 504.043 263.022C497.955 264.525 493.244 269.682 492.333 275.851C491.999 278.098 492.146 280.425 492.76 282.581C493.343 284.63 494.386 286.576 495.778 288.208C497.158 289.826 498.898 291.158 500.812 292.061C502.782 292.99 504.98 293.481 507.169 293.481H535.852L535.836 293.854C535.596 299.385 531.204 303.752 525.739 304Z" fill="#09235C" fill-opacity="0.5"/>
<path fill-rule="evenodd" clip-rule="evenodd" d="M525.739 380H506.85C499.058 379.772 491.629 376.027 486.766 369.865C482.018 376.027 474.697 379.772 466.977 380H453.636C446.838 379.8 440.243 376.916 435.438 372.016C430.731 367.216 428.109 360.997 428 354.424V353.566C428 353.562 428 353.558 428 353.553C428.241 339.463 439.876 328 453.937 328H474.396V328.358C474.396 331.881 472.658 335.168 469.747 337.151C467.527 338.534 464.617 338.55 464.494 338.55L455.907 338.552C455.821 338.551 455.736 338.551 455.65 338.551C453.084 338.551 451.19 338.925 450.826 339.002C444.696 340.516 439.98 345.712 439.103 351.928C438.962 352.903 438.958 353.886 438.971 354.719C439.087 361.73 443.972 367.813 450.852 369.512C451.204 369.587 453.084 369.961 455.639 369.961C455.732 369.961 455.825 369.961 455.918 369.96H463.868C463.956 369.96 464.042 369.961 464.129 369.961C466.937 369.961 468.988 369.502 469.01 369.497C474.331 368.18 478.712 364.203 480.439 359.118C480.504 358.891 480.547 358.679 480.576 358.511L480.576 358.504H455.649L455.665 358.131C455.912 352.435 460.562 347.974 466.252 347.974H481.933L481.94 347.914L481.972 347.78C484.839 336.133 495.194 328 507.153 328H535.848V328.358C535.848 332.186 533.778 335.734 530.446 337.618C528.371 338.558 526.126 338.57 526.031 338.57L509.125 338.57C509.038 338.57 508.951 338.569 508.866 338.569C506.315 338.569 504.408 338.944 504.043 339.022C497.955 340.525 493.244 345.682 492.333 351.851C491.999 354.098 492.146 356.425 492.76 358.581C493.343 360.63 494.386 362.576 495.778 364.208C497.158 365.826 498.898 367.158 500.812 368.061C502.782 368.99 504.98 369.481 507.169 369.481H535.852L535.836 369.854C535.596 375.385 531.204 379.752 525.739 380Z" fill="#09235C" fill-opacity="0.5"/>
<path fill-rule="evenodd" clip-rule="evenodd" d="M659.739 76H640.85C633.058 75.7716 625.629 72.0275 620.766 65.8654C616.018 72.0275 608.697 75.7716 600.977 76H587.636C580.838 75.8003 574.243 72.9158 569.438 68.0158C564.731 63.2156 562.109 56.997 562 50.4236V49.5659C562 49.5617 562 49.5576 562 49.5534C562.241 35.463 573.876 24 587.937 24H608.396V24.3576C608.396 27.8811 606.658 31.1678 603.747 33.1512C601.527 34.5341 598.617 34.5502 598.494 34.5502L589.907 34.5516C589.821 34.5509 589.736 34.5509 589.65 34.5509C587.084 34.5509 585.19 34.9245 584.826 35.002C578.696 36.5162 573.98 41.7116 573.103 47.9282C572.962 48.9032 572.958 49.8858 572.971 50.719C573.087 57.7303 577.972 63.8135 584.852 65.512C585.204 65.5867 587.084 65.9611 589.639 65.9611C589.732 65.9611 589.825 65.9611 589.918 65.9597H597.868C597.956 65.9604 598.042 65.9611 598.129 65.9611C600.937 65.9611 602.988 65.5015 603.01 65.4966C608.331 64.1801 612.712 60.2034 614.439 55.1183C614.504 54.8913 614.547 54.679 614.576 54.5107L614.576 54.5037H589.649L589.665 54.1307C589.912 48.4352 594.562 43.9738 600.252 43.9738H615.933L615.94 43.9144L615.972 43.7803C618.839 32.133 629.194 24 641.153 24H669.848V24.3576C669.848 28.1863 667.778 31.7342 664.446 33.6178C662.371 34.5578 660.126 34.5697 660.031 34.5697L643.125 34.5704C643.038 34.5697 642.951 34.569 642.866 34.569C640.315 34.569 638.408 34.9441 638.043 35.0216C631.955 36.5253 627.244 41.6816 626.333 47.8507C625.999 50.0981 626.146 52.4252 626.76 54.5805C627.343 56.6303 628.386 58.5761 629.778 60.2083C631.158 61.8258 632.898 63.1584 634.812 64.0607C636.782 64.9896 638.98 65.4806 641.169 65.4806H669.852L669.836 65.8542C669.596 71.3849 665.204 75.7521 659.739 76Z" fill="#09235C" fill-opacity="0.5"/>
<path fill-rule="evenodd" clip-rule="evenodd" d="M659.739 152H640.85C633.058 151.772 625.629 148.027 620.766 141.865C616.018 148.027 608.697 151.772 600.977 152H587.636C580.838 151.8 574.243 148.916 569.438 144.016C564.731 139.216 562.109 132.997 562 126.424V125.566C562 125.562 562 125.558 562 125.553C562.241 111.463 573.876 100 587.937 100H608.396V100.358C608.396 103.881 606.658 107.168 603.747 109.151C601.527 110.534 598.617 110.55 598.494 110.55L589.907 110.552C589.821 110.551 589.736 110.551 589.65 110.551C587.084 110.551 585.19 110.925 584.826 111.002C578.696 112.516 573.98 117.712 573.103 123.928C572.962 124.903 572.958 125.886 572.971 126.719C573.087 133.73 577.972 139.813 584.852 141.512C585.204 141.587 587.084 141.961 589.639 141.961C589.732 141.961 589.825 141.961 589.918 141.96H597.868C597.956 141.96 598.042 141.961 598.129 141.961C600.937 141.961 602.988 141.502 603.01 141.497C608.331 140.18 612.712 136.203 614.439 131.118C614.504 130.891 614.547 130.679 614.576 130.511L614.576 130.504H589.649L589.665 130.131C589.912 124.435 594.562 119.974 600.252 119.974H615.933L615.94 119.914L615.972 119.78C618.839 108.133 629.194 100 641.153 100H669.848V100.358C669.848 104.186 667.778 107.734 664.446 109.618C662.371 110.558 660.126 110.57 660.031 110.57L643.125 110.57C643.038 110.57 642.951 110.569 642.866 110.569C640.315 110.569 638.408 110.944 638.043 111.022C631.955 112.525 627.244 117.682 626.333 123.851C625.999 126.098 626.146 128.425 626.76 130.581C627.343 132.63 628.386 134.576 629.778 136.208C631.158 137.826 632.898 139.158 634.812 140.061C636.782 140.99 638.98 141.481 641.169 141.481H669.852L669.836 141.854C669.596 147.385 665.204 151.752 659.739 152Z" fill="#09235C" fill-opacity="0.5"/>
<path fill-rule="evenodd" clip-rule="evenodd" d="M659.739 228H640.85C633.058 227.772 625.629 224.027 620.766 217.865C616.018 224.027 608.697 227.772 600.977 228H587.636C580.838 227.8 574.243 224.916 569.438 220.016C564.731 215.216 562.109 208.997 562 202.424V201.566C562 201.562 562 201.558 562 201.553C562.241 187.463 573.876 176 587.937 176H608.396V176.358C608.396 179.881 606.658 183.168 603.747 185.151C601.527 186.534 598.617 186.55 598.494 186.55L589.907 186.552C589.821 186.551 589.736 186.551 589.65 186.551C587.084 186.551 585.19 186.925 584.826 187.002C578.696 188.516 573.98 193.712 573.103 199.928C572.962 200.903 572.958 201.886 572.971 202.719C573.087 209.73 577.972 215.813 584.852 217.512C585.204 217.587 587.084 217.961 589.639 217.961C589.732 217.961 589.825 217.961 589.918 217.96H597.868C597.956 217.96 598.042 217.961 598.129 217.961C600.937 217.961 602.988 217.502 603.01 217.497C608.331 216.18 612.712 212.203 614.439 207.118C614.504 206.891 614.547 206.679 614.576 206.511L614.576 206.504H589.649L589.665 206.131C589.912 200.435 594.562 195.974 600.252 195.974H615.933L615.94 195.914L615.972 195.78C618.839 184.133 629.194 176 641.153 176H669.848V176.358C669.848 180.186 667.778 183.734 664.446 185.618C662.371 186.558 660.126 186.57 660.031 186.57L643.125 186.57C643.038 186.57 642.951 186.569 642.866 186.569C640.315 186.569 638.408 186.944 638.043 187.022C631.955 188.525 627.244 193.682 626.333 199.851C625.999 202.098 626.146 204.425 626.76 206.581C627.343 208.63 628.386 210.576 629.778 212.208C631.158 213.826 632.898 215.158 634.812 216.061C636.782 216.99 638.98 217.481 641.169 217.481H669.852L669.836 217.854C669.596 223.385 665.204 227.752 659.739 228Z" fill="#09235C" fill-opacity="0.5"/>
<path fill-rule="evenodd" clip-rule="evenodd" d="M659.739 304H640.85C633.058 303.772 625.629 300.027 620.766 293.865C616.018 300.027 608.697 303.772 600.977 304H587.636C580.838 303.8 574.243 300.916 569.438 296.016C564.731 291.216 562.109 284.997 562 278.424V277.566C562 277.562 562 277.558 562 277.553C562.241 263.463 573.876 252 587.937 252H608.396V252.358C608.396 255.881 606.658 259.168 603.747 261.151C601.527 262.534 598.617 262.55 598.494 262.55L589.907 262.552C589.821 262.551 589.736 262.551 589.65 262.551C587.084 262.551 585.19 262.925 584.826 263.002C578.696 264.516 573.98 269.712 573.103 275.928C572.962 276.903 572.958 277.886 572.971 278.719C573.087 285.73 577.972 291.813 584.852 293.512C585.204 293.587 587.084 293.961 589.639 293.961C589.732 293.961 589.825 293.961 589.918 293.96H597.868C597.956 293.96 598.042 293.961 598.129 293.961C600.937 293.961 602.988 293.502 603.01 293.497C608.331 292.18 612.712 288.203 614.439 283.118C614.504 282.891 614.547 282.679 614.576 282.511L614.576 282.504H589.649L589.665 282.131C589.912 276.435 594.562 271.974 600.252 271.974H615.933L615.94 271.914L615.972 271.78C618.839 260.133 629.194 252 641.153 252H669.848V252.358C669.848 256.186 667.778 259.734 664.446 261.618C662.371 262.558 660.126 262.57 660.031 262.57L643.125 262.57C643.038 262.57 642.951 262.569 642.866 262.569C640.315 262.569 638.408 262.944 638.043 263.022C631.955 264.525 627.244 269.682 626.333 275.851C625.999 278.098 626.146 280.425 626.76 282.581C627.343 284.63 628.386 286.576 629.778 288.208C631.158 289.826 632.898 291.158 634.812 292.061C636.782 292.99 638.98 293.481 641.169 293.481H669.852L669.836 293.854C669.596 299.385 665.204 303.752 659.739 304Z" fill="#09235C" fill-opacity="0.5"/>
<path fill-rule="evenodd" clip-rule="evenodd" d="M659.739 380H640.85C633.058 379.772 625.629 376.027 620.766 369.865C616.018 376.027 608.697 379.772 600.977 380H587.636C580.838 379.8 574.243 376.916 569.438 372.016C564.731 367.216 562.109 360.997 562 354.424V353.566C562 353.562 562 353.558 562 353.553C562.241 339.463 573.876 328 587.937 328H608.396V328.358C608.396 331.881 606.658 335.168 603.747 337.151C601.527 338.534 598.617 338.55 598.494 338.55L589.907 338.552C589.821 338.551 589.736 338.551 589.65 338.551C587.084 338.551 585.19 338.925 584.826 339.002C578.696 340.516 573.98 345.712 573.103 351.928C572.962 352.903 572.958 353.886 572.971 354.719C573.087 361.73 577.972 367.813 584.852 369.512C585.204 369.587 587.084 369.961 589.639 369.961C589.732 369.961 589.825 369.961 589.918 369.96H597.868C597.956 369.96 598.042 369.961 598.129 369.961C600.937 369.961 602.988 369.502 603.01 369.497C608.331 368.18 612.712 364.203 614.439 359.118C614.504 358.891 614.547 358.679 614.576 358.511L614.576 358.504H589.649L589.665 358.131C589.912 352.435 594.562 347.974 600.252 347.974H615.933L615.94 347.914L615.972 347.78C618.839 336.133 629.194 328 641.153 328H669.848V328.358C669.848 332.186 667.778 335.734 664.446 337.618C662.371 338.558 660.126 338.57 660.031 338.57L643.125 338.57C643.038 338.57 642.951 338.569 642.866 338.569C640.315 338.569 638.408 338.944 638.043 339.022C631.955 340.525 627.244 345.682 626.333 351.851C625.999 354.098 626.146 356.425 626.76 358.581C627.343 360.63 628.386 362.576 629.778 364.208C631.158 365.826 632.898 367.158 634.812 368.061C636.782 368.99 638.98 369.481 641.169 369.481H669.852L669.836 369.854C669.596 375.385 665.204 379.752 659.739 380Z" fill="#09235C" fill-opacity="0.5"/>
<path fill-rule="evenodd" clip-rule="evenodd" d="M793.739 76H774.85C767.058 75.7716 759.629 72.0275 754.766 65.8654C750.018 72.0275 742.697 75.7716 734.977 76H721.636C714.838 75.8003 708.243 72.9158 703.438 68.0158C698.731 63.2156 696.109 56.997 696 50.4236V49.5659C696 49.5617 696 49.5576 696 49.5534C696.241 35.463 707.876 24 721.937 24H742.396V24.3576C742.396 27.8811 740.658 31.1678 737.747 33.1512C735.527 34.5341 732.617 34.5502 732.494 34.5502L723.907 34.5516C723.821 34.5509 723.736 34.5509 723.65 34.5509C721.084 34.5509 719.19 34.9245 718.826 35.002C712.696 36.5162 707.98 41.7116 707.103 47.9282C706.962 48.9032 706.958 49.8858 706.971 50.719C707.087 57.7303 711.972 63.8135 718.852 65.512C719.204 65.5867 721.084 65.9611 723.639 65.9611C723.732 65.9611 723.825 65.9611 723.918 65.9597H731.868C731.956 65.9604 732.042 65.9611 732.129 65.9611C734.937 65.9611 736.988 65.5015 737.01 65.4966C742.331 64.1801 746.712 60.2034 748.439 55.1183C748.504 54.8913 748.547 54.679 748.576 54.5107L748.576 54.5037H723.649L723.665 54.1307C723.912 48.4352 728.562 43.9738 734.252 43.9738H749.933L749.94 43.9144L749.972 43.7803C752.839 32.133 763.194 24 775.153 24H803.848V24.3576C803.848 28.1863 801.778 31.7342 798.446 33.6178C796.371 34.5578 794.126 34.5697 794.031 34.5697L777.125 34.5704C777.038 34.5697 776.951 34.569 776.866 34.569C774.315 34.569 772.408 34.9441 772.043 35.0216C765.955 36.5253 761.244 41.6816 760.333 47.8507C759.999 50.0981 760.146 52.4252 760.76 54.5805C761.343 56.6303 762.386 58.5761 763.778 60.2083C765.158 61.8258 766.898 63.1584 768.812 64.0607C770.782 64.9896 772.98 65.4806 775.169 65.4806H803.852L803.836 65.8542C803.596 71.3849 799.204 75.7521 793.739 76Z" fill="#09235C" fill-opacity="0.5"/>
<path fill-rule="evenodd" clip-rule="evenodd" d="M793.739 152H774.85C767.058 151.772 759.629 148.027 754.766 141.865C750.018 148.027 742.697 151.772 734.977 152H721.636C714.838 151.8 708.243 148.916 703.438 144.016C698.731 139.216 696.109 132.997 696 126.424V125.566C696 125.562 696 125.558 696 125.553C696.241 111.463 707.876 100 721.937 100H742.396V100.358C742.396 103.881 740.658 107.168 737.747 109.151C735.527 110.534 732.617 110.55 732.494 110.55L723.907 110.552C723.821 110.551 723.736 110.551 723.65 110.551C721.084 110.551 719.19 110.925 718.826 111.002C712.696 112.516 707.98 117.712 707.103 123.928C706.962 124.903 706.958 125.886 706.971 126.719C707.087 133.73 711.972 139.813 718.852 141.512C719.204 141.587 721.084 141.961 723.639 141.961C723.732 141.961 723.825 141.961 723.918 141.96H731.868C731.956 141.96 732.042 141.961 732.129 141.961C734.937 141.961 736.988 141.502 737.01 141.497C742.331 140.18 746.712 136.203 748.439 131.118C748.504 130.891 748.547 130.679 748.576 130.511L748.576 130.504H723.649L723.665 130.131C723.912 124.435 728.562 119.974 734.252 119.974H749.933L749.94 119.914L749.972 119.78C752.839 108.133 763.194 100 775.153 100H803.848V100.358C803.848 104.186 801.778 107.734 798.446 109.618C796.371 110.558 794.126 110.57 794.031 110.57L777.125 110.57C777.038 110.57 776.951 110.569 776.866 110.569C774.315 110.569 772.408 110.944 772.043 111.022C765.955 112.525 761.244 117.682 760.333 123.851C759.999 126.098 760.146 128.425 760.76 130.581C761.343 132.63 762.386 134.576 763.778 136.208C765.158 137.826 766.898 139.158 768.812 140.061C770.782 140.99 772.98 141.481 775.169 141.481H803.852L803.836 141.854C803.596 147.385 799.204 151.752 793.739 152Z" fill="#09235C" fill-opacity="0.5"/>
<path fill-rule="evenodd" clip-rule="evenodd" d="M793.739 228H774.85C767.058 227.772 759.629 224.027 754.766 217.865C750.018 224.027 742.697 227.772 734.977 228H721.636C714.838 227.8 708.243 224.916 703.438 220.016C698.731 215.216 696.109 208.997 696 202.424V201.566C696 201.562 696 201.558 696 201.553C696.241 187.463 707.876 176 721.937 176H742.396V176.358C742.396 179.881 740.658 183.168 737.747 185.151C735.527 186.534 732.617 186.55 732.494 186.55L723.907 186.552C723.821 186.551 723.736 186.551 723.65 186.551C721.084 186.551 719.19 186.925 718.826 187.002C712.696 188.516 707.98 193.712 707.103 199.928C706.962 200.903 706.958 201.886 706.971 202.719C707.087 209.73 711.972 215.813 718.852 217.512C719.204 217.587 721.084 217.961 723.639 217.961C723.732 217.961 723.825 217.961 723.918 217.96H731.868C731.956 217.96 732.042 217.961 732.129 217.961C734.937 217.961 736.988 217.502 737.01 217.497C742.331 216.18 746.712 212.203 748.439 207.118C748.504 206.891 748.547 206.679 748.576 206.511L748.576 206.504H723.649L723.665 206.131C723.912 200.435 728.562 195.974 734.252 195.974H749.933L749.94 195.914L749.972 195.78C752.839 184.133 763.194 176 775.153 176H803.848V176.358C803.848 180.186 801.778 183.734 798.446 185.618C796.371 186.558 794.126 186.57 794.031 186.57L777.125 186.57C777.038 186.57 776.951 186.569 776.866 186.569C774.315 186.569 772.408 186.944 772.043 187.022C765.955 188.525 761.244 193.682 760.333 199.851C759.999 202.098 760.146 204.425 760.76 206.581C761.343 208.63 762.386 210.576 763.778 212.208C765.158 213.826 766.898 215.158 768.812 216.061C770.782 216.99 772.98 217.481 775.169 217.481H803.852L803.836 217.854C803.596 223.385 799.204 227.752 793.739 228Z" fill="#09235C" fill-opacity="0.5"/>
<path fill-rule="evenodd" clip-rule="evenodd" d="M793.739 304H774.85C767.058 303.772 759.629 300.027 754.766 293.865C750.018 300.027 742.697 303.772 734.977 304H721.636C714.838 303.8 708.243 300.916 703.438 296.016C698.731 291.216 696.109 284.997 696 278.424V277.566C696 277.562 696 277.558 696 277.553C696.241 263.463 707.876 252 721.937 252H742.396V252.358C742.396 255.881 740.658 259.168 737.747 261.151C735.527 262.534 732.617 262.55 732.494 262.55L723.907 262.552C723.821 262.551 723.736 262.551 723.65 262.551C721.084 262.551 719.19 262.925 718.826 263.002C712.696 264.516 707.98 269.712 707.103 275.928C706.962 276.903 706.958 277.886 706.971 278.719C707.087 285.73 711.972 291.813 718.852 293.512C719.204 293.587 721.084 293.961 723.639 293.961C723.732 293.961 723.825 293.961 723.918 293.96H731.868C731.956 293.96 732.042 293.961 732.129 293.961C734.937 293.961 736.988 293.502 737.01 293.497C742.331 292.18 746.712 288.203 748.439 283.118C748.504 282.891 748.547 282.679 748.576 282.511L748.576 282.504H723.649L723.665 282.131C723.912 276.435 728.562 271.974 734.252 271.974H749.933L749.94 271.914L749.972 271.78C752.839 260.133 763.194 252 775.153 252H803.848V252.358C803.848 256.186 801.778 259.734 798.446 261.618C796.371 262.558 794.126 262.57 794.031 262.57L777.125 262.57C777.038 262.57 776.951 262.569 776.866 262.569C774.315 262.569 772.408 262.944 772.043 263.022C765.955 264.525 761.244 269.682 760.333 275.851C759.999 278.098 760.146 280.425 760.76 282.581C761.343 284.63 762.386 286.576 763.778 288.208C765.158 289.826 766.898 291.158 768.812 292.061C770.782 292.99 772.98 293.481 775.169 293.481H803.852L803.836 293.854C803.596 299.385 799.204 303.752 793.739 304Z" fill="#09235C" fill-opacity="0.5"/>
<path fill-rule="evenodd" clip-rule="evenodd" d="M793.739 380H774.85C767.058 379.772 759.629 376.027 754.766 369.865C750.018 376.027 742.697 379.772 734.977 380H721.636C714.838 379.8 708.243 376.916 703.438 372.016C698.731 367.216 696.109 360.997 696 354.424V353.566C696 353.562 696 353.558 696 353.553C696.241 339.463 707.876 328 721.937 328H742.396V328.358C742.396 331.881 740.658 335.168 737.747 337.151C735.527 338.534 732.617 338.55 732.494 338.55L723.907 338.552C723.821 338.551 723.736 338.551 723.65 338.551C721.084 338.551 719.19 338.925 718.826 339.002C712.696 340.516 707.98 345.712 707.103 351.928C706.962 352.903 706.958 353.886 706.971 354.719C707.087 361.73 711.972 367.813 718.852 369.512C719.204 369.587 721.084 369.961 723.639 369.961C723.732 369.961 723.825 369.961 723.918 369.96H731.868C731.956 369.96 732.042 369.961 732.129 369.961C734.937 369.961 736.988 369.502 737.01 369.497C742.331 368.18 746.712 364.203 748.439 359.118C748.504 358.891 748.547 358.679 748.576 358.511L748.576 358.504H723.649L723.665 358.131C723.912 352.435 728.562 347.974 734.252 347.974H749.933L749.94 347.914L749.972 347.78C752.839 336.133 763.194 328 775.153 328H803.848V328.358C803.848 332.186 801.778 335.734 798.446 337.618C796.371 338.558 794.126 338.57 794.031 338.57L777.125 338.57C777.038 338.57 776.951 338.569 776.866 338.569C774.315 338.569 772.408 338.944 772.043 339.022C765.955 340.525 761.244 345.682 760.333 351.851C759.999 354.098 760.146 356.425 760.76 358.581C761.343 360.63 762.386 362.576 763.778 364.208C765.158 365.826 766.898 367.158 768.812 368.061C770.782 368.99 772.98 369.481 775.169 369.481H803.852L803.836 369.854C803.596 375.385 799.204 379.752 793.739 380Z" fill="#09235C" fill-opacity="0.5"/>
<path fill-rule="evenodd" clip-rule="evenodd" d="M927.739 76H908.85C901.058 75.7716 893.629 72.0275 888.766 65.8654C884.018 72.0275 876.697 75.7716 868.977 76H855.636C848.838 75.8003 842.243 72.9158 837.438 68.0158C832.731 63.2156 830.109 56.997 830 50.4236V49.5659C830 49.5617 830 49.5576 830 49.5534C830.241 35.463 841.876 24 855.937 24H876.396V24.3576C876.396 27.8811 874.658 31.1678 871.747 33.1512C869.527 34.5341 866.617 34.5502 866.494 34.5502L857.907 34.5516C857.821 34.5509 857.736 34.5509 857.65 34.5509C855.084 34.5509 853.19 34.9245 852.826 35.002C846.696 36.5162 841.98 41.7116 841.103 47.9282C840.962 48.9032 840.958 49.8858 840.971 50.719C841.087 57.7303 845.972 63.8135 852.852 65.512C853.204 65.5867 855.084 65.9611 857.639 65.9611C857.732 65.9611 857.825 65.9611 857.918 65.9597H865.868C865.956 65.9604 866.042 65.9611 866.129 65.9611C868.937 65.9611 870.988 65.5015 871.01 65.4966C876.331 64.1801 880.712 60.2034 882.439 55.1183C882.504 54.8913 882.547 54.679 882.576 54.5107L882.576 54.5037H857.649L857.665 54.1307C857.912 48.4352 862.562 43.9738 868.252 43.9738H883.933L883.94 43.9144L883.972 43.7803C886.839 32.133 897.194 24 909.153 24H937.848V24.3576C937.848 28.1863 935.778 31.7342 932.446 33.6178C930.371 34.5578 928.126 34.5697 928.031 34.5697L911.125 34.5704C911.038 34.5697 910.951 34.569 910.866 34.569C908.315 34.569 906.408 34.9441 906.043 35.0216C899.955 36.5253 895.244 41.6816 894.333 47.8507C893.999 50.0981 894.146 52.4252 894.76 54.5805C895.343 56.6303 896.386 58.5761 897.778 60.2083C899.158 61.8258 900.898 63.1584 902.812 64.0607C904.782 64.9896 906.98 65.4806 909.169 65.4806H937.852L937.836 65.8542C937.596 71.3849 933.204 75.7521 927.739 76Z" fill="#09235C" fill-opacity="0.5"/>
<path fill-rule="evenodd" clip-rule="evenodd" d="M927.739 152H908.85C901.058 151.772 893.629 148.027 888.766 141.865C884.018 148.027 876.697 151.772 868.977 152H855.636C848.838 151.8 842.243 148.916 837.438 144.016C832.731 139.216 830.109 132.997 830 126.424V125.566C830 125.562 830 125.558 830 125.553C830.241 111.463 841.876 100 855.937 100H876.396V100.358C876.396 103.881 874.658 107.168 871.747 109.151C869.527 110.534 866.617 110.55 866.494 110.55L857.907 110.552C857.821 110.551 857.736 110.551 857.65 110.551C855.084 110.551 853.19 110.925 852.826 111.002C846.696 112.516 841.98 117.712 841.103 123.928C840.962 124.903 840.958 125.886 840.971 126.719C841.087 133.73 845.972 139.813 852.852 141.512C853.204 141.587 855.084 141.961 857.639 141.961C857.732 141.961 857.825 141.961 857.918 141.96H865.868C865.956 141.96 866.042 141.961 866.129 141.961C868.937 141.961 870.988 141.502 871.01 141.497C876.331 140.18 880.712 136.203 882.439 131.118C882.504 130.891 882.547 130.679 882.576 130.511L882.576 130.504H857.649L857.665 130.131C857.912 124.435 862.562 119.974 868.252 119.974H883.933L883.94 119.914L883.972 119.78C886.839 108.133 897.194 100 909.153 100H937.848V100.358C937.848 104.186 935.778 107.734 932.446 109.618C930.371 110.558 928.126 110.57 928.031 110.57L911.125 110.57C911.038 110.57 910.951 110.569 910.866 110.569C908.315 110.569 906.408 110.944 906.043 111.022C899.955 112.525 895.244 117.682 894.333 123.851C893.999 126.098 894.146 128.425 894.76 130.581C895.343 132.63 896.386 134.576 897.778 136.208C899.158 137.826 900.898 139.158 902.812 140.061C904.782 140.99 906.98 141.481 909.169 141.481H937.852L937.836 141.854C937.596 147.385 933.204 151.752 927.739 152Z" fill="#09235C" fill-opacity="0.5"/>
<path fill-rule="evenodd" clip-rule="evenodd" d="M927.739 228H908.85C901.058 227.772 893.629 224.027 888.766 217.865C884.018 224.027 876.697 227.772 868.977 228H855.636C848.838 227.8 842.243 224.916 837.438 220.016C832.731 215.216 830.109 208.997 830 202.424V201.566C830 201.562 830 201.558 830 201.553C830.241 187.463 841.876 176 855.937 176H876.396V176.358C876.396 179.881 874.658 183.168 871.747 185.151C869.527 186.534 866.617 186.55 866.494 186.55L857.907 186.552C857.821 186.551 857.736 186.551 857.65 186.551C855.084 186.551 853.19 186.925 852.826 187.002C846.696 188.516 841.98 193.712 841.103 199.928C840.962 200.903 840.958 201.886 840.971 202.719C841.087 209.73 845.972 215.813 852.852 217.512C853.204 217.587 855.084 217.961 857.639 217.961C857.732 217.961 857.825 217.961 857.918 217.96H865.868C865.956 217.96 866.042 217.961 866.129 217.961C868.937 217.961 870.988 217.502 871.01 217.497C876.331 216.18 880.712 212.203 882.439 207.118C882.504 206.891 882.547 206.679 882.576 206.511L882.576 206.504H857.649L857.665 206.131C857.912 200.435 862.562 195.974 868.252 195.974H883.933L883.94 195.914L883.972 195.78C886.839 184.133 897.194 176 909.153 176H937.848V176.358C937.848 180.186 935.778 183.734 932.446 185.618C930.371 186.558 928.126 186.57 928.031 186.57L911.125 186.57C911.038 186.57 910.951 186.569 910.866 186.569C908.315 186.569 906.408 186.944 906.043 187.022C899.955 188.525 895.244 193.682 894.333 199.851C893.999 202.098 894.146 204.425 894.76 206.581C895.343 208.63 896.386 210.576 897.778 212.208C899.158 213.826 900.898 215.158 902.812 216.061C904.782 216.99 906.98 217.481 909.169 217.481H937.852L937.836 217.854C937.596 223.385 933.204 227.752 927.739 228Z" fill="#09235C" fill-opacity="0.5"/>
<path fill-rule="evenodd" clip-rule="evenodd" d="M927.739 304H908.85C901.058 303.772 893.629 300.027 888.766 293.865C884.018 300.027 876.697 303.772 868.977 304H855.636C848.838 303.8 842.243 300.916 837.438 296.016C832.731 291.216 830.109 284.997 830 278.424V277.566C830 277.562 830 277.558 830 277.553C830.241 263.463 841.876 252 855.937 252H876.396V252.358C876.396 255.881 874.658 259.168 871.747 261.151C869.527 262.534 866.617 262.55 866.494 262.55L857.907 262.552C857.821 262.551 857.736 262.551 857.65 262.551C855.084 262.551 853.19 262.925 852.826 263.002C846.696 264.516 841.98 269.712 841.103 275.928C840.962 276.903 840.958 277.886 840.971 278.719C841.087 285.73 845.972 291.813 852.852 293.512C853.204 293.587 855.084 293.961 857.639 293.961C857.732 293.961 857.825 293.961 857.918 293.96H865.868C865.956 293.96 866.042 293.961 866.129 293.961C868.937 293.961 870.988 293.502 871.01 293.497C876.331 292.18 880.712 288.203 882.439 283.118C882.504 282.891 882.547 282.679 882.576 282.511L882.576 282.504H857.649L857.665 282.131C857.912 276.435 862.562 271.974 868.252 271.974H883.933L883.94 271.914L883.972 271.78C886.839 260.133 897.194 252 909.153 252H937.848V252.358C937.848 256.186 935.778 259.734 932.446 261.618C930.371 262.558 928.126 262.57 928.031 262.57L911.125 262.57C911.038 262.57 910.951 262.569 910.866 262.569C908.315 262.569 906.408 262.944 906.043 263.022C899.955 264.525 895.244 269.682 894.333 275.851C893.999 278.098 894.146 280.425 894.76 282.581C895.343 284.63 896.386 286.576 897.778 288.208C899.158 289.826 900.898 291.158 902.812 292.061C904.782 292.99 906.98 293.481 909.169 293.481H937.852L937.836 293.854C937.596 299.385 933.204 303.752 927.739 304Z" fill="#09235C" fill-opacity="0.5"/>
<path fill-rule="evenodd" clip-rule="evenodd" d="M927.739 380H908.85C901.058 379.772 893.629 376.027 888.766 369.865C884.018 376.027 876.697 379.772 868.977 380H855.636C848.838 379.8 842.243 376.916 837.438 372.016C832.731 367.216 830.109 360.997 830 354.424V353.566C830 353.562 830 353.558 830 353.553C830.241 339.463 841.876 328 855.937 328H876.396V328.358C876.396 331.881 874.658 335.168 871.747 337.151C869.527 338.534 866.617 338.55 866.494 338.55L857.907 338.552C857.821 338.551 857.736 338.551 857.65 338.551C855.084 338.551 853.19 338.925 852.826 339.002C846.696 340.516 841.98 345.712 841.103 351.928C840.962 352.903 840.958 353.886 840.971 354.719C841.087 361.73 845.972 367.813 852.852 369.512C853.204 369.587 855.084 369.961 857.639 369.961C857.732 369.961 857.825 369.961 857.918 369.96H865.868C865.956 369.96 866.042 369.961 866.129 369.961C868.937 369.961 870.988 369.502 871.01 369.497C876.331 368.18 880.712 364.203 882.439 359.118C882.504 358.891 882.547 358.679 882.576 358.511L882.576 358.504H857.649L857.665 358.131C857.912 352.435 862.562 347.974 868.252 347.974H883.933L883.94 347.914L883.972 347.78C886.839 336.133 897.194 328 909.153 328H937.848V328.358C937.848 332.186 935.778 335.734 932.446 337.618C930.371 338.558 928.126 338.57 928.031 338.57L911.125 338.57C911.038 338.57 910.951 338.569 910.866 338.569C908.315 338.569 906.408 338.944 906.043 339.022C899.955 340.525 895.244 345.682 894.333 351.851C893.999 354.098 894.146 356.425 894.76 358.581C895.343 360.63 896.386 362.576 897.778 364.208C899.158 365.826 900.898 367.158 902.812 368.061C904.782 368.99 906.98 369.481 909.169 369.481H937.852L937.836 369.854C937.596 375.385 933.204 379.752 927.739 380Z" fill="#09235C" fill-opacity="0.5"/>
<path fill-rule="evenodd" clip-rule="evenodd" d="M1061.74 76H1042.85C1035.06 75.7716 1027.63 72.0275 1022.77 65.8654C1018.02 72.0275 1010.7 75.7716 1002.98 76H989.636C982.838 75.8003 976.243 72.9158 971.438 68.0158C966.731 63.2156 964.109 56.997 964 50.4236V49.5659C964 49.5617 964 49.5576 964 49.5534C964.241 35.463 975.876 24 989.937 24H1010.4V24.3576C1010.4 27.8811 1008.66 31.1678 1005.75 33.1512C1003.53 34.5341 1000.62 34.5502 1000.49 34.5502L991.907 34.5516C991.821 34.5509 991.736 34.5509 991.65 34.5509C989.084 34.5509 987.19 34.9245 986.826 35.002C980.696 36.5162 975.98 41.7116 975.103 47.9282C974.962 48.9032 974.958 49.8858 974.971 50.719C975.087 57.7303 979.972 63.8135 986.852 65.512C987.204 65.5867 989.084 65.9611 991.639 65.9611C991.732 65.9611 991.825 65.9611 991.918 65.9597H999.868C999.956 65.9604 1000.04 65.9611 1000.13 65.9611C1002.94 65.9611 1004.99 65.5015 1005.01 65.4966C1010.33 64.1801 1014.71 60.2034 1016.44 55.1183C1016.5 54.8913 1016.55 54.679 1016.58 54.5107L1016.58 54.5037H991.649L991.665 54.1307C991.912 48.4352 996.562 43.9738 1002.25 43.9738H1017.93L1017.94 43.9144L1017.97 43.7803C1020.84 32.133 1031.19 24 1043.15 24H1071.85V24.3576C1071.85 28.1863 1069.78 31.7342 1066.45 33.6178C1064.37 34.5578 1062.13 34.5697 1062.03 34.5697L1045.12 34.5704C1045.04 34.5697 1044.95 34.569 1044.87 34.569C1042.32 34.569 1040.41 34.9441 1040.04 35.0216C1033.95 36.5253 1029.24 41.6816 1028.33 47.8507C1028 50.0981 1028.15 52.4252 1028.76 54.5805C1029.34 56.6303 1030.39 58.5761 1031.78 60.2083C1033.16 61.8258 1034.9 63.1584 1036.81 64.0607C1038.78 64.9896 1040.98 65.4806 1043.17 65.4806H1071.85L1071.84 65.8542C1071.6 71.3849 1067.2 75.7521 1061.74 76Z" fill="#09235C" fill-opacity="0.5"/>
<path fill-rule="evenodd" clip-rule="evenodd" d="M1061.74 152H1042.85C1035.06 151.772 1027.63 148.027 1022.77 141.865C1018.02 148.027 1010.7 151.772 1002.98 152H989.636C982.838 151.8 976.243 148.916 971.438 144.016C966.731 139.216 964.109 132.997 964 126.424V125.566C964 125.562 964 125.558 964 125.553C964.241 111.463 975.876 100 989.937 100H1010.4V100.358C1010.4 103.881 1008.66 107.168 1005.75 109.151C1003.53 110.534 1000.62 110.55 1000.49 110.55L991.907 110.552C991.821 110.551 991.736 110.551 991.65 110.551C989.084 110.551 987.19 110.925 986.826 111.002C980.696 112.516 975.98 117.712 975.103 123.928C974.962 124.903 974.958 125.886 974.971 126.719C975.087 133.73 979.972 139.813 986.852 141.512C987.204 141.587 989.084 141.961 991.639 141.961C991.732 141.961 991.825 141.961 991.918 141.96H999.868C999.956 141.96 1000.04 141.961 1000.13 141.961C1002.94 141.961 1004.99 141.502 1005.01 141.497C1010.33 140.18 1014.71 136.203 1016.44 131.118C1016.5 130.891 1016.55 130.679 1016.58 130.511L1016.58 130.504H991.649L991.665 130.131C991.912 124.435 996.562 119.974 1002.25 119.974H1017.93L1017.94 119.914L1017.97 119.78C1020.84 108.133 1031.19 100 1043.15 100H1071.85V100.358C1071.85 104.186 1069.78 107.734 1066.45 109.618C1064.37 110.558 1062.13 110.57 1062.03 110.57L1045.12 110.57C1045.04 110.57 1044.95 110.569 1044.87 110.569C1042.32 110.569 1040.41 110.944 1040.04 111.022C1033.95 112.525 1029.24 117.682 1028.33 123.851C1028 126.098 1028.15 128.425 1028.76 130.581C1029.34 132.63 1030.39 134.576 1031.78 136.208C1033.16 137.826 1034.9 139.158 1036.81 140.061C1038.78 140.99 1040.98 141.481 1043.17 141.481H1071.85L1071.84 141.854C1071.6 147.385 1067.2 151.752 1061.74 152Z" fill="#09235C" fill-opacity="0.5"/>
<path fill-rule="evenodd" clip-rule="evenodd" d="M1061.74 228H1042.85C1035.06 227.772 1027.63 224.027 1022.77 217.865C1018.02 224.027 1010.7 227.772 1002.98 228H989.636C982.838 227.8 976.243 224.916 971.438 220.016C966.731 215.216 964.109 208.997 964 202.424V201.566C964 201.562 964 201.558 964 201.553C964.241 187.463 975.876 176 989.937 176H1010.4V176.358C1010.4 179.881 1008.66 183.168 1005.75 185.151C1003.53 186.534 1000.62 186.55 1000.49 186.55L991.907 186.552C991.821 186.551 991.736 186.551 991.65 186.551C989.084 186.551 987.19 186.925 986.826 187.002C980.696 188.516 975.98 193.712 975.103 199.928C974.962 200.903 974.958 201.886 974.971 202.719C975.087 209.73 979.972 215.813 986.852 217.512C987.204 217.587 989.084 217.961 991.639 217.961C991.732 217.961 991.825 217.961 991.918 217.96H999.868C999.956 217.96 1000.04 217.961 1000.13 217.961C1002.94 217.961 1004.99 217.502 1005.01 217.497C1010.33 216.18 1014.71 212.203 1016.44 207.118C1016.5 206.891 1016.55 206.679 1016.58 206.511L1016.58 206.504H991.649L991.665 206.131C991.912 200.435 996.562 195.974 1002.25 195.974H1017.93L1017.94 195.914L1017.97 195.78C1020.84 184.133 1031.19 176 1043.15 176H1071.85V176.358C1071.85 180.186 1069.78 183.734 1066.45 185.618C1064.37 186.558 1062.13 186.57 1062.03 186.57L1045.12 186.57C1045.04 186.57 1044.95 186.569 1044.87 186.569C1042.32 186.569 1040.41 186.944 1040.04 187.022C1033.95 188.525 1029.24 193.682 1028.33 199.851C1028 202.098 1028.15 204.425 1028.76 206.581C1029.34 208.63 1030.39 210.576 1031.78 212.208C1033.16 213.826 1034.9 215.158 1036.81 216.061C1038.78 216.99 1040.98 217.481 1043.17 217.481H1071.85L1071.84 217.854C1071.6 223.385 1067.2 227.752 1061.74 228Z" fill="#09235C" fill-opacity="0.5"/>
<path fill-rule="evenodd" clip-rule="evenodd" d="M1061.74 304H1042.85C1035.06 303.772 1027.63 300.027 1022.77 293.865C1018.02 300.027 1010.7 303.772 1002.98 304H989.636C982.838 303.8 976.243 300.916 971.438 296.016C966.731 291.216 964.109 284.997 964 278.424V277.566C964 277.562 964 277.558 964 277.553C964.241 263.463 975.876 252 989.937 252H1010.4V252.358C1010.4 255.881 1008.66 259.168 1005.75 261.151C1003.53 262.534 1000.62 262.55 1000.49 262.55L991.907 262.552C991.821 262.551 991.736 262.551 991.65 262.551C989.084 262.551 987.19 262.925 986.826 263.002C980.696 264.516 975.98 269.712 975.103 275.928C974.962 276.903 974.958 277.886 974.971 278.719C975.087 285.73 979.972 291.813 986.852 293.512C987.204 293.587 989.084 293.961 991.639 293.961C991.732 293.961 991.825 293.961 991.918 293.96H999.868C999.956 293.96 1000.04 293.961 1000.13 293.961C1002.94 293.961 1004.99 293.502 1005.01 293.497C1010.33 292.18 1014.71 288.203 1016.44 283.118C1016.5 282.891 1016.55 282.679 1016.58 282.511L1016.58 282.504H991.649L991.665 282.131C991.912 276.435 996.562 271.974 1002.25 271.974H1017.93L1017.94 271.914L1017.97 271.78C1020.84 260.133 1031.19 252 1043.15 252H1071.85V252.358C1071.85 256.186 1069.78 259.734 1066.45 261.618C1064.37 262.558 1062.13 262.57 1062.03 262.57L1045.12 262.57C1045.04 262.57 1044.95 262.569 1044.87 262.569C1042.32 262.569 1040.41 262.944 1040.04 263.022C1033.95 264.525 1029.24 269.682 1028.33 275.851C1028 278.098 1028.15 280.425 1028.76 282.581C1029.34 284.63 1030.39 286.576 1031.78 288.208C1033.16 289.826 1034.9 291.158 1036.81 292.061C1038.78 292.99 1040.98 293.481 1043.17 293.481H1071.85L1071.84 293.854C1071.6 299.385 1067.2 303.752 1061.74 304Z" fill="#09235C" fill-opacity="0.5"/>
<path fill-rule="evenodd" clip-rule="evenodd" d="M1061.74 380H1042.85C1035.06 379.772 1027.63 376.027 1022.77 369.865C1018.02 376.027 1010.7 379.772 1002.98 380H989.636C982.838 379.8 976.243 376.916 971.438 372.016C966.731 367.216 964.109 360.997 964 354.424V353.566C964 353.562 964 353.558 964 353.553C964.241 339.463 975.876 328 989.937 328H1010.4V328.358C1010.4 331.881 1008.66 335.168 1005.75 337.151C1003.53 338.534 1000.62 338.55 1000.49 338.55L991.907 338.552C991.821 338.551 991.736 338.551 991.65 338.551C989.084 338.551 987.19 338.925 986.826 339.002C980.696 340.516 975.98 345.712 975.103 351.928C974.962 352.903 974.958 353.886 974.971 354.719C975.087 361.73 979.972 367.813 986.852 369.512C987.204 369.587 989.084 369.961 991.639 369.961C991.732 369.961 991.825 369.961 991.918 369.96H999.868C999.956 369.96 1000.04 369.961 1000.13 369.961C1002.94 369.961 1004.99 369.502 1005.01 369.497C1010.33 368.18 1014.71 364.203 1016.44 359.118C1016.5 358.891 1016.55 358.679 1016.58 358.511L1016.58 358.504H991.649L991.665 358.131C991.912 352.435 996.562 347.974 1002.25 347.974H1017.93L1017.94 347.914L1017.97 347.78C1020.84 336.133 1031.19 328 1043.15 328H1071.85V328.358C1071.85 332.186 1069.78 335.734 1066.45 337.618C1064.37 338.558 1062.13 338.57 1062.03 338.57L1045.12 338.57C1045.04 338.57 1044.95 338.569 1044.87 338.569C1042.32 338.569 1040.41 338.944 1040.04 339.022C1033.95 340.525 1029.24 345.682 1028.33 351.851C1028 354.098 1028.15 356.425 1028.76 358.581C1029.34 360.63 1030.39 362.576 1031.78 364.208C1033.16 365.826 1034.9 367.158 1036.81 368.061C1038.78 368.99 1040.98 369.481 1043.17 369.481H1071.85L1071.84 369.854C1071.6 375.385 1067.2 379.752 1061.74 380Z" fill="#09235C" fill-opacity="0.5"/>
<path fill-rule="evenodd" clip-rule="evenodd" d="M1195.74 76H1176.85C1169.06 75.7716 1161.63 72.0275 1156.77 65.8654C1152.02 72.0275 1144.7 75.7716 1136.98 76H1123.64C1116.84 75.8003 1110.24 72.9158 1105.44 68.0158C1100.73 63.2156 1098.11 56.997 1098 50.4236V49.5659C1098 49.5617 1098 49.5576 1098 49.5534C1098.24 35.463 1109.88 24 1123.94 24H1144.4V24.3576C1144.4 27.8811 1142.66 31.1678 1139.75 33.1512C1137.53 34.5341 1134.62 34.5502 1134.49 34.5502L1125.91 34.5516C1125.82 34.5509 1125.74 34.5509 1125.65 34.5509C1123.08 34.5509 1121.19 34.9245 1120.83 35.002C1114.7 36.5162 1109.98 41.7116 1109.1 47.9282C1108.96 48.9032 1108.96 49.8858 1108.97 50.719C1109.09 57.7303 1113.97 63.8135 1120.85 65.512C1121.2 65.5867 1123.08 65.9611 1125.64 65.9611C1125.73 65.9611 1125.82 65.9611 1125.92 65.9597H1133.87C1133.96 65.9604 1134.04 65.9611 1134.13 65.9611C1136.94 65.9611 1138.99 65.5015 1139.01 65.4966C1144.33 64.1801 1148.71 60.2034 1150.44 55.1183C1150.5 54.8913 1150.55 54.679 1150.58 54.5107L1150.58 54.5037H1125.65L1125.67 54.1307C1125.91 48.4352 1130.56 43.9738 1136.25 43.9738H1151.93L1151.94 43.9144L1151.97 43.7803C1154.84 32.133 1165.19 24 1177.15 24H1205.85V24.3576C1205.85 28.1863 1203.78 31.7342 1200.45 33.6178C1198.37 34.5578 1196.13 34.5697 1196.03 34.5697L1179.12 34.5704C1179.04 34.5697 1178.95 34.569 1178.87 34.569C1176.32 34.569 1174.41 34.9441 1174.04 35.0216C1167.95 36.5253 1163.24 41.6816 1162.33 47.8507C1162 50.0981 1162.15 52.4252 1162.76 54.5805C1163.34 56.6303 1164.39 58.5761 1165.78 60.2083C1167.16 61.8258 1168.9 63.1584 1170.81 64.0607C1172.78 64.9896 1174.98 65.4806 1177.17 65.4806H1205.85L1205.84 65.8542C1205.6 71.3849 1201.2 75.7521 1195.74 76Z" fill="#09235C" fill-opacity="0.5"/>
<path fill-rule="evenodd" clip-rule="evenodd" d="M1195.74 152H1176.85C1169.06 151.772 1161.63 148.027 1156.77 141.865C1152.02 148.027 1144.7 151.772 1136.98 152H1123.64C1116.84 151.8 1110.24 148.916 1105.44 144.016C1100.73 139.216 1098.11 132.997 1098 126.424V125.566C1098 125.562 1098 125.558 1098 125.553C1098.24 111.463 1109.88 100 1123.94 100H1144.4V100.358C1144.4 103.881 1142.66 107.168 1139.75 109.151C1137.53 110.534 1134.62 110.55 1134.49 110.55L1125.91 110.552C1125.82 110.551 1125.74 110.551 1125.65 110.551C1123.08 110.551 1121.19 110.925 1120.83 111.002C1114.7 112.516 1109.98 117.712 1109.1 123.928C1108.96 124.903 1108.96 125.886 1108.97 126.719C1109.09 133.73 1113.97 139.813 1120.85 141.512C1121.2 141.587 1123.08 141.961 1125.64 141.961C1125.73 141.961 1125.82 141.961 1125.92 141.96H1133.87C1133.96 141.96 1134.04 141.961 1134.13 141.961C1136.94 141.961 1138.99 141.502 1139.01 141.497C1144.33 140.18 1148.71 136.203 1150.44 131.118C1150.5 130.891 1150.55 130.679 1150.58 130.511L1150.58 130.504H1125.65L1125.67 130.131C1125.91 124.435 1130.56 119.974 1136.25 119.974H1151.93L1151.94 119.914L1151.97 119.78C1154.84 108.133 1165.19 100 1177.15 100H1205.85V100.358C1205.85 104.186 1203.78 107.734 1200.45 109.618C1198.37 110.558 1196.13 110.57 1196.03 110.57L1179.12 110.57C1179.04 110.57 1178.95 110.569 1178.87 110.569C1176.32 110.569 1174.41 110.944 1174.04 111.022C1167.95 112.525 1163.24 117.682 1162.33 123.851C1162 126.098 1162.15 128.425 1162.76 130.581C1163.34 132.63 1164.39 134.576 1165.78 136.208C1167.16 137.826 1168.9 139.158 1170.81 140.061C1172.78 140.99 1174.98 141.481 1177.17 141.481H1205.85L1205.84 141.854C1205.6 147.385 1201.2 151.752 1195.74 152Z" fill="#09235C" fill-opacity="0.5"/>
<path fill-rule="evenodd" clip-rule="evenodd" d="M1195.74 228H1176.85C1169.06 227.772 1161.63 224.027 1156.77 217.865C1152.02 224.027 1144.7 227.772 1136.98 228H1123.64C1116.84 227.8 1110.24 224.916 1105.44 220.016C1100.73 215.216 1098.11 208.997 1098 202.424V201.566C1098 201.562 1098 201.558 1098 201.553C1098.24 187.463 1109.88 176 1123.94 176H1144.4V176.358C1144.4 179.881 1142.66 183.168 1139.75 185.151C1137.53 186.534 1134.62 186.55 1134.49 186.55L1125.91 186.552C1125.82 186.551 1125.74 186.551 1125.65 186.551C1123.08 186.551 1121.19 186.925 1120.83 187.002C1114.7 188.516 1109.98 193.712 1109.1 199.928C1108.96 200.903 1108.96 201.886 1108.97 202.719C1109.09 209.73 1113.97 215.813 1120.85 217.512C1121.2 217.587 1123.08 217.961 1125.64 217.961C1125.73 217.961 1125.82 217.961 1125.92 217.96H1133.87C1133.96 217.96 1134.04 217.961 1134.13 217.961C1136.94 217.961 1138.99 217.502 1139.01 217.497C1144.33 216.18 1148.71 212.203 1150.44 207.118C1150.5 206.891 1150.55 206.679 1150.58 206.511L1150.58 206.504H1125.65L1125.67 206.131C1125.91 200.435 1130.56 195.974 1136.25 195.974H1151.93L1151.94 195.914L1151.97 195.78C1154.84 184.133 1165.19 176 1177.15 176H1205.85V176.358C1205.85 180.186 1203.78 183.734 1200.45 185.618C1198.37 186.558 1196.13 186.57 1196.03 186.57L1179.12 186.57C1179.04 186.57 1178.95 186.569 1178.87 186.569C1176.32 186.569 1174.41 186.944 1174.04 187.022C1167.95 188.525 1163.24 193.682 1162.33 199.851C1162 202.098 1162.15 204.425 1162.76 206.581C1163.34 208.63 1164.39 210.576 1165.78 212.208C1167.16 213.826 1168.9 215.158 1170.81 216.061C1172.78 216.99 1174.98 217.481 1177.17 217.481H1205.85L1205.84 217.854C1205.6 223.385 1201.2 227.752 1195.74 228Z" fill="#09235C" fill-opacity="0.5"/>
<path fill-rule="evenodd" clip-rule="evenodd" d="M1195.74 304H1176.85C1169.06 303.772 1161.63 300.027 1156.77 293.865C1152.02 300.027 1144.7 303.772 1136.98 304H1123.64C1116.84 303.8 1110.24 300.916 1105.44 296.016C1100.73 291.216 1098.11 284.997 1098 278.424V277.566C1098 277.562 1098 277.558 1098 277.553C1098.24 263.463 1109.88 252 1123.94 252H1144.4V252.358C1144.4 255.881 1142.66 259.168 1139.75 261.151C1137.53 262.534 1134.62 262.55 1134.49 262.55L1125.91 262.552C1125.82 262.551 1125.74 262.551 1125.65 262.551C1123.08 262.551 1121.19 262.925 1120.83 263.002C1114.7 264.516 1109.98 269.712 1109.1 275.928C1108.96 276.903 1108.96 277.886 1108.97 278.719C1109.09 285.73 1113.97 291.813 1120.85 293.512C1121.2 293.587 1123.08 293.961 1125.64 293.961C1125.73 293.961 1125.82 293.961 1125.92 293.96H1133.87C1133.96 293.96 1134.04 293.961 1134.13 293.961C1136.94 293.961 1138.99 293.502 1139.01 293.497C1144.33 292.18 1148.71 288.203 1150.44 283.118C1150.5 282.891 1150.55 282.679 1150.58 282.511L1150.58 282.504H1125.65L1125.67 282.131C1125.91 276.435 1130.56 271.974 1136.25 271.974H1151.93L1151.94 271.914L1151.97 271.78C1154.84 260.133 1165.19 252 1177.15 252H1205.85V252.358C1205.85 256.186 1203.78 259.734 1200.45 261.618C1198.37 262.558 1196.13 262.57 1196.03 262.57L1179.12 262.57C1179.04 262.57 1178.95 262.569 1178.87 262.569C1176.32 262.569 1174.41 262.944 1174.04 263.022C1167.95 264.525 1163.24 269.682 1162.33 275.851C1162 278.098 1162.15 280.425 1162.76 282.581C1163.34 284.63 1164.39 286.576 1165.78 288.208C1167.16 289.826 1168.9 291.158 1170.81 292.061C1172.78 292.99 1174.98 293.481 1177.17 293.481H1205.85L1205.84 293.854C1205.6 299.385 1201.2 303.752 1195.74 304Z" fill="#09235C" fill-opacity="0.5"/>
<path fill-rule="evenodd" clip-rule="evenodd" d="M1195.74 380H1176.85C1169.06 379.772 1161.63 376.027 1156.77 369.865C1152.02 376.027 1144.7 379.772 1136.98 380H1123.64C1116.84 379.8 1110.24 376.916 1105.44 372.016C1100.73 367.216 1098.11 360.997 1098 354.424V353.566C1098 353.562 1098 353.558 1098 353.553C1098.24 339.463 1109.88 328 1123.94 328H1144.4V328.358C1144.4 331.881 1142.66 335.168 1139.75 337.151C1137.53 338.534 1134.62 338.55 1134.49 338.55L1125.91 338.552C1125.82 338.551 1125.74 338.551 1125.65 338.551C1123.08 338.551 1121.19 338.925 1120.83 339.002C1114.7 340.516 1109.98 345.712 1109.1 351.928C1108.96 352.903 1108.96 353.886 1108.97 354.719C1109.09 361.73 1113.97 367.813 1120.85 369.512C1121.2 369.587 1123.08 369.961 1125.64 369.961C1125.73 369.961 1125.82 369.961 1125.92 369.96H1133.87C1133.96 369.96 1134.04 369.961 1134.13 369.961C1136.94 369.961 1138.99 369.502 1139.01 369.497C1144.33 368.18 1148.71 364.203 1150.44 359.118C1150.5 358.891 1150.55 358.679 1150.58 358.511L1150.58 358.504H1125.65L1125.67 358.131C1125.91 352.435 1130.56 347.974 1136.25 347.974H1151.93L1151.94 347.914L1151.97 347.78C1154.84 336.133 1165.19 328 1177.15 328H1205.85V328.358C1205.85 332.186 1203.78 335.734 1200.45 337.618C1198.37 338.558 1196.13 338.57 1196.03 338.57L1179.12 338.57C1179.04 338.57 1178.95 338.569 1178.87 338.569C1176.32 338.569 1174.41 338.944 1174.04 339.022C1167.95 340.525 1163.24 345.682 1162.33 351.851C1162 354.098 1162.15 356.425 1162.76 358.581C1163.34 360.63 1164.39 362.576 1165.78 364.208C1167.16 365.826 1168.9 367.158 1170.81 368.061C1172.78 368.99 1174.98 369.481 1177.17 369.481H1205.85L1205.84 369.854C1205.6 375.385 1201.2 379.752 1195.74 380Z" fill="#09235C" fill-opacity="0.5"/>
</g>
<defs>
<clipPath id="clip0_323_255704">
<rect width="1131" height="404" fill="white"/>
</clipPath>
</defs>
</svg>
