<svg width="343" height="147" viewBox="0 0 343 147" fill="none" xmlns="http://www.w3.org/2000/svg">
<g filter="url(#filter0_d_3200_42936)">
<rect x="10" y="10" width="322.337" height="61.0723" rx="7.51806" fill="#0070C8" shape-rendering="crispEdges"/>
<path d="M28.3697 37.0361V29.3946H25.5959V28.4283H32.2173V29.3946H29.4435V37.0361H28.3697ZM34.2575 37.1495C33.8518 37.1495 33.4859 37.0719 33.1598 36.9168C32.8377 36.7617 32.5812 36.541 32.3903 36.2547C32.2034 35.9684 32.11 35.6303 32.11 35.2406V35.2287C32.11 34.8469 32.2014 34.5208 32.3844 34.2504C32.5673 33.976 32.8337 33.7612 33.1837 33.6061C33.5337 33.451 33.9572 33.3595 34.4543 33.3317L36.8165 33.1885V34.0177L34.5796 34.1609C34.0904 34.1887 33.7325 34.2901 33.5058 34.4651C33.2831 34.6401 33.1718 34.8867 33.1718 35.2048V35.2167C33.1718 35.5428 33.2951 35.7973 33.5416 35.9803C33.7882 36.1592 34.0984 36.2487 34.4722 36.2487C34.8261 36.2487 35.1403 36.1791 35.4147 36.0399C35.6891 35.8968 35.9039 35.7039 36.059 35.4613C36.218 35.2187 36.2976 34.9443 36.2976 34.6381V32.6338C36.2976 32.2361 36.1763 31.9338 35.9337 31.7271C35.6951 31.5163 35.3352 31.4109 34.854 31.4109C34.4682 31.4109 34.1521 31.4805 33.9055 31.6197C33.6589 31.7549 33.4939 31.9478 33.4104 32.1983L33.4044 32.2162H32.3665L32.3724 32.1804C32.4281 31.8424 32.5673 31.5481 32.79 31.2976C33.0167 31.043 33.309 30.8462 33.6669 30.707C34.0248 30.5638 34.4324 30.4922 34.8898 30.4922C35.4147 30.4922 35.8581 30.5777 36.22 30.7487C36.5859 30.9198 36.8623 31.1663 37.0492 31.4884C37.2401 31.8066 37.3355 32.1884 37.3355 32.6338V37.0361H36.2976V36.0877H36.2021C36.0669 36.3143 35.9019 36.5072 35.707 36.6663C35.5161 36.8254 35.2994 36.9467 35.0568 37.0302C34.8142 37.1097 34.5478 37.1495 34.2575 37.1495ZM39.2325 39.1836V30.6056H40.2704V31.6316H40.3659C40.4971 31.393 40.6622 31.1902 40.861 31.0231C41.0598 30.8521 41.2865 30.7209 41.541 30.6294C41.7956 30.538 42.0719 30.4922 42.3702 30.4922C42.915 30.4922 43.3883 30.6314 43.7899 30.9098C44.1956 31.1842 44.5097 31.57 44.7324 32.0671C44.9552 32.5642 45.0665 33.1468 45.0665 33.8149V33.8268C45.0665 34.4989 44.9552 35.0835 44.7324 35.5806C44.5097 36.0777 44.1956 36.4635 43.7899 36.7379C43.3883 37.0123 42.915 37.1495 42.3702 37.1495C42.0759 37.1495 41.7975 37.1037 41.5351 37.0123C41.2766 36.9168 41.0459 36.7856 40.8431 36.6186C40.6443 36.4515 40.4852 36.2527 40.3659 36.022H40.2704V39.1836H39.2325ZM42.1316 36.2308C42.5253 36.2308 42.8613 36.1354 43.1397 35.9445C43.4181 35.7496 43.6309 35.4732 43.778 35.1153C43.9291 34.7534 44.0047 34.3239 44.0047 33.8268V33.8149C44.0047 33.3138 43.9291 32.8843 43.778 32.5264C43.6309 32.1685 43.4181 31.8941 43.1397 31.7032C42.8613 31.5083 42.5253 31.4109 42.1316 31.4109C41.7419 31.4109 41.4058 31.5083 41.1235 31.7032C40.8411 31.8981 40.6244 32.1744 40.4733 32.5324C40.3221 32.8903 40.2466 33.3178 40.2466 33.8149V33.8268C40.2466 34.32 40.3221 34.7475 40.4733 35.1094C40.6244 35.4673 40.8411 35.7437 41.1235 35.9385C41.4058 36.1334 41.7419 36.2308 42.1316 36.2308ZM51.8908 37.1495C51.4851 37.1495 51.1193 37.0719 50.7932 36.9168C50.471 36.7617 50.2145 36.541 50.0236 36.2547C49.8367 35.9684 49.7433 35.6303 49.7433 35.2406V35.2287C49.7433 34.8469 49.8347 34.5208 50.0177 34.2504C50.2006 33.976 50.4671 33.7612 50.817 33.6061C51.167 33.451 51.5905 33.3595 52.0876 33.3317L54.4499 33.1885V34.0177L52.2129 34.1609C51.7237 34.1887 51.3658 34.2901 51.1391 34.4651C50.9164 34.6401 50.8051 34.8867 50.8051 35.2048V35.2167C50.8051 35.5428 50.9284 35.7973 51.1749 35.9803C51.4215 36.1592 51.7317 36.2487 52.1055 36.2487C52.4595 36.2487 52.7736 36.1791 53.048 36.0399C53.3224 35.8968 53.5372 35.7039 53.6923 35.4613C53.8513 35.2187 53.9309 34.9443 53.9309 34.6381V32.6338C53.9309 32.2361 53.8096 31.9338 53.567 31.7271C53.3284 31.5163 52.9685 31.4109 52.4873 31.4109C52.1015 31.4109 51.7854 31.4805 51.5388 31.6197C51.2922 31.7549 51.1272 31.9478 51.0437 32.1983L51.0377 32.2162H49.9998L50.0057 32.1804C50.0614 31.8424 50.2006 31.5481 50.4233 31.2976C50.65 31.043 50.9423 30.8462 51.3002 30.707C51.6581 30.5638 52.0657 30.4922 52.5231 30.4922C53.048 30.4922 53.4914 30.5777 53.8533 30.7487C54.2192 30.9198 54.4956 31.1663 54.6825 31.4884C54.8734 31.8066 54.9688 32.1884 54.9688 32.6338V37.0361H53.9309V36.0877H53.8354C53.7002 36.3143 53.5352 36.5072 53.3403 36.6663C53.1494 36.8254 52.9327 36.9467 52.6901 37.0302C52.4475 37.1097 52.1811 37.1495 51.8908 37.1495ZM62.1212 37.0361L59.741 30.6056H60.8387L62.5984 35.9027H62.6938L64.4536 30.6056H65.5512L63.1711 37.0361H62.1212ZM66.9471 37.0361V30.6056H67.985V37.0361H66.9471ZM67.472 29.3648C67.2772 29.3648 67.1081 29.2952 66.965 29.156C66.8258 29.0129 66.7562 28.8438 66.7562 28.649C66.7562 28.4501 66.8258 28.2811 66.965 28.1419C67.1081 28.0027 67.2772 27.9331 67.472 27.9331C67.6709 27.9331 67.8399 28.0027 67.9791 28.1419C68.1183 28.2811 68.1879 28.4501 68.1879 28.649C68.1879 28.8438 68.1183 29.0129 67.9791 29.156C67.8399 29.2952 67.6709 29.3648 67.472 29.3648ZM72.3158 37.1495C71.775 37.1495 71.3017 37.0123 70.8961 36.7379C70.4904 36.4635 70.1763 36.0777 69.9536 35.5806C69.7309 35.0795 69.6195 34.4949 69.6195 33.8268V33.8149C69.6195 33.1428 69.7309 32.5582 69.9536 32.0611C70.1763 31.564 70.4885 31.1782 70.8901 30.9038C71.2958 30.6294 71.771 30.4922 72.3158 30.4922C72.6101 30.4922 72.8865 30.54 73.145 30.6354C73.4075 30.7269 73.6401 30.8561 73.8429 31.0231C74.0457 31.1902 74.2048 31.389 74.3201 31.6197H74.4156V28.0524H75.4535V37.0361H74.4156V36.0101H74.3201C74.1889 36.2487 74.0239 36.4535 73.825 36.6245C73.6262 36.7916 73.3995 36.9208 73.145 37.0123C72.8905 37.1037 72.6141 37.1495 72.3158 37.1495ZM72.5544 36.2308C72.9442 36.2308 73.2802 36.1334 73.5626 35.9385C73.8449 35.7437 74.0616 35.4673 74.2128 35.1094C74.3639 34.7475 74.4394 34.32 74.4394 33.8268V33.8149C74.4394 33.3178 74.3639 32.8903 74.2128 32.5324C74.0616 32.1744 73.8449 31.8981 73.5626 31.7032C73.2802 31.5083 72.9442 31.4109 72.5544 31.4109C72.1647 31.4109 71.8287 31.5083 71.5463 31.7032C71.2679 31.8941 71.0532 32.1685 70.902 32.5264C70.7549 32.8843 70.6813 33.3138 70.6813 33.8149V33.8268C70.6813 34.3239 70.7549 34.7534 70.902 35.1153C71.0532 35.4732 71.2679 35.7496 71.5463 35.9445C71.8287 36.1354 72.1647 36.2308 72.5544 36.2308ZM80.0707 37.1495C79.4582 37.1495 78.9313 37.0143 78.4899 36.7438C78.0524 36.4734 77.7144 36.0916 77.4758 35.5985C77.2411 35.1014 77.1238 34.5168 77.1238 33.8447V33.8388C77.1238 33.1746 77.2411 32.592 77.4758 32.0909C77.7144 31.5898 78.0504 31.1981 78.4839 30.9158C78.9174 30.6334 79.4244 30.4922 80.005 30.4922C80.5896 30.4922 81.0907 30.6275 81.5083 30.8979C81.9298 31.1683 82.252 31.5461 82.4747 32.0313C82.7013 32.5125 82.8147 33.0732 82.8147 33.7135V34.1191H77.6607V33.2899H82.2838L81.7708 34.0475V33.6359C81.7708 33.1309 81.6952 32.7153 81.5441 32.3892C81.393 32.0631 81.1842 31.8205 80.9177 31.6614C80.6513 31.4984 80.3451 31.4169 79.9991 31.4169C79.6531 31.4169 79.3429 31.5024 79.0685 31.6734C78.7981 31.8404 78.5833 32.0889 78.4242 32.419C78.2652 32.7491 78.1856 33.1547 78.1856 33.6359V34.0475C78.1856 34.5049 78.2632 34.8966 78.4183 35.2227C78.5734 35.5448 78.7941 35.7934 79.0804 35.9684C79.3668 36.1394 79.7048 36.2249 80.0945 36.2249C80.3848 36.2249 80.6374 36.1851 80.8521 36.1056C81.0669 36.026 81.2438 35.9246 81.383 35.8013C81.5222 35.678 81.6196 35.5528 81.6753 35.4255L81.6992 35.3718H82.7371L82.7252 35.4195C82.6695 35.6383 82.5701 35.851 82.4269 36.0578C82.2877 36.2606 82.1068 36.4456 81.8841 36.6126C81.6614 36.7756 81.3969 36.9069 81.0907 37.0063C80.7885 37.1018 80.4485 37.1495 80.0707 37.1495ZM87.0679 37.1495C86.4594 37.1495 85.9325 37.0162 85.4871 36.7498C85.0457 36.4794 84.7037 36.0956 84.4611 35.5985C84.2225 35.1014 84.1032 34.5108 84.1032 33.8268V33.8149C84.1032 33.1269 84.2225 32.5343 84.4611 32.0372C84.7037 31.5401 85.0457 31.1584 85.4871 30.8919C85.9325 30.6255 86.4594 30.4922 87.0679 30.4922C87.6803 30.4922 88.2073 30.6255 88.6487 30.8919C89.0901 31.1584 89.4301 31.5401 89.6688 32.0372C89.9113 32.5343 90.0326 33.1269 90.0326 33.8149V33.8268C90.0326 34.5108 89.9113 35.1014 89.6688 35.5985C89.4301 36.0956 89.0901 36.4794 88.6487 36.7498C88.2073 37.0162 87.6803 37.1495 87.0679 37.1495ZM87.0679 36.2308C87.4735 36.2308 87.8175 36.1354 88.0999 35.9445C88.3823 35.7536 88.597 35.4792 88.7441 35.1213C88.8953 34.7634 88.9708 34.3319 88.9708 33.8268V33.8149C88.9708 33.3059 88.8953 32.8724 88.7441 32.5145C88.597 32.1565 88.3823 31.8841 88.0999 31.6972C87.8175 31.5063 87.4735 31.4109 87.0679 31.4109C86.6623 31.4109 86.3183 31.5063 86.0359 31.6972C85.7536 31.8841 85.5368 32.1565 85.3857 32.5145C85.2386 32.8724 85.165 33.3059 85.165 33.8149V33.8268C85.165 34.3319 85.2386 34.7634 85.3857 35.1213C85.5368 35.4792 85.7536 35.7536 86.0359 35.9445C86.3183 36.1354 86.6623 36.2308 87.0679 36.2308ZM98.2766 37.1495C97.9784 37.1495 97.702 37.1037 97.4475 37.0123C97.1929 36.9208 96.9663 36.7916 96.7674 36.6245C96.5686 36.4535 96.4035 36.2487 96.2723 36.0101H96.1769V37.0361H95.1389V28.0524H96.1769V31.6197H96.2723C96.3916 31.389 96.5507 31.1902 96.7495 31.0231C96.9523 30.8561 97.183 30.7269 97.4415 30.6354C97.704 30.54 97.9824 30.4922 98.2766 30.4922C98.8215 30.4922 99.2947 30.6294 99.6964 30.9038C100.102 31.1782 100.416 31.564 100.639 32.0611C100.862 32.5582 100.973 33.1428 100.973 33.8149V33.8268C100.973 34.4949 100.862 35.0795 100.639 35.5806C100.416 36.0777 100.102 36.4635 99.6964 36.7379C99.2947 37.0123 98.8215 37.1495 98.2766 37.1495ZM98.038 36.2308C98.4317 36.2308 98.7678 36.1354 99.0462 35.9445C99.3245 35.7496 99.5373 35.4732 99.6844 35.1153C99.8356 34.7534 99.9111 34.3239 99.9111 33.8268V33.8149C99.9111 33.3138 99.8356 32.8843 99.6844 32.5264C99.5373 32.1685 99.3245 31.8941 99.0462 31.7032C98.7678 31.5083 98.4317 31.4109 98.038 31.4109C97.6483 31.4109 97.3123 31.5083 97.0299 31.7032C96.7475 31.8981 96.5308 32.1744 96.3797 32.5324C96.2286 32.8903 96.153 33.3178 96.153 33.8149V33.8268C96.153 34.32 96.2286 34.7475 96.3797 35.1094C96.5308 35.4673 96.7475 35.7437 97.0299 35.9385C97.3123 36.1334 97.6483 36.2308 98.038 36.2308ZM105.208 37.1495C104.596 37.1495 104.069 37.0143 103.627 36.7438C103.19 36.4734 102.852 36.0916 102.613 35.5985C102.379 35.1014 102.261 34.5168 102.261 33.8447V33.8388C102.261 33.1746 102.379 32.592 102.613 32.0909C102.852 31.5898 103.188 31.1981 103.622 30.9158C104.055 30.6334 104.562 30.4922 105.143 30.4922C105.727 30.4922 106.228 30.6275 106.646 30.8979C107.067 31.1683 107.39 31.5461 107.612 32.0313C107.839 32.5125 107.952 33.0732 107.952 33.7135V34.1191H102.798V33.2899H107.421L106.908 34.0475V33.6359C106.908 33.1309 106.833 32.7153 106.682 32.3892C106.531 32.0631 106.322 31.8205 106.055 31.6614C105.789 31.4984 105.483 31.4169 105.137 31.4169C104.791 31.4169 104.481 31.5024 104.206 31.6734C103.936 31.8404 103.721 32.0889 103.562 32.419C103.403 32.7491 103.323 33.1547 103.323 33.6359V34.0475C103.323 34.5049 103.401 34.8966 103.556 35.2227C103.711 35.5448 103.932 35.7934 104.218 35.9684C104.504 36.1394 104.842 36.2249 105.232 36.2249C105.522 36.2249 105.775 36.1851 105.99 36.1056C106.204 36.026 106.381 35.9246 106.521 35.8013C106.66 35.678 106.757 35.5528 106.813 35.4255L106.837 35.3718H107.875L107.863 35.4195C107.807 35.6383 107.708 35.851 107.565 36.0578C107.425 36.2606 107.244 36.4456 107.022 36.6126C106.799 36.7756 106.535 36.9069 106.228 37.0063C105.926 37.1018 105.586 37.1495 105.208 37.1495ZM109.623 37.0361V28.0524H110.661V37.0361H109.623ZM115.296 37.1495C114.687 37.1495 114.16 37.0162 113.715 36.7498C113.273 36.4794 112.931 36.0956 112.689 35.5985C112.45 35.1014 112.331 34.5108 112.331 33.8268V33.8149C112.331 33.1269 112.45 32.5343 112.689 32.0372C112.931 31.5401 113.273 31.1584 113.715 30.8919C114.16 30.6255 114.687 30.4922 115.296 30.4922C115.908 30.4922 116.435 30.6255 116.876 30.8919C117.318 31.1584 117.658 31.5401 117.896 32.0372C118.139 32.5343 118.26 33.1269 118.26 33.8149V33.8268C118.26 34.5108 118.139 35.1014 117.896 35.5985C117.658 36.0956 117.318 36.4794 116.876 36.7498C116.435 37.0162 115.908 37.1495 115.296 37.1495ZM115.296 36.2308C115.701 36.2308 116.045 36.1354 116.328 35.9445C116.61 35.7536 116.825 35.4792 116.972 35.1213C117.123 34.7634 117.198 34.3319 117.198 33.8268V33.8149C117.198 33.3059 117.123 32.8724 116.972 32.5145C116.825 32.1565 116.61 31.8841 116.328 31.6972C116.045 31.5063 115.701 31.4109 115.296 31.4109C114.89 31.4109 114.546 31.5063 114.264 31.6972C113.981 31.8841 113.764 32.1565 113.613 32.5145C113.466 32.8724 113.393 33.3059 113.393 33.8149V33.8268C113.393 34.3319 113.466 34.7634 113.613 35.1213C113.764 35.4792 113.981 35.7536 114.264 35.9445C114.546 36.1354 114.89 36.2308 115.296 36.2308ZM120.873 37.0361L119.072 30.6056H120.109L121.374 35.7476H121.47L122.907 30.6056H123.891L125.329 35.7476H125.425L126.689 30.6056H127.721L125.92 37.0361H124.876L123.438 32.0611H123.343L121.911 37.0361H120.873ZM134.814 37.0839C134.154 37.0839 133.674 36.9506 133.376 36.6842C133.082 36.4177 132.935 35.9783 132.935 35.3659V31.4646H131.921V30.6056H132.935V28.9413H134.009V30.6056H135.416V31.4646H134.009V35.1034C134.009 35.4812 134.08 35.7536 134.223 35.9206C134.366 36.0837 134.605 36.1652 134.939 36.1652C135.031 36.1652 135.108 36.1632 135.172 36.1592C135.239 36.1553 135.321 36.1493 135.416 36.1413V37.0242C135.317 37.0401 135.218 37.054 135.118 37.066C135.019 37.0779 134.917 37.0839 134.814 37.0839ZM139.526 37.1495C138.918 37.1495 138.391 37.0162 137.946 36.7498C137.504 36.4794 137.162 36.0956 136.92 35.5985C136.681 35.1014 136.562 34.5108 136.562 33.8268V33.8149C136.562 33.1269 136.681 32.5343 136.92 32.0372C137.162 31.5401 137.504 31.1584 137.946 30.8919C138.391 30.6255 138.918 30.4922 139.526 30.4922C140.139 30.4922 140.666 30.6255 141.107 30.8919C141.549 31.1584 141.889 31.5401 142.127 32.0372C142.37 32.5343 142.491 33.1269 142.491 33.8149V33.8268C142.491 34.5108 142.37 35.1014 142.127 35.5985C141.889 36.0956 141.549 36.4794 141.107 36.7498C140.666 37.0162 140.139 37.1495 139.526 37.1495ZM139.526 36.2308C139.932 36.2308 140.276 36.1354 140.558 35.9445C140.841 35.7536 141.056 35.4792 141.203 35.1213C141.354 34.7634 141.429 34.3319 141.429 33.8268V33.8149C141.429 33.3059 141.354 32.8724 141.203 32.5145C141.056 32.1565 140.841 31.8841 140.558 31.6972C140.276 31.5063 139.932 31.4109 139.526 31.4109C139.121 31.4109 138.777 31.5063 138.494 31.6972C138.212 31.8841 137.995 32.1565 137.844 32.5145C137.697 32.8724 137.623 33.3059 137.623 33.8149V33.8268C137.623 34.3319 137.697 34.7634 137.844 35.1213C137.995 35.4792 138.212 35.7536 138.494 35.9445C138.777 36.1354 139.121 36.2308 139.526 36.2308ZM149.745 37.1495C149.268 37.1495 148.846 37.0779 148.48 36.9347C148.114 36.7876 147.82 36.5828 147.597 36.3203C147.379 36.0578 147.249 35.7496 147.21 35.3957H148.271C148.359 35.6621 148.53 35.8769 148.785 36.0399C149.039 36.203 149.371 36.2845 149.781 36.2845C150.071 36.2845 150.326 36.2428 150.544 36.1592C150.767 36.0717 150.942 35.9544 151.069 35.8073C151.196 35.6562 151.26 35.4832 151.26 35.2883V35.2764C151.26 35.0577 151.173 34.8727 150.998 34.7216C150.823 34.5665 150.536 34.4412 150.139 34.3458L149.142 34.1072C148.741 34.0117 148.411 33.8885 148.152 33.7373C147.894 33.5822 147.703 33.3933 147.58 33.1706C147.456 32.944 147.395 32.6775 147.395 32.3713V32.3653C147.395 32.0074 147.498 31.6873 147.705 31.4049C147.916 31.1226 148.202 30.8999 148.564 30.7368C148.926 30.5738 149.333 30.4922 149.787 30.4922C150.236 30.4922 150.634 30.5638 150.98 30.707C151.33 30.8462 151.61 31.045 151.821 31.3035C152.036 31.562 152.167 31.8662 152.215 32.2162H151.194C151.127 31.9617 150.972 31.7549 150.729 31.5958C150.487 31.4367 150.17 31.3572 149.781 31.3572C149.526 31.3572 149.3 31.399 149.101 31.4825C148.902 31.562 148.745 31.6734 148.629 31.8165C148.514 31.9597 148.456 32.1267 148.456 32.3176V32.3295C148.456 32.4727 148.494 32.6 148.57 32.7113C148.645 32.8227 148.763 32.9201 148.922 33.0036C149.081 33.0871 149.286 33.1607 149.536 33.2243L150.526 33.4629C151.131 33.6101 151.58 33.8209 151.875 34.0953C152.173 34.3697 152.322 34.7375 152.322 35.1988V35.2108C152.322 35.5925 152.209 35.9306 151.982 36.2249C151.755 36.5152 151.447 36.7418 151.057 36.9049C150.672 37.0679 150.234 37.1495 149.745 37.1495ZM156.158 37.0839C155.497 37.0839 155.018 36.9506 154.72 36.6842C154.426 36.4177 154.279 35.9783 154.279 35.3659V31.4646H153.264V30.6056H154.279V28.9413H155.352V30.6056H156.76V31.4646H155.352V35.1034C155.352 35.4812 155.424 35.7536 155.567 35.9206C155.71 36.0837 155.949 36.1652 156.283 36.1652C156.374 36.1652 156.452 36.1632 156.515 36.1592C156.583 36.1553 156.665 36.1493 156.76 36.1413V37.0242C156.661 37.0401 156.561 37.054 156.462 37.066C156.362 37.0779 156.261 37.0839 156.158 37.0839ZM160.077 37.1495C159.671 37.1495 159.305 37.0719 158.979 36.9168C158.657 36.7617 158.401 36.541 158.21 36.2547C158.023 35.9684 157.929 35.6303 157.929 35.2406V35.2287C157.929 34.8469 158.021 34.5208 158.204 34.2504C158.387 33.976 158.653 33.7612 159.003 33.6061C159.353 33.451 159.776 33.3595 160.274 33.3317L162.636 33.1885V34.0177L160.399 34.1609C159.91 34.1887 159.552 34.2901 159.325 34.4651C159.102 34.6401 158.991 34.8867 158.991 35.2048V35.2167C158.991 35.5428 159.114 35.7973 159.361 35.9803C159.607 36.1592 159.918 36.2487 160.291 36.2487C160.645 36.2487 160.96 36.1791 161.234 36.0399C161.508 35.8968 161.723 35.7039 161.878 35.4613C162.037 35.2187 162.117 34.9443 162.117 34.6381V32.6338C162.117 32.2361 161.996 31.9338 161.753 31.7271C161.514 31.5163 161.154 31.4109 160.673 31.4109C160.288 31.4109 159.971 31.4805 159.725 31.6197C159.478 31.7549 159.313 31.9478 159.23 32.1983L159.224 32.2162H158.186L158.192 32.1804C158.247 31.8424 158.387 31.5481 158.609 31.2976C158.836 31.043 159.128 30.8462 159.486 30.707C159.844 30.5638 160.252 30.4922 160.709 30.4922C161.234 30.4922 161.677 30.5777 162.039 30.7487C162.405 30.9198 162.682 31.1663 162.868 31.4884C163.059 31.8066 163.155 32.1884 163.155 32.6338V37.0361H162.117V36.0877H162.021C161.886 36.3143 161.721 36.5072 161.526 36.6663C161.335 36.8254 161.119 36.9467 160.876 37.0302C160.633 37.1097 160.367 37.1495 160.077 37.1495ZM165.052 37.0361V30.6056H166.09V31.56H166.185C166.308 31.222 166.517 30.9595 166.812 30.7726C167.106 30.5857 167.47 30.4922 167.903 30.4922C168.003 30.4922 168.1 30.4982 168.195 30.5101C168.295 30.5181 168.37 30.526 168.422 30.534V31.5421C168.315 31.5222 168.209 31.5083 168.106 31.5004C168.007 31.4884 167.899 31.4825 167.784 31.4825C167.454 31.4825 167.161 31.5481 166.907 31.6793C166.652 31.8106 166.452 31.9935 166.304 32.2281C166.161 32.4628 166.09 32.7372 166.09 33.0513V37.0361H165.052ZM172.109 37.0839C171.449 37.0839 170.969 36.9506 170.671 36.6842C170.377 36.4177 170.23 35.9783 170.23 35.3659V31.4646H169.216V30.6056H170.23V28.9413H171.303V30.6056H172.711V31.4646H171.303V35.1034C171.303 35.4812 171.375 35.7536 171.518 35.9206C171.661 36.0837 171.9 36.1652 172.234 36.1652C172.325 36.1652 172.403 36.1632 172.467 36.1592C172.534 36.1553 172.616 36.1493 172.711 36.1413V37.0242C172.612 37.0401 172.512 37.054 172.413 37.066C172.313 37.0779 172.212 37.0839 172.109 37.0839ZM177.722 37.0361V30.6056H178.76V37.0361H177.722ZM178.247 29.3648C178.052 29.3648 177.883 29.2952 177.74 29.156C177.601 29.0129 177.531 28.8438 177.531 28.649C177.531 28.4501 177.601 28.2811 177.74 28.1419C177.883 28.0027 178.052 27.9331 178.247 27.9331C178.446 27.9331 178.615 28.0027 178.754 28.1419C178.893 28.2811 178.963 28.4501 178.963 28.649C178.963 28.8438 178.893 29.0129 178.754 29.156C178.615 29.2952 178.446 29.3648 178.247 29.3648ZM183.091 37.1495C182.55 37.1495 182.077 37.0123 181.671 36.7379C181.265 36.4635 180.951 36.0777 180.728 35.5806C180.506 35.0795 180.394 34.4949 180.394 33.8268V33.8149C180.394 33.1428 180.506 32.5582 180.728 32.0611C180.951 31.564 181.263 31.1782 181.665 30.9038C182.071 30.6294 182.546 30.4922 183.091 30.4922C183.385 30.4922 183.661 30.54 183.92 30.6354C184.182 30.7269 184.415 30.8561 184.618 31.0231C184.821 31.1902 184.98 31.389 185.095 31.6197H185.19V28.0524H186.228V37.0361H185.19V36.0101H185.095C184.964 36.2487 184.799 36.4535 184.6 36.6245C184.401 36.7916 184.174 36.9208 183.92 37.0123C183.665 37.1037 183.389 37.1495 183.091 37.1495ZM183.329 36.2308C183.719 36.2308 184.055 36.1334 184.337 35.9385C184.62 35.7437 184.837 35.4673 184.988 35.1094C185.139 34.7475 185.214 34.32 185.214 33.8268V33.8149C185.214 33.3178 185.139 32.8903 184.988 32.5324C184.837 32.1744 184.62 31.8981 184.337 31.7032C184.055 31.5083 183.719 31.4109 183.329 31.4109C182.94 31.4109 182.604 31.5083 182.321 31.7032C182.043 31.8941 181.828 32.1685 181.677 32.5264C181.53 32.8843 181.456 33.3138 181.456 33.8149V33.8268C181.456 34.3239 181.53 34.7534 181.677 35.1153C181.828 35.4732 182.043 35.7496 182.321 35.9445C182.604 36.1354 182.94 36.2308 183.329 36.2308ZM190.846 37.1495C190.233 37.1495 189.706 37.0143 189.265 36.7438C188.827 36.4734 188.489 36.0916 188.251 35.5985C188.016 35.1014 187.899 34.5168 187.899 33.8447V33.8388C187.899 33.1746 188.016 32.592 188.251 32.0909C188.489 31.5898 188.825 31.1981 189.259 30.9158C189.692 30.6334 190.199 30.4922 190.78 30.4922C191.365 30.4922 191.866 30.6275 192.283 30.8979C192.705 31.1683 193.027 31.5461 193.25 32.0313C193.476 32.5125 193.59 33.0732 193.59 33.7135V34.1191H188.436V33.2899H193.059L192.546 34.0475V33.6359C192.546 33.1309 192.47 32.7153 192.319 32.3892C192.168 32.0631 191.959 31.8205 191.693 31.6614C191.426 31.4984 191.12 31.4169 190.774 31.4169C190.428 31.4169 190.118 31.5024 189.843 31.6734C189.573 31.8404 189.358 32.0889 189.199 32.419C189.04 32.7491 188.961 33.1547 188.961 33.6359V34.0475C188.961 34.5049 189.038 34.8966 189.193 35.2227C189.348 35.5448 189.569 35.7934 189.855 35.9684C190.142 36.1394 190.48 36.2249 190.869 36.2249C191.16 36.2249 191.412 36.1851 191.627 36.1056C191.842 36.026 192.019 35.9246 192.158 35.8013C192.297 35.678 192.395 35.5528 192.45 35.4255L192.474 35.3718H193.512L193.5 35.4195C193.444 35.6383 193.345 35.851 193.202 36.0578C193.063 36.2606 192.882 36.4456 192.659 36.6126C192.436 36.7756 192.172 36.9069 191.866 37.0063C191.563 37.1018 191.223 37.1495 190.846 37.1495ZM195.2 37.0361V30.6056H196.238V31.572H196.334C196.497 31.2299 196.731 30.9655 197.037 30.7786C197.344 30.5877 197.733 30.4922 198.207 30.4922C198.93 30.4922 199.485 30.699 199.871 31.1126C200.261 31.5222 200.456 32.1088 200.456 32.8724V37.0361H199.418V33.1229C199.418 32.5423 199.294 32.1128 199.048 31.8344C198.805 31.5521 198.427 31.4109 197.914 31.4109C197.572 31.4109 197.276 31.4845 197.026 31.6316C196.775 31.7787 196.58 31.9875 196.441 32.258C196.306 32.5284 196.238 32.8525 196.238 33.2303V37.0361H195.2ZM204.619 37.0839C203.959 37.0839 203.48 36.9506 203.182 36.6842C202.887 36.4177 202.74 35.9783 202.74 35.3659V31.4646H201.726V30.6056H202.74V28.9413H203.814V30.6056H205.222V31.4646H203.814V35.1034C203.814 35.4812 203.886 35.7536 204.029 35.9206C204.172 36.0837 204.411 36.1652 204.745 36.1652C204.836 36.1652 204.914 36.1632 204.977 36.1592C205.045 36.1553 205.126 36.1493 205.222 36.1413V37.0242C205.122 37.0401 205.023 37.054 204.924 37.066C204.824 37.0779 204.723 37.0839 204.619 37.0839ZM206.797 37.0361V30.6056H207.835V37.0361H206.797ZM207.322 29.3648C207.127 29.3648 206.958 29.2952 206.815 29.156C206.675 29.0129 206.606 28.8438 206.606 28.649C206.606 28.4501 206.675 28.2811 206.815 28.1419C206.958 28.0027 207.127 27.9331 207.322 27.9331C207.52 27.9331 207.689 28.0027 207.829 28.1419C207.968 28.2811 208.037 28.4501 208.037 28.649C208.037 28.8438 207.968 29.0129 207.829 29.156C207.689 29.2952 207.52 29.3648 207.322 29.3648ZM210.221 37.0361V31.4646H209.153V30.6056H210.221V29.8897C210.221 29.4603 210.29 29.1063 210.43 28.8279C210.573 28.5456 210.783 28.3368 211.062 28.2016C211.34 28.0624 211.682 27.9928 212.088 27.9928C212.215 27.9928 212.334 27.9988 212.446 28.0107C212.561 28.0186 212.672 28.0326 212.78 28.0524V28.8816C212.716 28.8697 212.643 28.8617 212.559 28.8578C212.476 28.8538 212.388 28.8518 212.297 28.8518C211.927 28.8518 211.66 28.9413 211.497 29.1202C211.338 29.2992 211.259 29.5656 211.259 29.9196V30.6056H212.72V31.4646H211.259V37.0361H210.221ZM214.766 39.291C214.699 39.291 214.623 39.287 214.54 39.2791C214.456 39.2751 214.379 39.2671 214.307 39.2552V38.4022C214.371 38.4141 214.44 38.4221 214.516 38.426C214.591 38.43 214.665 38.432 214.736 38.432C215.031 38.432 215.271 38.3564 215.458 38.2053C215.649 38.0542 215.802 37.7937 215.918 37.4239L216.037 37.0421L213.657 30.6056H214.766L216.747 36.547L216.335 35.8968H216.824L216.413 36.547L218.387 30.6056H219.479L216.967 37.4298C216.792 37.911 216.608 38.2868 216.413 38.5573C216.218 38.8277 215.989 39.0166 215.727 39.124C215.468 39.2353 215.148 39.291 214.766 39.291ZM220.875 37.0361V30.6056H221.913V37.0361H220.875ZM221.4 29.3648C221.205 29.3648 221.036 29.2952 220.893 29.156C220.753 29.0129 220.684 28.8438 220.684 28.649C220.684 28.4501 220.753 28.2811 220.893 28.1419C221.036 28.0027 221.205 27.9331 221.4 27.9331C221.598 27.9331 221.767 28.0027 221.907 28.1419C222.046 28.2811 222.115 28.4501 222.115 28.649C222.115 28.8438 222.046 29.0129 221.907 29.156C221.767 29.2952 221.598 29.3648 221.4 29.3648ZM223.869 37.0361V30.6056H224.907V31.572H225.003C225.166 31.2299 225.4 30.9655 225.707 30.7786C226.013 30.5877 226.402 30.4922 226.876 30.4922C227.6 30.4922 228.154 30.699 228.54 31.1126C228.93 31.5222 229.125 32.1088 229.125 32.8724V37.0361H228.087V33.1229C228.087 32.5423 227.963 32.1128 227.717 31.8344C227.474 31.5521 227.096 31.4109 226.583 31.4109C226.241 31.4109 225.945 31.4845 225.695 31.6316C225.444 31.7787 225.249 31.9875 225.11 32.258C224.975 32.5284 224.907 32.8525 224.907 33.2303V37.0361H223.869ZM233.652 39.3029C233.135 39.3029 232.684 39.2294 232.298 39.0822C231.912 38.9391 231.604 38.7342 231.374 38.4678C231.147 38.2053 231.006 37.8991 230.95 37.5491L230.962 37.5432H232.036L232.042 37.5491C232.097 37.7917 232.264 37.9906 232.543 38.1457C232.821 38.3047 233.191 38.3843 233.652 38.3843C234.229 38.3843 234.678 38.253 235 37.9906C235.327 37.7321 235.49 37.3662 235.49 36.893V35.5925H235.394C235.259 35.8272 235.09 36.028 234.887 36.195C234.684 36.3621 234.456 36.4893 234.201 36.5768C233.947 36.6603 233.672 36.7021 233.378 36.7021C232.825 36.7021 232.346 36.5708 231.94 36.3084C231.539 36.0419 231.228 35.6761 231.01 35.2108C230.791 34.7455 230.682 34.2126 230.682 33.6121V33.6001C230.682 32.9996 230.791 32.4667 231.01 32.0015C231.232 31.5322 231.547 31.1643 231.952 30.8979C232.358 30.6275 232.841 30.4922 233.402 30.4922C233.704 30.4922 233.982 30.54 234.237 30.6354C234.491 30.7309 234.716 30.8661 234.911 31.041C235.11 31.216 235.275 31.4248 235.406 31.6674H235.478V30.6056H236.516V36.9467C236.516 37.4239 236.398 37.8395 236.164 38.1934C235.933 38.5473 235.603 38.8197 235.173 39.0106C234.744 39.2055 234.237 39.3029 233.652 39.3029ZM233.605 35.7834C234.002 35.7834 234.342 35.692 234.625 35.509C234.911 35.3221 235.13 35.0656 235.281 34.7395C235.436 34.4134 235.513 34.0376 235.513 33.6121V33.6001C235.513 33.1746 235.436 32.7968 235.281 32.4667C235.13 32.1367 234.911 31.8782 234.625 31.6913C234.342 31.5043 234.002 31.4109 233.605 31.4109C233.207 31.4109 232.869 31.5043 232.59 31.6913C232.316 31.8782 232.105 32.1367 231.958 32.4667C231.815 32.7968 231.743 33.1746 231.743 33.6001V33.6121C231.743 34.0376 231.815 34.4134 231.958 34.7395C232.105 35.0656 232.316 35.3221 232.59 35.509C232.869 35.692 233.207 35.7834 233.605 35.7834ZM244.533 39.3029C244.016 39.3029 243.565 39.2294 243.179 39.0822C242.793 38.9391 242.485 38.7342 242.254 38.4678C242.027 38.2053 241.886 37.8991 241.831 37.5491L241.843 37.5432H242.916L242.922 37.5491C242.978 37.7917 243.145 37.9906 243.423 38.1457C243.702 38.3047 244.072 38.3843 244.533 38.3843C245.11 38.3843 245.559 38.253 245.881 37.9906C246.207 37.7321 246.37 37.3662 246.37 36.893V35.5925H246.275C246.14 35.8272 245.971 36.028 245.768 36.195C245.565 36.3621 245.336 36.4893 245.082 36.5768C244.827 36.6603 244.553 36.7021 244.258 36.7021C243.706 36.7021 243.227 36.5708 242.821 36.3084C242.419 36.0419 242.109 35.6761 241.89 35.2108C241.672 34.7455 241.562 34.2126 241.562 33.6121V33.6001C241.562 32.9996 241.672 32.4667 241.89 32.0015C242.113 31.5322 242.427 31.1643 242.833 30.8979C243.238 30.6275 243.722 30.4922 244.282 30.4922C244.585 30.4922 244.863 30.54 245.117 30.6354C245.372 30.7309 245.597 30.8661 245.792 31.041C245.99 31.216 246.155 31.4248 246.287 31.6674H246.358V30.6056H247.396V36.9467C247.396 37.4239 247.279 37.8395 247.044 38.1934C246.814 38.5473 246.484 38.8197 246.054 39.0106C245.625 39.2055 245.117 39.3029 244.533 39.3029ZM244.485 35.7834C244.883 35.7834 245.223 35.692 245.505 35.509C245.792 35.3221 246.01 35.0656 246.161 34.7395C246.317 34.4134 246.394 34.0376 246.394 33.6121V33.6001C246.394 33.1746 246.317 32.7968 246.161 32.4667C246.01 32.1367 245.792 31.8782 245.505 31.6913C245.223 31.5043 244.883 31.4109 244.485 31.4109C244.087 31.4109 243.749 31.5043 243.471 31.6913C243.197 31.8782 242.986 32.1367 242.839 32.4667C242.696 32.7968 242.624 33.1746 242.624 33.6001V33.6121C242.624 34.0376 242.696 34.4134 242.839 34.7395C242.986 35.0656 243.197 35.3221 243.471 35.509C243.749 35.692 244.087 35.7834 244.485 35.7834ZM251.095 37.1495C250.689 37.1495 250.323 37.0719 249.997 36.9168C249.675 36.7617 249.418 36.541 249.228 36.2547C249.041 35.9684 248.947 35.6303 248.947 35.2406V35.2287C248.947 34.8469 249.039 34.5208 249.222 34.2504C249.405 33.976 249.671 33.7612 250.021 33.6061C250.371 33.451 250.794 33.3595 251.292 33.3317L253.654 33.1885V34.0177L251.417 34.1609C250.928 34.1887 250.57 34.2901 250.343 34.4651C250.12 34.6401 250.009 34.8867 250.009 35.2048V35.2167C250.009 35.5428 250.132 35.7973 250.379 35.9803C250.625 36.1592 250.936 36.2487 251.309 36.2487C251.663 36.2487 251.978 36.1791 252.252 36.0399C252.526 35.8968 252.741 35.7039 252.896 35.4613C253.055 35.2187 253.135 34.9443 253.135 34.6381V32.6338C253.135 32.2361 253.014 31.9338 252.771 31.7271C252.532 31.5163 252.172 31.4109 251.691 31.4109C251.305 31.4109 250.989 31.4805 250.743 31.6197C250.496 31.7549 250.331 31.9478 250.248 32.1983L250.242 32.2162H249.204L249.21 32.1804C249.265 31.8424 249.405 31.5481 249.627 31.2976C249.854 31.043 250.146 30.8462 250.504 30.707C250.862 30.5638 251.27 30.4922 251.727 30.4922C252.252 30.4922 252.695 30.5777 253.057 30.7487C253.423 30.9198 253.7 31.1663 253.886 31.4884C254.077 31.8066 254.173 32.1884 254.173 32.6338V37.0361H253.135V36.0877H253.039C252.904 36.3143 252.739 36.5072 252.544 36.6663C252.353 36.8254 252.137 36.9467 251.894 37.0302C251.651 37.1097 251.385 37.1495 251.095 37.1495ZM256.07 37.0361V30.6056H257.108V31.5839H257.203C257.346 31.2379 257.565 30.9695 257.859 30.7786C258.158 30.5877 258.517 30.4922 258.939 30.4922C259.229 30.4922 259.49 30.54 259.72 30.6354C259.951 30.7309 260.15 30.8641 260.317 31.0351C260.484 31.2021 260.617 31.397 260.717 31.6197H260.812C260.927 31.393 261.083 31.1961 261.277 31.0291C261.472 30.8581 261.697 30.7269 261.951 30.6354C262.21 30.54 262.486 30.4922 262.781 30.4922C263.218 30.4922 263.588 30.5738 263.89 30.7368C264.196 30.8999 264.429 31.1385 264.588 31.4526C264.747 31.7628 264.827 32.1426 264.827 32.592V37.0361H263.789V32.8306C263.789 32.5125 263.739 32.25 263.64 32.0432C263.544 31.8324 263.397 31.6754 263.198 31.572C262.999 31.4646 262.749 31.4109 262.447 31.4109C262.148 31.4109 261.888 31.4785 261.665 31.6137C261.442 31.7489 261.269 31.9299 261.146 32.1565C261.023 32.3793 260.961 32.6278 260.961 32.9022V37.0361H259.923V32.6696C259.923 32.415 259.868 32.1943 259.756 32.0074C259.649 31.8165 259.494 31.6694 259.291 31.566C259.092 31.4626 258.857 31.4109 258.587 31.4109C258.309 31.4109 258.056 31.4845 257.829 31.6316C257.607 31.7787 257.43 31.9776 257.299 32.2281C257.171 32.4747 257.108 32.7491 257.108 33.0513V37.0361H256.07ZM269.325 37.1495C268.712 37.1495 268.185 37.0143 267.744 36.7438C267.306 36.4734 266.968 36.0916 266.73 35.5985C266.495 35.1014 266.378 34.5168 266.378 33.8447V33.8388C266.378 33.1746 266.495 32.592 266.73 32.0909C266.968 31.5898 267.304 31.1981 267.738 30.9158C268.171 30.6334 268.678 30.4922 269.259 30.4922C269.844 30.4922 270.345 30.6275 270.762 30.8979C271.184 31.1683 271.506 31.5461 271.729 32.0313C271.955 32.5125 272.069 33.0732 272.069 33.7135V34.1191H266.915V33.2899H271.538L271.025 34.0475V33.6359C271.025 33.1309 270.949 32.7153 270.798 32.3892C270.647 32.0631 270.438 31.8205 270.172 31.6614C269.905 31.4984 269.599 31.4169 269.253 31.4169C268.907 31.4169 268.597 31.5024 268.322 31.6734C268.052 31.8404 267.837 32.0889 267.678 32.419C267.519 32.7491 267.44 33.1547 267.44 33.6359V34.0475C267.44 34.5049 267.517 34.8966 267.672 35.2227C267.827 35.5448 268.048 35.7934 268.334 35.9684C268.621 36.1394 268.959 36.2249 269.348 36.2249C269.639 36.2249 269.891 36.1851 270.106 36.1056C270.321 36.026 270.498 35.9246 270.637 35.8013C270.776 35.678 270.874 35.5528 270.929 35.4255L270.953 35.3718H271.991L271.979 35.4195C271.923 35.6383 271.824 35.851 271.681 36.0578C271.542 36.2606 271.361 36.4456 271.138 36.6126C270.915 36.7756 270.651 36.9069 270.345 37.0063C270.042 37.1018 269.702 37.1495 269.325 37.1495ZM28.6322 52.1495C28.0317 52.1495 27.5107 52.0123 27.0693 51.7379C26.6279 51.4635 26.2859 51.0757 26.0433 50.5746C25.8007 50.0736 25.6794 49.483 25.6794 48.803V48.791C25.6794 48.1229 25.7987 47.5423 26.0373 47.0492C26.2799 46.556 26.6219 46.1743 27.0633 45.9038C27.5048 45.6294 28.0257 45.4922 28.6262 45.4922C29.1472 45.4922 29.5966 45.5837 29.9744 45.7666C30.3522 45.9496 30.6544 46.1961 30.8811 46.5063C31.1078 46.8126 31.2529 47.1565 31.3166 47.5383L31.3225 47.5741H30.2906L30.2846 47.5562C30.205 47.2381 30.0241 46.9676 29.7417 46.7449C29.4594 46.5222 29.0876 46.4109 28.6262 46.4109C28.2405 46.4109 27.9064 46.5083 27.6241 46.7032C27.3417 46.8981 27.123 47.1744 26.9679 47.5324C26.8168 47.8863 26.7412 48.3059 26.7412 48.791V48.803C26.7412 49.2961 26.8188 49.7256 26.9739 50.0915C27.129 50.4534 27.3477 50.7337 27.63 50.9326C27.9124 51.1314 28.2445 51.2308 28.6262 51.2308C29.0597 51.2308 29.4137 51.1374 29.6881 50.9505C29.9625 50.7635 30.1593 50.4911 30.2786 50.1332L30.2906 50.0974L31.3166 50.0915L31.3046 50.1571C31.2172 50.5428 31.0621 50.8868 30.8394 51.1891C30.6167 51.4873 30.3224 51.722 29.9565 51.893C29.5906 52.064 29.1492 52.1495 28.6322 52.1495ZM32.8974 52.0361V43.0524H33.9353V46.572H34.0308C34.1938 46.2299 34.4285 45.9655 34.7347 45.7786C35.0409 45.5877 35.4306 45.4922 35.9039 45.4922C36.3851 45.4922 36.7927 45.5857 37.1267 45.7726C37.4608 45.9555 37.7153 46.224 37.8903 46.5779C38.0653 46.9319 38.1528 47.3633 38.1528 47.8724V52.0361H37.1148V48.1229C37.1148 47.5423 36.9915 47.1128 36.745 46.8344C36.5024 46.5521 36.1246 46.4109 35.6116 46.4109C35.2696 46.4109 34.9733 46.4845 34.7227 46.6316C34.4722 46.7787 34.2773 46.9875 34.1381 47.258C34.0029 47.5284 33.9353 47.8525 33.9353 48.2303V52.0361H32.8974ZM41.7975 52.1495C41.3919 52.1495 41.026 52.0719 40.6999 51.9168C40.3778 51.7617 40.1213 51.541 39.9304 51.2547C39.7435 50.9684 39.65 50.6303 39.65 50.2406V50.2287C39.65 49.8469 39.7415 49.5208 39.9244 49.2504C40.1074 48.976 40.3738 48.7612 40.7238 48.6061C41.0738 48.451 41.4973 48.3595 41.9944 48.3317L44.3566 48.1885V49.0177L42.1197 49.1609C41.6305 49.1887 41.2726 49.2901 41.0459 49.4651C40.8232 49.6401 40.7119 49.8867 40.7119 50.2048V50.2167C40.7119 50.5428 40.8351 50.7973 41.0817 50.9803C41.3283 51.1592 41.6385 51.2487 42.0123 51.2487C42.3662 51.2487 42.6804 51.1791 42.9548 51.0399C43.2292 50.8968 43.444 50.7039 43.599 50.4613C43.7581 50.2187 43.8377 49.9443 43.8377 49.6381V47.6338C43.8377 47.2361 43.7164 46.9338 43.4738 46.7271C43.2352 46.5163 42.8753 46.4109 42.3941 46.4109C42.0083 46.4109 41.6922 46.4805 41.4456 46.6197C41.199 46.7549 41.034 46.9478 40.9505 47.1983L40.9445 47.2162H39.9066L39.9125 47.1804C39.9682 46.8424 40.1074 46.5481 40.3301 46.2976C40.5568 46.043 40.8491 45.8462 41.207 45.707C41.5649 45.5638 41.9725 45.4922 42.4299 45.4922C42.9548 45.4922 43.3982 45.5777 43.7601 45.7487C44.126 45.9198 44.4024 46.1663 44.5893 46.4884C44.7802 46.8066 44.8756 47.1884 44.8756 47.6338V52.0361H43.8377V51.0877H43.7422C43.607 51.3143 43.442 51.5072 43.2471 51.6663C43.0562 51.8254 42.8395 51.9467 42.5969 52.0302C42.3543 52.1097 42.0878 52.1495 41.7975 52.1495ZM46.7726 52.0361V45.6056H47.8105V46.572H47.906C48.069 46.2299 48.3037 45.9655 48.6099 45.7786C48.9161 45.5877 49.3058 45.4922 49.7791 45.4922C50.5028 45.4922 51.0576 45.699 51.4434 46.1126C51.8331 46.5222 52.028 47.1088 52.028 47.8724V52.0361H50.99V48.1229C50.99 47.5423 50.8667 47.1128 50.6202 46.8344C50.3776 46.5521 49.9998 46.4109 49.4868 46.4109C49.1448 46.4109 48.8485 46.4845 48.5979 46.6316C48.3474 46.7787 48.1525 46.9875 48.0133 47.258C47.8781 47.5284 47.8105 47.8525 47.8105 48.2303V52.0361H46.7726ZM56.5556 54.3029C56.0386 54.3029 55.5872 54.2294 55.2015 54.0822C54.8157 53.9391 54.5075 53.7342 54.2769 53.4678C54.0502 53.2053 53.909 52.8991 53.8533 52.5491L53.8653 52.5432H54.939L54.945 52.5491C55.0007 52.7917 55.1677 52.9906 55.4461 53.1457C55.7244 53.3047 56.0943 53.3843 56.5556 53.3843C57.1322 53.3843 57.5816 53.253 57.9037 52.9906C58.2298 52.7321 58.3929 52.3662 58.3929 51.893V50.5925H58.2975C58.1622 50.8272 57.9932 51.028 57.7904 51.195C57.5876 51.3621 57.3589 51.4893 57.1044 51.5768C56.8499 51.6603 56.5755 51.7021 56.2812 51.7021C55.7284 51.7021 55.2492 51.5708 54.8436 51.3084C54.4419 51.0419 54.1317 50.6761 53.913 50.2108C53.6943 49.7455 53.5849 49.2126 53.5849 48.6121V48.6001C53.5849 47.9996 53.6943 47.4667 53.913 47.0015C54.1357 46.5322 54.4499 46.1643 54.8555 45.8979C55.2611 45.6275 55.7443 45.4922 56.3051 45.4922C56.6073 45.4922 56.8857 45.54 57.1402 45.6354C57.3947 45.7309 57.6194 45.8661 57.8143 46.041C58.0131 46.216 58.1781 46.4248 58.3094 46.6674H58.381V45.6056H59.4189V51.9467C59.4189 52.4239 59.3016 52.8395 59.067 53.1934C58.8363 53.5473 58.5062 53.8197 58.0767 54.0106C57.6472 54.2055 57.1402 54.3029 56.5556 54.3029ZM56.5079 50.7834C56.9056 50.7834 57.2456 50.692 57.5279 50.509C57.8143 50.3221 58.033 50.0656 58.1841 49.7395C58.3392 49.4134 58.4168 49.0376 58.4168 48.6121V48.6001C58.4168 48.1746 58.3392 47.7968 58.1841 47.4667C58.033 47.1367 57.8143 46.8782 57.5279 46.6913C57.2456 46.5043 56.9056 46.4109 56.5079 46.4109C56.1102 46.4109 55.7722 46.5043 55.4938 46.6913C55.2194 46.8782 55.0086 47.1367 54.8615 47.4667C54.7183 47.7968 54.6467 48.1746 54.6467 48.6001V48.6121C54.6467 49.0376 54.7183 49.4134 54.8615 49.7395C55.0086 50.0656 55.2194 50.3221 55.4938 50.509C55.7722 50.692 56.1102 50.7834 56.5079 50.7834ZM61.3755 52.0361V45.6056H62.4135V52.0361H61.3755ZM61.9005 44.3648C61.7056 44.3648 61.5366 44.2952 61.3934 44.156C61.2542 44.0129 61.1846 43.8438 61.1846 43.649C61.1846 43.4501 61.2542 43.2811 61.3934 43.1419C61.5366 43.0027 61.7056 42.9331 61.9005 42.9331C62.0993 42.9331 62.2683 43.0027 62.4075 43.1419C62.5467 43.2811 62.6163 43.4501 62.6163 43.649C62.6163 43.8438 62.5467 44.0129 62.4075 44.156C62.2683 44.2952 62.0993 44.3648 61.9005 44.3648ZM64.3701 52.0361V45.6056H65.408V46.572H65.5035C65.6665 46.2299 65.9012 45.9655 66.2074 45.7786C66.5136 45.5877 66.9033 45.4922 67.3766 45.4922C68.1004 45.4922 68.6551 45.699 69.0409 46.1126C69.4306 46.5222 69.6255 47.1088 69.6255 47.8724V52.0361H68.5875V48.1229C68.5875 47.5423 68.4642 47.1128 68.2177 46.8344C67.9751 46.5521 67.5973 46.4109 67.0843 46.4109C66.7423 46.4109 66.446 46.4845 66.1955 46.6316C65.9449 46.7787 65.7501 46.9875 65.6109 47.258C65.4757 47.5284 65.408 47.8525 65.408 48.2303V52.0361H64.3701ZM74.1531 54.3029C73.6361 54.3029 73.1848 54.2294 72.799 54.0822C72.4133 53.9391 72.105 53.7342 71.8744 53.4678C71.6477 53.2053 71.5065 52.8991 71.4509 52.5491L71.4628 52.5432H72.5365L72.5425 52.5491C72.5982 52.7917 72.7652 52.9906 73.0436 53.1457C73.322 53.3047 73.6918 53.3843 74.1531 53.3843C74.7298 53.3843 75.1791 53.253 75.5013 52.9906C75.8274 52.7321 75.9904 52.3662 75.9904 51.893V50.5925H75.895C75.7598 50.8272 75.5907 51.028 75.3879 51.195C75.1851 51.3621 74.9564 51.4893 74.7019 51.5768C74.4474 51.6603 74.173 51.7021 73.8787 51.7021C73.3259 51.7021 72.8467 51.5708 72.4411 51.3084C72.0394 51.0419 71.7292 50.6761 71.5105 50.2108C71.2918 49.7455 71.1824 49.2126 71.1824 48.6121V48.6001C71.1824 47.9996 71.2918 47.4667 71.5105 47.0015C71.7332 46.5322 72.0474 46.1643 72.453 45.8979C72.8587 45.6275 73.3418 45.4922 73.9026 45.4922C74.2048 45.4922 74.4832 45.54 74.7377 45.6354C74.9922 45.7309 75.2169 45.8661 75.4118 46.041C75.6106 46.216 75.7757 46.4248 75.9069 46.6674H75.9785V45.6056H77.0164V51.9467C77.0164 52.4239 76.8991 52.8395 76.6645 53.1934C76.4338 53.5473 76.1038 53.8197 75.6743 54.0106C75.2448 54.2055 74.7377 54.3029 74.1531 54.3029ZM74.1054 50.7834C74.5031 50.7834 74.8431 50.692 75.1255 50.509C75.4118 50.3221 75.6305 50.0656 75.7816 49.7395C75.9367 49.4134 76.0143 49.0376 76.0143 48.6121V48.6001C76.0143 48.1746 75.9367 47.7968 75.7816 47.4667C75.6305 47.1367 75.4118 46.8782 75.1255 46.6913C74.8431 46.5043 74.5031 46.4109 74.1054 46.4109C73.7077 46.4109 73.3697 46.5043 73.0913 46.6913C72.8169 46.8782 72.6061 47.1367 72.459 47.4667C72.3158 47.7968 72.2442 48.1746 72.2442 48.6001V48.6121C72.2442 49.0376 72.3158 49.4134 72.459 49.7395C72.6061 50.0656 72.8169 50.3221 73.0913 50.509C73.3697 50.692 73.7077 50.7834 74.1054 50.7834ZM82.3852 52.0361V45.6056H83.4231V46.5839H83.5186C83.6617 46.2379 83.8805 45.9695 84.1748 45.7786C84.473 45.5877 84.8329 45.4922 85.2545 45.4922C85.5448 45.4922 85.8053 45.54 86.0359 45.6354C86.2666 45.7309 86.4654 45.8641 86.6324 46.0351C86.7995 46.2021 86.9327 46.397 87.0321 46.6197H87.1276C87.2429 46.393 87.398 46.1961 87.5928 46.0291C87.7877 45.8581 88.0124 45.7269 88.2669 45.6354C88.5254 45.54 88.8018 45.4922 89.0961 45.4922C89.5335 45.4922 89.9034 45.5738 90.2056 45.7368C90.5119 45.8999 90.7445 46.1385 90.9036 46.4526C91.0626 46.7628 91.1422 47.1426 91.1422 47.592V52.0361H90.1042V47.8306C90.1042 47.5125 90.0545 47.25 89.9551 47.0432C89.8596 46.8324 89.7125 46.6754 89.5137 46.572C89.3148 46.4646 89.0643 46.4109 88.762 46.4109C88.4638 46.4109 88.2033 46.4785 87.9806 46.6137C87.7579 46.7489 87.5849 46.9299 87.4616 47.1565C87.3383 47.3793 87.2767 47.6278 87.2767 47.9022V52.0361H86.2387V47.6696C86.2387 47.415 86.1831 47.1943 86.0717 47.0074C85.9643 46.8165 85.8092 46.6694 85.6064 46.566C85.4076 46.4626 85.1729 46.4109 84.9025 46.4109C84.6241 46.4109 84.3716 46.4845 84.1449 46.6316C83.9222 46.7787 83.7453 46.9776 83.614 47.2281C83.4868 47.4747 83.4231 47.7491 83.4231 48.0513V52.0361H82.3852ZM95.6579 52.1495C95.0494 52.1495 94.5225 52.0162 94.0771 51.7498C93.6357 51.4794 93.2936 51.0956 93.0511 50.5985C92.8125 50.1014 92.6931 49.5108 92.6931 48.8268V48.8149C92.6931 48.1269 92.8125 47.5343 93.0511 47.0372C93.2936 46.5401 93.6357 46.1584 94.0771 45.8919C94.5225 45.6255 95.0494 45.4922 95.6579 45.4922C96.2703 45.4922 96.7972 45.6255 97.2387 45.8919C97.6801 46.1584 98.0201 46.5401 98.2587 47.0372C98.5013 47.5343 98.6226 48.1269 98.6226 48.8149V48.8268C98.6226 49.5108 98.5013 50.1014 98.2587 50.5985C98.0201 51.0956 97.6801 51.4794 97.2387 51.7498C96.7972 52.0162 96.2703 52.1495 95.6579 52.1495ZM95.6579 51.2308C96.0635 51.2308 96.4075 51.1354 96.6899 50.9445C96.9722 50.7536 97.187 50.4792 97.3341 50.1213C97.4852 49.7634 97.5608 49.3319 97.5608 48.8268V48.8149C97.5608 48.3059 97.4852 47.8724 97.3341 47.5145C97.187 47.1565 96.9722 46.8841 96.6899 46.6972C96.4075 46.5063 96.0635 46.4109 95.6579 46.4109C95.2522 46.4109 94.9082 46.5063 94.6259 46.6972C94.3435 46.8841 94.1268 47.1565 93.9757 47.5145C93.8285 47.8724 93.755 48.3059 93.755 48.8149V48.8268C93.755 49.3319 93.8285 49.7634 93.9757 50.1213C94.1268 50.4792 94.3435 50.7536 94.6259 50.9445C94.9082 51.1354 95.2522 51.2308 95.6579 51.2308ZM100.233 52.0361V45.6056H101.271V46.5839H101.367C101.51 46.2379 101.729 45.9695 102.023 45.7786C102.321 45.5877 102.681 45.4922 103.103 45.4922C103.393 45.4922 103.653 45.54 103.884 45.6354C104.115 45.7309 104.313 45.8641 104.481 46.0351C104.648 46.2021 104.781 46.397 104.88 46.6197H104.976C105.091 46.393 105.246 46.1961 105.441 46.0291C105.636 45.8581 105.86 45.7269 106.115 45.6354C106.373 45.54 106.65 45.4922 106.944 45.4922C107.382 45.4922 107.751 45.5738 108.054 45.7368C108.36 45.8999 108.593 46.1385 108.752 46.4526C108.911 46.7628 108.99 47.1426 108.99 47.592V52.0361H107.952V47.8306C107.952 47.5125 107.903 47.25 107.803 47.0432C107.708 46.8324 107.561 46.6754 107.362 46.572C107.163 46.4646 106.912 46.4109 106.61 46.4109C106.312 46.4109 106.051 46.4785 105.829 46.6137C105.606 46.7489 105.433 46.9299 105.31 47.1565C105.186 47.3793 105.125 47.6278 105.125 47.9022V52.0361H104.087V47.6696C104.087 47.415 104.031 47.1943 103.92 47.0074C103.812 46.8165 103.657 46.6694 103.454 46.566C103.256 46.4626 103.021 46.4109 102.751 46.4109C102.472 46.4109 102.22 46.4845 101.993 46.6316C101.77 46.7787 101.593 46.9776 101.462 47.2281C101.335 47.4747 101.271 47.7491 101.271 48.0513V52.0361H100.233ZM113.488 52.1495C112.876 52.1495 112.349 52.0143 111.907 51.7438C111.47 51.4734 111.132 51.0916 110.893 50.5985C110.659 50.1014 110.541 49.5168 110.541 48.8447V48.8388C110.541 48.1746 110.659 47.592 110.893 47.0909C111.132 46.5898 111.468 46.1981 111.901 45.9158C112.335 45.6334 112.842 45.4922 113.422 45.4922C114.007 45.4922 114.508 45.6275 114.926 45.8979C115.347 46.1683 115.669 46.5461 115.892 47.0313C116.119 47.5125 116.232 48.0732 116.232 48.7135V49.1191H111.078V48.2899H115.701L115.188 49.0475V48.6359C115.188 48.1309 115.113 47.7153 114.961 47.3892C114.81 47.0631 114.602 46.8205 114.335 46.6614C114.069 46.4984 113.762 46.4169 113.416 46.4169C113.07 46.4169 112.76 46.5024 112.486 46.6734C112.215 46.8404 112.001 47.0889 111.842 47.419C111.683 47.7491 111.603 48.1547 111.603 48.6359V49.0475C111.603 49.5049 111.681 49.8966 111.836 50.2227C111.991 50.5448 112.211 50.7934 112.498 50.9684C112.784 51.1394 113.122 51.2249 113.512 51.2249C113.802 51.2249 114.055 51.1851 114.27 51.1056C114.484 51.026 114.661 50.9246 114.8 50.8013C114.94 50.678 115.037 50.5528 115.093 50.4255L115.117 50.3718H116.155L116.143 50.4195C116.087 50.6383 115.987 50.851 115.844 51.0578C115.705 51.2606 115.524 51.4456 115.301 51.6126C115.079 51.7756 114.814 51.9069 114.508 52.0063C114.206 52.1018 113.866 52.1495 113.488 52.1495ZM117.843 52.0361V45.6056H118.881V46.572H118.976C119.139 46.2299 119.374 45.9655 119.68 45.7786C119.986 45.5877 120.376 45.4922 120.849 45.4922C121.573 45.4922 122.128 45.699 122.513 46.1126C122.903 46.5222 123.098 47.1088 123.098 47.8724V52.0361H122.06V48.1229C122.06 47.5423 121.937 47.1128 121.69 46.8344C121.448 46.5521 121.07 46.4109 120.557 46.4109C120.215 46.4109 119.919 46.4845 119.668 46.6316C119.418 46.7787 119.223 46.9875 119.083 47.258C118.948 47.5284 118.881 47.8525 118.881 48.2303V52.0361H117.843ZM127.262 52.0839C126.602 52.0839 126.122 51.9506 125.824 51.6842C125.53 51.4177 125.383 50.9783 125.383 50.3659V46.4646H124.369V45.6056H125.383V43.9413H126.457V45.6056H127.864V46.4646H126.457V50.1034C126.457 50.4812 126.528 50.7536 126.671 50.9206C126.814 51.0837 127.053 51.1652 127.387 51.1652C127.479 51.1652 127.556 51.1632 127.62 51.1592C127.687 51.1553 127.769 51.1493 127.864 51.1413V52.0242C127.765 52.0401 127.665 52.054 127.566 52.066C127.467 52.0779 127.365 52.0839 127.262 52.0839ZM131.503 52.1495C131.026 52.1495 130.604 52.0779 130.239 51.9347C129.873 51.7876 129.578 51.5828 129.356 51.3203C129.137 51.0578 129.008 50.7496 128.968 50.3957H130.03C130.117 50.6621 130.288 50.8769 130.543 51.0399C130.797 51.203 131.129 51.2845 131.539 51.2845C131.829 51.2845 132.084 51.2428 132.302 51.1592C132.525 51.0717 132.7 50.9544 132.827 50.8073C132.955 50.6562 133.018 50.4832 133.018 50.2883V50.2764C133.018 50.0577 132.931 49.8727 132.756 49.7216C132.581 49.5665 132.295 49.4412 131.897 49.3458L130.901 49.1072C130.499 49.0117 130.169 48.8885 129.91 48.7373C129.652 48.5822 129.461 48.3933 129.338 48.1706C129.214 47.944 129.153 47.6775 129.153 47.3713V47.3653C129.153 47.0074 129.256 46.6873 129.463 46.4049C129.674 46.1226 129.96 45.8999 130.322 45.7368C130.684 45.5738 131.092 45.4922 131.545 45.4922C131.994 45.4922 132.392 45.5638 132.738 45.707C133.088 45.8462 133.368 46.045 133.579 46.3035C133.794 46.562 133.925 46.8662 133.973 47.2162H132.953C132.885 46.9617 132.73 46.7549 132.487 46.5958C132.245 46.4367 131.929 46.3572 131.539 46.3572C131.284 46.3572 131.058 46.399 130.859 46.4825C130.66 46.562 130.503 46.6734 130.388 46.8165C130.272 46.9597 130.215 47.1267 130.215 47.3176V47.3295C130.215 47.4727 130.252 47.6 130.328 47.7113C130.404 47.8227 130.521 47.9201 130.68 48.0036C130.839 48.0871 131.044 48.1607 131.294 48.2243L132.285 48.4629C132.889 48.6101 133.338 48.8209 133.633 49.0953C133.931 49.3697 134.08 49.7375 134.08 50.1988V50.2108C134.08 50.5925 133.967 50.9306 133.74 51.2249C133.513 51.5152 133.205 51.7418 132.815 51.9049C132.43 52.0679 131.992 52.1495 131.503 52.1495ZM136.538 52.0958C136.327 52.0958 136.144 52.0202 135.989 51.8691C135.838 51.714 135.762 51.5311 135.762 51.3203C135.762 51.1056 135.838 50.9226 135.989 50.7715C136.144 50.6204 136.327 50.5448 136.538 50.5448C136.753 50.5448 136.936 50.6204 137.087 50.7715C137.238 50.9226 137.313 51.1056 137.313 51.3203C137.313 51.5311 137.238 51.714 137.087 51.8691C136.936 52.0202 136.753 52.0958 136.538 52.0958Z" fill="white"/>
<path d="M321.166 21.7201C321.41 21.4755 321.41 21.0788 321.166 20.8341C320.921 20.5895 320.524 20.5895 320.28 20.8341L316.964 24.1502L313.648 20.8341C313.403 20.5895 313.006 20.5895 312.762 20.8341C312.517 21.0788 312.517 21.4755 312.762 21.7201L316.078 25.0362L312.762 28.3522C312.517 28.5969 312.517 28.9936 312.762 29.2382C313.006 29.4829 313.403 29.4829 313.648 29.2382L316.964 25.9222L320.28 29.2382C320.524 29.4829 320.921 29.4829 321.166 29.2382C321.41 28.9936 321.41 28.5969 321.166 28.3522L317.85 25.0362L321.166 21.7201Z" fill="white"/>
</g>
<g filter="url(#filter1_d_3200_42936)">
<mask id="path-4-inside-1_3200_42936" fill="white">
<path d="M10 95.0723H127.47V136.626H10V95.0723Z"/>
</mask>
<path d="M10 95.0723H127.47V136.626H10V95.0723Z" fill="white"/>
<path d="M127.47 134.747H10V138.506H127.47V134.747Z" fill="#0070C8" mask="url(#path-4-inside-1_3200_42936)"/>
<path d="M52.6577 120.349L49.2231 110.417H51.1778L53.6351 118.298H53.7521L56.2162 110.417H58.171L54.7295 120.349H52.6577ZM59.7265 120.349V112.826H61.4335V120.349H59.7265ZM60.5869 111.567C60.307 111.567 60.0661 111.468 59.8642 111.271C59.6623 111.073 59.5613 110.837 59.5613 110.562C59.5613 110.277 59.6623 110.039 59.8642 109.846C60.0661 109.649 60.307 109.55 60.5869 109.55C60.8668 109.55 61.1054 109.649 61.3027 109.846C61.5046 110.039 61.6056 110.277 61.6056 110.562C61.6056 110.837 61.5046 111.073 61.3027 111.271C61.1054 111.468 60.8668 111.567 60.5869 111.567ZM66.2585 120.473C65.6344 120.473 65.0907 120.317 64.6272 120.005C64.1638 119.689 63.8058 119.239 63.5535 118.656C63.3011 118.073 63.1749 117.387 63.1749 116.598V116.584C63.1749 115.786 63.2988 115.098 63.5466 114.519C63.799 113.937 64.1546 113.489 64.6134 113.177C65.0769 112.861 65.6252 112.702 66.2585 112.702C66.6026 112.702 66.9238 112.757 67.2221 112.868C67.5204 112.973 67.7819 113.125 68.0068 113.322C68.2362 113.519 68.4151 113.753 68.5436 114.024H68.6675V109.915H70.3745V120.349H68.6675V119.172H68.5436C68.406 119.443 68.2247 119.677 67.9999 119.874C67.7796 120.067 67.5227 120.216 67.229 120.322C66.9353 120.423 66.6118 120.473 66.2585 120.473ZM66.7954 119.028C67.1854 119.028 67.5204 118.931 67.8003 118.739C68.0848 118.541 68.3027 118.262 68.4542 117.899C68.6102 117.532 68.6882 117.098 68.6882 116.598V116.584C68.6882 116.08 68.6102 115.646 68.4542 115.283C68.3027 114.921 68.0848 114.641 67.8003 114.444C67.5204 114.246 67.1854 114.148 66.7954 114.148C66.4099 114.148 66.0749 114.246 65.7904 114.444C65.5105 114.636 65.2949 114.916 65.1434 115.283C64.992 115.646 64.9163 116.08 64.9163 116.584V116.598C64.9163 117.103 64.992 117.537 65.1434 117.899C65.2949 118.262 65.5105 118.541 65.7904 118.739C66.0703 118.931 66.4053 119.028 66.7954 119.028ZM75.757 120.501C75.0091 120.501 74.3666 120.342 73.8298 120.026C73.2975 119.709 72.8868 119.26 72.5977 118.677C72.3086 118.094 72.1641 117.403 72.1641 116.605V116.598C72.1641 115.809 72.3063 115.121 72.5908 114.533C72.8799 113.946 73.2883 113.492 73.816 113.17C74.3437 112.845 74.9632 112.682 75.6744 112.682C76.3902 112.682 77.0051 112.84 77.5191 113.157C78.0376 113.469 78.4368 113.907 78.7167 114.471C78.9966 115.036 79.1366 115.696 79.1366 116.454V117.018H73.0245V115.869H78.2968L77.4846 116.942V116.261C77.4846 115.761 77.4089 115.345 77.2575 115.015C77.1061 114.685 76.895 114.437 76.6243 114.272C76.3581 114.106 76.0484 114.024 75.6951 114.024C75.3417 114.024 75.0274 114.111 74.7521 114.285C74.4814 114.455 74.2657 114.708 74.1051 115.043C73.9491 115.373 73.8711 115.779 73.8711 116.261V116.949C73.8711 117.413 73.9491 117.81 74.1051 118.14C74.2611 118.466 74.4814 118.718 74.7659 118.897C75.0549 119.071 75.3968 119.159 75.7914 119.159C76.0989 119.159 76.3627 119.115 76.583 119.028C76.8078 118.936 76.9891 118.828 77.1267 118.704C77.2644 118.576 77.3607 118.454 77.4158 118.34L77.4365 118.291H79.0608L79.0471 118.353C78.9874 118.596 78.8773 118.844 78.7167 119.097C78.5607 119.344 78.3473 119.576 78.0766 119.792C77.8104 120.003 77.4846 120.175 77.0992 120.308C76.7137 120.437 76.2663 120.501 75.757 120.501ZM84.0992 120.501C83.3512 120.501 82.7065 120.345 82.1651 120.033C81.6236 119.716 81.206 119.266 80.9124 118.684C80.6233 118.101 80.4787 117.403 80.4787 116.591V116.577C80.4787 115.774 80.6256 115.082 80.9193 114.499C81.2129 113.911 81.6282 113.462 82.1651 113.15C82.7065 112.838 83.3512 112.682 84.0992 112.682C84.8471 112.682 85.4896 112.838 86.0264 113.15C86.5679 113.462 86.9855 113.909 87.2791 114.492C87.5728 115.075 87.7196 115.77 87.7196 116.577V116.591C87.7196 117.403 87.5728 118.101 87.2791 118.684C86.9901 119.266 86.5748 119.716 86.0333 120.033C85.4964 120.345 84.8517 120.501 84.0992 120.501ZM84.0992 119.11C84.4938 119.11 84.8288 119.012 85.1041 118.814C85.384 118.613 85.5974 118.326 85.7442 117.954C85.8911 117.578 85.9645 117.126 85.9645 116.598V116.584C85.9645 116.052 85.8911 115.6 85.7442 115.228C85.5974 114.852 85.384 114.565 85.1041 114.368C84.8288 114.166 84.4938 114.065 84.0992 114.065C83.7046 114.065 83.3673 114.166 83.0874 114.368C82.8075 114.565 82.5941 114.852 82.4473 115.228C82.3004 115.6 82.227 116.052 82.227 116.584V116.598C82.227 117.126 82.3004 117.578 82.4473 117.954C82.5941 118.33 82.8052 118.617 83.0805 118.814C83.3604 119.012 83.7 119.11 84.0992 119.11Z" fill="#5B7180"/>
<circle cx="98.1983" cy="116.271" r="2.19832" fill="#FF0000"/>
</g>
<defs>
<filter id="filter0_d_3200_42936" x="0" y="0" width="342.338" height="81.0723" filterUnits="userSpaceOnUse" color-interpolation-filters="sRGB">
<feFlood flood-opacity="0" result="BackgroundImageFix"/>
<feColorMatrix in="SourceAlpha" type="matrix" values="0 0 0 0 0 0 0 0 0 0 0 0 0 0 0 0 0 0 127 0" result="hardAlpha"/>
<feOffset/>
<feGaussianBlur stdDeviation="5"/>
<feComposite in2="hardAlpha" operator="out"/>
<feColorMatrix type="matrix" values="0 0 0 0 0 0 0 0 0 0 0 0 0 0 0 0 0 0 0.25 0"/>
<feBlend mode="normal" in2="BackgroundImageFix" result="effect1_dropShadow_3200_42936"/>
<feBlend mode="normal" in="SourceGraphic" in2="effect1_dropShadow_3200_42936" result="shape"/>
</filter>
<filter id="filter1_d_3200_42936" x="0" y="85.0723" width="137.471" height="61.5542" filterUnits="userSpaceOnUse" color-interpolation-filters="sRGB">
<feFlood flood-opacity="0" result="BackgroundImageFix"/>
<feColorMatrix in="SourceAlpha" type="matrix" values="0 0 0 0 0 0 0 0 0 0 0 0 0 0 0 0 0 0 127 0" result="hardAlpha"/>
<feOffset/>
<feGaussianBlur stdDeviation="5"/>
<feComposite in2="hardAlpha" operator="out"/>
<feColorMatrix type="matrix" values="0 0 0 0 0 0 0 0 0 0 0 0 0 0 0 0 0 0 0.25 0"/>
<feBlend mode="normal" in2="BackgroundImageFix" result="effect1_dropShadow_3200_42936"/>
<feBlend mode="normal" in="SourceGraphic" in2="effect1_dropShadow_3200_42936" result="shape"/>
</filter>
</defs>
</svg>
