<svg width="67" height="32" viewBox="0 0 67 32" fill="none" xmlns="http://www.w3.org/2000/svg">
<path fill-rule="evenodd" clip-rule="evenodd" d="M60.1471 32H48.5233C43.7282 31.8595 39.156 29.5554 36.1635 25.7633C33.2416 29.5554 28.7366 31.8595 23.9858 32H15.7761C11.5926 31.8771 7.53395 30.1021 4.57692 27.0866C1.68062 24.1327 0.0672248 20.3059 0 16.2607V15.7329C0 15.7303 0 15.7277 0 15.7251C0.148328 7.05414 7.30842 0 15.9613 0H28.5514V0.220052C28.5514 2.38834 27.4819 4.41093 25.6907 5.63154C24.3241 6.48252 22.5337 6.49241 22.4578 6.49241L17.1735 6.49326C17.1206 6.49283 17.0682 6.49283 17.0157 6.49283C15.4361 6.49283 14.2707 6.72277 14.0465 6.77048C10.2745 7.70226 7.37261 10.8995 6.83264 14.725C6.7459 15.325 6.7433 15.9297 6.75154 16.4425C6.82266 20.7571 9.82913 24.5006 14.0626 25.5458C14.2794 25.5918 15.4361 25.8222 17.0087 25.8222C17.0656 25.8222 17.1228 25.8222 17.1805 25.8213H22.0727C22.1265 25.8218 22.1798 25.8222 22.2332 25.8222C23.9615 25.8222 25.2236 25.5394 25.2366 25.5364C28.5111 24.7262 31.2075 22.279 32.2701 19.1497C32.31 19.01 32.3369 18.8794 32.3542 18.7758L32.3546 18.7715H17.0148L17.0248 18.542C17.1766 15.0371 20.0382 12.2916 23.54 12.2916H33.1895L33.1939 12.255L33.2138 12.1725C34.9777 5.0049 41.3502 0 48.7098 0H66.3678V0.220052C66.3678 2.57616 65.094 4.75949 63.0434 5.91864C61.7666 6.49713 60.3852 6.50444 60.3267 6.50444L49.9229 6.50487C49.8695 6.50444 49.8162 6.50401 49.7637 6.50401C48.1941 6.50401 47.02 6.73481 46.7958 6.78251C43.049 7.70785 40.1501 10.881 39.5893 14.6773C39.3837 16.0604 39.4744 17.4924 39.8522 18.8188C40.2108 20.0802 40.8532 21.2776 41.7093 22.282C42.5589 23.2774 43.6297 24.0975 44.8073 24.6527C46.0195 25.2244 47.3722 25.5265 48.7193 25.5265H66.3704L66.3604 25.7564C66.2129 29.1599 63.5101 31.8474 60.1471 32Z" fill="#00D682"/>
</svg>
