<svg width="108" height="52" viewBox="0 0 108 52" fill="none" xmlns="http://www.w3.org/2000/svg">
<path fill-rule="evenodd" clip-rule="evenodd" d="M97.739 52H78.8503C71.0583 51.7716 63.6286 48.0275 58.7656 41.8654C54.0176 48.0275 46.697 51.7716 38.9769 52H25.6362C18.838 51.8003 12.2427 48.9158 7.4375 44.0158C2.73101 39.2156 0.10924 32.997 0 26.4236V25.5659C0 25.5617 0 25.5576 0 25.5534C0.241033 11.463 11.8762 0 25.9372 0H46.3961V0.357585C46.3961 3.88106 44.6581 7.16777 41.7474 9.15125C39.5267 10.5341 36.6173 10.5502 36.494 10.5502L27.907 10.5516C27.821 10.5509 27.7358 10.5509 27.6505 10.5509C25.0837 10.5509 23.1899 10.9245 22.8256 11.002C16.6961 12.5162 11.9805 17.7116 11.103 23.9282C10.9621 24.9032 10.9579 25.8858 10.9712 26.719C11.0868 33.7303 15.9723 39.8135 22.8517 41.512C23.204 41.5867 25.0837 41.9611 27.6392 41.9611C27.7315 41.9611 27.8246 41.9611 27.9183 41.9597H35.8682C35.9556 41.9604 36.0422 41.9611 36.1289 41.9611C38.9375 41.9611 40.9884 41.5015 41.0095 41.4966C46.3306 40.1801 50.7122 36.2034 52.4389 31.1183C52.5037 30.8913 52.5474 30.679 52.5756 30.5107L52.5763 30.5037H27.6491L27.6653 30.1307C27.9119 24.4352 32.5621 19.9738 38.2524 19.9738H53.933L53.94 19.9144L53.9724 19.7803C56.8388 8.13297 67.194 0 79.1534 0H107.848V0.357585C107.848 4.18626 105.778 7.73418 102.446 9.61778C100.371 10.5578 98.126 10.5697 98.0308 10.5697L81.1246 10.5704C81.038 10.5697 80.9513 10.569 80.866 10.569C78.3154 10.569 76.4076 10.9441 76.0432 11.0216C69.9546 12.5253 65.2439 17.6816 64.3327 23.8507C63.9986 26.0981 64.1459 28.4252 64.7598 30.5805C65.3426 32.6303 66.3864 34.5761 67.7776 36.2083C69.1583 37.8258 70.8983 39.1584 72.8118 40.0607C74.7817 40.9896 76.9799 41.4806 79.1689 41.4806H107.852L107.836 41.8542C107.596 47.3849 103.204 51.7521 97.739 52Z" fill="#808080"/>
</svg>
