<svg width="160" height="160" viewBox="0 0 160 160" fill="none" xmlns="http://www.w3.org/2000/svg">
<g clip-path="url(#clip0_1831_1073)">
<path d="M128 0H32C14.3269 0 0 14.3269 0 32V128C0 145.673 14.3269 160 32 160H128C145.673 160 160 145.673 160 128V32C160 14.3269 145.673 0 128 0Z" fill="#021644"/>
<path fill-rule="evenodd" clip-rule="evenodd" d="M120.034 103.653H102.598C95.4054 103.442 88.5471 99.9863 84.0582 94.2982C79.6753 99.9863 72.9179 103.442 65.7915 103.653H53.4769C47.2015 103.469 41.1135 100.806 36.6779 96.2832C32.3335 91.8522 29.9133 86.1119 29.8125 80.0441V79.2524C29.8125 79.2485 29.8125 79.2446 29.8125 79.2408C30.035 66.2341 40.7752 55.6528 53.7547 55.6528H72.6401V55.9829C72.6401 59.2354 71.0358 62.2693 68.3489 64.1002C66.299 65.3767 63.6134 65.3915 63.4996 65.3915L55.5731 65.3928C55.4937 65.3922 55.415 65.3922 55.3362 65.3922C52.9669 65.3922 51.2188 65.7371 50.8825 65.8086C45.2245 67.2063 40.8715 72.0022 40.0616 77.7406C39.9314 78.6406 39.9275 79.5476 39.9399 80.3168C40.0466 86.7888 44.5563 92.4041 50.9065 93.9719C51.2318 94.0409 52.9669 94.3865 55.3258 94.3865C55.4111 94.3865 55.4969 94.3865 55.5835 94.3852H62.9219C63.0025 94.3858 63.0826 94.3865 63.1626 94.3865C65.7551 94.3865 67.6483 93.9623 67.6678 93.9578C72.5796 92.7425 76.6242 89.0717 78.218 84.3777C78.2779 84.1681 78.3182 83.9722 78.3443 83.8168L78.3449 83.8103H55.3349L55.3499 83.4661C55.5776 78.2086 59.8701 74.0903 65.1228 74.0903H79.5972L79.6038 74.0355L79.6337 73.9118C82.2795 63.1603 91.8383 55.6528 102.878 55.6528H129.365V55.9829C129.365 59.5171 127.454 62.7921 124.378 64.5309C122.463 65.3986 120.391 65.4096 120.303 65.4096L104.697 65.4102C104.617 65.4096 104.537 65.4089 104.459 65.4089C102.104 65.4089 100.343 65.7551 100.007 65.8267C94.3866 67.2147 90.0382 71.9745 89.197 77.669C88.8887 79.7436 89.0246 81.8917 89.5913 83.8813C90.1293 85.7734 91.0928 87.5695 92.377 89.0762C93.6515 90.5693 95.2577 91.7993 97.024 92.6323C98.8424 93.4897 100.871 93.9429 102.892 93.9429H129.369L129.354 94.2878C129.133 99.3932 125.078 103.424 120.034 103.653Z" fill="#00D682"/>
</g>
<defs>
<clipPath id="clip0_1831_1073">
<rect width="160" height="160" fill="white"/>
</clipPath>
</defs>
</svg>
