<svg width="226" height="214" viewBox="0 0 226 214" fill="none" xmlns="http://www.w3.org/2000/svg">
<g filter="url(#filter0_i_1547_589)">
<mask id="mask0_1547_589" style="mask-type:luminance" maskUnits="userSpaceOnUse" x="5" y="5" width="216" height="204">
<path d="M202.924 5.49121H23.3112C13.6038 5.49121 5.73438 13.3606 5.73438 23.068V190.597C5.73438 200.304 13.6038 208.173 23.3112 208.173H202.924C212.631 208.173 220.501 200.304 220.501 190.597V23.068C220.501 13.3606 212.631 5.49121 202.924 5.49121Z" fill="white"/>
</mask>
<g mask="url(#mask0_1547_589)">
<path d="M202.924 5.49121H23.3112C13.6038 5.49121 5.73438 13.3606 5.73438 23.068V190.597C5.73438 200.304 13.6038 208.173 23.3112 208.173H202.924C212.631 208.173 220.501 200.304 220.501 190.597V23.068C220.501 13.3606 212.631 5.49121 202.924 5.49121Z" fill="#0B0B0B"/>
<path d="M202.924 5.49121H23.3112C13.6038 5.49121 5.73438 13.3606 5.73438 23.068V190.597C5.73438 200.304 13.6038 208.173 23.3112 208.173H202.924C212.631 208.173 220.501 200.304 220.501 190.597V23.068C220.501 13.3606 212.631 5.49121 202.924 5.49121Z" fill="#BF5700"/>
</g>
</g>
<path d="M89.5485 137.578C76.9526 137.578 68.898 131.579 65.5562 122.754L77.381 115.899C79.5232 120.869 83.2077 124.21 89.977 124.21C96.4892 124.21 98.1172 121.64 98.1172 119.326C98.1172 115.642 94.6897 114.185 85.6926 111.7C76.7812 109.215 68.0411 104.931 68.0411 93.4488C68.0411 81.8811 77.8094 75.1976 88.1775 75.1976C98.0315 75.1976 105.743 79.9103 110.113 88.7361L98.5456 95.5053C96.4892 91.221 93.6615 88.5647 88.1775 88.5647C83.8932 88.5647 81.751 90.7069 81.751 93.1061C81.751 95.8481 83.2077 97.7332 92.5476 100.561C101.63 103.303 111.827 106.473 111.827 119.155C111.827 130.723 102.573 137.578 89.5485 137.578ZM137.998 137.578C125.402 137.578 117.348 131.579 114.006 122.754L125.831 115.899C127.973 120.869 131.658 124.21 138.427 124.21C144.939 124.21 146.567 121.64 146.567 119.326C146.567 115.642 143.14 114.185 134.142 111.7C125.231 109.215 116.491 104.931 116.491 93.4488C116.491 81.8811 126.259 75.1976 136.627 75.1976C146.481 75.1976 154.193 79.9103 158.563 88.7361L146.995 95.5053C144.939 91.221 142.111 88.5647 136.627 88.5647C132.343 88.5647 130.201 90.7069 130.201 93.1061C130.201 95.8481 131.658 97.7332 140.997 100.561C150.08 103.303 160.277 106.473 160.277 119.155C160.277 130.723 151.023 137.578 137.998 137.578Z" fill="white"/>
<defs>
<filter id="filter0_i_1547_589" x="5.73438" y="5.49121" width="214.766" height="202.683" filterUnits="userSpaceOnUse" color-interpolation-filters="sRGB">
<feFlood flood-opacity="0" result="BackgroundImageFix"/>
<feBlend mode="normal" in="SourceGraphic" in2="BackgroundImageFix" result="shape"/>
<feColorMatrix in="SourceAlpha" type="matrix" values="0 0 0 0 0 0 0 0 0 0 0 0 0 0 0 0 0 0 127 0" result="hardAlpha"/>
<feOffset/>
<feGaussianBlur stdDeviation="2.74637"/>
<feComposite in2="hardAlpha" operator="arithmetic" k2="-1" k3="1"/>
<feColorMatrix type="matrix" values="0 0 0 0 0 0 0 0 0 0 0 0 0 0 0 0 0 0 0.25 0"/>
<feBlend mode="normal" in2="shape" result="effect1_innerShadow_1547_589"/>
</filter>
</defs>
</svg>
