<svg width="400" height="400" viewBox="0 0 400 400" fill="none" xmlns="http://www.w3.org/2000/svg">
<circle cx="200" cy="200" r="200" fill="#D9D9D9"/>
<path d="M154.773 212.492C155.438 222.453 163.719 228.938 175.672 228.938C188.641 228.938 196.766 222.492 196.766 212.18C196.766 204.094 192.039 199.602 180.359 196.672L174.461 195.109C166.805 193.117 163.68 190.578 163.68 186.32C163.68 180.812 168.758 177.023 176.062 177.023C183.406 177.023 188.289 180.734 188.914 186.789H195.945C195.633 177.336 187.508 170.695 176.297 170.695C164.578 170.695 156.375 177.258 156.375 186.633C156.375 194.289 160.984 198.859 171.375 201.516L178.602 203.391C186.18 205.344 189.5 208.273 189.5 213.039C189.5 218.586 183.953 222.609 176.336 222.609C168.289 222.609 162.508 218.586 161.844 212.492H154.773ZM202.273 212.492C202.938 222.453 211.219 228.938 223.172 228.938C236.141 228.938 244.266 222.492 244.266 212.18C244.266 204.094 239.539 199.602 227.859 196.672L221.961 195.109C214.305 193.117 211.18 190.578 211.18 186.32C211.18 180.812 216.258 177.023 223.562 177.023C230.906 177.023 235.789 180.734 236.414 186.789H243.445C243.133 177.336 235.008 170.695 223.797 170.695C212.078 170.695 203.875 177.258 203.875 186.633C203.875 194.289 208.484 198.859 218.875 201.516L226.102 203.391C233.68 205.344 237 208.273 237 213.039C237 218.586 231.453 222.609 223.836 222.609C215.789 222.609 210.008 218.586 209.344 212.492H202.273Z" fill="#252525"/>
</svg>
