<svg width="231" height="231" viewBox="0 0 231 231" fill="none" xmlns="http://www.w3.org/2000/svg">
<rect width="230.7" height="230.7" rx="32" fill="#BF5700"/>
<path d="M88.1345 138.2C75.5385 138.2 67.484 132.202 64.1422 123.376L75.9669 116.521C78.1091 121.491 81.7936 124.832 88.5629 124.832C95.0751 124.832 96.7031 122.262 96.7031 119.948C96.7031 116.264 93.2757 114.807 84.2786 112.322C75.3671 109.837 66.6271 105.553 66.6271 94.0709C66.6271 82.5032 76.3954 75.8196 86.7635 75.8196C96.6175 75.8196 104.329 80.5324 108.699 89.3581L97.1316 96.1274C95.0751 91.8431 92.2474 89.1868 86.7635 89.1868C82.4791 89.1868 80.337 91.3289 80.337 93.7282C80.337 96.4702 81.7936 98.3553 91.1335 101.183C100.216 103.925 110.413 107.095 110.413 119.777C110.413 131.345 101.159 138.2 88.1345 138.2ZM136.584 138.2C123.988 138.2 115.934 132.202 112.592 123.376L124.417 116.521C126.559 121.491 130.243 124.832 137.013 124.832C143.525 124.832 145.153 122.262 145.153 119.948C145.153 116.264 141.726 114.807 132.728 112.322C123.817 109.837 115.077 105.553 115.077 94.0709C115.077 82.5032 124.845 75.8196 135.213 75.8196C145.067 75.8196 152.779 80.5324 157.149 89.3581L145.581 96.1274C143.525 91.8431 140.697 89.1868 135.213 89.1868C130.929 89.1868 128.787 91.3289 128.787 93.7282C128.787 96.4702 130.243 98.3553 139.583 101.183C148.666 103.925 158.863 107.095 158.863 119.777C158.863 131.345 149.609 138.2 136.584 138.2Z" fill="white"/>
</svg>
