<svg width="264" height="120" viewBox="0 0 264 120" fill="none" xmlns="http://www.w3.org/2000/svg">
<rect width="120" height="120" rx="24" fill="#F7F7F7"/>
<g filter="url(#filter0_d_1332_237642)">
<path d="M49.8281 90.4688C55.4062 90.4688 59.9062 85.9687 59.9062 80.3906V70.3125H49.8281C44.25 70.3125 39.75 74.8125 39.75 80.3906C39.75 85.9687 44.25 90.4688 49.8281 90.4688Z" fill="#0ACF83"/>
<path d="M39.75 60.2344C39.75 54.6563 44.25 50.1562 49.8281 50.1562H59.9062V70.3125H49.8281C44.25 70.3125 39.75 65.8125 39.75 60.2344Z" fill="#A259FF"/>
<path d="M39.75 40.0781C39.75 34.5 44.25 30 49.8281 30H59.9062V50.1562H49.8281C44.25 50.1562 39.75 45.6562 39.75 40.0781Z" fill="#F24E1E"/>
<path d="M59.9062 30H69.9844C75.5625 30 80.0625 34.5 80.0625 40.0781C80.0625 45.6562 75.5625 50.1562 69.9844 50.1562H59.9062V30Z" fill="#FF7262"/>
<path d="M80.0625 60.2344C80.0625 65.8125 75.5625 70.3125 69.9844 70.3125C64.4063 70.3125 59.9062 65.8125 59.9062 60.2344C59.9062 54.6563 64.4063 50.1562 69.9844 50.1562C75.5625 50.1562 80.0625 54.6563 80.0625 60.2344Z" fill="#1ABCFE"/>
</g>
<rect x="144" width="120" height="120" rx="24" fill="#F7F7F7"/>
<mask id="mask0_1332_237642" style="mask-type:alpha" maskUnits="userSpaceOnUse" x="174" y="30" width="61" height="61">
<path fill-rule="evenodd" clip-rule="evenodd" d="M217.103 90.2531C217.587 90.4416 218.104 90.5287 218.623 90.5087C219.142 90.4888 219.651 90.3623 220.119 90.1372L232.633 84.1153C233.278 83.8051 233.822 83.3192 234.202 82.7136C234.583 82.108 234.784 81.4072 234.784 80.6919V39.8606C234.785 39.1452 234.583 38.4444 234.202 37.8387C233.822 37.233 233.278 36.747 232.633 36.4367L220.119 30.4158C219.412 30.0755 218.616 29.9635 217.843 30.0952C217.069 30.2269 216.355 30.5958 215.801 31.1509L191.843 53.0076L181.408 45.0861C180.937 44.7289 180.357 44.5477 179.766 44.5739C179.176 44.6001 178.613 44.832 178.176 45.2295L174.829 48.274C174.568 48.5112 174.36 48.8003 174.217 49.1227C174.074 49.4451 174 49.7937 174 50.1463C174 50.4988 174.073 50.8476 174.215 51.1702C174.358 51.4928 174.566 51.7822 174.826 52.0198L183.876 60.276L174.826 68.5327C174.566 68.7704 174.358 69.0597 174.216 69.3823C174.074 69.7049 174.001 70.0535 174.001 70.406C174.001 70.7585 174.075 71.1071 174.218 71.4294C174.36 71.7518 174.569 72.0408 174.829 72.2781L178.176 75.3225C178.613 75.7201 179.176 75.9521 179.766 75.9784C180.357 76.0047 180.938 75.8236 181.409 75.4664L191.844 67.5454L215.801 89.4017C216.172 89.7723 216.615 90.0622 217.103 90.2531ZM219.597 46.4775L201.42 60.276L219.598 74.075L219.597 46.4775Z" fill="white"/>
</mask>
<g mask="url(#mask0_1332_237642)">
<path d="M232.633 36.4473L220.109 30.4164C219.402 30.0757 218.606 29.9634 217.832 30.0951C217.058 30.2269 216.344 30.596 215.789 31.1515L174.789 68.5333C174.529 68.7709 174.321 69.0602 174.178 69.3828C174.036 69.7054 173.963 70.0541 173.963 70.4066C173.963 70.7592 174.037 71.1078 174.18 71.4302C174.323 71.7525 174.531 72.0415 174.792 72.2787L178.141 75.3231C178.578 75.7212 179.141 75.9535 179.732 75.9798C180.323 76.0061 180.904 75.8247 181.375 75.467L230.749 38.0111C232.405 36.7546 234.784 37.9361 234.784 40.0151V39.8698C234.784 39.1546 234.582 38.454 234.202 37.8485C233.821 37.243 233.278 36.7576 232.633 36.4473Z" fill="#0065A9"/>
<g filter="url(#filter1_d_1332_237642)">
<path d="M232.633 84.1073L220.109 90.1373C219.402 90.4781 218.606 90.5905 217.832 90.4589C217.058 90.3274 216.344 89.9584 215.789 89.4031L174.789 52.0208C174.529 51.7832 174.321 51.4939 174.178 51.1713C174.036 50.8488 173.963 50.5 173.963 50.1475C173.963 49.7949 174.037 49.4463 174.18 49.1239C174.323 48.8016 174.531 48.5126 174.792 48.2754L178.141 45.231C178.578 44.8329 179.141 44.6006 179.732 44.5743C180.323 44.548 180.904 44.7294 181.375 45.0871L230.749 82.5426C232.405 83.7995 234.784 82.6181 234.784 80.539V80.6844C234.784 81.3995 234.582 82.1001 234.202 82.7056C233.821 83.3112 233.278 83.797 232.633 84.1073Z" fill="#007ACC"/>
</g>
<g filter="url(#filter2_d_1332_237642)">
<path d="M220.109 90.1378C219.402 90.4779 218.606 90.5897 217.832 90.4579C217.058 90.3262 216.344 89.9573 215.789 89.4022C217.191 90.8041 219.588 89.8111 219.588 87.8285V32.7242C219.588 30.7416 217.191 29.7487 215.789 31.151C216.344 30.5959 217.058 30.227 217.832 30.0953C218.606 29.9635 219.402 30.0754 220.109 30.4154L232.632 36.4378C233.276 36.7479 233.82 37.2337 234.201 37.8395C234.582 38.4452 234.784 39.1461 234.784 39.8616V80.6925C234.784 81.408 234.582 82.109 234.201 82.7147C233.82 83.3204 233.276 83.8063 232.632 84.1164L220.109 90.1378Z" fill="#1F9CF0"/>
</g>
<path opacity="0.25" fill-rule="evenodd" clip-rule="evenodd" d="M217.066 90.2531C217.55 90.4416 218.067 90.5285 218.586 90.5086C219.105 90.4887 219.614 90.3623 220.081 90.1372L232.596 84.1153C233.24 83.805 233.784 83.3191 234.165 82.7134C234.545 82.1077 234.747 81.4068 234.747 80.6915V39.8606C234.747 39.1452 234.545 38.4444 234.165 37.8387C233.784 37.233 233.24 36.747 232.596 36.4367L220.081 30.4158C219.374 30.0755 218.579 29.9635 217.805 30.0952C217.032 30.2269 216.318 30.5958 215.763 31.1509L191.806 53.0076L181.371 45.0866C180.9 44.7294 180.319 44.5482 179.729 44.5743C179.138 44.6005 178.576 44.8325 178.138 45.23L174.791 48.2745C174.531 48.5117 174.322 48.8008 174.18 49.1232C174.037 49.4456 173.963 49.7942 173.963 50.1467C173.963 50.4993 174.036 50.848 174.178 51.1706C174.32 51.4932 174.528 51.7826 174.789 52.0203L183.838 60.276L174.789 68.5322C174.529 68.7699 174.321 69.0592 174.178 69.3818C174.036 69.7045 173.963 70.0532 173.963 70.4058C173.963 70.7584 174.037 71.107 174.18 71.4294C174.323 71.7518 174.531 72.0408 174.792 72.2781L178.139 75.3225C178.576 75.7201 179.139 75.9521 179.729 75.9784C180.32 76.0047 180.901 75.8236 181.371 75.4664L191.807 67.545L215.764 89.4017C216.135 89.7723 216.578 90.0622 217.066 90.2531ZM219.561 46.477L201.382 60.276L219.561 74.0745V46.477Z" fill="url(#paint0_linear_1332_237642)"/>
</g>
<defs>
<filter id="filter0_d_1332_237642" x="29.75" y="20" width="60.3125" height="80.4688" filterUnits="userSpaceOnUse" color-interpolation-filters="sRGB">
<feFlood flood-opacity="0" result="BackgroundImageFix"/>
<feColorMatrix in="SourceAlpha" type="matrix" values="0 0 0 0 0 0 0 0 0 0 0 0 0 0 0 0 0 0 127 0" result="hardAlpha"/>
<feOffset/>
<feGaussianBlur stdDeviation="5"/>
<feComposite in2="hardAlpha" operator="out"/>
<feColorMatrix type="matrix" values="0 0 0 0 0 0 0 0 0 0 0 0 0 0 0 0 0 0 0.25 0"/>
<feBlend mode="normal" in2="BackgroundImageFix" result="effect1_dropShadow_1332_237642"/>
<feBlend mode="normal" in="SourceGraphic" in2="effect1_dropShadow_1332_237642" result="shape"/>
</filter>
<filter id="filter1_d_1332_237642" x="172.921" y="43.53" width="62.9038" height="48.0239" filterUnits="userSpaceOnUse" color-interpolation-filters="sRGB">
<feFlood flood-opacity="0" result="BackgroundImageFix"/>
<feColorMatrix in="SourceAlpha" type="matrix" values="0 0 0 0 0 0 0 0 0 0 0 0 0 0 0 0 0 0 127 0" result="hardAlpha"/>
<feOffset/>
<feGaussianBlur stdDeviation="0.520875"/>
<feColorMatrix type="matrix" values="0 0 0 0 0 0 0 0 0 0 0 0 0 0 0 0 0 0 0.25 0"/>
<feBlend mode="overlay" in2="BackgroundImageFix" result="effect1_dropShadow_1332_237642"/>
<feBlend mode="normal" in="SourceGraphic" in2="effect1_dropShadow_1332_237642" result="shape"/>
</filter>
<filter id="filter2_d_1332_237642" x="214.747" y="28.9998" width="21.0776" height="62.5537" filterUnits="userSpaceOnUse" color-interpolation-filters="sRGB">
<feFlood flood-opacity="0" result="BackgroundImageFix"/>
<feColorMatrix in="SourceAlpha" type="matrix" values="0 0 0 0 0 0 0 0 0 0 0 0 0 0 0 0 0 0 127 0" result="hardAlpha"/>
<feOffset/>
<feGaussianBlur stdDeviation="0.520875"/>
<feColorMatrix type="matrix" values="0 0 0 0 0 0 0 0 0 0 0 0 0 0 0 0 0 0 0.25 0"/>
<feBlend mode="overlay" in2="BackgroundImageFix" result="effect1_dropShadow_1332_237642"/>
<feBlend mode="normal" in="SourceGraphic" in2="effect1_dropShadow_1332_237642" result="shape"/>
</filter>
<linearGradient id="paint0_linear_1332_237642" x1="204.355" y1="30.0406" x2="204.355" y2="90.5114" gradientUnits="userSpaceOnUse">
<stop stop-color="white"/>
<stop offset="1" stop-color="white" stop-opacity="0"/>
</linearGradient>
</defs>
</svg>
