<svg width="42" height="42" viewBox="0 0 42 42" fill="none" xmlns="http://www.w3.org/2000/svg">
<circle cx="21" cy="21" r="21" fill="url(#paint0_linear_2102_2131)"/>
<circle cx="21.005" cy="21.0011" r="17.8977" fill="#121212" stroke="white" stroke-width="2.38636"/>
<path d="M12.0864 26.8215C12.2132 30.9453 12.1346 34.7495 12 36.499C12.0891 34.0035 12.0453 30.4312 12.0864 26.8215Z" fill="#121212"/>
<path d="M3.5 18.6999C6.68182 19.4136 9.5 8.5 11 15.5C12.3132 21.6283 12.2652 33.052 12 36.499C12.2652 29.0748 11.3538 12.1216 15 13C17.1873 13.527 15.8182 24.8158 19 27.9999C21.2491 30.2506 23.6074 -1.07494 25.1833 18.6996C26.5065 35.3022 27.5734 33.5189 28.1663 32.3331C28.7629 31.1399 30.2949 24.1191 32.0348 18.6998C32.8303 16.2221 33.6257 14.724 37.603 13.9286" stroke="white" stroke-width="2.38636"/>
<defs>
<linearGradient id="paint0_linear_2102_2131" x1="21" y1="0" x2="21" y2="42" gradientUnits="userSpaceOnUse">
<stop stop-color="#8675FF"/>
<stop offset="1" stop-color="#4C33FF"/>
</linearGradient>
</defs>
</svg>
