<svg width="52" height="52" viewBox="0 0 52 52" fill="none" xmlns="http://www.w3.org/2000/svg">
<path d="M-1.1365e-06 26C-9.11719e-07 31.1423 1.52487 36.1691 4.38179 40.4448C7.23871 44.7205 11.2994 48.053 16.0502 50.0209C20.8011 51.9887 26.0288 52.5036 31.0723 51.5004C36.1159 50.4972 40.7486 48.0209 44.3848 44.3848C48.0209 40.7486 50.4972 36.1158 51.5004 31.0723C52.5036 26.0288 51.9887 20.8011 50.0209 16.0502C48.053 11.2993 44.7205 7.2387 40.4448 4.38178C36.1691 1.52486 31.1423 -1.28054e-05 26 -1.25806e-05C19.1066 0.00726616 12.4976 2.74889 7.62326 7.62325C2.74889 12.4976 0.00727811 19.1066 -1.1365e-06 26ZM48 26C48 30.3512 46.7097 34.6047 44.2923 38.2225C41.8749 41.8404 38.439 44.6602 34.419 46.3253C30.3991 47.9905 25.9756 48.4261 21.708 47.5773C17.4404 46.7284 13.5204 44.6331 10.4437 41.5563C7.3669 38.4796 5.2716 34.5596 4.42272 30.292C3.57385 26.0244 4.00952 21.6009 5.67465 17.581C7.33978 13.561 10.1596 10.125 13.7775 7.70766C17.3953 5.29026 21.6488 3.99999 26 3.99999C31.8327 4.00661 37.4247 6.32658 41.549 10.4509C45.6734 14.5753 47.9934 20.1673 48 26ZM24.585 14.585C24.7707 14.399 24.9913 14.2515 25.2341 14.1509C25.4769 14.0502 25.7372 13.9984 26 13.9984C26.2628 13.9984 26.5231 14.0502 26.7659 14.1509C27.0087 14.2515 27.2293 14.399 27.415 14.585L35.415 22.585C35.7903 22.9603 36.0011 23.4693 36.0011 24C36.0011 24.5307 35.7903 25.0397 35.415 25.415C35.0397 25.7903 34.5307 26.0011 34 26.0011C33.4693 26.0011 32.9603 25.7903 32.585 25.415L28 20.8275L28 36C28 36.5304 27.7893 37.0391 27.4142 37.4142C27.0391 37.7893 26.5304 38 26 38C25.4696 38 24.9609 37.7893 24.5858 37.4142C24.2107 37.0391 24 36.5304 24 36L24 20.8275L19.415 25.415C19.0397 25.7903 18.5307 26.0011 18 26.0011C17.4693 26.0011 16.9603 25.7903 16.585 25.415C16.2097 25.0397 15.9989 24.5307 15.9989 24C15.9989 23.4693 16.2097 22.9603 16.585 22.585L24.585 14.585Z" fill="white"/>
</svg>
