<svg width="184" height="94" viewBox="0 0 184 94" fill="none" xmlns="http://www.w3.org/2000/svg">
<path d="M182.36 1.2497C175.759 -0.565684 167.714 0.795852 161.277 2.77627C148.982 6.73709 138.461 15.0713 127.033 21.0538C121.009 23.6119 112.675 24.1482 107.105 20.6412C105.784 19.6923 103.35 20.3524 103.35 20.3524C102.566 19.7748 101.7 19.5685 100.668 19.9398C97.8628 21.9615 94.9747 18.8259 92.0041 20.4762C89.0335 18.8671 86.1453 22.0028 83.3398 19.9398C82.3083 19.5685 81.4419 19.7748 80.658 20.3524C80.658 20.3524 78.2237 19.6923 76.9034 20.6412C71.3335 24.107 63.0405 23.6119 56.9755 21.0538C45.5469 15.0713 35.0259 6.69583 22.7309 2.77627C16.2945 0.795852 8.29034 -0.524425 1.64771 1.2497C0.781277 1.82732 -0.208931 2.85878 0.0386208 4.1378C0.492466 4.88045 0.98757 5.95318 1.93652 6.11821C25.619 2.56997 38.4091 26.0874 58.2545 32.3174C58.2958 32.565 57.1405 33.5552 55.8615 34.2153C53.0559 35.7832 48.8888 35.1643 48.6 39.0013C49.3427 41.3943 52.272 42.2608 54.335 43.1684C59.286 45.974 65.186 43.6223 69.6832 41.3531C70.2195 40.8167 71.086 41.1055 71.4985 41.6419C71.1685 52.3691 79.3377 59.5069 80.8643 69.5327C81.7307 74.1949 78.8426 77.6194 78.4712 81.9516C78.43 83.5606 79.709 82.4879 80.3691 87.8103C80.658 88.7592 83.0922 91.4823 85.2789 92.6375C87.3006 93.4214 89.6523 93.669 92.0041 93.5865C94.3971 93.669 96.7076 93.4214 98.7292 92.6375C100.916 91.4823 103.35 88.8005 103.639 87.8103C104.299 82.4879 105.578 83.5606 105.537 81.9516C105.207 77.5781 102.277 74.1537 103.144 69.5327C104.67 59.5481 112.84 52.4104 112.51 41.6419C112.922 41.1055 113.789 40.8167 114.325 41.3531C118.781 43.6223 124.722 45.9328 129.673 43.1684C131.777 42.2608 134.665 41.3531 135.408 39.0013C135.119 35.1643 130.952 35.7832 128.147 34.2153C126.868 33.5552 125.712 32.565 125.754 32.3174C145.599 26.0874 158.389 2.56997 182.072 6.11821C183.062 5.95318 183.516 4.88045 183.97 4.1378C184.217 2.85878 183.227 1.82732 182.36 1.2497Z" fill="#BF5700"/>
</svg>
