<svg width="53" height="52" viewBox="0 0 53 52" fill="none" xmlns="http://www.w3.org/2000/svg">
<path d="M26.0625 0C20.9202 0 15.8934 1.52487 11.6177 4.38179C7.34201 7.23871 4.00952 11.2994 2.04164 16.0502C0.0737654 20.8011 -0.441121 26.0288 0.562094 31.0723C1.56531 36.1159 4.04157 40.7486 7.67774 44.3848C11.3139 48.0209 15.9467 50.4972 20.9902 51.5004C26.0337 52.5036 31.2614 51.9887 36.0123 50.0209C40.7632 48.053 44.8238 44.7205 47.6807 40.4448C50.5376 36.1691 52.0625 31.1423 52.0625 26C52.0552 19.1066 49.3136 12.4976 44.4392 7.62326C39.5649 2.74889 32.9559 0.00727955 26.0625 0ZM26.0625 48C21.7113 48 17.4578 46.7097 13.84 44.2923C10.2221 41.8749 7.40229 38.439 5.73716 34.419C4.07203 30.3991 3.63636 25.9756 4.48524 21.708C5.33411 17.4404 7.42941 13.5204 10.5062 10.4437C13.5829 7.3669 17.5029 5.2716 21.7705 4.42272C26.0381 3.57385 30.4616 4.00952 34.4815 5.67465C38.5015 7.33978 41.9375 10.1596 44.3548 13.7775C46.7722 17.3953 48.0625 21.6488 48.0625 26C48.0559 31.8327 45.7359 37.4247 41.6116 41.549C37.4872 45.6734 31.8952 47.9934 26.0625 48ZM37.4775 24.585C37.6635 24.7707 37.811 24.9913 37.9116 25.2341C38.0123 25.4769 38.0641 25.7372 38.0641 26C38.0641 26.2628 38.0123 26.5231 37.9116 26.7659C37.811 27.0087 37.6635 27.2293 37.4775 27.415L29.4775 35.415C29.1022 35.7903 28.5932 36.0011 28.0625 36.0011C27.5318 36.0011 27.0228 35.7903 26.6475 35.415C26.2722 35.0397 26.0614 34.5307 26.0614 34C26.0614 33.4693 26.2722 32.9603 26.6475 32.585L31.235 28H16.0625C15.5321 28 15.0234 27.7893 14.6483 27.4142C14.2732 27.0391 14.0625 26.5304 14.0625 26C14.0625 25.4696 14.2732 24.9609 14.6483 24.5858C15.0234 24.2107 15.5321 24 16.0625 24H31.235L26.6475 19.415C26.2722 19.0397 26.0614 18.5307 26.0614 18C26.0614 17.4693 26.2722 16.9603 26.6475 16.585C27.0228 16.2097 27.5318 15.9989 28.0625 15.9989C28.5932 15.9989 29.1022 16.2097 29.4775 16.585L37.4775 24.585Z" fill="white"/>
</svg>
