<svg width="113" height="43" viewBox="0 0 113 43" fill="none" xmlns="http://www.w3.org/2000/svg">
<g clip-path="url(#clip0_1754_1088)">
<path d="M15.9713 21.3288C15.9713 24.1803 13.6901 26.4614 10.8387 26.4614C7.98721 26.4614 5.70605 24.1803 5.70605 21.3288C5.70605 18.4774 7.98721 16.1962 10.8387 16.1962H15.9713V21.3288ZM21.6742 0.228027H15.9713V10.6073C14.0323 10.6073 12.0933 10.6073 10.8387 10.6073C4.90764 10.6073 0.117188 15.3978 0.117188 21.3288C0.117188 27.2599 4.90764 32.0503 10.8387 32.0503C16.7697 32.0503 21.5602 27.2599 21.5602 21.3288C21.5602 18.3633 21.5602 10.6073 21.5602 10.6073L21.6742 0.228027Z" fill="#206CFF"/>
<path d="M78.3574 26.4615C81.2089 26.4615 83.49 24.1804 83.49 21.3289C83.49 18.4774 81.2089 16.1963 78.3574 16.1963C75.506 16.1963 73.2248 18.4774 73.2248 21.3289C73.3389 24.1804 75.62 26.4615 78.3574 26.4615ZM67.75 21.3289C67.75 15.3979 72.5405 10.6074 78.4715 10.6074C84.4025 10.6074 89.193 15.3979 89.193 21.3289C89.193 27.2599 84.4025 32.0504 78.4715 32.0504C72.5405 32.0504 67.75 27.2599 67.75 21.3289Z" fill="#206CFF"/>
<path d="M107.103 21.3289C107.103 18.5915 104.821 16.3103 102.084 16.3103C99.3466 16.3103 97.0654 18.5915 97.0654 21.3289C97.0654 22.6976 97.0654 31.5942 97.0654 31.5942C94.214 31.5942 91.4766 31.5942 91.4766 31.5942C91.4766 31.5942 91.4766 24.2944 91.4766 21.3289C91.4766 15.3979 96.267 10.6074 102.198 10.6074C108.129 10.6074 112.92 15.3979 112.92 21.3289C112.92 24.2944 112.92 31.5942 112.92 31.5942C112.92 31.5942 110.182 31.5942 107.331 31.5942C107.103 31.5942 107.103 22.6976 107.103 21.3289Z" fill="#206CFF"/>
<path d="M54.6326 17.6789C53.8342 17.1086 54.0623 16.1962 55.431 15.854C57.1419 15.3978 60.1074 15.7399 62.6167 16.8805L65.24 13.2306C64.0994 12.3182 61.5901 11.0635 57.9403 10.8354C57.9403 10.8354 51.7811 10.037 49.2718 14.7134C49.2718 14.7134 47.1047 19.0476 51.4389 21.785C54.0623 23.3818 58.6246 24.0662 60.1074 24.7505C61.248 25.4349 60.9058 26.6895 59.1949 27.0317C56.2294 27.7161 52.3514 26.0052 51.0968 25.0927L48.3594 28.8566C50.1843 30.2253 52.4655 31.48 56.1153 32.0503C56.1153 32.0503 61.9323 33.0768 65.1259 29.0848C65.6962 28.4004 68.3196 23.4959 63.0729 20.6444C60.3355 19.1617 56.0013 18.4773 54.6326 17.6789Z" fill="#206CFF"/>
<path d="M28.3967 35.7003C28.6249 35.8144 31.2482 37.6393 33.7575 37.6393C39.9166 37.7534 40.2588 31.3661 40.2588 29.8833C39.1182 31.138 36.723 31.9364 35.2402 31.9364C29.3092 31.9364 24.6328 27.3741 24.6328 21.443C24.6328 18.4775 24.6328 11.0637 24.6328 11.0637C24.6328 11.0637 27.3702 11.0637 30.2217 11.0637C30.2217 11.0637 30.2217 20.1884 30.2217 21.443C30.2217 24.1804 32.5028 26.4616 35.2402 26.4616C37.9776 26.4616 40.2588 24.1804 40.2588 21.443C40.2588 20.3024 40.2588 11.0637 40.2588 11.0637C43.1103 11.0637 45.8477 11.0637 45.8477 11.0637V21.443C45.8477 30.6818 46.3039 40.1486 37.2933 42.3157C30.5638 43.9125 25.7734 39.6924 25.4312 39.4642L28.3967 35.7003Z" fill="#206CFF"/>
</g>
<defs>
<clipPath id="clip0_1754_1088">
<rect width="112.918" height="43" fill="white"/>
</clipPath>
</defs>
</svg>
