<svg width="94" height="94" viewBox="0 0 94 94" fill="none" xmlns="http://www.w3.org/2000/svg">
<path d="M72.1305 66.5656C72.1305 66.5656 61.1285 76.8904 46.5806 76.8904C32.0327 76.8904 21.038 66.5656 21.038 66.5656C21.038 66.5656 18.9919 56.7432 24.2781 39.7852C27.0669 30.8438 66.7497 29.9336 69.8588 37.7537C75.1449 51.0274 72.1305 66.5656 72.1305 66.5656Z" fill="#424242"/>
<path d="M21.0331 66.5647L24.5208 69.3607C24.5208 69.3607 24.4917 63.8269 26.2028 58.6645C26.8435 56.735 29.1298 55.9268 30.8482 57.0117L44.1656 65.3633C44.8957 65.8204 45.7383 66.0659 46.5997 66.0723C47.461 66.0787 48.3072 65.8459 49.044 65.3997C55.4078 61.5406 72.0091 51.4415 72.7663 50.8226C72.7663 50.8226 72.7663 49.5775 72.4532 47.9902L20.8438 48.0558L21.0331 66.5647Z" fill="#212121"/>
<path d="M89.419 37.8844L48.0615 62.5169C47.1586 63.0557 46.03 63.0557 45.1198 62.5169L3.77689 37.8844C2.62645 37.1999 2.62645 35.5325 3.77689 34.8481L45.1344 10.2156C46.0373 9.67682 47.1659 9.67682 48.076 10.2156L89.4335 34.8481C90.5767 35.5325 90.5767 37.1999 89.419 37.8844Z" fill="#424242"/>
<path d="M46.6325 60.7108C46.6253 60.7108 46.6107 60.7181 46.6034 60.7181C46.4869 60.7181 46.3704 60.689 46.2685 60.6235L3.04697 35.707C3.04697 35.707 2.83582 36.1075 3.04697 36.8283C3.26541 37.5492 3.60035 37.7822 3.78238 37.8914L45.1399 62.5239C45.5913 62.7933 46.101 62.9316 46.6107 62.9316H46.6398V60.7108H46.6325Z" fill="#9E9E9E"/>
<path d="M46.601 60.7108C46.6083 60.7108 46.6229 60.7181 46.6302 60.7181C46.7467 60.7181 46.8632 60.689 46.9651 60.6235L90.1866 35.707C90.1866 35.707 90.3977 36.1075 90.1866 36.8283C89.9682 37.5492 89.6332 37.7822 89.4512 37.8914L48.0937 62.5239C47.6423 62.7933 47.1326 62.9316 46.6229 62.9316H46.5938V60.7108H46.601Z" fill="#616161"/>
<path d="M25.8102 51.0123L26.0432 48.9662C26.0432 48.9662 43.8895 39.2603 45.6516 38.241C47.4136 37.2216 49.2631 36.0857 50.0858 35.1755C51.5421 33.5737 50.4936 32.5689 50.4936 32.5689C50.4936 32.5689 49.3432 34.4329 46.5981 34.1052C45.0254 33.9159 42.9793 32.6417 42.6371 32.0446C42.2949 31.4475 22.4899 46.5343 22.4899 46.5343L22.3516 48.959L25.8102 51.0123Z" fill="#424242"/>
<path d="M50.4935 32.5761C48.5858 35.241 45.353 34.076 45.353 34.076C45.353 34.076 35.2247 38.9326 34.8461 38.1972C34.4675 37.4618 43.2123 32.962 43.2123 32.962C43.2123 32.962 42.7244 31.1708 42.7754 30.4062C42.7754 30.4062 26.9605 40.4689 21.0263 43.8547C17.9172 45.6313 17.2546 47.306 17.2619 49.6652C17.2619 50.6991 17.2765 54.0557 17.291 56.0581C17.291 56.4294 17.1308 56.7789 16.8469 57.0119C16.4169 57.3643 16.0705 57.8076 15.8325 58.31C15.5946 58.8124 15.471 59.3613 15.4707 59.9172C15.4707 61.0312 15.9586 62.0287 16.7304 62.7204C17.1454 63.0918 17.058 63.8927 17.0944 64.4097C17.1672 65.3999 17.0944 65.8514 16.6867 66.7688C16.2862 67.6644 15.9149 68.5818 15.66 69.5284C15.4634 70.2565 15.3324 71.0065 15.2013 71.7492C14.3348 76.7223 13.9417 82.0376 11.6481 86.6102C11.6049 86.6957 11.5791 86.7889 11.5722 86.8844C11.5653 86.9799 11.5774 87.0758 11.6079 87.1666C11.6384 87.2573 11.6866 87.3411 11.7498 87.4131C11.8129 87.4851 11.8897 87.5438 11.9757 87.5859C12.1487 87.6732 12.3491 87.6885 12.5333 87.6284C12.7174 87.5684 12.8704 87.4379 12.9587 87.2655C14.1528 84.8846 14.7717 82.2779 15.2814 79.693C15.2523 82.0303 15.2377 84.3894 15.1576 86.9379C15.1431 87.433 15.1067 88.4305 15.5581 88.649C17.2546 89.4718 17.2546 86.9379 17.2546 86.9379C17.2546 86.9379 17.2765 89.2169 19.5846 89.2169C21.8928 89.2169 22.0602 86.9379 22.0602 86.9379C22.0602 86.9379 22.2277 89.0276 23.4146 88.9257C23.8951 88.882 24.5286 88.5907 24.3029 86.0932C24.0772 83.6031 23.5165 74.6763 23.2762 71.8511C22.9413 67.9411 21.6598 65.6184 21.3977 64.2349C21.303 63.7107 21.2957 63.1646 21.7107 62.8224C22.1331 62.4763 22.4751 62.0423 22.7128 61.5507C22.9506 61.059 23.0784 60.5215 23.0874 59.9755C23.0964 59.4295 22.9864 58.888 22.765 58.3888C22.5436 57.8896 22.2162 57.4446 21.8054 57.0848C21.6594 56.9572 21.5451 56.7973 21.4718 56.6178C21.3985 56.4383 21.3681 56.2441 21.3831 56.0508C21.5214 54.165 21.6743 51.4272 21.7981 50.7938C22.3369 47.9468 23.7422 47.4371 25.1839 46.5925C26.6256 45.7406 47.5082 36.2604 48.7242 35.4522C50.9741 33.9449 50.4935 32.5761 50.4935 32.5761Z" fill="#E2A610"/>
<path d="M50.4926 32.5761C48.6942 35.1172 44.9589 33.9813 44.9589 33.9813C44.9589 33.9813 35.4132 38.2118 36.0466 37.4472C36.6728 36.6827 43.2114 32.962 43.2114 32.962C43.2114 32.962 42.7235 31.1708 42.7745 30.4062C42.7745 30.4062 26.683 39.7044 20.4429 44.1751C18.8338 45.3328 16.8387 47.2259 18.4624 49.1118C19.2124 49.9782 20.6614 50.1603 21.5861 49.4758C22.1467 49.0681 22.5836 48.471 23.0787 47.9977C23.6904 47.4007 24.433 47.0221 25.1612 46.5925C26.6029 45.7406 47.4855 36.2604 48.7014 35.4522C50.9732 33.9449 50.4926 32.5761 50.4926 32.5761Z" fill="#FFCA28"/>
<path d="M19.0106 66.886C18.0495 66.886 17.4014 66.8059 16.8117 66.6676C16.7064 66.6435 16.6133 66.5825 16.5492 66.4957C16.4851 66.4089 16.4542 66.302 16.4622 66.1943L16.6515 63.4129C16.6733 63.1289 16.9427 62.9323 17.2194 63.0124C17.8747 63.2017 19.1853 63.391 21.326 62.9396C21.5882 62.8813 21.8503 63.0634 21.8794 63.3328L22.1707 66.0997C22.1925 66.3254 22.0469 66.5365 21.8284 66.5875C20.7144 66.8423 19.9062 66.886 19.0106 66.886Z" fill="#9E740B"/>
<path d="M72.125 66.5656C72.125 66.5656 73.4138 59.8378 72.8968 52.6803C72.8095 51.4716 72.0668 50.4304 71.4916 54.6608C71.1639 57.0854 70.4503 64.3449 69.2344 68.8811C71.0911 67.5413 72.125 66.5656 72.125 66.5656Z" fill="#616161"/>
<path d="M47.8576 26.7875C48.3892 26.9549 48.877 27.3627 49.0154 27.9088C49.1974 28.6369 48.7387 29.365 48.2436 29.933C47.2751 31.047 45.9427 32.0227 44.4646 31.9717C43.9767 31.9572 43.4525 31.797 43.154 31.4111C42.9428 31.1417 42.87 30.7922 42.8481 30.4499C42.7171 27.9525 45.5422 26.0593 47.8576 26.7875Z" fill="#616161"/>
</svg>
