<svg width="1027" height="209" viewBox="0 0 1027 209" fill="none" xmlns="http://www.w3.org/2000/svg">
<rect width="131" height="160" rx="32" fill="white"/>
<path d="M36.0071 86.3984C34.6104 86.4005 33.2309 86.7074 31.9649 87.2976C30.699 87.8879 29.5771 88.7473 28.6775 89.8159C27.778 90.8844 27.1225 92.1365 26.7568 93.4845C26.391 94.8326 26.3239 96.2442 26.56 97.6209C26.7962 98.9976 27.3299 100.306 28.124 101.455C28.918 102.604 29.9533 103.566 31.1575 104.274C32.3617 104.982 33.7059 105.418 35.0962 105.553C36.4864 105.688 37.8894 105.517 39.207 105.054" stroke="#4252EB" stroke-width="6" stroke-linecap="round" stroke-linejoin="round"/>
<path d="M27.2473 91.5328C25.3324 90.6109 23.6772 89.2266 22.4311 87.505C21.1849 85.7834 20.3871 83.7786 20.1096 81.6715C19.8321 79.5645 20.0836 77.4214 20.8415 75.4359C21.5994 73.4503 22.8397 71.6848 24.4507 70.2985M24.5466 70.0393C23.4972 68.469 23.0373 66.578 23.2482 64.7011C23.4591 62.8242 24.3274 61.0825 25.6992 59.7842C27.071 58.486 28.8579 57.715 30.7435 57.6078C32.6292 57.5005 34.492 58.0639 36.0021 59.1982M36.7637 59.4062C36.2532 58.3216 35.9931 57.1361 36.0024 55.9374C36.0117 54.7387 36.2903 53.5575 36.8176 52.4809C37.3448 51.4044 38.1073 50.4601 39.0486 49.7179C39.9899 48.9757 41.086 48.4545 42.2558 48.1929C43.4257 47.9312 44.6393 47.9358 45.8071 48.2064C46.9749 48.4769 48.067 49.0064 49.0026 49.7558C49.9383 50.5052 50.6935 51.4552 51.2126 52.5357C51.7316 53.6163 52.0012 54.7996 52.0014 55.9983M52.0014 55.9983V105.596M52.0014 55.9983C52.0016 54.7996 52.2712 53.6163 52.7903 52.5357C53.3093 51.4552 54.0646 50.5052 55.0002 49.7558C55.9358 49.0064 57.0279 48.4769 58.1957 48.2064C59.3635 47.9358 60.5772 47.9312 61.747 48.1929C62.9168 48.4545 64.0129 48.9757 64.9542 49.7179C65.8955 50.4601 66.658 51.4044 67.1853 52.4809C67.7125 53.5575 67.9911 54.7387 68.0005 55.9374C68.0098 57.1361 67.7496 58.3216 67.2391 59.4062M52.0014 105.596C52.0014 107.293 51.3272 108.921 50.127 110.121C48.9268 111.322 47.299 111.996 45.6017 111.996C43.9044 111.996 42.2766 111.322 41.0764 110.121C39.8762 108.921 39.202 107.293 39.202 105.596M52.0014 105.596C52.0014 107.293 52.6757 108.921 53.8759 110.121C55.076 111.322 56.7038 111.996 58.4011 111.996M52.0014 63.998C52.0014 66.5439 53.0128 68.9856 54.8131 70.7859C56.6133 72.5862 59.055 73.5976 61.601 73.5976M79.5522 70.2985C80.9492 71.4986 82.0701 72.9868 82.8378 74.661C83.6056 76.3351 84.002 78.1555 84 79.9973C84 82.2468 83.4208 84.3619 82.4001 86.1986M79.4562 70.0393C80.5056 68.469 80.9656 66.578 80.7546 64.7011C80.5437 62.8242 79.6755 61.0825 78.3037 59.7842C76.9319 58.486 75.145 57.715 73.2593 57.6078C71.3737 57.5005 69.5109 58.0639 68.0007 59.1982M79.2002 107.196L84 111.996M64.8008 100.796C64.8008 102.918 65.6437 104.953 67.1439 106.453C68.6441 107.953 70.6789 108.796 72.8005 108.796C74.9221 108.796 76.9569 107.953 78.4571 106.453C79.9573 104.953 80.8001 102.918 80.8001 100.796C80.8001 98.6747 79.9573 96.64 78.4571 95.1397C76.9569 93.6395 74.9221 92.7967 72.8005 92.7967C70.6789 92.7967 68.6441 93.6395 67.1439 95.1397C65.6437 96.64 64.8008 98.6747 64.8008 100.796Z" stroke="#4252EB" stroke-width="6" stroke-linecap="round" stroke-linejoin="round"/>
<path d="M1.68 202V184.72H8.352C8.52 184.72 8.708 184.728 8.916 184.744C9.132 184.752 9.348 184.776 9.564 184.816C10.468 184.952 11.232 185.268 11.856 185.764C12.488 186.252 12.964 186.868 13.284 187.612C13.612 188.356 13.776 189.18 13.776 190.084C13.776 191.388 13.432 192.52 12.744 193.48C12.056 194.44 11.072 195.044 9.792 195.292L9.18 195.436H3.444V202H1.68ZM12.144 202L8.736 194.968L10.428 194.32L14.172 202H12.144ZM3.444 193.756H8.304C8.448 193.756 8.616 193.748 8.808 193.732C9 193.716 9.188 193.688 9.372 193.648C9.964 193.52 10.448 193.276 10.824 192.916C11.208 192.556 11.492 192.128 11.676 191.632C11.868 191.136 11.964 190.62 11.964 190.084C11.964 189.548 11.868 189.032 11.676 188.536C11.492 188.032 11.208 187.6 10.824 187.24C10.448 186.88 9.964 186.636 9.372 186.508C9.188 186.468 9 186.444 8.808 186.436C8.616 186.42 8.448 186.412 8.304 186.412H3.444V193.756ZM22.3046 202.36C21.0406 202.36 19.9446 202.08 19.0166 201.52C18.0966 200.96 17.3806 200.172 16.8686 199.156C16.3566 198.14 16.1006 196.948 16.1006 195.58C16.1006 194.164 16.3526 192.94 16.8566 191.908C17.3606 190.876 18.0686 190.08 18.9806 189.52C19.9006 188.96 20.9846 188.68 22.2326 188.68C23.5126 188.68 24.6046 188.976 25.5086 189.568C26.4126 190.152 27.0966 190.992 27.5606 192.088C28.0246 193.184 28.2366 194.492 28.1966 196.012H26.3966V195.388C26.3646 193.708 26.0006 192.44 25.3046 191.584C24.6166 190.728 23.6086 190.3 22.2806 190.3C20.8886 190.3 19.8206 190.752 19.0766 191.656C18.3406 192.56 17.9726 193.848 17.9726 195.52C17.9726 197.152 18.3406 198.42 19.0766 199.324C19.8206 200.22 20.8726 200.668 22.2326 200.668C23.1606 200.668 23.9686 200.456 24.6566 200.032C25.3526 199.6 25.9006 198.98 26.3006 198.172L27.9446 198.808C27.4326 199.936 26.6766 200.812 25.6766 201.436C24.6846 202.052 23.5606 202.36 22.3046 202.36ZM17.3486 196.012V194.536H27.2486V196.012H17.3486ZM35.6957 202.348C34.1757 202.348 32.9237 202.02 31.9397 201.364C30.9637 200.708 30.3637 199.796 30.1397 198.628L31.9397 198.328C32.1317 199.064 32.5677 199.652 33.2477 200.092C33.9357 200.524 34.7837 200.74 35.7917 200.74C36.7757 200.74 37.5517 200.536 38.1197 200.128C38.6877 199.712 38.9717 199.148 38.9717 198.436C38.9717 198.036 38.8797 197.712 38.6957 197.464C38.5197 197.208 38.1557 196.972 37.6037 196.756C37.0517 196.54 36.2277 196.284 35.1317 195.988C33.9557 195.668 33.0357 195.348 32.3717 195.028C31.7077 194.708 31.2357 194.34 30.9557 193.924C30.6757 193.5 30.5357 192.984 30.5357 192.376C30.5357 191.64 30.7437 190.996 31.1597 190.444C31.5757 189.884 32.1517 189.452 32.8877 189.148C33.6237 188.836 34.4797 188.68 35.4557 188.68C36.4317 188.68 37.3037 188.84 38.0717 189.16C38.8477 189.472 39.4717 189.912 39.9437 190.48C40.4157 191.048 40.6957 191.708 40.7837 192.46L38.9837 192.784C38.8637 192.024 38.4837 191.424 37.8437 190.984C37.2117 190.536 36.4077 190.304 35.4317 190.288C34.5117 190.264 33.7637 190.44 33.1877 190.816C32.6117 191.184 32.3237 191.676 32.3237 192.292C32.3237 192.636 32.4277 192.932 32.6357 193.18C32.8437 193.42 33.2197 193.648 33.7637 193.864C34.3157 194.08 35.0997 194.316 36.1157 194.572C37.3077 194.876 38.2437 195.196 38.9237 195.532C39.6037 195.868 40.0877 196.264 40.3757 196.72C40.6637 197.176 40.8077 197.74 40.8077 198.412C40.8077 199.636 40.3517 200.6 39.4397 201.304C38.5357 202 37.2877 202.348 35.6957 202.348ZM48.9531 202.36C47.6891 202.36 46.5931 202.08 45.6651 201.52C44.7451 200.96 44.0291 200.172 43.5171 199.156C43.0051 198.14 42.7491 196.948 42.7491 195.58C42.7491 194.164 43.0011 192.94 43.5051 191.908C44.0091 190.876 44.7171 190.08 45.6291 189.52C46.5491 188.96 47.6331 188.68 48.8811 188.68C50.1611 188.68 51.2531 188.976 52.1571 189.568C53.0611 190.152 53.7451 190.992 54.2091 192.088C54.6731 193.184 54.8851 194.492 54.8451 196.012H53.0451V195.388C53.0131 193.708 52.6491 192.44 51.9531 191.584C51.2651 190.728 50.2571 190.3 48.9291 190.3C47.5371 190.3 46.4691 190.752 45.7251 191.656C44.9891 192.56 44.6211 193.848 44.6211 195.52C44.6211 197.152 44.9891 198.42 45.7251 199.324C46.4691 200.22 47.5211 200.668 48.8811 200.668C49.8091 200.668 50.6171 200.456 51.3051 200.032C52.0011 199.6 52.5491 198.98 52.9491 198.172L54.5931 198.808C54.0811 199.936 53.3251 200.812 52.3251 201.436C51.3331 202.052 50.2091 202.36 48.9531 202.36ZM43.9971 196.012V194.536H53.8971V196.012H43.9971ZM60.9818 202.36C60.0058 202.36 59.1858 202.184 58.5218 201.832C57.8658 201.48 57.3738 201.012 57.0458 200.428C56.7178 199.844 56.5538 199.208 56.5538 198.52C56.5538 197.816 56.6938 197.216 56.9738 196.72C57.2618 196.216 57.6498 195.804 58.1378 195.484C58.6338 195.164 59.2058 194.92 59.8538 194.752C60.5098 194.592 61.2338 194.452 62.0258 194.332C62.8258 194.204 63.6058 194.096 64.3658 194.008C65.1338 193.912 65.8058 193.82 66.3818 193.732L65.7578 194.116C65.7818 192.836 65.5338 191.888 65.0138 191.272C64.4938 190.656 63.5898 190.348 62.3018 190.348C61.4138 190.348 60.6618 190.548 60.0458 190.948C59.4378 191.348 59.0098 191.98 58.7617 192.844L57.0458 192.34C57.3418 191.18 57.9378 190.28 58.8338 189.64C59.7298 189 60.8938 188.68 62.3258 188.68C63.5098 188.68 64.5138 188.904 65.3378 189.352C66.1698 189.792 66.7578 190.432 67.1018 191.272C67.2618 191.648 67.3658 192.068 67.4138 192.532C67.4618 192.996 67.4858 193.468 67.4858 193.948V202H65.9138V198.748L66.3698 198.94C65.9298 200.052 65.2458 200.9 64.3178 201.484C63.3898 202.068 62.2778 202.36 60.9818 202.36ZM61.1858 200.836C62.0098 200.836 62.7298 200.688 63.3458 200.392C63.9618 200.096 64.4578 199.692 64.8338 199.18C65.2098 198.66 65.4538 198.076 65.5658 197.428C65.6618 197.012 65.7138 196.556 65.7218 196.06C65.7298 195.556 65.7338 195.18 65.7338 194.932L66.4058 195.28C65.8058 195.36 65.1538 195.44 64.4498 195.52C63.7538 195.6 63.0658 195.692 62.3858 195.796C61.7138 195.9 61.1058 196.024 60.5618 196.168C60.1938 196.272 59.8378 196.42 59.4938 196.612C59.1498 196.796 58.8658 197.044 58.6418 197.356C58.4258 197.668 58.3178 198.056 58.3178 198.52C58.3178 198.896 58.4098 199.26 58.5938 199.612C58.7858 199.964 59.0898 200.256 59.5058 200.488C59.9298 200.72 60.4898 200.836 61.1858 200.836ZM70.6097 202V189.04H72.1937V192.16L71.8817 191.752C72.0257 191.368 72.2137 191.016 72.4457 190.696C72.6777 190.368 72.9297 190.1 73.2017 189.892C73.5377 189.596 73.9297 189.372 74.3777 189.22C74.8257 189.06 75.2777 188.968 75.7337 188.944C76.1897 188.912 76.6057 188.944 76.9817 189.04V190.696C76.5097 190.576 75.9937 190.548 75.4337 190.612C74.8737 190.676 74.3577 190.9 73.8857 191.284C73.4537 191.62 73.1297 192.024 72.9137 192.496C72.6977 192.96 72.5537 193.456 72.4817 193.984C72.4097 194.504 72.3737 195.02 72.3737 195.532V202H70.6097ZM84.3997 202.36C83.0958 202.36 81.9918 202.068 81.0878 201.484C80.1838 200.9 79.4958 200.096 79.0238 199.072C78.5598 198.04 78.3198 196.856 78.3038 195.52C78.3198 194.16 78.5678 192.968 79.0478 191.944C79.5278 190.912 80.2198 190.112 81.1238 189.544C82.0278 188.968 83.1238 188.68 84.4118 188.68C85.7238 188.68 86.8638 189 87.8318 189.64C88.8078 190.28 89.4758 191.156 89.8358 192.268L88.1078 192.82C87.8038 192.044 87.3198 191.444 86.6558 191.02C85.9998 190.588 85.2478 190.372 84.3997 190.372C83.4478 190.372 82.6598 190.592 82.0358 191.032C81.4118 191.464 80.9478 192.068 80.6438 192.844C80.3398 193.62 80.1838 194.512 80.1758 195.52C80.1918 197.072 80.5518 198.32 81.2558 199.264C81.9598 200.2 83.0078 200.668 84.3997 200.668C85.2798 200.668 86.0278 200.468 86.6438 200.068C87.2678 199.66 87.7398 199.068 88.0598 198.292L89.8358 198.82C89.3558 199.972 88.6518 200.852 87.7238 201.46C86.7958 202.06 85.6878 202.36 84.3997 202.36ZM101.673 202V195.388C101.673 194.668 101.605 194.008 101.469 193.408C101.333 192.8 101.113 192.272 100.809 191.824C100.513 191.368 100.125 191.016 99.6448 190.768C99.1728 190.52 98.5968 190.396 97.9168 190.396C97.2928 190.396 96.7408 190.504 96.2608 190.72C95.7888 190.936 95.3888 191.248 95.0608 191.656C94.7408 192.056 94.4968 192.544 94.3288 193.12C94.1608 193.696 94.0768 194.352 94.0768 195.088L92.8288 194.812C92.8288 193.484 93.0608 192.368 93.5248 191.464C93.9888 190.56 94.6288 189.876 95.4448 189.412C96.2608 188.948 97.1968 188.716 98.2528 188.716C99.0288 188.716 99.7048 188.836 100.281 189.076C100.865 189.316 101.357 189.64 101.757 190.048C102.165 190.456 102.493 190.924 102.741 191.452C102.989 191.972 103.169 192.528 103.281 193.12C103.393 193.704 103.449 194.288 103.449 194.872V202H101.673ZM92.3008 202V184.72H93.8968V194.476H94.0768V202H92.3008Z" fill="#121212"/>
<rect x="195" width="160" height="160" rx="32" fill="white"/>
<path d="M305.975 63.8838C306.3 63.5596 306.558 63.1745 306.734 62.7505C306.909 62.3266 307 61.8721 307 61.4131C307 60.9542 306.909 60.4997 306.734 60.0757C306.558 59.6518 306.3 59.2667 305.975 58.9425L296.058 49.0249C295.733 48.7 295.348 48.4422 294.924 48.2664C294.5 48.0905 294.046 48 293.587 48C293.128 48 292.673 48.0905 292.249 48.2664C291.826 48.4422 291.44 48.7 291.116 49.0249L275.381 64.7599L261.749 51.1275C259.015 48.3941 254.565 48.3941 251.831 51.1275L245.173 57.786C242.439 60.5195 242.439 64.9701 245.173 67.7036L258.805 81.336L243 97.1411V112H257.859L273.699 96.1598L287.331 109.792C290.661 113.121 295.146 111.895 297.249 109.792L303.908 103.134C306.641 100.4 306.641 95.9496 303.908 93.2161L290.275 79.5837L305.975 63.8838ZM250.149 62.7273L256.773 56.0688L261.223 60.5195L257.088 64.6898L262.029 69.6311L266.2 65.4608L270.405 69.6661L263.746 76.3246L250.149 62.7273ZM289.504 88.8005L285.334 92.9708L290.275 97.9121L294.445 93.7418L298.896 98.1924L292.238 104.851L278.605 91.2186L285.264 84.5601L289.504 88.8005ZM254.95 104.991H250.009V100.05L283.687 66.3719L288.243 70.9277L288.628 71.3132L254.95 104.991ZM288.628 61.3956L293.569 56.4543L298.511 61.3956L293.569 66.3369L288.628 61.3956Z" fill="#4252EB"/>
<path d="M238.68 202V184.72H243.924C244.108 184.72 244.42 184.724 244.86 184.732C245.308 184.74 245.736 184.772 246.144 184.828C247.456 185.012 248.552 185.5 249.432 186.292C250.312 187.084 250.972 188.092 251.412 189.316C251.852 190.54 252.072 191.888 252.072 193.36C252.072 194.832 251.852 196.18 251.412 197.404C250.972 198.628 250.312 199.636 249.432 200.428C248.552 201.22 247.456 201.708 246.144 201.892C245.744 201.94 245.316 201.972 244.86 201.988C244.404 201.996 244.092 202 243.924 202H238.68ZM240.504 200.308H243.924C244.252 200.308 244.604 200.3 244.98 200.284C245.364 200.26 245.692 200.22 245.964 200.164C246.972 199.988 247.784 199.58 248.4 198.94C249.024 198.3 249.48 197.5 249.768 196.54C250.056 195.572 250.2 194.512 250.2 193.36C250.2 192.2 250.056 191.136 249.768 190.168C249.48 189.2 249.024 188.4 248.4 187.768C247.776 187.136 246.964 186.732 245.964 186.556C245.692 186.5 245.36 186.464 244.968 186.448C244.584 186.424 244.236 186.412 243.924 186.412H240.504V200.308ZM260.289 202.36C259.025 202.36 257.929 202.08 257.001 201.52C256.081 200.96 255.365 200.172 254.853 199.156C254.341 198.14 254.085 196.948 254.085 195.58C254.085 194.164 254.337 192.94 254.841 191.908C255.345 190.876 256.053 190.08 256.965 189.52C257.885 188.96 258.969 188.68 260.217 188.68C261.497 188.68 262.589 188.976 263.493 189.568C264.397 190.152 265.081 190.992 265.545 192.088C266.009 193.184 266.221 194.492 266.181 196.012H264.381V195.388C264.349 193.708 263.985 192.44 263.289 191.584C262.601 190.728 261.593 190.3 260.265 190.3C258.873 190.3 257.805 190.752 257.061 191.656C256.325 192.56 255.957 193.848 255.957 195.52C255.957 197.152 256.325 198.42 257.061 199.324C257.805 200.22 258.857 200.668 260.217 200.668C261.145 200.668 261.953 200.456 262.641 200.032C263.337 199.6 263.885 198.98 264.285 198.172L265.929 198.808C265.417 199.936 264.661 200.812 263.661 201.436C262.669 202.052 261.545 202.36 260.289 202.36ZM255.333 196.012V194.536H265.233V196.012H255.333ZM273.68 202.348C272.16 202.348 270.908 202.02 269.924 201.364C268.948 200.708 268.348 199.796 268.124 198.628L269.924 198.328C270.116 199.064 270.552 199.652 271.232 200.092C271.92 200.524 272.768 200.74 273.776 200.74C274.76 200.74 275.536 200.536 276.104 200.128C276.672 199.712 276.956 199.148 276.956 198.436C276.956 198.036 276.864 197.712 276.68 197.464C276.504 197.208 276.14 196.972 275.588 196.756C275.036 196.54 274.212 196.284 273.116 195.988C271.94 195.668 271.02 195.348 270.356 195.028C269.692 194.708 269.22 194.34 268.94 193.924C268.66 193.5 268.52 192.984 268.52 192.376C268.52 191.64 268.728 190.996 269.144 190.444C269.56 189.884 270.136 189.452 270.872 189.148C271.608 188.836 272.464 188.68 273.44 188.68C274.416 188.68 275.288 188.84 276.056 189.16C276.832 189.472 277.456 189.912 277.928 190.48C278.4 191.048 278.68 191.708 278.768 192.46L276.968 192.784C276.848 192.024 276.468 191.424 275.828 190.984C275.196 190.536 274.392 190.304 273.416 190.288C272.496 190.264 271.748 190.44 271.172 190.816C270.596 191.184 270.308 191.676 270.308 192.292C270.308 192.636 270.412 192.932 270.62 193.18C270.828 193.42 271.204 193.648 271.748 193.864C272.3 194.08 273.084 194.316 274.1 194.572C275.292 194.876 276.228 195.196 276.908 195.532C277.588 195.868 278.072 196.264 278.36 196.72C278.648 197.176 278.792 197.74 278.792 198.412C278.792 199.636 278.336 200.6 277.424 201.304C276.52 202 275.272 202.348 273.68 202.348ZM281.693 186.58V184.6H283.457V186.58H281.693ZM281.693 202V189.04H283.457V202H281.693ZM292.203 208.12C291.539 208.12 290.883 208.02 290.235 207.82C289.595 207.628 289.003 207.32 288.459 206.896C287.915 206.48 287.459 205.936 287.091 205.264L288.687 204.376C289.047 205.096 289.551 205.612 290.199 205.924C290.855 206.244 291.523 206.404 292.203 206.404C293.139 206.404 293.895 206.228 294.471 205.876C295.055 205.532 295.479 205.02 295.743 204.34C296.007 203.66 296.135 202.812 296.127 201.796V198.34H296.331V189.04H297.903V201.82C297.903 202.188 297.891 202.54 297.867 202.876C297.851 203.22 297.815 203.556 297.759 203.884C297.607 204.852 297.291 205.648 296.811 206.272C296.339 206.896 295.715 207.36 294.939 207.664C294.171 207.968 293.259 208.12 292.203 208.12ZM292.083 202.36C290.875 202.36 289.843 202.06 288.987 201.46C288.131 200.852 287.475 200.032 287.019 199C286.563 197.968 286.335 196.804 286.335 195.508C286.335 194.22 286.559 193.06 287.007 192.028C287.463 190.996 288.115 190.18 288.963 189.58C289.811 188.98 290.827 188.68 292.011 188.68C293.227 188.68 294.251 188.976 295.083 189.568C295.915 190.16 296.543 190.972 296.967 192.004C297.399 193.028 297.615 194.196 297.615 195.508C297.615 196.796 297.403 197.96 296.979 199C296.555 200.032 295.931 200.852 295.107 201.46C294.283 202.06 293.275 202.36 292.083 202.36ZM292.263 200.716C293.183 200.716 293.943 200.492 294.543 200.044C295.143 199.596 295.591 198.98 295.887 198.196C296.183 197.404 296.331 196.508 296.331 195.508C296.331 194.492 296.183 193.596 295.887 192.82C295.591 192.036 295.143 191.424 294.543 190.984C293.951 190.544 293.203 190.324 292.299 190.324C291.371 190.324 290.603 190.552 289.995 191.008C289.387 191.464 288.935 192.084 288.639 192.868C288.351 193.652 288.207 194.532 288.207 195.508C288.207 196.492 288.355 197.38 288.651 198.172C288.955 198.956 289.407 199.576 290.007 200.032C290.607 200.488 291.359 200.716 292.263 200.716ZM310.618 202V195.388C310.618 194.668 310.55 194.008 310.414 193.408C310.278 192.8 310.058 192.272 309.754 191.824C309.458 191.368 309.07 191.016 308.59 190.768C308.118 190.52 307.542 190.396 306.862 190.396C306.238 190.396 305.686 190.504 305.206 190.72C304.734 190.936 304.334 191.248 304.006 191.656C303.686 192.056 303.442 192.544 303.274 193.12C303.106 193.696 303.022 194.352 303.022 195.088L301.774 194.812C301.774 193.484 302.006 192.368 302.47 191.464C302.934 190.56 303.574 189.876 304.39 189.412C305.206 188.948 306.142 188.716 307.198 188.716C307.974 188.716 308.65 188.836 309.226 189.076C309.81 189.316 310.302 189.64 310.702 190.048C311.11 190.456 311.438 190.924 311.686 191.452C311.934 191.972 312.114 192.528 312.226 193.12C312.338 193.704 312.394 194.288 312.394 194.872V202H310.618ZM301.246 202V189.04H302.842V192.232H303.022V202H301.246Z" fill="#121212"/>
<rect x="419" width="160" height="160" rx="32" fill="white"/>
<path fill-rule="evenodd" clip-rule="evenodd" d="M506.353 57.2774C506.494 56.8249 506.548 56.3466 506.514 55.871C506.479 55.3953 506.356 54.932 506.152 54.5085C505.948 54.0849 505.667 53.7098 505.326 53.4054C504.984 53.101 504.59 52.8735 504.165 52.7363C503.74 52.5992 503.294 52.5552 502.854 52.607C502.413 52.6588 501.986 52.8054 501.599 53.038C501.212 53.2706 500.872 53.5845 500.6 53.961C500.328 54.3376 500.129 54.7692 500.014 55.2301L486.772 102.73C486.556 103.623 486.671 104.571 487.091 105.374C487.511 106.178 488.205 106.775 489.026 107.039C489.847 107.304 490.732 107.216 491.493 106.793C492.255 106.37 492.835 105.646 493.111 104.773L506.353 57.2726V57.2774ZM481.245 65.6089C481.865 66.2768 482.213 67.1823 482.213 68.1264C482.213 69.0704 481.865 69.9759 481.245 70.6439L472.549 80.0014L481.245 89.3589C481.83 90.0342 482.148 90.9274 482.133 91.8503C482.118 92.7733 481.771 93.6539 481.164 94.3066C480.558 94.9593 479.739 95.3332 478.882 95.3495C478.024 95.3657 477.194 95.0231 476.566 94.3939L465.531 82.5189C464.911 81.8509 464.562 80.9454 464.562 80.0014C464.562 79.0573 464.911 78.1518 465.531 77.4839L476.566 65.6089C477.187 64.9417 478.028 64.567 478.906 64.567C479.783 64.567 480.624 64.9417 481.245 65.6089ZM511.88 94.3939C511.26 93.7259 510.912 92.8204 510.912 91.8764C510.912 90.9323 511.26 90.0268 511.88 89.3589L520.576 80.0014L511.88 70.6439C511.295 69.9685 510.977 69.0753 510.992 68.1524C511.007 67.2295 511.354 66.3489 511.961 65.6962C512.567 65.0434 513.386 64.6696 514.243 64.6533C515.101 64.637 515.931 64.9796 516.559 65.6089L527.594 77.4839C528.214 78.1518 528.563 79.0573 528.563 80.0014C528.563 80.9454 528.214 81.8509 527.594 82.5189L516.559 94.3939C515.938 95.061 515.097 95.4357 514.219 95.4357C513.342 95.4357 512.501 95.061 511.88 94.3939Z" fill="#4252EB"/>
<path d="M477.676 202.36C475.956 202.36 474.504 201.98 473.32 201.22C472.136 200.452 471.24 199.392 470.632 198.04C470.024 196.688 469.72 195.128 469.72 193.36C469.72 191.592 470.024 190.032 470.632 188.68C471.24 187.328 472.136 186.272 473.32 185.512C474.504 184.744 475.956 184.36 477.676 184.36C479.684 184.36 481.324 184.876 482.596 185.908C483.868 186.932 484.74 188.308 485.212 190.036L483.412 190.504C483.044 189.136 482.384 188.052 481.432 187.252C480.48 186.452 479.228 186.052 477.676 186.052C476.324 186.052 475.2 186.36 474.304 186.976C473.408 187.592 472.732 188.452 472.276 189.556C471.828 190.652 471.596 191.92 471.58 193.36C471.572 194.8 471.792 196.068 472.24 197.164C472.696 198.26 473.376 199.12 474.28 199.744C475.192 200.36 476.324 200.668 477.676 200.668C479.228 200.668 480.48 200.268 481.432 199.468C482.384 198.66 483.044 197.576 483.412 196.216L485.212 196.684C484.74 198.412 483.868 199.792 482.596 200.824C481.324 201.848 479.684 202.36 477.676 202.36ZM493.272 202.36C491.984 202.36 490.884 202.068 489.972 201.484C489.06 200.9 488.36 200.092 487.872 199.06C487.384 198.028 487.14 196.844 487.14 195.508C487.14 194.148 487.388 192.956 487.884 191.932C488.38 190.908 489.084 190.112 489.996 189.544C490.916 188.968 492.008 188.68 493.272 188.68C494.568 188.68 495.672 188.972 496.584 189.556C497.504 190.132 498.204 190.936 498.684 191.968C499.172 192.992 499.416 194.172 499.416 195.508C499.416 196.868 499.172 198.064 498.684 199.096C498.196 200.12 497.492 200.92 496.572 201.496C495.652 202.072 494.552 202.36 493.272 202.36ZM493.272 200.668C494.712 200.668 495.784 200.192 496.488 199.24C497.192 198.28 497.544 197.036 497.544 195.508C497.544 193.94 497.188 192.692 496.476 191.764C495.772 190.836 494.704 190.372 493.272 190.372C492.304 190.372 491.504 190.592 490.872 191.032C490.248 191.464 489.78 192.068 489.468 192.844C489.164 193.612 489.012 194.5 489.012 195.508C489.012 197.068 489.372 198.32 490.092 199.264C490.812 200.2 491.872 200.668 493.272 200.668ZM507.091 202.36C505.883 202.36 504.851 202.06 503.995 201.46C503.139 200.852 502.483 200.032 502.027 199C501.571 197.968 501.343 196.804 501.343 195.508C501.343 194.22 501.567 193.06 502.015 192.028C502.471 190.996 503.123 190.18 503.971 189.58C504.819 188.98 505.835 188.68 507.019 188.68C508.235 188.68 509.259 188.976 510.091 189.568C510.923 190.16 511.551 190.972 511.975 192.004C512.407 193.028 512.623 194.196 512.623 195.508C512.623 196.796 512.411 197.96 511.987 199C511.563 200.032 510.939 200.852 510.115 201.46C509.291 202.06 508.283 202.36 507.091 202.36ZM507.271 200.716C508.191 200.716 508.951 200.492 509.551 200.044C510.151 199.596 510.599 198.98 510.895 198.196C511.191 197.404 511.339 196.508 511.339 195.508C511.339 194.492 511.191 193.596 510.895 192.82C510.599 192.036 510.151 191.424 509.551 190.984C508.959 190.544 508.211 190.324 507.307 190.324C506.379 190.324 505.611 190.552 505.003 191.008C504.395 191.464 503.943 192.084 503.647 192.868C503.359 193.652 503.215 194.532 503.215 195.508C503.215 196.492 503.363 197.38 503.659 198.172C503.963 198.956 504.415 199.576 505.015 200.032C505.615 200.488 506.367 200.716 507.271 200.716ZM511.339 202V192.244H511.147V184.72H512.923V202H511.339ZM521.773 202.36C520.509 202.36 519.413 202.08 518.485 201.52C517.565 200.96 516.849 200.172 516.337 199.156C515.825 198.14 515.569 196.948 515.569 195.58C515.569 194.164 515.821 192.94 516.325 191.908C516.829 190.876 517.537 190.08 518.449 189.52C519.369 188.96 520.453 188.68 521.701 188.68C522.981 188.68 524.073 188.976 524.977 189.568C525.881 190.152 526.565 190.992 527.029 192.088C527.493 193.184 527.705 194.492 527.665 196.012H525.865V195.388C525.833 193.708 525.469 192.44 524.773 191.584C524.085 190.728 523.077 190.3 521.749 190.3C520.357 190.3 519.289 190.752 518.545 191.656C517.809 192.56 517.441 193.848 517.441 195.52C517.441 197.152 517.809 198.42 518.545 199.324C519.289 200.22 520.341 200.668 521.701 200.668C522.629 200.668 523.437 200.456 524.125 200.032C524.821 199.6 525.369 198.98 525.769 198.172L527.413 198.808C526.901 199.936 526.145 200.812 525.145 201.436C524.153 202.052 523.029 202.36 521.773 202.36ZM516.817 196.012V194.536H526.717V196.012H516.817Z" fill="#121212"/>
<rect x="643" width="160" height="160" rx="32" fill="white"/>
<path d="M731.533 113.933V124.6M714.467 113.933V124.6M731.533 45.6667V35M714.467 45.6667V35M701.667 79.8H691M755 79.8H744.333M701.667 56.3333H691M755 56.3333H744.333M701.667 103.267H691M755 103.267H744.333M701.667 111.373V48.2267C701.667 47.5477 701.936 46.8966 702.416 46.4165C702.897 45.9364 703.548 45.6667 704.227 45.6667H741.773C742.11 45.6667 742.442 45.7329 742.753 45.8615C743.064 45.9902 743.346 46.1788 743.584 46.4165C743.821 46.6542 744.01 46.9364 744.138 47.247C744.267 47.5576 744.333 47.8905 744.333 48.2267V111.373C744.333 111.71 744.267 112.042 744.138 112.353C744.01 112.664 743.821 112.946 743.584 113.184C743.346 113.421 743.064 113.61 742.753 113.738C742.442 113.867 742.11 113.933 741.773 113.933H704.227C703.548 113.933 702.897 113.664 702.416 113.184C701.936 112.703 701.667 112.052 701.667 111.373Z" stroke="#4252EB" stroke-width="6" stroke-linecap="round" stroke-linejoin="round"/>
<path d="M662.68 202V184.72H673.48V186.412H664.444V192.388H672.04V194.08H664.444V200.308H673.48V202H662.68ZM676.608 202V184.36H678.372V202H676.608ZM687.453 202.36C686.189 202.36 685.093 202.08 684.165 201.52C683.245 200.96 682.529 200.172 682.017 199.156C681.505 198.14 681.249 196.948 681.249 195.58C681.249 194.164 681.501 192.94 682.005 191.908C682.509 190.876 683.217 190.08 684.129 189.52C685.049 188.96 686.133 188.68 687.381 188.68C688.661 188.68 689.753 188.976 690.657 189.568C691.561 190.152 692.245 190.992 692.709 192.088C693.173 193.184 693.385 194.492 693.345 196.012H691.545V195.388C691.513 193.708 691.149 192.44 690.453 191.584C689.765 190.728 688.757 190.3 687.429 190.3C686.037 190.3 684.969 190.752 684.225 191.656C683.489 192.56 683.121 193.848 683.121 195.52C683.121 197.152 683.489 198.42 684.225 199.324C684.969 200.22 686.021 200.668 687.381 200.668C688.309 200.668 689.117 200.456 689.805 200.032C690.501 199.6 691.049 198.98 691.449 198.172L693.093 198.808C692.581 199.936 691.825 200.812 690.825 201.436C689.833 202.052 688.709 202.36 687.453 202.36ZM682.497 196.012V194.536H692.397V196.012H682.497ZM701.384 202.36C700.08 202.36 698.976 202.068 698.072 201.484C697.168 200.9 696.48 200.096 696.008 199.072C695.544 198.04 695.304 196.856 695.288 195.52C695.304 194.16 695.552 192.968 696.032 191.944C696.512 190.912 697.204 190.112 698.108 189.544C699.012 188.968 700.108 188.68 701.396 188.68C702.708 188.68 703.848 189 704.816 189.64C705.792 190.28 706.46 191.156 706.82 192.268L705.092 192.82C704.788 192.044 704.304 191.444 703.64 191.02C702.984 190.588 702.232 190.372 701.384 190.372C700.432 190.372 699.644 190.592 699.02 191.032C698.396 191.464 697.932 192.068 697.628 192.844C697.324 193.62 697.168 194.512 697.16 195.52C697.176 197.072 697.536 198.32 698.24 199.264C698.944 200.2 699.992 200.668 701.384 200.668C702.264 200.668 703.012 200.468 703.628 200.068C704.252 199.66 704.724 199.068 705.044 198.292L706.82 198.82C706.34 199.972 705.636 200.852 704.708 201.46C703.78 202.06 702.672 202.36 701.384 202.36ZM716.353 202C715.625 202.152 714.905 202.212 714.193 202.18C713.489 202.148 712.857 201.996 712.297 201.724C711.745 201.452 711.325 201.028 711.037 200.452C710.805 199.972 710.677 199.488 710.653 199C710.637 198.504 710.629 197.94 710.629 197.308V185.44H712.381V197.236C712.381 197.78 712.385 198.236 712.393 198.604C712.409 198.964 712.493 199.284 712.645 199.564C712.933 200.1 713.389 200.42 714.013 200.524C714.645 200.628 715.425 200.604 716.353 200.452V202ZM707.857 190.552V189.04H716.353V190.552H707.857ZM718.907 202V189.04H720.491V192.16L720.179 191.752C720.323 191.368 720.511 191.016 720.743 190.696C720.975 190.368 721.227 190.1 721.499 189.892C721.835 189.596 722.227 189.372 722.675 189.22C723.123 189.06 723.575 188.968 724.031 188.944C724.487 188.912 724.903 188.944 725.279 189.04V190.696C724.807 190.576 724.291 190.548 723.731 190.612C723.171 190.676 722.655 190.9 722.183 191.284C721.751 191.62 721.427 192.024 721.211 192.496C720.995 192.96 720.851 193.456 720.779 193.984C720.707 194.504 720.671 195.02 720.671 195.532V202H718.907ZM732.733 202.36C731.445 202.36 730.345 202.068 729.433 201.484C728.521 200.9 727.821 200.092 727.333 199.06C726.845 198.028 726.601 196.844 726.601 195.508C726.601 194.148 726.849 192.956 727.345 191.932C727.841 190.908 728.545 190.112 729.457 189.544C730.377 188.968 731.469 188.68 732.733 188.68C734.029 188.68 735.133 188.972 736.045 189.556C736.965 190.132 737.665 190.936 738.145 191.968C738.633 192.992 738.877 194.172 738.877 195.508C738.877 196.868 738.633 198.064 738.145 199.096C737.657 200.12 736.953 200.92 736.033 201.496C735.113 202.072 734.013 202.36 732.733 202.36ZM732.733 200.668C734.173 200.668 735.245 200.192 735.949 199.24C736.653 198.28 737.005 197.036 737.005 195.508C737.005 193.94 736.649 192.692 735.937 191.764C735.233 190.836 734.165 190.372 732.733 190.372C731.765 190.372 730.965 190.592 730.333 191.032C729.709 191.464 729.241 192.068 728.929 192.844C728.625 193.612 728.473 194.5 728.473 195.508C728.473 197.068 728.833 198.32 729.553 199.264C730.273 200.2 731.333 200.668 732.733 200.668ZM750.884 202V195.388C750.884 194.668 750.816 194.008 750.68 193.408C750.544 192.8 750.324 192.272 750.02 191.824C749.724 191.368 749.336 191.016 748.856 190.768C748.384 190.52 747.808 190.396 747.128 190.396C746.504 190.396 745.952 190.504 745.472 190.72C745 190.936 744.6 191.248 744.272 191.656C743.952 192.056 743.708 192.544 743.54 193.12C743.372 193.696 743.288 194.352 743.288 195.088L742.04 194.812C742.04 193.484 742.272 192.368 742.736 191.464C743.2 190.56 743.84 189.876 744.656 189.412C745.472 188.948 746.408 188.716 747.464 188.716C748.24 188.716 748.916 188.836 749.492 189.076C750.076 189.316 750.568 189.64 750.968 190.048C751.376 190.456 751.704 190.924 751.952 191.452C752.2 191.972 752.38 192.528 752.492 193.12C752.604 193.704 752.66 194.288 752.66 194.872V202H750.884ZM741.512 202V189.04H743.108V192.232H743.288V202H741.512ZM756.014 186.58V184.6H757.778V186.58H756.014ZM756.014 202V189.04H757.778V202H756.014ZM766.751 202.36C765.447 202.36 764.343 202.068 763.439 201.484C762.535 200.9 761.847 200.096 761.375 199.072C760.911 198.04 760.671 196.856 760.655 195.52C760.671 194.16 760.919 192.968 761.399 191.944C761.879 190.912 762.571 190.112 763.475 189.544C764.379 188.968 765.475 188.68 766.763 188.68C768.075 188.68 769.215 189 770.183 189.64C771.159 190.28 771.827 191.156 772.187 192.268L770.459 192.82C770.155 192.044 769.671 191.444 769.007 191.02C768.351 190.588 767.599 190.372 766.751 190.372C765.799 190.372 765.011 190.592 764.387 191.032C763.763 191.464 763.299 192.068 762.995 192.844C762.691 193.62 762.535 194.512 762.527 195.52C762.543 197.072 762.903 198.32 763.607 199.264C764.311 200.2 765.359 200.668 766.751 200.668C767.631 200.668 768.379 200.468 768.995 200.068C769.619 199.66 770.091 199.068 770.411 198.292L772.187 198.82C771.707 199.972 771.003 200.852 770.075 201.46C769.147 202.06 768.039 202.36 766.751 202.36ZM779.5 202.348C777.98 202.348 776.728 202.02 775.744 201.364C774.768 200.708 774.168 199.796 773.944 198.628L775.744 198.328C775.936 199.064 776.372 199.652 777.052 200.092C777.74 200.524 778.588 200.74 779.596 200.74C780.58 200.74 781.356 200.536 781.924 200.128C782.492 199.712 782.776 199.148 782.776 198.436C782.776 198.036 782.684 197.712 782.5 197.464C782.324 197.208 781.96 196.972 781.408 196.756C780.856 196.54 780.032 196.284 778.936 195.988C777.76 195.668 776.84 195.348 776.176 195.028C775.512 194.708 775.04 194.34 774.76 193.924C774.48 193.5 774.34 192.984 774.34 192.376C774.34 191.64 774.548 190.996 774.964 190.444C775.38 189.884 775.956 189.452 776.692 189.148C777.428 188.836 778.284 188.68 779.26 188.68C780.236 188.68 781.108 188.84 781.876 189.16C782.652 189.472 783.276 189.912 783.748 190.48C784.22 191.048 784.5 191.708 784.588 192.46L782.788 192.784C782.668 192.024 782.288 191.424 781.648 190.984C781.016 190.536 780.212 190.304 779.236 190.288C778.316 190.264 777.568 190.44 776.992 190.816C776.416 191.184 776.128 191.676 776.128 192.292C776.128 192.636 776.232 192.932 776.44 193.18C776.648 193.42 777.024 193.648 777.568 193.864C778.12 194.08 778.904 194.316 779.92 194.572C781.112 194.876 782.048 195.196 782.728 195.532C783.408 195.868 783.892 196.264 784.18 196.72C784.468 197.176 784.612 197.74 784.612 198.412C784.612 199.636 784.156 200.6 783.244 201.304C782.34 202 781.092 202.348 779.5 202.348Z" fill="#121212"/>
<rect x="867" width="160" height="160" rx="32" fill="white"/>
<path d="M978.443 93.5027C978.229 93.2554 977.964 93.057 977.666 92.9209C977.368 92.7849 977.045 92.7144 976.718 92.7142H972.146V88.1427C972.146 85.6239 970.096 83.5713 967.575 83.5713H958.432C955.911 83.5713 953.861 85.6239 953.861 88.1427V92.7142H949.289C948.962 92.7145 948.638 92.7851 948.34 92.9213C948.042 93.0575 947.777 93.256 947.563 93.5034C947.348 93.7509 947.189 94.0415 947.097 94.3557C947.004 94.6698 946.98 95.0002 947.026 95.3244L949.312 111.324C949.39 111.869 949.662 112.367 950.078 112.727C950.493 113.087 951.025 113.286 951.575 113.286H974.432C974.982 113.286 975.514 113.087 975.929 112.727C976.345 112.367 976.617 111.869 976.695 111.324L978.981 95.3244C979.027 95 979.003 94.6695 978.91 94.3552C978.817 94.0409 978.658 93.7502 978.443 93.5027ZM958.432 88.1427H967.575V92.7142H958.432V88.1427ZM972.45 108.714H953.557L951.925 97.2856H974.082L972.45 108.714ZM933.289 90.4284H937.86V113.286H933.289V90.4284Z" fill="#4252EB"/>
<path d="M948.783 85.5715L944.426 80.1223L941.13 71.8823C940.625 70.607 939.747 69.5136 938.611 68.7447C937.475 67.9757 936.134 67.5669 934.762 67.5714H921.857C918.077 67.5714 915 70.648 915 74.4286V90.4286C915 92.9498 917.05 95 919.571 95H921.857V113.286H926.429V90.4286H919.571V74.4286C919.571 73.8224 919.812 73.241 920.241 72.8124C920.67 72.3837 921.251 72.1429 921.857 72.1429H934.762C935.702 72.1429 936.536 72.7075 936.883 73.5806L940.643 82.7143L945.215 88.4286L948.783 85.5715ZM919.571 56.1429C919.571 51.1006 923.672 47 928.714 47C933.757 47 937.857 51.1006 937.857 56.1429C937.857 61.1852 933.757 65.2857 928.714 65.2857C923.672 65.2857 919.571 61.1852 919.571 56.1429ZM924.143 56.1429C924.143 58.664 926.193 60.7143 928.714 60.7143C931.235 60.7143 933.286 58.664 933.286 56.1429C933.286 53.6217 931.235 51.5714 928.714 51.5714C926.193 51.5714 924.143 53.6217 924.143 56.1429Z" fill="#4252EB"/>
<path d="M941.676 202.36C939.956 202.36 938.504 201.98 937.32 201.22C936.136 200.452 935.24 199.392 934.632 198.04C934.024 196.688 933.72 195.128 933.72 193.36C933.72 191.592 934.024 190.032 934.632 188.68C935.24 187.328 936.136 186.272 937.32 185.512C938.504 184.744 939.956 184.36 941.676 184.36C943.684 184.36 945.324 184.876 946.596 185.908C947.868 186.932 948.74 188.308 949.212 190.036L947.412 190.504C947.044 189.136 946.384 188.052 945.432 187.252C944.48 186.452 943.228 186.052 941.676 186.052C940.324 186.052 939.2 186.36 938.304 186.976C937.408 187.592 936.732 188.452 936.276 189.556C935.828 190.652 935.596 191.92 935.58 193.36C935.572 194.8 935.792 196.068 936.24 197.164C936.696 198.26 937.376 199.12 938.28 199.744C939.192 200.36 940.324 200.668 941.676 200.668C943.228 200.668 944.48 200.268 945.432 199.468C946.384 198.66 947.044 197.576 947.412 196.216L949.212 196.684C948.74 198.412 947.868 199.792 946.596 200.824C945.324 201.848 943.684 202.36 941.676 202.36ZM949.693 202L955.681 193.252L949.849 184.72H951.985L956.725 191.776L961.465 184.72H963.613L957.781 193.252L963.757 202H961.621L956.725 194.74L951.841 202H949.693Z" fill="#121212"/>
</svg>
