<svg width="1583" height="547" viewBox="0 0 1583 547" fill="none" xmlns="http://www.w3.org/2000/svg">
<line y1="188.5" x2="1583" y2="188.5" stroke="black"/>
<path d="M7.72 148.58C5.8 148.58 4.15333 148.047 2.78 146.98C1.40667 145.913 0.48 144.487 0 142.7L2.94 142C3.18 143.053 3.73333 143.947 4.6 144.68C5.48 145.4 6.51333 145.76 7.7 145.76C8.44667 145.76 9.2 145.58 9.96 145.22C10.7333 144.86 11.34 144.267 11.78 143.44C12.0733 142.867 12.24 142.247 12.28 141.58C12.3333 140.9 12.36 140.087 12.36 139.14V119.2H15.32V139.14C15.32 139.94 15.3133 140.667 15.3 141.32C15.2867 141.96 15.2133 142.58 15.08 143.18C14.96 143.767 14.7267 144.36 14.38 144.96C13.6867 146.173 12.7533 147.08 11.58 147.68C10.42 148.28 9.13333 148.58 7.72 148.58ZM29.6147 148.54C28.3214 148.54 27.188 148.34 26.2147 147.94C25.2547 147.54 24.4347 147 23.7547 146.32C23.088 145.64 22.548 144.867 22.1347 144C21.7214 143.12 21.4214 142.193 21.2347 141.22C21.048 140.233 20.9547 139.253 20.9547 138.28V126.4H23.9147V137.42C23.9147 138.607 24.028 139.707 24.2547 140.72C24.4814 141.733 24.8414 142.62 25.3347 143.38C25.8414 144.127 26.488 144.707 27.2747 145.12C28.0747 145.533 29.0414 145.74 30.1747 145.74C31.2147 145.74 32.128 145.56 32.9147 145.2C33.7147 144.84 34.3814 144.327 34.9147 143.66C35.4614 142.98 35.8747 142.16 36.1547 141.2C36.4347 140.227 36.5747 139.133 36.5747 137.92L38.6547 138.38C38.6547 140.593 38.268 142.453 37.4947 143.96C36.7214 145.467 35.6547 146.607 34.2947 147.38C32.9347 148.153 31.3747 148.54 29.6147 148.54ZM36.8747 148V142.68H36.5747V126.4H39.5147V148H36.8747ZM60.7047 148V136.98C60.7047 135.78 60.5914 134.68 60.3647 133.68C60.138 132.667 59.7714 131.787 59.2647 131.04C58.7714 130.28 58.1247 129.693 57.3247 129.28C56.538 128.867 55.578 128.66 54.4447 128.66C53.4047 128.66 52.4847 128.84 51.6847 129.2C50.898 129.56 50.2314 130.08 49.6847 130.76C49.1514 131.427 48.7447 132.24 48.4647 133.2C48.1847 134.16 48.0447 135.253 48.0447 136.48L45.9647 136.02C45.9647 133.807 46.3514 131.947 47.1247 130.44C47.898 128.933 48.9647 127.793 50.3247 127.02C51.6847 126.247 53.2447 125.86 55.0047 125.86C56.298 125.86 57.4247 126.06 58.3847 126.46C59.358 126.86 60.178 127.4 60.8447 128.08C61.5247 128.76 62.0714 129.54 62.4847 130.42C62.898 131.287 63.198 132.213 63.3847 133.2C63.5714 134.173 63.6647 135.147 63.6647 136.12V148H60.7047ZM45.0847 148V126.4H47.7447V131.72H48.0447V148H45.0847ZM77.8775 148.6C75.7708 148.6 73.9442 148.133 72.3975 147.2C70.8642 146.267 69.6708 144.953 68.8175 143.26C67.9642 141.567 67.5375 139.58 67.5375 137.3C67.5375 134.94 67.9575 132.9 68.7975 131.18C69.6375 129.46 70.8175 128.133 72.3375 127.2C73.8708 126.267 75.6775 125.8 77.7575 125.8C79.8908 125.8 81.7108 126.293 83.2175 127.28C84.7242 128.253 85.8642 129.653 86.6375 131.48C87.4108 133.307 87.7642 135.487 87.6975 138.02H84.6975V136.98C84.6442 134.18 84.0375 132.067 82.8775 130.64C81.7308 129.213 80.0508 128.5 77.8375 128.5C75.5175 128.5 73.7375 129.253 72.4975 130.76C71.2708 132.267 70.6575 134.413 70.6575 137.2C70.6575 139.92 71.2708 142.033 72.4975 143.54C73.7375 145.033 75.4908 145.78 77.7575 145.78C79.3042 145.78 80.6508 145.427 81.7975 144.72C82.9575 144 83.8708 142.967 84.5375 141.62L87.2775 142.68C86.4242 144.56 85.1642 146.02 83.4975 147.06C81.8442 148.087 79.9708 148.6 77.8775 148.6ZM69.6175 138.02V135.56H86.1175V138.02H69.6175Z" fill="black"/>
<path d="M739.72 148.58C737.8 148.58 736.153 148.047 734.78 146.98C733.407 145.913 732.48 144.487 732 142.7L734.94 142C735.18 143.053 735.733 143.947 736.6 144.68C737.48 145.4 738.513 145.76 739.7 145.76C740.447 145.76 741.2 145.58 741.96 145.22C742.733 144.86 743.34 144.267 743.78 143.44C744.073 142.867 744.24 142.247 744.28 141.58C744.333 140.9 744.36 140.087 744.36 139.14V119.2H747.32V139.14C747.32 139.94 747.313 140.667 747.3 141.32C747.287 141.96 747.213 142.58 747.08 143.18C746.96 143.767 746.727 144.36 746.38 144.96C745.687 146.173 744.753 147.08 743.58 147.68C742.42 148.28 741.133 148.58 739.72 148.58ZM761.615 148.54C760.321 148.54 759.188 148.34 758.215 147.94C757.255 147.54 756.435 147 755.755 146.32C755.088 145.64 754.548 144.867 754.135 144C753.721 143.12 753.421 142.193 753.235 141.22C753.048 140.233 752.955 139.253 752.955 138.28V126.4H755.915V137.42C755.915 138.607 756.028 139.707 756.255 140.72C756.481 141.733 756.841 142.62 757.335 143.38C757.841 144.127 758.488 144.707 759.275 145.12C760.075 145.533 761.041 145.74 762.175 145.74C763.215 145.74 764.128 145.56 764.915 145.2C765.715 144.84 766.381 144.327 766.915 143.66C767.461 142.98 767.875 142.16 768.155 141.2C768.435 140.227 768.575 139.133 768.575 137.92L770.655 138.38C770.655 140.593 770.268 142.453 769.495 143.96C768.721 145.467 767.655 146.607 766.295 147.38C764.935 148.153 763.375 148.54 761.615 148.54ZM768.875 148V142.68H768.575V126.4H771.515V148H768.875ZM777.505 148V118.6H780.445V148H777.505ZM789.521 157.6L793.701 146.26L793.761 149.62L784.301 126.4H787.421L795.181 145.82H793.901L801.061 126.4H804.061L792.461 157.6H789.521Z" fill="black"/>
<path d="M702.8 58.944V53.064L720.048 37.692C721.392 36.4973 722.325 35.368 722.848 34.304C723.371 33.24 723.632 32.2133 723.632 31.224C723.632 29.88 723.343 28.6853 722.764 27.64C722.185 26.576 721.383 25.736 720.356 25.12C719.348 24.504 718.181 24.196 716.856 24.196C715.456 24.196 714.215 24.5227 713.132 25.176C712.068 25.8107 711.237 26.66 710.64 27.724C710.043 28.788 709.763 29.936 709.8 31.168H702.856C702.856 28.48 703.453 26.1373 704.648 24.14C705.861 22.1427 707.523 20.5933 709.632 19.492C711.76 18.3907 714.215 17.84 716.996 17.84C719.572 17.84 721.887 18.4187 723.94 19.576C725.993 20.7147 727.608 22.3013 728.784 24.336C729.96 26.352 730.548 28.676 730.548 31.308C730.548 33.2307 730.287 34.8453 729.764 36.152C729.241 37.4587 728.457 38.6627 727.412 39.764C726.385 40.8653 725.107 42.088 723.576 43.432L711.34 54.268L710.724 52.588H730.548V58.944H702.8ZM751.783 59.84C748.927 59.84 746.407 59.2333 744.223 58.02C742.039 56.788 740.331 55.08 739.099 52.896C737.886 50.712 737.279 48.192 737.279 45.336V32.344C737.279 29.488 737.886 26.968 739.099 24.784C740.331 22.6 742.039 20.9013 744.223 19.688C746.407 18.456 748.927 17.84 751.783 17.84C754.639 17.84 757.15 18.456 759.315 19.688C761.499 20.9013 763.207 22.6 764.439 24.784C765.671 26.968 766.287 29.488 766.287 32.344V45.336C766.287 48.192 765.671 50.712 764.439 52.896C763.207 55.08 761.499 56.788 759.315 58.02C757.15 59.2333 754.639 59.84 751.783 59.84ZM751.783 53.428C753.202 53.428 754.49 53.092 755.647 52.42C756.805 51.7293 757.719 50.8147 758.391 49.676C759.063 48.5187 759.399 47.2307 759.399 45.812V31.84C759.399 30.4027 759.063 29.1147 758.391 27.976C757.719 26.8187 756.805 25.904 755.647 25.232C754.49 24.5413 753.202 24.196 751.783 24.196C750.365 24.196 749.077 24.5413 747.919 25.232C746.762 25.904 745.847 26.8187 745.175 27.976C744.503 29.1147 744.167 30.4027 744.167 31.84V45.812C744.167 47.2307 744.503 48.5187 745.175 49.676C745.847 50.8147 746.762 51.7293 747.919 52.42C749.077 53.092 750.365 53.428 751.783 53.428ZM773.019 58.944V53.064L790.267 37.692C791.611 36.4973 792.544 35.368 793.067 34.304C793.589 33.24 793.851 32.2133 793.851 31.224C793.851 29.88 793.561 28.6853 792.983 27.64C792.404 26.576 791.601 25.736 790.575 25.12C789.567 24.504 788.4 24.196 787.075 24.196C785.675 24.196 784.433 24.5227 783.351 25.176C782.287 25.8107 781.456 26.66 780.859 27.724C780.261 28.788 779.981 29.936 780.019 31.168H773.075C773.075 28.48 773.672 26.1373 774.867 24.14C776.08 22.1427 777.741 20.5933 779.851 19.492C781.979 18.3907 784.433 17.84 787.215 17.84C789.791 17.84 792.105 18.4187 794.159 19.576C796.212 20.7147 797.827 22.3013 799.003 24.336C800.179 26.352 800.767 28.676 800.767 31.308C800.767 33.2307 800.505 34.8453 799.983 36.152C799.46 37.4587 798.676 38.6627 797.631 39.764C796.604 40.8653 795.325 42.088 793.795 43.432L781.559 54.268L780.943 52.588H800.767V58.944H773.019ZM819.034 59.756C817.018 59.756 815.114 59.364 813.322 58.58C811.53 57.796 809.971 56.6853 808.646 55.248C807.339 53.8107 806.397 52.112 805.818 50.152L812.342 48.388C812.809 49.9933 813.658 51.2347 814.89 52.112C816.141 52.9707 817.513 53.3907 819.006 53.372C820.331 53.372 821.517 53.064 822.562 52.448C823.607 51.832 824.429 51.0013 825.026 49.956C825.623 48.892 825.922 47.7067 825.922 46.4C825.922 44.4027 825.278 42.732 823.99 41.388C822.702 40.044 821.041 39.372 819.006 39.372C818.39 39.372 817.783 39.456 817.186 39.624C816.607 39.792 816.047 40.0253 815.506 40.324L812.426 35.004L825.978 23.412L826.566 25.036H807.386V18.68H832.11V25.064L821.218 35.536L821.162 33.548C823.607 33.716 825.689 34.3973 827.406 35.592C829.142 36.7867 830.467 38.3267 831.382 40.212C832.315 42.0973 832.782 44.16 832.782 46.4C832.782 48.9387 832.157 51.216 830.906 53.232C829.674 55.248 828.013 56.844 825.922 58.02C823.85 59.1773 821.554 59.756 819.034 59.756Z" fill="black"/>
<path d="M1449.8 148L1459.72 119.2H1463.62L1473.54 148H1470.48L1461.06 120.84H1462.22L1452.86 148H1449.8ZM1454.22 141.02V138.26H1469.1V141.02H1454.22ZM1485.41 148.54C1484.12 148.54 1482.98 148.34 1482.01 147.94C1481.05 147.54 1480.23 147 1479.55 146.32C1478.88 145.64 1478.34 144.867 1477.93 144C1477.52 143.12 1477.22 142.193 1477.03 141.22C1476.84 140.233 1476.75 139.253 1476.75 138.28V126.4H1479.71V137.42C1479.71 138.607 1479.82 139.707 1480.05 140.72C1480.28 141.733 1480.64 142.62 1481.13 143.38C1481.64 144.127 1482.28 144.707 1483.07 145.12C1483.87 145.533 1484.84 145.74 1485.97 145.74C1487.01 145.74 1487.92 145.56 1488.71 145.2C1489.51 144.84 1490.18 144.327 1490.71 143.66C1491.26 142.98 1491.67 142.16 1491.95 141.2C1492.23 140.227 1492.37 139.133 1492.37 137.92L1494.45 138.38C1494.45 140.593 1494.06 142.453 1493.29 143.96C1492.52 145.467 1491.45 146.607 1490.09 147.38C1488.73 148.153 1487.17 148.54 1485.41 148.54ZM1492.67 148V142.68H1492.37V126.4H1495.31V148H1492.67ZM1509.48 158.2C1508.37 158.2 1507.28 158.033 1506.2 157.7C1505.13 157.38 1504.15 156.867 1503.24 156.16C1502.33 155.467 1501.57 154.56 1500.96 153.44L1503.62 151.96C1504.22 153.16 1505.06 154.02 1506.14 154.54C1507.23 155.073 1508.35 155.34 1509.48 155.34C1511.04 155.34 1512.3 155.047 1513.26 154.46C1514.23 153.887 1514.94 153.033 1515.38 151.9C1515.82 150.767 1516.03 149.353 1516.02 147.66V141.9H1516.36V126.4H1518.98V147.7C1518.98 148.313 1518.96 148.9 1518.92 149.46C1518.89 150.033 1518.83 150.593 1518.74 151.14C1518.49 152.753 1517.96 154.08 1517.16 155.12C1516.37 156.16 1515.33 156.933 1514.04 157.44C1512.76 157.947 1511.24 158.2 1509.48 158.2ZM1509.28 148.6C1507.27 148.6 1505.55 148.1 1504.12 147.1C1502.69 146.087 1501.6 144.72 1500.84 143C1500.08 141.28 1499.7 139.34 1499.7 137.18C1499.7 135.033 1500.07 133.1 1500.82 131.38C1501.58 129.66 1502.67 128.3 1504.08 127.3C1505.49 126.3 1507.19 125.8 1509.16 125.8C1511.19 125.8 1512.89 126.293 1514.28 127.28C1515.67 128.267 1516.71 129.62 1517.42 131.34C1518.14 133.047 1518.5 134.993 1518.5 137.18C1518.5 139.327 1518.15 141.267 1517.44 143C1516.73 144.72 1515.69 146.087 1514.32 147.1C1512.95 148.1 1511.27 148.6 1509.28 148.6ZM1509.58 145.86C1511.11 145.86 1512.38 145.487 1513.38 144.74C1514.38 143.993 1515.13 142.967 1515.62 141.66C1516.11 140.34 1516.36 138.847 1516.36 137.18C1516.36 135.487 1516.11 133.993 1515.62 132.7C1515.13 131.393 1514.38 130.373 1513.38 129.64C1512.39 128.907 1511.15 128.54 1509.64 128.54C1508.09 128.54 1506.81 128.92 1505.8 129.68C1504.79 130.44 1504.03 131.473 1503.54 132.78C1503.06 134.087 1502.82 135.553 1502.82 137.18C1502.82 138.82 1503.07 140.3 1503.56 141.62C1504.07 142.927 1504.82 143.96 1505.82 144.72C1506.82 145.48 1508.07 145.86 1509.58 145.86ZM1532.83 148.54C1531.54 148.54 1530.41 148.34 1529.43 147.94C1528.47 147.54 1527.65 147 1526.97 146.32C1526.31 145.64 1525.77 144.867 1525.35 144C1524.94 143.12 1524.64 142.193 1524.45 141.22C1524.27 140.233 1524.17 139.253 1524.17 138.28V126.4H1527.13V137.42C1527.13 138.607 1527.25 139.707 1527.47 140.72C1527.7 141.733 1528.06 142.62 1528.55 143.38C1529.06 144.127 1529.71 144.707 1530.49 145.12C1531.29 145.533 1532.26 145.74 1533.39 145.74C1534.43 145.74 1535.35 145.56 1536.13 145.2C1536.93 144.84 1537.6 144.327 1538.13 143.66C1538.68 142.98 1539.09 142.16 1539.37 141.2C1539.65 140.227 1539.79 139.133 1539.79 137.92L1541.87 138.38C1541.87 140.593 1541.49 142.453 1540.71 143.96C1539.94 145.467 1538.87 146.607 1537.51 147.38C1536.15 148.153 1534.59 148.54 1532.83 148.54ZM1540.09 148V142.68H1539.79V126.4H1542.73V148H1540.09ZM1556.38 148.58C1553.85 148.58 1551.76 148.033 1550.12 146.94C1548.5 145.847 1547.5 144.327 1547.12 142.38L1550.12 141.88C1550.44 143.107 1551.17 144.087 1552.3 144.82C1553.45 145.54 1554.86 145.9 1556.54 145.9C1558.18 145.9 1559.48 145.56 1560.42 144.88C1561.37 144.187 1561.84 143.247 1561.84 142.06C1561.84 141.393 1561.69 140.853 1561.38 140.44C1561.09 140.013 1560.48 139.62 1559.56 139.26C1558.64 138.9 1557.27 138.473 1555.44 137.98C1553.48 137.447 1551.95 136.913 1550.84 136.38C1549.74 135.847 1548.95 135.233 1548.48 134.54C1548.02 133.833 1547.78 132.973 1547.78 131.96C1547.78 130.733 1548.13 129.66 1548.82 128.74C1549.52 127.807 1550.48 127.087 1551.7 126.58C1552.93 126.06 1554.36 125.8 1555.98 125.8C1557.61 125.8 1559.06 126.067 1560.34 126.6C1561.64 127.12 1562.68 127.853 1563.46 128.8C1564.25 129.747 1564.72 130.847 1564.86 132.1L1561.86 132.64C1561.66 131.373 1561.03 130.373 1559.96 129.64C1558.91 128.893 1557.57 128.507 1555.94 128.48C1554.41 128.44 1553.16 128.733 1552.2 129.36C1551.24 129.973 1550.76 130.793 1550.76 131.82C1550.76 132.393 1550.94 132.887 1551.28 133.3C1551.63 133.7 1552.26 134.08 1553.16 134.44C1554.08 134.8 1555.39 135.193 1557.08 135.62C1559.07 136.127 1560.63 136.66 1561.76 137.22C1562.9 137.78 1563.7 138.44 1564.18 139.2C1564.66 139.96 1564.9 140.9 1564.9 142.02C1564.9 144.06 1564.14 145.667 1562.62 146.84C1561.12 148 1559.04 148.58 1556.38 148.58ZM1581.1 148C1579.89 148.253 1578.69 148.353 1577.5 148.3C1576.33 148.247 1575.27 147.993 1574.34 147.54C1573.42 147.087 1572.72 146.38 1572.24 145.42C1571.85 144.62 1571.64 143.813 1571.6 143C1571.57 142.173 1571.56 141.233 1571.56 140.18V120.4H1574.48V140.06C1574.48 140.967 1574.49 141.727 1574.5 142.34C1574.53 142.94 1574.67 143.473 1574.92 143.94C1575.4 144.833 1576.16 145.367 1577.2 145.54C1578.25 145.713 1579.55 145.673 1581.1 145.42V148ZM1566.94 128.92V126.4H1581.1V128.92H1566.94Z" fill="black"/>
<rect y="239" width="768" height="76" rx="24" fill="#2658F4"/>
<rect x="334" y="355" width="961" height="76" rx="24" fill="#2658F4"/>
<rect x="622" y="471" width="961" height="76" rx="24" fill="#2658F4"/>
<path d="M357.24 289V265.96H371.112V269.816H361.096V275.56H369.192V279.4H361.096V289H357.24ZM381.153 289.48C379.425 289.48 377.916 289.091 376.625 288.312C375.335 287.533 374.332 286.461 373.617 285.096C372.913 283.72 372.561 282.141 372.561 280.36C372.561 278.547 372.924 276.957 373.649 275.592C374.375 274.227 375.383 273.16 376.673 272.392C377.964 271.624 379.457 271.24 381.153 271.24C382.892 271.24 384.407 271.629 385.697 272.408C386.988 273.187 387.991 274.264 388.705 275.64C389.42 277.005 389.777 278.579 389.777 280.36C389.777 282.152 389.415 283.736 388.689 285.112C387.975 286.477 386.972 287.549 385.681 288.328C384.391 289.096 382.881 289.48 381.153 289.48ZM381.153 285.864C382.689 285.864 383.831 285.352 384.577 284.328C385.324 283.304 385.697 281.981 385.697 280.36C385.697 278.685 385.319 277.352 384.561 276.36C383.804 275.357 382.668 274.856 381.153 274.856C380.119 274.856 379.265 275.091 378.593 275.56C377.932 276.019 377.441 276.664 377.121 277.496C376.801 278.317 376.641 279.272 376.641 280.36C376.641 282.035 377.02 283.373 377.777 284.376C378.545 285.368 379.671 285.864 381.153 285.864ZM393.303 289V271.72H396.711V275.928L396.295 275.384C396.508 274.808 396.791 274.285 397.143 273.816C397.505 273.336 397.937 272.941 398.439 272.632C398.865 272.344 399.335 272.12 399.847 271.96C400.369 271.789 400.903 271.688 401.447 271.656C401.991 271.613 402.519 271.635 403.031 271.72V275.32C402.519 275.171 401.927 275.123 401.255 275.176C400.593 275.229 399.996 275.416 399.463 275.736C398.929 276.024 398.492 276.392 398.151 276.84C397.82 277.288 397.575 277.8 397.415 278.376C397.255 278.941 397.175 279.555 397.175 280.216V289H393.303ZM426.836 289V278.504C426.836 277.32 426.542 276.397 425.956 275.736C425.369 275.064 424.574 274.728 423.572 274.728C422.953 274.728 422.398 274.872 421.908 275.16C421.417 275.437 421.028 275.853 420.74 276.408C420.452 276.952 420.308 277.603 420.308 278.36L418.596 277.352C418.585 276.157 418.852 275.107 419.396 274.2C419.95 273.283 420.697 272.568 421.636 272.056C422.574 271.544 423.62 271.288 424.772 271.288C426.681 271.288 428.142 271.864 429.156 273.016C430.18 274.157 430.692 275.661 430.692 277.528V289H426.836ZM406.052 289V271.72H409.46V277.08H409.94V289H406.052ZM416.468 289V278.552C416.468 277.347 416.174 276.408 415.588 275.736C415.001 275.064 414.201 274.728 413.188 274.728C412.206 274.728 411.417 275.064 410.82 275.736C410.233 276.408 409.94 277.283 409.94 278.36L408.212 277.208C408.212 276.088 408.489 275.08 409.044 274.184C409.598 273.288 410.345 272.584 411.284 272.072C412.233 271.549 413.294 271.288 414.468 271.288C415.758 271.288 416.836 271.565 417.7 272.12C418.574 272.664 419.225 273.411 419.652 274.36C420.089 275.299 420.308 276.36 420.308 277.544V289H416.468ZM441.537 289.48C439.404 289.48 437.67 289 436.337 288.04C435.004 287.08 434.193 285.731 433.905 283.992L437.841 283.384C438.044 284.237 438.492 284.909 439.185 285.4C439.878 285.891 440.753 286.136 441.809 286.136C442.737 286.136 443.452 285.955 443.953 285.592C444.465 285.219 444.721 284.712 444.721 284.072C444.721 283.677 444.625 283.363 444.433 283.128C444.252 282.883 443.846 282.648 443.217 282.424C442.588 282.2 441.622 281.917 440.321 281.576C438.87 281.192 437.718 280.781 436.865 280.344C436.012 279.896 435.398 279.368 435.025 278.76C434.652 278.152 434.465 277.416 434.465 276.552C434.465 275.475 434.748 274.536 435.313 273.736C435.878 272.936 436.668 272.323 437.681 271.896C438.694 271.459 439.889 271.24 441.265 271.24C442.609 271.24 443.798 271.448 444.833 271.864C445.878 272.28 446.721 272.872 447.361 273.64C448.001 274.408 448.396 275.309 448.545 276.344L444.609 277.048C444.513 276.312 444.177 275.731 443.601 275.304C443.036 274.877 442.278 274.637 441.329 274.584C440.422 274.531 439.692 274.669 439.137 275C438.582 275.32 438.305 275.773 438.305 276.36C438.305 276.691 438.417 276.973 438.641 277.208C438.865 277.443 439.313 277.677 439.985 277.912C440.668 278.147 441.681 278.435 443.025 278.776C444.401 279.128 445.5 279.533 446.321 279.992C447.153 280.44 447.75 280.979 448.113 281.608C448.486 282.237 448.673 283 448.673 283.896C448.673 285.635 448.038 287 446.769 287.992C445.51 288.984 443.766 289.48 441.537 289.48Z" fill="white"/>
<path d="M769.24 405V381.96H778.76C778.984 381.96 779.272 381.971 779.624 381.992C779.976 382.003 780.301 382.035 780.6 382.088C781.933 382.291 783.032 382.733 783.896 383.416C784.771 384.099 785.416 384.963 785.832 386.008C786.259 387.043 786.472 388.195 786.472 389.464C786.472 390.723 786.259 391.875 785.832 392.92C785.405 393.955 784.755 394.813 783.88 395.496C783.016 396.179 781.923 396.621 780.6 396.824C780.301 396.867 779.971 396.899 779.608 396.92C779.256 396.941 778.973 396.952 778.76 396.952H773.096V405H769.24ZM773.096 393.352H778.6C778.813 393.352 779.053 393.341 779.32 393.32C779.587 393.299 779.832 393.256 780.056 393.192C780.696 393.032 781.197 392.749 781.56 392.344C781.933 391.939 782.195 391.48 782.344 390.968C782.504 390.456 782.584 389.955 782.584 389.464C782.584 388.973 782.504 388.472 782.344 387.96C782.195 387.437 781.933 386.973 781.56 386.568C781.197 386.163 780.696 385.88 780.056 385.72C779.832 385.656 779.587 385.619 779.32 385.608C779.053 385.587 778.813 385.576 778.6 385.576H773.096V393.352ZM789.678 405V387.72H793.086V391.928L792.67 391.384C792.883 390.808 793.166 390.285 793.518 389.816C793.88 389.336 794.312 388.941 794.814 388.632C795.24 388.344 795.71 388.12 796.222 387.96C796.744 387.789 797.278 387.688 797.822 387.656C798.366 387.613 798.894 387.635 799.406 387.72V391.32C798.894 391.171 798.302 391.123 797.63 391.176C796.968 391.229 796.371 391.416 795.838 391.736C795.304 392.024 794.867 392.392 794.526 392.84C794.195 393.288 793.95 393.8 793.79 394.376C793.63 394.941 793.55 395.555 793.55 396.216V405H789.678ZM809.778 405.48C808.05 405.48 806.541 405.091 805.25 404.312C803.96 403.533 802.957 402.461 802.242 401.096C801.538 399.72 801.186 398.141 801.186 396.36C801.186 394.547 801.549 392.957 802.274 391.592C803 390.227 804.008 389.16 805.298 388.392C806.589 387.624 808.082 387.24 809.778 387.24C811.517 387.24 813.032 387.629 814.322 388.408C815.613 389.187 816.616 390.264 817.33 391.64C818.045 393.005 818.402 394.579 818.402 396.36C818.402 398.152 818.04 399.736 817.314 401.112C816.6 402.477 815.597 403.549 814.306 404.328C813.016 405.096 811.506 405.48 809.778 405.48ZM809.778 401.864C811.314 401.864 812.456 401.352 813.202 400.328C813.949 399.304 814.322 397.981 814.322 396.36C814.322 394.685 813.944 393.352 813.186 392.36C812.429 391.357 811.293 390.856 809.778 390.856C808.744 390.856 807.89 391.091 807.218 391.56C806.557 392.019 806.066 392.664 805.746 393.496C805.426 394.317 805.266 395.272 805.266 396.36C805.266 398.035 805.645 399.373 806.402 400.376C807.17 401.368 808.296 401.864 809.778 401.864ZM823.432 405V387.448C823.432 387.011 823.448 386.531 823.48 386.008C823.512 385.475 823.602 384.947 823.752 384.424C823.901 383.901 824.173 383.427 824.568 383C825.058 382.456 825.586 382.083 826.152 381.88C826.728 381.667 827.293 381.549 827.848 381.528C828.402 381.496 828.888 381.48 829.304 381.48H831.464V384.616H829.464C828.728 384.616 828.178 384.803 827.816 385.176C827.464 385.539 827.288 386.019 827.288 386.616V405H823.432ZM820.648 390.744V387.72H831.464V390.744H820.648ZM834.824 385.096V381.56H838.68V385.096H834.824ZM834.824 405V387.72H838.68V405H834.824ZM843.81 405V381.48H847.666V405H843.81ZM860.315 405.48C858.565 405.48 857.029 405.101 855.707 404.344C854.384 403.587 853.349 402.536 852.603 401.192C851.867 399.848 851.499 398.301 851.499 396.552C851.499 394.664 851.861 393.027 852.587 391.64C853.312 390.243 854.32 389.16 855.611 388.392C856.901 387.624 858.395 387.24 860.091 387.24C861.883 387.24 863.403 387.661 864.651 388.504C865.909 389.336 866.843 390.515 867.451 392.04C868.059 393.565 868.288 395.363 868.139 397.432H864.315V396.024C864.304 394.147 863.973 392.776 863.323 391.912C862.672 391.048 861.648 390.616 860.251 390.616C858.672 390.616 857.499 391.107 856.731 392.088C855.963 393.059 855.579 394.483 855.579 396.36C855.579 398.109 855.963 399.464 856.731 400.424C857.499 401.384 858.619 401.864 860.091 401.864C861.04 401.864 861.856 401.656 862.539 401.24C863.232 400.813 863.765 400.2 864.139 399.4L867.947 400.552C867.285 402.109 866.261 403.32 864.875 404.184C863.499 405.048 861.979 405.48 860.315 405.48ZM854.363 397.432V394.52H866.251V397.432H854.363Z" fill="white"/>
<path d="M1057.24 521V497.96H1060.71L1068.68 514.28L1076.65 497.96H1080.12V521H1076.52V506.232L1069.45 521H1067.91L1060.86 506.232V521H1057.24ZM1092.25 521.48C1090.52 521.48 1089.01 521.091 1087.72 520.312C1086.43 519.533 1085.43 518.461 1084.71 517.096C1084.01 515.72 1083.66 514.141 1083.66 512.36C1083.66 510.547 1084.02 508.957 1084.74 507.592C1085.47 506.227 1086.48 505.16 1087.77 504.392C1089.06 503.624 1090.55 503.24 1092.25 503.24C1093.99 503.24 1095.5 503.629 1096.79 504.408C1098.08 505.187 1099.08 506.264 1099.8 507.64C1100.51 509.005 1100.87 510.579 1100.87 512.36C1100.87 514.152 1100.51 515.736 1099.78 517.112C1099.07 518.477 1098.07 519.549 1096.78 520.328C1095.48 521.096 1093.98 521.48 1092.25 521.48ZM1092.25 517.864C1093.78 517.864 1094.92 517.352 1095.67 516.328C1096.42 515.304 1096.79 513.981 1096.79 512.36C1096.79 510.685 1096.41 509.352 1095.66 508.36C1094.9 507.357 1093.76 506.856 1092.25 506.856C1091.21 506.856 1090.36 507.091 1089.69 507.56C1089.03 508.019 1088.54 508.664 1088.22 509.496C1087.9 510.317 1087.74 511.272 1087.74 512.36C1087.74 514.035 1088.11 515.373 1088.87 516.376C1089.64 517.368 1090.76 517.864 1092.25 517.864ZM1112.7 521.48C1111.01 521.48 1109.6 521.08 1108.46 520.28C1107.32 519.48 1106.46 518.392 1105.88 517.016C1105.31 515.629 1105.02 514.077 1105.02 512.36C1105.02 510.621 1105.31 509.064 1105.88 507.688C1106.46 506.312 1107.3 505.229 1108.41 504.44C1109.53 503.64 1110.91 503.24 1112.56 503.24C1114.19 503.24 1115.6 503.64 1116.8 504.44C1118 505.229 1118.93 506.312 1119.6 507.688C1120.26 509.053 1120.59 510.611 1120.59 512.36C1120.59 514.088 1120.26 515.64 1119.61 517.016C1118.96 518.392 1118.04 519.48 1116.86 520.28C1115.68 521.08 1114.29 521.48 1112.7 521.48ZM1104.36 521V497.96H1108.25V508.872H1107.77V521H1104.36ZM1112.11 518.024C1113.11 518.024 1113.94 517.773 1114.59 517.272C1115.24 516.771 1115.72 516.093 1116.03 515.24C1116.35 514.376 1116.51 513.416 1116.51 512.36C1116.51 511.315 1116.35 510.365 1116.03 509.512C1115.71 508.648 1115.21 507.965 1114.54 507.464C1113.87 506.952 1113.01 506.696 1111.98 506.696C1111 506.696 1110.2 506.936 1109.58 507.416C1108.96 507.885 1108.5 508.547 1108.2 509.4C1107.92 510.243 1107.77 511.229 1107.77 512.36C1107.77 513.48 1107.92 514.467 1108.2 515.32C1108.5 516.173 1108.97 516.84 1109.6 517.32C1110.24 517.789 1111.07 518.024 1112.11 518.024ZM1124.44 501.096V497.56H1128.29V501.096H1124.44ZM1124.44 521V503.72H1128.29V521H1124.44ZM1133.4 521V497.48H1137.26V521H1133.4ZM1149.91 521.48C1148.16 521.48 1146.62 521.101 1145.3 520.344C1143.98 519.587 1142.94 518.536 1142.2 517.192C1141.46 515.848 1141.09 514.301 1141.09 512.552C1141.09 510.664 1141.46 509.027 1142.18 507.64C1142.91 506.243 1143.91 505.16 1145.2 504.392C1146.5 503.624 1147.99 503.24 1149.68 503.24C1151.48 503.24 1153 503.661 1154.24 504.504C1155.5 505.336 1156.44 506.515 1157.04 508.04C1157.65 509.565 1157.88 511.363 1157.73 513.432H1153.91V512.024C1153.9 510.147 1153.57 508.776 1152.92 507.912C1152.27 507.048 1151.24 506.616 1149.84 506.616C1148.27 506.616 1147.09 507.107 1146.32 508.088C1145.56 509.059 1145.17 510.483 1145.17 512.36C1145.17 514.109 1145.56 515.464 1146.32 516.424C1147.09 517.384 1148.21 517.864 1149.68 517.864C1150.63 517.864 1151.45 517.656 1152.13 517.24C1152.83 516.813 1153.36 516.2 1153.73 515.4L1157.54 516.552C1156.88 518.109 1155.86 519.32 1154.47 520.184C1153.09 521.048 1151.57 521.48 1149.91 521.48ZM1143.96 513.432V510.52H1155.84V513.432H1143.96ZM1176.24 521.48C1174.55 521.48 1173.03 521.187 1171.68 520.6C1170.33 520.013 1169.22 519.176 1168.35 518.088C1167.48 516.989 1166.94 515.688 1166.7 514.184L1170.7 513.576C1171.04 514.941 1171.74 515.997 1172.8 516.744C1173.86 517.491 1175.09 517.864 1176.48 517.864C1177.3 517.864 1178.07 517.736 1178.8 517.48C1179.52 517.224 1180.11 516.851 1180.56 516.36C1181.02 515.869 1181.24 515.267 1181.24 514.552C1181.24 514.232 1181.19 513.939 1181.08 513.672C1180.98 513.395 1180.82 513.149 1180.6 512.936C1180.4 512.723 1180.14 512.531 1179.8 512.36C1179.48 512.179 1179.11 512.024 1178.68 511.896L1172.73 510.136C1172.22 509.987 1171.67 509.789 1171.07 509.544C1170.48 509.288 1169.92 508.941 1169.39 508.504C1168.87 508.056 1168.43 507.491 1168.09 506.808C1167.76 506.115 1167.6 505.261 1167.6 504.248C1167.6 502.765 1167.97 501.523 1168.72 500.52C1169.47 499.507 1170.49 498.749 1171.76 498.248C1173.04 497.747 1174.46 497.501 1176.01 497.512C1177.59 497.523 1179 497.795 1180.24 498.328C1181.47 498.851 1182.51 499.613 1183.34 500.616C1184.17 501.619 1184.76 502.829 1185.1 504.248L1180.96 504.968C1180.79 504.157 1180.46 503.469 1179.96 502.904C1179.48 502.328 1178.89 501.891 1178.19 501.592C1177.5 501.293 1176.75 501.133 1175.96 501.112C1175.2 501.101 1174.48 501.219 1173.82 501.464C1173.17 501.699 1172.64 502.04 1172.24 502.488C1171.84 502.936 1171.64 503.459 1171.64 504.056C1171.64 504.621 1171.82 505.085 1172.16 505.448C1172.5 505.8 1172.92 506.083 1173.42 506.296C1173.93 506.499 1174.45 506.669 1174.97 506.808L1179.1 507.96C1179.67 508.109 1180.3 508.312 1181 508.568C1181.71 508.824 1182.39 509.181 1183.04 509.64C1183.69 510.099 1184.22 510.701 1184.64 511.448C1185.06 512.195 1185.28 513.144 1185.28 514.296C1185.28 515.491 1185.03 516.541 1184.52 517.448C1184.03 518.344 1183.37 519.091 1182.52 519.688C1181.68 520.285 1180.72 520.733 1179.63 521.032C1178.55 521.331 1177.42 521.48 1176.24 521.48ZM1196.24 521.48C1194.46 521.48 1192.94 521.085 1191.68 520.296C1190.43 519.496 1189.46 518.408 1188.79 517.032C1188.13 515.656 1187.79 514.099 1187.78 512.36C1187.79 510.589 1188.14 509.021 1188.82 507.656C1189.51 506.28 1190.49 505.203 1191.76 504.424C1193.03 503.635 1194.54 503.24 1196.29 503.24C1198.25 503.24 1199.91 503.736 1201.27 504.728C1202.63 505.709 1203.52 507.053 1203.94 508.76L1200.1 509.8C1199.8 508.872 1199.31 508.152 1198.61 507.64C1197.92 507.117 1197.13 506.856 1196.24 506.856C1195.24 506.856 1194.41 507.096 1193.76 507.576C1193.11 508.045 1192.63 508.696 1192.32 509.528C1192.01 510.36 1191.86 511.304 1191.86 512.36C1191.86 514.003 1192.23 515.331 1192.96 516.344C1193.7 517.357 1194.79 517.864 1196.24 517.864C1197.27 517.864 1198.07 517.629 1198.66 517.16C1199.26 516.691 1199.71 516.013 1200 515.128L1203.94 516.008C1203.41 517.768 1202.47 519.123 1201.14 520.072C1199.81 521.011 1198.17 521.48 1196.24 521.48ZM1207.15 521V503.72H1210.55V507.928L1210.14 507.384C1210.35 506.808 1210.63 506.285 1210.99 505.816C1211.35 505.336 1211.78 504.941 1212.28 504.632C1212.71 504.344 1213.18 504.12 1213.69 503.96C1214.21 503.789 1214.75 503.688 1215.29 503.656C1215.83 503.613 1216.36 503.635 1216.87 503.72V507.32C1216.36 507.171 1215.77 507.123 1215.1 507.176C1214.44 507.229 1213.84 507.416 1213.31 507.736C1212.77 508.024 1212.34 508.392 1211.99 508.84C1211.66 509.288 1211.42 509.8 1211.26 510.376C1211.1 510.941 1211.02 511.555 1211.02 512.216V521H1207.15ZM1227.47 521.48C1225.72 521.48 1224.19 521.101 1222.86 520.344C1221.54 519.587 1220.51 518.536 1219.76 517.192C1219.02 515.848 1218.66 514.301 1218.66 512.552C1218.66 510.664 1219.02 509.027 1219.74 507.64C1220.47 506.243 1221.48 505.16 1222.77 504.392C1224.06 503.624 1225.55 503.24 1227.25 503.24C1229.04 503.24 1230.56 503.661 1231.81 504.504C1233.07 505.336 1234 506.515 1234.61 508.04C1235.22 509.565 1235.44 511.363 1235.3 513.432H1231.47V512.024C1231.46 510.147 1231.13 508.776 1230.48 507.912C1229.83 507.048 1228.8 506.616 1227.41 506.616C1225.83 506.616 1224.66 507.107 1223.89 508.088C1223.12 509.059 1222.74 510.483 1222.74 512.36C1222.74 514.109 1223.12 515.464 1223.89 516.424C1224.66 517.384 1225.78 517.864 1227.25 517.864C1228.2 517.864 1229.01 517.656 1229.7 517.24C1230.39 516.813 1230.92 516.2 1231.3 515.4L1235.1 516.552C1234.44 518.109 1233.42 519.32 1232.03 520.184C1230.66 521.048 1229.14 521.48 1227.47 521.48ZM1221.52 513.432V510.52H1233.41V513.432H1221.52ZM1246.72 521.48C1244.97 521.48 1243.44 521.101 1242.11 520.344C1240.79 519.587 1239.76 518.536 1239.01 517.192C1238.27 515.848 1237.91 514.301 1237.91 512.552C1237.91 510.664 1238.27 509.027 1238.99 507.64C1239.72 506.243 1240.73 505.16 1242.02 504.392C1243.31 503.624 1244.8 503.24 1246.5 503.24C1248.29 503.24 1249.81 503.661 1251.06 504.504C1252.32 505.336 1253.25 506.515 1253.86 508.04C1254.47 509.565 1254.69 511.363 1254.55 513.432H1250.72V512.024C1250.71 510.147 1250.38 508.776 1249.73 507.912C1249.08 507.048 1248.05 506.616 1246.66 506.616C1245.08 506.616 1243.91 507.107 1243.14 508.088C1242.37 509.059 1241.99 510.483 1241.99 512.36C1241.99 514.109 1242.37 515.464 1243.14 516.424C1243.91 517.384 1245.03 517.864 1246.5 517.864C1247.45 517.864 1248.26 517.656 1248.95 517.24C1249.64 516.813 1250.17 516.2 1250.55 515.4L1254.35 516.552C1253.69 518.109 1252.67 519.32 1251.28 520.184C1249.91 521.048 1248.39 521.48 1246.72 521.48ZM1240.77 513.432V510.52H1252.66V513.432H1240.77ZM1269.6 521V512.68C1269.6 512.136 1269.56 511.533 1269.49 510.872C1269.41 510.211 1269.24 509.576 1268.96 508.968C1268.69 508.349 1268.29 507.843 1267.74 507.448C1267.21 507.053 1266.48 506.856 1265.57 506.856C1265.08 506.856 1264.59 506.936 1264.11 507.096C1263.63 507.256 1263.19 507.533 1262.8 507.928C1262.41 508.312 1262.1 508.845 1261.87 509.528C1261.64 510.2 1261.52 511.064 1261.52 512.12L1259.23 511.144C1259.23 509.672 1259.51 508.339 1260.08 507.144C1260.65 505.949 1261.5 505 1262.61 504.296C1263.72 503.581 1265.08 503.224 1266.7 503.224C1267.98 503.224 1269.04 503.437 1269.87 503.864C1270.7 504.291 1271.36 504.835 1271.85 505.496C1272.34 506.157 1272.71 506.861 1272.94 507.608C1273.18 508.355 1273.33 509.064 1273.39 509.736C1273.46 510.397 1273.5 510.936 1273.5 511.352V521H1269.6ZM1257.61 521V503.72H1261.05V509.08H1261.52V521H1257.61ZM1284.35 521.48C1282.22 521.48 1280.48 521 1279.15 520.04C1277.82 519.08 1277.01 517.731 1276.72 515.992L1280.65 515.384C1280.86 516.237 1281.3 516.909 1282 517.4C1282.69 517.891 1283.57 518.136 1284.62 518.136C1285.55 518.136 1286.26 517.955 1286.77 517.592C1287.28 517.219 1287.53 516.712 1287.53 516.072C1287.53 515.677 1287.44 515.363 1287.25 515.128C1287.06 514.883 1286.66 514.648 1286.03 514.424C1285.4 514.2 1284.43 513.917 1283.13 513.576C1281.68 513.192 1280.53 512.781 1279.68 512.344C1278.82 511.896 1278.21 511.368 1277.84 510.76C1277.46 510.152 1277.28 509.416 1277.28 508.552C1277.28 507.475 1277.56 506.536 1278.13 505.736C1278.69 504.936 1279.48 504.323 1280.49 503.896C1281.51 503.459 1282.7 503.24 1284.08 503.24C1285.42 503.24 1286.61 503.448 1287.65 503.864C1288.69 504.28 1289.53 504.872 1290.17 505.64C1290.81 506.408 1291.21 507.309 1291.36 508.344L1287.42 509.048C1287.33 508.312 1286.99 507.731 1286.41 507.304C1285.85 506.877 1285.09 506.637 1284.14 506.584C1283.23 506.531 1282.5 506.669 1281.95 507C1281.39 507.32 1281.12 507.773 1281.12 508.36C1281.12 508.691 1281.23 508.973 1281.45 509.208C1281.68 509.443 1282.13 509.677 1282.8 509.912C1283.48 510.147 1284.49 510.435 1285.84 510.776C1287.21 511.128 1288.31 511.533 1289.13 511.992C1289.97 512.44 1290.56 512.979 1290.93 513.608C1291.3 514.237 1291.49 515 1291.49 515.896C1291.49 517.635 1290.85 519 1289.58 519.992C1288.32 520.984 1286.58 521.48 1284.35 521.48Z" fill="white"/>
</svg>
