<svg width="2356" height="1287" viewBox="0 0 2356 1287" fill="none" xmlns="http://www.w3.org/2000/svg">
<rect x="0.994922" y="0.994922" width="2354.01" height="1285.01" fill="white"/>
<path d="M513.522 252.227V255.093C513.522 265.313 506.406 271.521 497.046 271.521C486.54 271.521 478.994 263.784 478.994 254.185C478.994 244.491 486.683 236.754 496.521 236.754C502.92 236.754 508.317 239.906 511.134 244.395L504.639 248.12C503.254 245.924 500.246 244.204 496.473 244.204C490.838 244.204 486.635 248.359 486.635 254.233C486.635 259.916 490.647 264.071 497.142 264.071C501.583 264.071 504.496 262.113 505.69 258.913H496.76V252.227H513.522ZM521.173 244.873C518.833 244.873 516.875 242.915 516.875 240.575C516.875 238.235 518.833 236.277 521.173 236.277C523.513 236.277 525.471 238.235 525.471 240.575C525.471 242.915 523.513 244.873 521.173 244.873ZM517.591 270.852V246.974H524.754V270.852H517.591ZM529.996 270.852V235.99H537.16V270.852H529.996ZM549.565 251.225C550.52 248.025 553.72 246.497 556.729 246.497V254.615C553.768 254.138 549.565 255.332 549.565 260.06V270.852H542.402V246.974H549.565V251.225ZM570.839 271.521C563.819 271.521 558.184 266.029 558.184 258.913C558.184 251.798 563.819 246.306 570.839 246.306C577.859 246.306 583.495 251.798 583.495 258.913C583.495 266.029 577.859 271.521 570.839 271.521ZM570.839 264.549C573.943 264.549 576.331 262.304 576.331 258.913C576.331 255.523 573.943 253.278 570.839 253.278C567.735 253.278 565.347 255.523 565.347 258.913C565.347 262.304 567.735 264.549 570.839 264.549ZM601.657 246.974H609.298L601.132 270.136C598.457 277.729 594.207 280.738 587.521 280.404V273.718C590.864 273.718 592.44 272.667 593.491 269.754L583.987 246.974H591.867L597.168 261.588L601.657 246.974ZM631.756 263.498H645.128V270.852H624.115V237.423H644.889V244.778H631.756V250.317H643.695V257.576H631.756V263.498ZM671.885 270.852H663.671L659.229 264.549L654.788 270.852H646.574L655.122 258.722L646.86 246.974H655.074L659.229 252.896L663.384 246.974H671.598L663.336 258.722L671.885 270.852ZM688.517 253.851H683.598V262.304C683.598 264.358 685.365 264.549 688.517 264.358V270.852C679.157 271.808 676.435 268.99 676.435 262.304V253.851H672.614V246.974H676.435V242.437L683.598 240.288V246.974H688.517V253.851ZM700.203 251.225C701.158 248.025 704.357 246.497 707.366 246.497V254.615C704.405 254.138 700.203 255.332 700.203 260.06V270.852H693.039V246.974H700.203V251.225ZM727.351 246.974H734.514V270.852H727.351V268.608C725.775 270.423 723.435 271.521 720.235 271.521C713.979 271.521 708.821 266.029 708.821 258.913C708.821 251.798 713.979 246.306 720.235 246.306C723.435 246.306 725.775 247.404 727.351 249.219V246.974ZM721.668 264.74C724.963 264.74 727.351 262.495 727.351 258.913C727.351 255.332 724.963 253.087 721.668 253.087C718.372 253.087 715.985 255.332 715.985 258.913C715.985 262.495 718.372 264.74 721.668 264.74ZM754.049 246.306C760.305 246.306 765.462 251.798 765.462 258.913C765.462 266.029 760.305 271.521 754.049 271.521C750.849 271.521 748.509 270.423 746.933 268.608V270.852H739.769V237.423H746.933V249.219C748.509 247.404 750.849 246.306 754.049 246.306ZM752.616 264.74C755.911 264.74 758.299 262.495 758.299 258.913C758.299 255.332 755.911 253.087 752.616 253.087C749.321 253.087 746.933 255.332 746.933 258.913C746.933 262.495 749.321 264.74 752.616 264.74ZM780.985 271.521C773.965 271.521 768.33 266.029 768.33 258.913C768.33 251.798 773.965 246.306 780.985 246.306C788.006 246.306 793.641 251.798 793.641 258.913C793.641 266.029 788.006 271.521 780.985 271.521ZM780.985 264.549C784.089 264.549 786.477 262.304 786.477 258.913C786.477 255.523 784.089 253.278 780.985 253.278C777.881 253.278 775.493 255.523 775.493 258.913C775.493 262.304 777.881 264.549 780.985 264.549ZM797.693 270.852V235.99H804.856V270.852H797.693ZM827.434 237.423H834.597V270.852H827.434V268.608C825.858 270.423 823.518 271.521 820.318 271.521C814.062 271.521 808.904 266.029 808.904 258.913C808.904 251.798 814.062 246.306 820.318 246.306C823.518 246.306 825.858 247.404 827.434 249.219V237.423ZM821.751 264.74C825.046 264.74 827.434 262.495 827.434 258.913C827.434 255.332 825.046 253.087 821.751 253.087C818.455 253.087 816.068 255.332 816.068 258.913C816.068 262.495 818.455 264.74 821.751 264.74Z" fill="#121212"/>
<path d="M29.68 14.8V23.424H19.6V54H10.64V23.424H0.56V14.8H29.68ZM47.0247 26H55.9847L46.4087 53.16C43.2727 62.064 38.2887 65.592 30.4487 65.2V57.36C34.3687 57.36 36.2167 56.128 37.4487 52.712L26.3047 26H35.5447L41.7607 43.136L47.0247 26ZM75.824 25.216C83.16 25.216 89.208 31.656 89.208 40C89.208 48.344 83.16 54.784 75.824 54.784C72.072 54.784 69.328 53.496 67.48 51.368V65.2H59.08V26H67.48V28.632C69.328 26.504 72.072 25.216 75.824 25.216ZM74.144 46.832C78.008 46.832 80.808 44.2 80.808 40C80.808 35.8 78.008 33.168 74.144 33.168C70.28 33.168 67.48 35.8 67.48 40C67.48 44.2 70.28 46.832 74.144 46.832ZM107.411 54.784C99.1786 54.784 92.5706 48.344 92.5706 40C92.5706 31.656 99.1786 25.216 107.411 25.216C115.643 25.216 122.251 31.656 122.251 40C122.251 48.344 115.643 54.784 107.411 54.784ZM107.411 46.608C111.051 46.608 113.851 43.976 113.851 40C113.851 36.024 111.051 33.392 107.411 33.392C103.771 33.392 100.971 36.024 100.971 40C100.971 43.976 103.771 46.608 107.411 46.608ZM147.554 26H155.73V52.6C155.73 62.008 148.394 65.984 140.946 65.984C135.122 65.984 130.25 63.8 127.674 59.208L134.842 55.064C135.906 57.024 137.53 58.592 141.226 58.592C145.146 58.592 147.554 56.576 147.554 52.6V50.024C145.706 52.32 143.018 53.664 139.378 53.664C131.426 53.664 125.602 47.168 125.602 39.44C125.602 31.712 131.426 25.216 139.378 25.216C143.018 25.216 145.706 26.56 147.554 28.856V26ZM140.778 45.936C144.754 45.936 147.554 43.304 147.554 39.44C147.554 35.576 144.754 32.944 140.778 32.944C136.802 32.944 134.002 35.576 134.002 39.44C134.002 43.304 136.802 45.936 140.778 45.936ZM170.293 30.984C171.413 27.232 175.165 25.44 178.693 25.44V34.96C175.221 34.4 170.293 35.8 170.293 41.344V54H161.893V26H170.293V30.984ZM202.127 26H210.527V54H202.127V51.368C200.279 53.496 197.535 54.784 193.783 54.784C186.447 54.784 180.399 48.344 180.399 40C180.399 31.656 186.447 25.216 193.783 25.216C197.535 25.216 200.279 26.504 202.127 28.632V26ZM195.463 46.832C199.327 46.832 202.127 44.2 202.127 40C202.127 35.8 199.327 33.168 195.463 33.168C191.599 33.168 188.799 35.8 188.799 40C188.799 44.2 191.599 46.832 195.463 46.832ZM233.433 25.216C240.769 25.216 246.817 31.656 246.817 40C246.817 48.344 240.769 54.784 233.433 54.784C229.681 54.784 226.937 53.496 225.089 51.368V65.2H216.689V26H225.089V28.632C226.937 26.504 229.681 25.216 233.433 25.216ZM231.753 46.832C235.617 46.832 238.417 44.2 238.417 40C238.417 35.8 235.617 33.168 231.753 33.168C227.889 33.168 225.089 35.8 225.089 40C225.089 44.2 227.889 46.832 231.753 46.832ZM267.988 25.216C273.644 25.216 278.46 29.248 278.46 36.808V54H270.06V38.04C270.06 34.568 267.876 32.944 265.188 32.944C262.108 32.944 259.98 34.736 259.98 38.712V54H251.58V14.8H259.98V28.632C261.492 26.56 264.292 25.216 267.988 25.216ZM301.322 26H310.282L300.706 53.16C297.57 62.064 292.586 65.592 284.746 65.2V57.36C288.666 57.36 290.514 56.128 291.746 52.712L280.602 26H289.842L296.058 43.136L301.322 26Z" fill="#121212"/>
<path d="M22.064 607.961C10.248 607.961 1.68 599.113 1.68 587.577C1.68 576.041 10.248 567.193 22.064 567.193C29.176 567.193 35.448 570.721 38.864 576.265L31.136 580.745C29.4 577.721 26.04 575.929 22.064 575.929C15.12 575.929 10.64 580.577 10.64 587.577C10.64 594.577 15.12 599.225 22.064 599.225C26.04 599.225 29.456 597.433 31.136 594.409L38.864 598.889C35.504 604.433 29.232 607.961 22.064 607.961ZM56.4966 607.961C48.2646 607.961 41.6566 601.521 41.6566 593.177C41.6566 584.833 48.2646 578.393 56.4966 578.393C64.7286 578.393 71.3366 584.833 71.3366 593.177C71.3366 601.521 64.7286 607.961 56.4966 607.961ZM56.4966 599.785C60.1366 599.785 62.9366 597.153 62.9366 593.177C62.9366 589.201 60.1366 586.569 56.4966 586.569C52.8566 586.569 50.0566 589.201 50.0566 593.177C50.0566 597.153 52.8566 599.785 56.4966 599.785ZM76.0878 607.177V566.297H84.4878V607.177H76.0878ZM104.075 607.961C95.8427 607.961 89.2347 601.521 89.2347 593.177C89.2347 584.833 95.8427 578.393 104.075 578.393C112.307 578.393 118.915 584.833 118.915 593.177C118.915 601.521 112.307 607.961 104.075 607.961ZM104.075 599.785C107.715 599.785 110.515 597.153 110.515 593.177C110.515 589.201 107.715 586.569 104.075 586.569C100.435 586.569 97.6347 589.201 97.6347 593.177C97.6347 597.153 100.435 599.785 104.075 599.785ZM132.066 584.161C133.186 580.409 136.938 578.617 140.466 578.617V588.137C136.994 587.577 132.066 588.977 132.066 594.521V607.177H123.666V579.177H132.066V584.161ZM151.524 587.353C151.524 590.545 165.3 588.417 165.3 598.777C165.3 605.217 159.7 607.961 153.652 607.961C148.052 607.961 143.796 605.833 141.612 601.297L148.892 597.153C149.62 599.281 151.188 600.457 153.652 600.457C155.668 600.457 156.676 599.841 156.676 598.721C156.676 595.641 142.9 597.265 142.9 587.577C142.9 581.473 148.052 578.393 153.876 578.393C158.412 578.393 162.444 580.409 164.796 584.385L157.628 588.249C156.844 586.793 155.724 585.785 153.876 585.785C152.42 585.785 151.524 586.345 151.524 587.353Z" fill="#121212"/>
<path d="M286.139 790.6C292.729 790.6 297.839 795.71 297.839 802.061C297.839 808.413 292.729 813.523 286.139 813.523H281.125V824.029H273.484V790.6H286.139ZM286.139 806.359C288.479 806.359 290.198 804.497 290.198 802.061C290.198 799.626 288.479 797.763 286.139 797.763H281.125V806.359H286.139ZM308.111 804.401C309.066 801.202 312.265 799.673 315.274 799.673V807.792C312.313 807.314 308.111 808.508 308.111 813.236V824.029H300.947V800.151H308.111V804.401ZM322.204 798.05C319.864 798.05 317.906 796.092 317.906 793.752C317.906 791.411 319.864 789.453 322.204 789.453C324.544 789.453 326.502 791.411 326.502 793.752C326.502 796.092 324.544 798.05 322.204 798.05ZM318.623 824.029V800.151H325.786V824.029H318.623ZM357.771 799.482C363.263 799.482 366.845 803.398 366.845 809.368V824.029H359.682V809.989C359.682 807.601 358.536 806.073 356.243 806.073C353.855 806.073 352.518 807.744 352.518 810.562V824.029H345.355V809.989C345.355 807.601 344.209 806.073 341.916 806.073C339.529 806.073 338.191 807.744 338.191 810.562V824.029H331.028V800.151H338.191V802.348C339.29 800.724 341.391 799.482 344.591 799.482C347.408 799.482 349.51 800.628 350.847 802.634C352.184 800.724 354.381 799.482 357.771 799.482ZM389.078 800.151H396.241V824.029H389.078V821.784C387.502 823.599 385.162 824.698 381.962 824.698C375.706 824.698 370.548 819.206 370.548 812.09C370.548 804.974 375.706 799.482 381.962 799.482C385.162 799.482 387.502 800.581 389.078 802.395V800.151ZM383.395 817.916C386.69 817.916 389.078 815.672 389.078 812.09C389.078 808.508 386.69 806.264 383.395 806.264C380.099 806.264 377.712 808.508 377.712 812.09C377.712 815.672 380.099 817.916 383.395 817.916ZM408.66 804.401C409.615 801.202 412.815 799.673 415.823 799.673V807.792C412.862 807.314 408.66 808.508 408.66 813.236V824.029H401.496V800.151H408.66V804.401ZM434.681 800.151H442.322L434.156 823.313C431.482 830.906 427.231 833.915 420.546 833.58V826.894C423.888 826.894 425.464 825.844 426.515 822.931L417.012 800.151H424.891L430.192 814.764L434.681 800.151Z" fill="#121212"/>
<path d="M1428.31 790.6C1434.9 790.6 1440.01 795.71 1440.01 802.061C1440.01 808.413 1434.9 813.523 1428.31 813.523H1423.29V824.029H1415.65V790.6H1428.31ZM1428.31 806.359C1430.65 806.359 1432.37 804.497 1432.37 802.061C1432.37 799.626 1430.65 797.763 1428.31 797.763H1423.29V806.359H1428.31ZM1450.28 804.401C1451.24 801.202 1454.44 799.673 1457.44 799.673V807.792C1454.48 807.314 1450.28 808.508 1450.28 813.236V824.029H1443.12V800.151H1450.28V804.401ZM1464.37 798.05C1462.03 798.05 1460.08 796.092 1460.08 793.752C1460.08 791.411 1462.03 789.453 1464.37 789.453C1466.71 789.453 1468.67 791.411 1468.67 793.752C1468.67 796.092 1466.71 798.05 1464.37 798.05ZM1460.79 824.029V800.151H1467.96V824.029H1460.79ZM1499.94 799.482C1505.43 799.482 1509.02 803.398 1509.02 809.368V824.029H1501.85V809.989C1501.85 807.601 1500.71 806.073 1498.41 806.073C1496.03 806.073 1494.69 807.744 1494.69 810.562V824.029H1487.52V809.989C1487.52 807.601 1486.38 806.073 1484.09 806.073C1481.7 806.073 1480.36 807.744 1480.36 810.562V824.029H1473.2V800.151H1480.36V802.348C1481.46 800.724 1483.56 799.482 1486.76 799.482C1489.58 799.482 1491.68 800.628 1493.02 802.634C1494.35 800.724 1496.55 799.482 1499.94 799.482ZM1531.25 800.151H1538.41V824.029H1531.25V821.784C1529.67 823.599 1527.33 824.698 1524.13 824.698C1517.88 824.698 1512.72 819.206 1512.72 812.09C1512.72 804.974 1517.88 799.482 1524.13 799.482C1527.33 799.482 1529.67 800.581 1531.25 802.395V800.151ZM1525.56 817.916C1528.86 817.916 1531.25 815.672 1531.25 812.09C1531.25 808.508 1528.86 806.264 1525.56 806.264C1522.27 806.264 1519.88 808.508 1519.88 812.09C1519.88 815.672 1522.27 817.916 1525.56 817.916ZM1550.83 804.401C1551.78 801.202 1554.98 799.673 1557.99 799.673V807.792C1555.03 807.314 1550.83 808.508 1550.83 813.236V824.029H1543.67V800.151H1550.83V804.401ZM1576.85 800.151H1584.49L1576.33 823.313C1573.65 830.906 1569.4 833.915 1562.72 833.58V826.894C1566.06 826.894 1567.63 825.844 1568.69 822.931L1559.18 800.151H1567.06L1572.36 814.764L1576.85 800.151ZM1621.76 790.6V797.954H1613.16V824.029H1605.52V797.954H1596.92V790.6H1621.76ZM1626.97 814.955C1627.88 817.439 1630.07 818.298 1632.7 818.298C1634.66 818.298 1636.33 817.534 1637.29 816.484L1643.02 819.779C1640.68 823.026 1637.14 824.698 1632.61 824.698C1624.44 824.698 1619.38 819.206 1619.38 812.09C1619.38 804.974 1624.53 799.482 1632.08 799.482C1639.05 799.482 1644.21 804.879 1644.21 812.09C1644.21 813.093 1644.11 814.048 1643.92 814.955H1626.97ZM1626.83 809.607H1637.09C1636.33 806.837 1634.18 805.834 1632.03 805.834C1629.31 805.834 1627.5 807.171 1626.83 809.607ZM1669.51 824.029H1661.3L1656.86 817.725L1652.41 824.029H1644.2L1652.75 811.899L1644.49 800.151H1652.7L1656.86 806.073L1661.01 800.151H1669.22L1660.96 811.899L1669.51 824.029ZM1686.14 807.028H1681.22V815.481C1681.22 817.534 1682.99 817.725 1686.14 817.534V824.029C1676.78 824.984 1674.06 822.166 1674.06 815.481V807.028H1670.24V800.151H1674.06V795.614L1681.22 793.465V800.151H1686.14V807.028Z" fill="#121212"/>
<path d="M289.184 1083.29C282.164 1083.29 277.675 1079.94 275.812 1075.03L282.402 1071.21C283.596 1073.98 285.65 1075.84 289.423 1075.84C293.052 1075.84 293.959 1074.4 293.959 1073.12C293.959 1071.06 292.049 1070.25 287.035 1068.87C282.068 1067.48 277.197 1065.09 277.197 1058.69C277.197 1052.25 282.641 1048.52 288.42 1048.52C293.912 1048.52 298.21 1051.15 300.645 1056.07L294.198 1059.84C293.052 1057.45 291.476 1055.97 288.42 1055.97C286.032 1055.97 284.838 1057.16 284.838 1058.5C284.838 1060.03 285.65 1061.08 290.855 1062.66C295.917 1064.18 301.6 1065.95 301.6 1073.02C301.6 1079.47 296.443 1083.29 289.184 1083.29ZM312.279 1073.55C313.187 1076.03 315.383 1076.89 318.01 1076.89C319.968 1076.89 321.639 1076.12 322.595 1075.07L328.325 1078.37C325.985 1081.62 322.451 1083.29 317.914 1083.29C309.748 1083.29 304.686 1077.8 304.686 1070.68C304.686 1063.56 309.844 1058.07 317.389 1058.07C324.362 1058.07 329.519 1063.47 329.519 1070.68C329.519 1071.68 329.424 1072.64 329.233 1073.55H312.279ZM312.136 1068.2H322.404C321.639 1065.43 319.49 1064.42 317.341 1064.42C314.619 1064.42 312.805 1065.76 312.136 1068.2ZM344.811 1083.29C337.552 1083.29 332.155 1077.8 332.155 1070.68C332.155 1063.56 337.552 1058.07 344.811 1058.07C349.443 1058.07 353.55 1060.51 355.603 1064.18L349.347 1067.81C348.536 1066.14 346.816 1065.14 344.715 1065.14C341.611 1065.14 339.319 1067.38 339.319 1070.68C339.319 1073.98 341.611 1076.22 344.715 1076.22C346.816 1076.22 348.583 1075.22 349.347 1073.55L355.603 1077.13C353.55 1080.85 349.491 1083.29 344.811 1083.29ZM369.481 1083.29C362.461 1083.29 356.826 1077.8 356.826 1070.68C356.826 1063.56 362.461 1058.07 369.481 1058.07C376.502 1058.07 382.137 1063.56 382.137 1070.68C382.137 1077.8 376.502 1083.29 369.481 1083.29ZM369.481 1076.32C372.586 1076.32 374.973 1074.07 374.973 1070.68C374.973 1067.29 372.586 1065.04 369.481 1065.04C366.377 1065.04 363.99 1067.29 363.99 1070.68C363.99 1074.07 366.377 1076.32 369.481 1076.32ZM400.181 1058.07C405.005 1058.07 409.112 1061.51 409.112 1067.96V1082.62H401.948V1069.01C401.948 1066.05 400.086 1064.66 397.793 1064.66C395.167 1064.66 393.352 1066.19 393.352 1069.58V1082.62H386.189V1058.74H393.352V1060.99C394.642 1059.22 397.029 1058.07 400.181 1058.07ZM431.367 1049.19H438.53V1082.62H431.367V1080.37C429.791 1082.19 427.45 1083.29 424.251 1083.29C417.995 1083.29 412.837 1077.8 412.837 1070.68C412.837 1063.56 417.995 1058.07 424.251 1058.07C427.45 1058.07 429.791 1059.17 431.367 1060.99V1049.19ZM425.684 1076.51C428.979 1076.51 431.367 1074.26 431.367 1070.68C431.367 1067.1 428.979 1064.85 425.684 1064.85C422.388 1064.85 420.001 1067.1 420.001 1070.68C420.001 1074.26 422.388 1076.51 425.684 1076.51ZM461.121 1058.74H468.284V1082.62H461.121V1080.37C459.545 1082.19 457.205 1083.29 454.005 1083.29C447.749 1083.29 442.591 1077.8 442.591 1070.68C442.591 1063.56 447.749 1058.07 454.005 1058.07C457.205 1058.07 459.545 1059.17 461.121 1060.99V1058.74ZM455.438 1076.51C458.733 1076.51 461.121 1074.26 461.121 1070.68C461.121 1067.1 458.733 1064.85 455.438 1064.85C452.143 1064.85 449.755 1067.1 449.755 1070.68C449.755 1074.26 452.143 1076.51 455.438 1076.51ZM480.703 1062.99C481.658 1059.79 484.858 1058.26 487.867 1058.26V1066.38C484.906 1065.9 480.703 1067.1 480.703 1071.83V1082.62H473.54V1058.74H480.703V1062.99ZM506.725 1058.74H514.366L506.199 1081.9C503.525 1089.5 499.275 1092.5 492.589 1092.17V1085.48C495.932 1085.48 497.508 1084.43 498.558 1081.52L489.055 1058.74H496.935L502.236 1073.35L506.725 1058.74Z" fill="#121212"/>
<path d="M1431.35 1083.29C1424.33 1083.29 1419.84 1079.94 1417.98 1075.03L1424.57 1071.21C1425.77 1073.98 1427.82 1075.84 1431.59 1075.84C1435.22 1075.84 1436.13 1074.4 1436.13 1073.12C1436.13 1071.06 1434.22 1070.25 1429.2 1068.87C1424.24 1067.48 1419.37 1065.09 1419.37 1058.69C1419.37 1052.25 1424.81 1048.52 1430.59 1048.52C1436.08 1048.52 1440.38 1051.15 1442.82 1056.07L1436.37 1059.84C1435.22 1057.45 1433.65 1055.97 1430.59 1055.97C1428.2 1055.97 1427.01 1057.16 1427.01 1058.5C1427.01 1060.03 1427.82 1061.08 1433.03 1062.66C1438.09 1064.18 1443.77 1065.95 1443.77 1073.02C1443.77 1079.47 1438.61 1083.29 1431.35 1083.29ZM1454.45 1073.55C1455.36 1076.03 1457.55 1076.89 1460.18 1076.89C1462.14 1076.89 1463.81 1076.12 1464.76 1075.07L1470.5 1078.37C1468.16 1081.62 1464.62 1083.29 1460.08 1083.29C1451.92 1083.29 1446.86 1077.8 1446.86 1070.68C1446.86 1063.56 1452.01 1058.07 1459.56 1058.07C1466.53 1058.07 1471.69 1063.47 1471.69 1070.68C1471.69 1071.68 1471.59 1072.64 1471.4 1073.55H1454.45ZM1454.31 1068.2H1464.57C1463.81 1065.43 1461.66 1064.42 1459.51 1064.42C1456.79 1064.42 1454.97 1065.76 1454.31 1068.2ZM1486.98 1083.29C1479.72 1083.29 1474.33 1077.8 1474.33 1070.68C1474.33 1063.56 1479.72 1058.07 1486.98 1058.07C1491.61 1058.07 1495.72 1060.51 1497.77 1064.18L1491.52 1067.81C1490.71 1066.14 1488.99 1065.14 1486.88 1065.14C1483.78 1065.14 1481.49 1067.38 1481.49 1070.68C1481.49 1073.98 1483.78 1076.22 1486.88 1076.22C1488.99 1076.22 1490.75 1075.22 1491.52 1073.55L1497.77 1077.13C1495.72 1080.85 1491.66 1083.29 1486.98 1083.29ZM1511.65 1083.29C1504.63 1083.29 1499 1077.8 1499 1070.68C1499 1063.56 1504.63 1058.07 1511.65 1058.07C1518.67 1058.07 1524.31 1063.56 1524.31 1070.68C1524.31 1077.8 1518.67 1083.29 1511.65 1083.29ZM1511.65 1076.32C1514.76 1076.32 1517.14 1074.07 1517.14 1070.68C1517.14 1067.29 1514.76 1065.04 1511.65 1065.04C1508.55 1065.04 1506.16 1067.29 1506.16 1070.68C1506.16 1074.07 1508.55 1076.32 1511.65 1076.32ZM1542.35 1058.07C1547.17 1058.07 1551.28 1061.51 1551.28 1067.96V1082.62H1544.12V1069.01C1544.12 1066.05 1542.26 1064.66 1539.96 1064.66C1537.34 1064.66 1535.52 1066.19 1535.52 1069.58V1082.62H1528.36V1058.74H1535.52V1060.99C1536.81 1059.22 1539.2 1058.07 1542.35 1058.07ZM1573.54 1049.19H1580.7V1082.62H1573.54V1080.37C1571.96 1082.19 1569.62 1083.29 1566.42 1083.29C1560.16 1083.29 1555.01 1077.8 1555.01 1070.68C1555.01 1063.56 1560.16 1058.07 1566.42 1058.07C1569.62 1058.07 1571.96 1059.17 1573.54 1060.99V1049.19ZM1567.85 1076.51C1571.15 1076.51 1573.54 1074.26 1573.54 1070.68C1573.54 1067.1 1571.15 1064.85 1567.85 1064.85C1564.56 1064.85 1562.17 1067.1 1562.17 1070.68C1562.17 1074.26 1564.56 1076.51 1567.85 1076.51ZM1603.29 1058.74H1610.45V1082.62H1603.29V1080.37C1601.71 1082.19 1599.37 1083.29 1596.18 1083.29C1589.92 1083.29 1584.76 1077.8 1584.76 1070.68C1584.76 1063.56 1589.92 1058.07 1596.18 1058.07C1599.37 1058.07 1601.71 1059.17 1603.29 1060.99V1058.74ZM1597.61 1076.51C1600.9 1076.51 1603.29 1074.26 1603.29 1070.68C1603.29 1067.1 1600.9 1064.85 1597.61 1064.85C1594.31 1064.85 1591.92 1067.1 1591.92 1070.68C1591.92 1074.26 1594.31 1076.51 1597.61 1076.51ZM1622.87 1062.99C1623.83 1059.79 1627.03 1058.26 1630.04 1058.26V1066.38C1627.08 1065.9 1622.87 1067.1 1622.87 1071.83V1082.62H1615.71V1058.74H1622.87V1062.99ZM1648.89 1058.74H1656.54L1648.37 1081.9C1645.69 1089.5 1641.44 1092.5 1634.76 1092.17V1085.48C1638.1 1085.48 1639.68 1084.43 1640.73 1081.52L1631.22 1058.74H1639.1L1644.41 1073.35L1648.89 1058.74ZM1693.8 1049.19V1056.54H1685.2V1082.62H1677.56V1056.54H1668.97V1049.19H1693.8ZM1699.01 1073.55C1699.92 1076.03 1702.12 1076.89 1704.74 1076.89C1706.7 1076.89 1708.37 1076.12 1709.33 1075.07L1715.06 1078.37C1712.72 1081.62 1709.19 1083.29 1704.65 1083.29C1696.48 1083.29 1691.42 1077.8 1691.42 1070.68C1691.42 1063.56 1696.58 1058.07 1704.12 1058.07C1711.1 1058.07 1716.25 1063.47 1716.25 1070.68C1716.25 1071.68 1716.16 1072.64 1715.97 1073.55H1699.01ZM1698.87 1068.2H1709.14C1708.37 1065.43 1706.22 1064.42 1704.08 1064.42C1701.35 1064.42 1699.54 1065.76 1698.87 1068.2ZM1741.55 1082.62H1733.34L1728.9 1076.32L1724.46 1082.62H1716.24L1724.79 1070.49L1716.53 1058.74H1724.74L1728.9 1064.66L1733.05 1058.74H1741.27L1733.01 1070.49L1741.55 1082.62ZM1758.19 1065.62H1753.27V1074.07C1753.27 1076.12 1755.04 1076.32 1758.19 1076.12V1082.62C1748.83 1083.57 1746.1 1080.76 1746.1 1074.07V1065.62H1742.28V1058.74H1746.1V1054.2L1753.27 1052.05V1058.74H1758.19V1065.62Z" fill="#121212"/>
<path d="M2126.76 778.571C2133.35 778.571 2138.46 783.681 2138.46 790.032C2138.46 796.384 2133.35 801.494 2126.76 801.494H2121.75V812H2114.11V778.571H2126.76ZM2126.76 794.33C2129.1 794.33 2130.82 792.468 2130.82 790.032C2130.82 787.597 2129.1 785.734 2126.76 785.734H2121.75V794.33H2126.76ZM2157.93 788.122H2165.09V812H2157.93V809.755C2156.35 811.57 2154.01 812.669 2150.81 812.669C2144.56 812.669 2139.4 807.177 2139.4 800.061C2139.4 792.945 2144.56 787.453 2150.81 787.453C2154.01 787.453 2156.35 788.552 2157.93 790.366V788.122ZM2152.25 805.887C2155.54 805.887 2157.93 803.643 2157.93 800.061C2157.93 796.479 2155.54 794.235 2152.25 794.235C2148.95 794.235 2146.56 796.479 2146.56 800.061C2146.56 803.643 2148.95 805.887 2152.25 805.887ZM2177.51 792.372C2178.47 789.173 2181.67 787.644 2184.67 787.644V795.763C2181.71 795.285 2177.51 796.479 2177.51 801.207V812H2170.35V788.122H2177.51V792.372ZM2204.66 788.122H2211.82V812H2204.66V809.755C2203.08 811.57 2200.74 812.669 2197.54 812.669C2191.29 812.669 2186.13 807.177 2186.13 800.061C2186.13 792.945 2191.29 787.453 2197.54 787.453C2200.74 787.453 2203.08 788.552 2204.66 790.366V788.122ZM2198.98 805.887C2202.27 805.887 2204.66 803.643 2204.66 800.061C2204.66 796.479 2202.27 794.235 2198.98 794.235C2195.68 794.235 2193.29 796.479 2193.29 800.061C2193.29 803.643 2195.68 805.887 2198.98 805.887ZM2234.6 788.122H2241.58V810.806C2241.58 818.829 2235.32 822.22 2228.97 822.22C2224 822.22 2219.85 820.357 2217.65 816.441L2223.76 812.907C2224.67 814.579 2226.06 815.916 2229.21 815.916C2232.55 815.916 2234.6 814.197 2234.6 810.806V808.609C2233.03 810.567 2230.74 811.713 2227.63 811.713C2220.85 811.713 2215.88 806.174 2215.88 799.583C2215.88 792.993 2220.85 787.453 2227.63 787.453C2230.74 787.453 2233.03 788.599 2234.6 790.557V788.122ZM2228.83 805.123C2232.22 805.123 2234.6 802.879 2234.6 799.583C2234.6 796.288 2232.22 794.044 2228.83 794.044C2225.44 794.044 2223.05 796.288 2223.05 799.583C2223.05 802.879 2225.44 805.123 2228.83 805.123ZM2254 792.372C2254.95 789.173 2258.15 787.644 2261.16 787.644V795.763C2258.2 795.285 2254 796.479 2254 801.207V812H2246.83V788.122H2254V792.372ZM2281.14 788.122H2288.31V812H2281.14V809.755C2279.57 811.57 2277.23 812.669 2274.03 812.669C2267.77 812.669 2262.61 807.177 2262.61 800.061C2262.61 792.945 2267.77 787.453 2274.03 787.453C2277.23 787.453 2279.57 788.552 2281.14 790.366V788.122ZM2275.46 805.887C2278.76 805.887 2281.14 803.643 2281.14 800.061C2281.14 796.479 2278.76 794.235 2275.46 794.235C2272.17 794.235 2269.78 796.479 2269.78 800.061C2269.78 803.643 2272.17 805.887 2275.46 805.887ZM2307.84 787.453C2314.1 787.453 2319.26 792.945 2319.26 800.061C2319.26 807.177 2314.1 812.669 2307.84 812.669C2304.64 812.669 2302.3 811.57 2300.73 809.755V821.551H2293.56V788.122H2300.73V790.366C2302.3 788.552 2304.64 787.453 2307.84 787.453ZM2306.41 805.887C2309.7 805.887 2312.09 803.643 2312.09 800.061C2312.09 796.479 2309.7 794.235 2306.41 794.235C2303.11 794.235 2300.73 796.479 2300.73 800.061C2300.73 803.643 2303.11 805.887 2306.41 805.887ZM2337.31 787.453C2342.13 787.453 2346.24 790.892 2346.24 797.339V812H2339.08V798.389C2339.08 795.429 2337.21 794.044 2334.92 794.044C2332.3 794.044 2330.48 795.572 2330.48 798.963V812H2323.32V778.571H2330.48V790.366C2331.77 788.599 2334.16 787.453 2337.31 787.453ZM2136.55 837.571V844.925H2127.96V871H2120.32V844.925H2111.72V837.571H2136.55ZM2141.77 861.926C2142.68 864.41 2144.87 865.269 2147.5 865.269C2149.46 865.269 2151.13 864.505 2152.08 863.455L2157.82 866.75C2155.48 869.997 2151.94 871.669 2147.4 871.669C2139.24 871.669 2134.18 866.177 2134.18 859.061C2134.18 851.945 2139.33 846.453 2146.88 846.453C2153.85 846.453 2159.01 851.85 2159.01 859.061C2159.01 860.064 2158.91 861.019 2158.72 861.926H2141.77ZM2141.63 856.578H2151.89C2151.13 853.808 2148.98 852.805 2146.83 852.805C2144.11 852.805 2142.29 854.142 2141.63 856.578ZM2184.31 871H2176.1L2171.66 864.696L2167.21 871H2159L2167.55 858.87L2159.29 847.122H2167.5L2171.66 853.044L2175.81 847.122H2184.02L2175.76 858.87L2184.31 871ZM2200.94 853.999H2196.02V862.452C2196.02 864.505 2197.79 864.696 2200.94 864.505V871C2191.58 871.955 2188.86 869.138 2188.86 862.452V853.999H2185.04V847.122H2188.86V842.585L2196.02 840.436V847.122H2200.94V853.999Z" fill="#121212"/>
<path d="M284.303 1140.24L285.578 1133.98H280.479L279.204 1140.24H276.997L278.256 1133.98H274.618L275.053 1131.74H278.738L279.873 1126.08H276.033L276.484 1123.86H280.323L281.583 1117.81H283.79L282.578 1123.86H287.645L288.905 1117.81H291.128L289.884 1123.86H293.755L293.32 1126.08H289.418L288.252 1131.74H292.309L291.874 1133.98H287.801L286.526 1140.24H284.303ZM280.914 1131.79H286.044L287.21 1126.05H282.08L280.914 1131.79ZM295.947 1117.81H303.486C310.14 1117.81 314.073 1121.96 314.073 1129.02C314.073 1136.09 310.156 1140.24 303.486 1140.24H295.947V1117.81ZM298.745 1120.33V1137.72H303.3C308.383 1137.72 311.213 1134.62 311.213 1129.05C311.213 1123.44 308.399 1120.33 303.3 1120.33H298.745ZM324.333 1140.62C320.509 1140.62 317.571 1138.32 316.887 1134.8H319.732C320.322 1136.84 322.141 1138.18 324.364 1138.18C328.095 1138.18 330.241 1134.79 330.318 1128.83H330.303C330.287 1128.83 330.287 1128.83 330.272 1128.83C329.323 1131.06 326.867 1132.5 324.007 1132.5C319.732 1132.5 316.56 1129.35 316.56 1125.09C316.56 1120.66 319.903 1117.42 324.504 1117.42C327.878 1117.42 330.551 1119.24 331.919 1122.46C332.666 1124.18 333.023 1126.21 333.023 1128.65C333.023 1136.2 329.821 1140.62 324.333 1140.62ZM324.489 1130.04C327.458 1130.04 329.665 1127.93 329.665 1125.07C329.665 1122.19 327.427 1119.94 324.535 1119.94C321.659 1119.94 319.39 1122.18 319.39 1124.99C319.39 1127.92 321.55 1130.04 324.489 1130.04ZM336.614 1117.81H344.154C350.807 1117.81 354.74 1121.96 354.74 1129.02C354.74 1136.09 350.823 1140.24 344.154 1140.24H336.614V1117.81ZM339.412 1120.33V1137.72H343.967C349.051 1137.72 351.88 1134.62 351.88 1129.05C351.88 1123.44 349.066 1120.33 343.967 1120.33H339.412ZM365.001 1140.62C361.176 1140.62 358.238 1138.32 357.554 1134.8H360.399C360.99 1136.84 362.809 1138.18 365.032 1138.18C368.763 1138.18 370.908 1134.79 370.986 1128.83H370.97C370.955 1128.83 370.955 1128.83 370.939 1128.83C369.991 1131.06 367.535 1132.5 364.674 1132.5C360.399 1132.5 357.228 1129.35 357.228 1125.09C357.228 1120.66 360.57 1117.42 365.172 1117.42C368.545 1117.42 371.219 1119.24 372.587 1122.46C373.333 1124.18 373.691 1126.21 373.691 1128.65C373.691 1136.2 370.488 1140.62 365.001 1140.62ZM365.156 1130.04C368.125 1130.04 370.333 1127.93 370.333 1125.07C370.333 1122.19 368.094 1119.94 365.203 1119.94C362.327 1119.94 360.057 1122.18 360.057 1124.99C360.057 1127.92 362.218 1130.04 365.156 1130.04ZM377.282 1117.81H384.821C391.475 1117.81 395.408 1121.96 395.408 1129.02C395.408 1136.09 391.49 1140.24 384.821 1140.24H377.282V1117.81ZM380.08 1120.33V1137.72H384.635C389.718 1137.72 392.548 1134.62 392.548 1129.05C392.548 1123.44 389.734 1120.33 384.635 1120.33H380.08ZM405.668 1140.62C401.844 1140.62 398.906 1138.32 398.222 1134.8H401.067C401.657 1136.84 403.476 1138.18 405.699 1138.18C409.43 1138.18 411.575 1134.79 411.653 1128.83H411.638C411.622 1128.83 411.622 1128.83 411.606 1128.83C410.658 1131.06 408.202 1132.5 405.342 1132.5C401.067 1132.5 397.895 1129.35 397.895 1125.09C397.895 1120.66 401.238 1117.42 405.839 1117.42C409.212 1117.42 411.886 1119.24 413.254 1122.46C414.001 1124.18 414.358 1126.21 414.358 1128.65C414.358 1136.2 411.156 1140.62 405.668 1140.62ZM405.823 1130.04C408.793 1130.04 411 1127.93 411 1125.07C411 1122.19 408.762 1119.94 405.87 1119.94C402.994 1119.94 400.725 1122.18 400.725 1124.99C400.725 1127.92 402.885 1130.04 405.823 1130.04Z" fill="#121212"/>
<path d="M878.508 799.482C884.764 799.482 889.922 804.974 889.922 812.09C889.922 819.206 884.764 824.698 878.508 824.698C875.308 824.698 872.968 823.599 871.392 821.784V824.029H864.229V790.6H871.392V802.395C872.968 800.581 875.308 799.482 878.508 799.482ZM877.075 817.916C880.37 817.916 882.758 815.672 882.758 812.09C882.758 808.508 880.37 806.264 877.075 806.264C873.78 806.264 871.392 808.508 871.392 812.09C871.392 815.672 873.78 817.916 877.075 817.916ZM911.51 800.151H918.482V822.835C918.482 830.858 912.226 834.249 905.874 834.249C900.908 834.249 896.753 832.386 894.556 828.47L900.669 824.936C901.576 826.608 902.961 827.945 906.113 827.945C909.456 827.945 911.51 826.226 911.51 822.835V820.638C909.934 822.596 907.641 823.742 904.537 823.742C897.756 823.742 892.789 818.203 892.789 811.612C892.789 805.022 897.756 799.482 904.537 799.482C907.641 799.482 909.934 800.628 911.51 802.586V800.151ZM905.731 817.152C909.122 817.152 911.51 814.908 911.51 811.612C911.51 808.317 909.122 806.073 905.731 806.073C902.34 806.073 899.953 808.317 899.953 811.612C899.953 814.908 902.34 817.152 905.731 817.152ZM923.976 813.188V806.311H942.124V813.188H923.976ZM947.616 824.029V789.167H954.779V824.029H947.616ZM963.603 798.05C961.263 798.05 959.305 796.092 959.305 793.752C959.305 791.411 961.263 789.453 963.603 789.453C965.943 789.453 967.901 791.411 967.901 793.752C967.901 796.092 965.943 798.05 963.603 798.05ZM960.021 824.029V800.151H967.184V824.029H960.021ZM989.953 800.151H996.925V822.835C996.925 830.858 990.669 834.249 984.318 834.249C979.351 834.249 975.196 832.386 972.999 828.47L979.112 824.936C980.02 826.608 981.405 827.945 984.556 827.945C987.899 827.945 989.953 826.226 989.953 822.835V820.638C988.377 822.596 986.085 823.742 982.981 823.742C976.199 823.742 971.232 818.203 971.232 811.612C971.232 805.022 976.199 799.482 982.981 799.482C986.085 799.482 988.377 800.628 989.953 802.586V800.151ZM984.174 817.152C987.565 817.152 989.953 814.908 989.953 811.612C989.953 808.317 987.565 806.073 984.174 806.073C980.784 806.073 978.396 808.317 978.396 811.612C978.396 814.908 980.784 817.152 984.174 817.152ZM1016.17 799.482C1021 799.482 1025.1 802.921 1025.1 809.368V824.029H1017.94V810.418C1017.94 807.458 1016.08 806.073 1013.79 806.073C1011.16 806.073 1009.34 807.601 1009.34 810.992V824.029H1002.18V790.6H1009.34V802.395C1010.63 800.628 1013.02 799.482 1016.17 799.482ZM1044.02 807.028H1039.1V815.481C1039.1 817.534 1040.86 817.725 1044.02 817.534V824.029C1034.66 824.984 1031.93 822.166 1031.93 815.481V807.028H1028.11V800.151H1031.93V795.614L1039.1 793.465V800.151H1044.02V807.028Z" fill="#121212"/>
<path d="M875.287 869.624L876.562 863.359H871.463L870.188 869.624H867.981L869.24 863.359H865.602L866.037 861.121H869.722L870.856 855.462H867.017L867.468 853.239H871.307L872.567 847.192H874.774L873.561 853.239H878.629L879.889 847.192H882.112L880.868 853.239H884.739L884.303 855.462H880.402L879.236 861.121H883.293L882.858 863.359H878.785L877.51 869.624H875.287ZM871.898 861.167H877.028L878.194 855.431H873.064L871.898 861.167ZM889.729 869.624H886.931V847.192H900.549V849.71H889.729V857.421H899.663V859.908H889.729V869.624ZM911.508 870.013C908.151 870.013 905.477 868.194 904.093 864.961C903.347 863.235 902.989 861.214 902.989 858.789C902.989 851.234 906.207 846.803 911.695 846.803C915.504 846.803 918.426 849.088 919.141 852.617H916.296C915.69 850.581 913.887 849.275 911.664 849.275C907.917 849.275 905.788 852.602 905.694 858.571H905.741C906.751 856.379 909.223 854.934 912.006 854.934C916.281 854.934 919.452 858.089 919.452 862.349C919.452 866.779 916.11 870.013 911.508 870.013ZM911.477 867.526C914.338 867.526 916.607 865.271 916.607 862.442C916.607 859.504 914.493 857.39 911.524 857.39C908.555 857.39 906.363 859.504 906.363 862.364C906.363 865.24 908.601 867.526 911.477 867.526ZM925.608 869.624H922.81V847.192H936.428V849.71H925.608V857.421H935.542V859.908H925.608V869.624ZM947.388 870.013C944.03 870.013 941.356 868.194 939.972 864.961C939.226 863.235 938.869 861.214 938.869 858.789C938.869 851.234 942.087 846.803 947.574 846.803C951.383 846.803 954.306 849.088 955.021 852.617H952.176C951.57 850.581 949.766 849.275 947.543 849.275C943.797 849.275 941.667 852.602 941.574 858.571H941.62C942.631 856.379 945.103 854.934 947.885 854.934C952.16 854.934 955.332 858.089 955.332 862.349C955.332 866.779 951.989 870.013 947.388 870.013ZM947.357 867.526C950.217 867.526 952.487 865.271 952.487 862.442C952.487 859.504 950.373 857.39 947.403 857.39C944.434 857.39 942.242 859.504 942.242 862.364C942.242 865.24 944.481 867.526 947.357 867.526ZM961.488 869.624H958.689V847.192H972.307V849.71H961.488V857.421H971.421V859.908H961.488V869.624ZM983.267 870.013C979.909 870.013 977.235 868.194 975.852 864.961C975.106 863.235 974.748 861.214 974.748 858.789C974.748 851.234 977.966 846.803 983.454 846.803C987.262 846.803 990.185 849.088 990.9 852.617H988.055C987.449 850.581 985.646 849.275 983.423 849.275C979.676 849.275 977.546 852.602 977.453 858.571H977.5C978.51 856.379 980.982 854.934 983.765 854.934C988.04 854.934 991.211 858.089 991.211 862.349C991.211 866.779 987.869 870.013 983.267 870.013ZM983.236 867.526C986.096 867.526 988.366 865.271 988.366 862.442C988.366 859.504 986.252 857.39 983.283 857.39C980.313 857.39 978.121 859.504 978.121 862.364C978.121 865.24 980.36 867.526 983.236 867.526Z" fill="#121212"/>
<path d="M882.508 1060.99C888.764 1060.99 893.922 1066.48 893.922 1073.6C893.922 1080.71 888.764 1086.21 882.508 1086.21C879.308 1086.21 876.968 1085.11 875.392 1083.29V1085.54H868.229V1052.11H875.392V1063.9C876.968 1062.09 879.308 1060.99 882.508 1060.99ZM881.075 1079.42C884.37 1079.42 886.758 1077.18 886.758 1073.6C886.758 1070.02 884.37 1067.77 881.075 1067.77C877.78 1067.77 875.392 1070.02 875.392 1073.6C875.392 1077.18 877.78 1079.42 881.075 1079.42ZM915.51 1061.66H922.482V1084.34C922.482 1092.37 916.226 1095.76 909.874 1095.76C904.908 1095.76 900.753 1093.89 898.556 1089.98L904.669 1086.44C905.576 1088.12 906.961 1089.45 910.113 1089.45C913.456 1089.45 915.51 1087.73 915.51 1084.34V1082.15C913.934 1084.1 911.641 1085.25 908.537 1085.25C901.756 1085.25 896.789 1079.71 896.789 1073.12C896.789 1066.53 901.756 1060.99 908.537 1060.99C911.641 1060.99 913.934 1062.14 915.51 1064.09V1061.66ZM909.731 1078.66C913.122 1078.66 915.51 1076.42 915.51 1073.12C915.51 1069.83 913.122 1067.58 909.731 1067.58C906.34 1067.58 903.953 1069.83 903.953 1073.12C903.953 1076.42 906.34 1078.66 909.731 1078.66ZM957.012 1052.11H964.175V1085.54H957.012V1083.29C955.436 1085.11 953.096 1086.21 949.896 1086.21C943.64 1086.21 938.483 1080.71 938.483 1073.6C938.483 1066.48 943.64 1060.99 949.896 1060.99C953.096 1060.99 955.436 1062.09 957.012 1063.9V1052.11ZM951.329 1079.42C954.624 1079.42 957.012 1077.18 957.012 1073.6C957.012 1070.02 954.624 1067.77 951.329 1067.77C948.034 1067.77 945.646 1070.02 945.646 1073.6C945.646 1077.18 948.034 1079.42 951.329 1079.42ZM986.766 1061.66H993.93V1085.54H986.766V1083.29C985.19 1085.11 982.85 1086.21 979.651 1086.21C973.395 1086.21 968.237 1080.71 968.237 1073.6C968.237 1066.48 973.395 1060.99 979.651 1060.99C982.85 1060.99 985.19 1062.09 986.766 1063.9V1061.66ZM981.083 1079.42C984.379 1079.42 986.766 1077.18 986.766 1073.6C986.766 1070.02 984.379 1067.77 981.083 1067.77C977.788 1067.77 975.4 1070.02 975.4 1073.6C975.4 1077.18 977.788 1079.42 981.083 1079.42ZM1006.35 1065.91C1007.3 1062.71 1010.5 1061.18 1013.51 1061.18V1069.3C1010.55 1068.82 1006.35 1070.02 1006.35 1074.74V1085.54H999.185V1061.66H1006.35V1065.91ZM1039.78 1085.54H1031.67L1024.02 1074.98V1085.54H1016.86V1052.11H1024.02V1072.12L1031.19 1061.66H1039.54L1030.85 1073.6L1039.78 1085.54Z" fill="#121212"/>
<path d="M875.287 1143.16L876.562 1136.9H871.463L870.188 1143.16H867.981L869.24 1136.9H865.602L866.037 1134.66H869.722L870.856 1129H867.017L867.468 1126.78H871.307L872.567 1120.73H874.774L873.561 1126.78H878.629L879.889 1120.73H882.112L880.868 1126.78H884.739L884.303 1129H880.402L879.236 1134.66H883.293L882.858 1136.9H878.785L877.51 1143.16H875.287ZM871.898 1134.71H877.028L878.194 1128.97H873.064L871.898 1134.71ZM892.294 1143.16V1123.7H892.232L886.293 1127.97V1125.02L892.263 1120.73H894.999V1143.16H892.294ZM900.549 1127.2C900.549 1123.28 903.72 1120.36 907.948 1120.36C911.959 1120.36 915.115 1123.08 915.115 1126.51C915.115 1129.02 913.98 1130.88 910.234 1134.75L904.559 1140.61V1140.67H915.488V1143.16H900.689V1141.23L908.586 1132.92C911.602 1129.75 912.317 1128.55 912.317 1126.68C912.317 1124.52 910.342 1122.8 907.871 1122.8C905.243 1122.8 903.254 1124.69 903.254 1127.2V1127.21H900.549V1127.2ZM924.442 1143.16V1123.7H924.38L918.442 1127.97V1125.02L924.411 1120.73H927.147V1143.16H924.442ZM932.697 1127.2C932.697 1123.28 935.868 1120.36 940.097 1120.36C944.108 1120.36 947.263 1123.08 947.263 1126.51C947.263 1129.02 946.129 1130.88 942.382 1134.75L936.708 1140.61V1140.67H947.636V1143.16H932.837V1141.23L940.734 1132.92C943.75 1129.75 944.465 1128.55 944.465 1126.68C944.465 1124.52 942.491 1122.8 940.019 1122.8C937.392 1122.8 935.402 1124.69 935.402 1127.2V1127.21H932.697V1127.2ZM956.591 1143.16V1123.7H956.529L950.59 1127.97V1125.02L956.56 1120.73H959.296V1143.16H956.591ZM964.846 1127.2C964.846 1123.28 968.017 1120.36 972.245 1120.36C976.256 1120.36 979.412 1123.08 979.412 1126.51C979.412 1129.02 978.277 1130.88 974.53 1134.75L968.856 1140.61V1140.67H979.785V1143.16H964.985V1141.23L972.883 1132.92C975.898 1129.75 976.614 1128.55 976.614 1126.68C976.614 1124.52 974.639 1122.8 972.168 1122.8C969.54 1122.8 967.55 1124.69 967.55 1127.2V1127.21H964.846V1127.2Z" fill="#121212"/>
<path d="M284.303 869.624L285.578 863.359H280.479L279.204 869.624H276.997L278.256 863.359H274.618L275.053 861.121H278.738L279.873 855.462H276.033L276.484 853.239H280.323L281.583 847.192H283.79L282.578 853.239H287.645L288.905 847.192H291.128L289.884 853.239H293.755L293.32 855.462H289.418L288.252 861.121H292.309L291.874 863.359H287.801L286.526 869.624H284.303ZM280.914 861.167H286.044L287.21 855.431H282.08L280.914 861.167ZM305.181 869.997C298.994 869.997 295.076 865.505 295.076 858.4C295.076 851.358 299.04 846.819 305.181 846.819C310.062 846.819 313.778 849.788 314.493 854.265H311.663C310.948 851.327 308.383 849.399 305.181 849.399C300.797 849.399 297.952 852.944 297.952 858.4C297.952 863.903 300.766 867.417 305.196 867.417C308.492 867.417 310.855 865.831 311.663 863.095H314.493C313.467 867.526 310.14 869.997 305.181 869.997ZM324.582 869.997C320.758 869.997 317.82 867.697 317.136 864.183H319.98C320.571 866.22 322.39 867.557 324.613 867.557C328.344 867.557 330.489 864.168 330.567 858.214H330.551C330.536 858.214 330.536 858.214 330.52 858.214C329.572 860.437 327.116 861.882 324.255 861.882C319.98 861.882 316.809 858.727 316.809 854.467C316.809 850.037 320.151 846.803 324.753 846.803C328.126 846.803 330.8 848.622 332.168 851.84C332.914 853.566 333.272 855.586 333.272 858.027C333.272 865.582 330.07 869.997 324.582 869.997ZM324.737 859.426C327.707 859.426 329.914 857.312 329.914 854.452C329.914 851.576 327.675 849.322 324.784 849.322C321.908 849.322 319.638 851.56 319.638 854.374C319.638 857.297 321.799 859.426 324.737 859.426ZM344.216 869.997C339.925 869.997 336.754 867.323 336.521 863.499H339.273C339.521 865.893 341.558 867.541 344.247 867.541C347.294 867.541 349.408 865.427 349.408 862.411C349.408 859.395 347.279 857.234 344.294 857.234C342.195 857.234 340.407 858.183 339.49 859.753H336.863L338.091 847.192H350.932V849.679H340.392L339.708 856.986H339.77C340.78 855.633 342.646 854.825 344.791 854.825C349.097 854.825 352.207 857.981 352.207 862.333C352.207 866.842 348.895 869.997 344.216 869.997ZM362.84 869.997C358.549 869.997 355.378 867.323 355.145 863.499H357.896C358.145 865.893 360.181 867.541 362.871 867.541C365.918 867.541 368.032 865.427 368.032 862.411C368.032 859.395 365.902 857.234 362.917 857.234C360.819 857.234 359.031 858.183 358.114 859.753H355.487L356.715 847.192H369.555V849.679H359.016L358.332 856.986H358.394C359.404 855.633 361.27 854.825 363.415 854.825C367.721 854.825 370.83 857.981 370.83 862.333C370.83 866.842 367.519 869.997 362.84 869.997ZM381.463 869.997C377.173 869.997 374.002 867.323 373.768 863.499H376.52C376.769 865.893 378.805 867.541 381.495 867.541C384.541 867.541 386.656 865.427 386.656 862.411C386.656 859.395 384.526 857.234 381.541 857.234C379.443 857.234 377.655 858.183 376.738 859.753H374.11L375.338 847.192H388.179V849.679H377.639L376.955 856.986H377.017C378.028 855.633 379.893 854.825 382.039 854.825C386.345 854.825 389.454 857.981 389.454 862.333C389.454 866.842 386.143 869.997 381.463 869.997ZM400.087 869.997C395.797 869.997 392.625 867.323 392.392 863.499H395.144C395.392 865.893 397.429 867.541 400.118 867.541C403.165 867.541 405.279 865.427 405.279 862.411C405.279 859.395 403.15 857.234 400.165 857.234C398.066 857.234 396.278 858.183 395.361 859.753H392.734L393.962 847.192H406.803V849.679H396.263L395.579 856.986H395.641C396.652 855.633 398.517 854.825 400.662 854.825C404.968 854.825 408.078 857.981 408.078 862.333C408.078 866.842 404.766 869.997 400.087 869.997Z" fill="#121212"/>
<path d="M479.17 365.94H484.324C484.697 369.275 487.938 371.467 492.369 371.467C496.613 371.467 499.667 369.275 499.667 366.267C499.667 363.655 497.825 362.093 493.465 361.02L489.104 359.971C482.925 358.478 480.057 355.587 480.057 350.9C480.057 345.093 485.117 341.106 492.299 341.106C499.411 341.106 504.285 345.093 504.448 350.9H499.364C499.061 347.542 496.286 345.513 492.229 345.513C488.171 345.513 485.397 347.565 485.397 350.55C485.397 352.928 487.169 354.328 491.506 355.4L495.214 356.31C502.116 357.942 504.984 360.717 504.984 365.637C504.984 371.933 499.971 375.874 491.996 375.874C484.534 375.874 479.497 372.026 479.17 365.94ZM514.894 375.314H509.671V341.666H530.681V346.166H514.894V356.823H529.352V361.23H514.894V375.314ZM544.929 341.666H557.544C564.073 341.666 568.62 346.166 568.62 352.719C568.62 359.294 563.98 363.818 557.381 363.818H550.152V375.314H544.929V341.666ZM550.152 346.073V359.434H556.145C560.692 359.434 563.28 356.986 563.28 352.742C563.28 348.498 560.692 346.073 556.168 346.073H550.152ZM572.584 375.314V350.783H577.388V354.957H577.505C578.321 352.089 580.513 350.387 583.404 350.387C584.127 350.387 584.757 350.503 585.13 350.573V355.26C584.733 355.097 583.847 354.98 582.868 354.98C579.627 354.98 577.621 357.149 577.621 360.624V375.314H572.584ZM597.722 375.781C590.703 375.781 586.086 370.954 586.086 363.049C586.086 355.167 590.726 350.34 597.722 350.34C604.717 350.34 609.358 355.167 609.358 363.049C609.358 370.954 604.741 375.781 597.722 375.781ZM597.722 371.63C601.686 371.63 604.228 368.505 604.228 363.049C604.228 357.615 601.662 354.491 597.722 354.491C593.781 354.491 591.216 357.615 591.216 363.049C591.216 368.505 593.781 371.63 597.722 371.63ZM623.559 341.666H635.428C645.431 341.666 651.354 347.822 651.354 358.432C651.354 369.065 645.455 375.314 635.428 375.314H623.559V341.666ZM628.782 346.166V370.79H634.938C642.073 370.79 646.014 366.43 646.014 358.478C646.014 350.55 642.05 346.166 634.938 346.166H628.782ZM655.901 375.314V350.783H660.938V375.314H655.901ZM658.42 347.192C656.811 347.192 655.505 345.91 655.505 344.324C655.505 342.715 656.811 341.432 658.42 341.432C660.052 341.432 661.358 342.715 661.358 344.324C661.358 345.91 660.052 347.192 658.42 347.192ZM665.648 357.732C665.648 353.348 669.519 350.34 675.256 350.34C680.712 350.34 684.536 353.395 684.7 357.755H679.966C679.733 355.54 677.937 354.164 675.116 354.164C672.387 354.164 670.569 355.493 670.569 357.429C670.569 358.945 671.781 359.971 674.323 360.6L678.45 361.556C683.394 362.746 685.259 364.611 685.259 368.225C685.259 372.703 681.085 375.781 675.069 375.781C669.263 375.781 665.415 372.772 665.019 368.272H670.009C670.405 370.627 672.224 371.933 675.302 371.933C678.334 371.933 680.199 370.674 680.199 368.692C680.199 367.129 679.266 366.267 676.701 365.614L672.317 364.541C667.887 363.468 665.648 361.16 665.648 357.732ZM701.955 350.387C708.181 350.387 712.285 355.284 712.285 363.049C712.285 370.814 708.205 375.734 702.049 375.734C698.527 375.734 695.729 374.008 694.33 371.28H694.214V383.429H689.177V350.783H694.05V355.004H694.144C695.589 352.182 698.411 350.387 701.955 350.387ZM700.626 371.467C704.614 371.467 707.109 368.202 707.109 363.049C707.109 357.919 704.614 354.631 700.626 354.631C696.779 354.631 694.19 357.989 694.19 363.049C694.19 368.155 696.755 371.467 700.626 371.467ZM716.366 375.314V341.666H721.403V375.314H716.366ZM735.161 371.746C738.682 371.746 741.433 369.321 741.433 366.127V364.191L735.394 364.564C732.386 364.774 730.684 366.103 730.684 368.202C730.684 370.347 732.456 371.746 735.161 371.746ZM733.762 375.734C728.958 375.734 725.6 372.749 725.6 368.342C725.6 364.051 728.888 361.416 734.718 361.09L741.433 360.694V358.805C741.433 356.076 739.591 354.444 736.513 354.444C733.598 354.444 731.78 355.843 731.337 358.035H726.58C726.859 353.605 730.637 350.34 736.7 350.34C742.646 350.34 746.447 353.488 746.447 358.408V375.314H741.62V371.28H741.503C740.081 374.008 736.98 375.734 733.762 375.734ZM753.769 384.455C753.373 384.455 752.09 384.408 751.717 384.338V380.258C752.09 380.351 752.929 380.351 753.349 380.351C755.704 380.351 756.94 379.372 757.71 376.853C757.71 376.807 758.153 375.361 758.153 375.338L749.292 350.783H754.748L760.974 370.744H761.044L767.27 350.783H772.587L763.376 376.597C761.278 382.543 758.876 384.455 753.769 384.455ZM819.9 375.314H815.12V350.55H814.957L804.813 375.058H800.942L790.775 350.55H790.612V375.314H785.855V341.666H791.895L802.784 368.225H802.971L813.837 341.666H819.9V375.314ZM835.757 354.398C832.236 354.398 829.764 357.079 829.507 360.787H841.773C841.656 357.033 839.278 354.398 835.757 354.398ZM841.75 368.109H846.53C845.83 372.586 841.586 375.781 835.967 375.781C828.761 375.781 824.401 370.907 824.401 363.165C824.401 355.47 828.831 350.34 835.757 350.34C842.566 350.34 846.81 355.144 846.81 362.582V364.308H829.484V364.611C829.484 368.878 832.049 371.7 836.083 371.7C838.951 371.7 841.073 370.254 841.75 368.109ZM859.938 375.734C853.735 375.734 849.631 370.79 849.631 363.049C849.631 355.307 853.735 350.387 859.891 350.387C863.412 350.387 866.211 352.159 867.586 354.864H867.68V341.666H872.74V375.314H867.843V371.14H867.75C866.304 373.938 863.506 375.734 859.938 375.734ZM861.267 354.631C857.28 354.631 854.785 357.895 854.785 363.049C854.785 368.225 857.28 371.467 861.267 371.467C865.138 371.467 867.726 368.179 867.726 363.049C867.726 357.965 865.138 354.631 861.267 354.631ZM878.08 375.314V350.783H883.117V375.314H878.08ZM880.598 347.192C878.989 347.192 877.683 345.91 877.683 344.324C877.683 342.715 878.989 341.432 880.598 341.432C882.23 341.432 883.536 342.715 883.536 344.324C883.536 345.91 882.23 347.192 880.598 347.192ZM909.303 350.783V375.314H904.476V371.164H904.36C903.007 374.102 900.512 375.757 896.758 375.757C891.418 375.757 888.153 372.283 888.153 366.663V350.783H893.19V365.684C893.19 369.415 894.962 371.42 898.437 371.42C902.074 371.42 904.266 368.902 904.266 365.077V350.783H909.303ZM914.293 375.314V350.783H919.097V354.911H919.214C920.31 352.182 922.875 350.363 926.186 350.363C929.59 350.363 932.062 352.112 933.041 355.167H933.158C934.417 352.182 937.309 350.363 940.807 350.363C945.657 350.363 948.828 353.581 948.828 358.455V375.314H943.768V359.668C943.768 356.496 942.066 354.677 939.081 354.677C936.096 354.677 934.021 356.893 934.021 359.994V375.314H929.077V359.294C929.077 356.473 927.282 354.677 924.437 354.677C921.452 354.677 919.33 357.009 919.33 360.157V375.314H914.293Z" fill="#121212"/>
<path d="M478.665 459.604H481.479C481.743 462.029 484.044 463.631 487.246 463.631C490.278 463.631 492.485 462.029 492.485 459.822C492.485 457.925 491.164 456.759 488.148 455.982L485.272 455.236C481.137 454.179 479.303 452.36 479.303 449.313C479.303 445.582 482.567 442.97 487.231 442.97C491.693 442.97 494.926 445.613 495.05 449.375H492.252C492.003 446.966 490.06 445.489 487.138 445.489C484.231 445.489 482.21 446.997 482.21 449.189C482.21 450.883 483.453 451.894 486.5 452.686L488.848 453.308C493.496 454.474 495.377 456.262 495.377 459.48C495.377 463.584 492.143 466.149 486.982 466.149C482.225 466.149 478.93 463.568 478.665 459.604ZM501.44 465.776H498.641V443.343H512.259V445.862H501.44V453.572H511.373V456.06H501.44V465.776ZM521.991 443.343H529.997C534.21 443.343 537.179 446.297 537.179 450.541C537.179 454.801 534.179 457.77 529.966 457.77H524.789V465.776H521.991V443.343ZM524.789 445.831V455.283H529.266C532.469 455.283 534.303 453.526 534.303 450.541C534.303 447.572 532.484 445.831 529.266 445.831H524.789ZM539.977 465.776V449.608H542.527V452.251H542.589C543.118 450.463 544.61 449.329 546.507 449.329C546.973 449.329 547.377 449.406 547.595 449.437V452.065C547.377 451.987 546.802 451.909 546.149 451.909C544.05 451.909 542.682 453.417 542.682 455.702V465.776H539.977ZM555.725 466.056C551.248 466.056 548.232 462.838 548.232 457.692C548.232 452.531 551.248 449.329 555.725 449.329C560.187 449.329 563.203 452.531 563.203 457.692C563.203 462.838 560.187 466.056 555.725 466.056ZM555.725 463.677C558.585 463.677 560.451 461.501 560.451 457.692C560.451 453.883 558.585 451.707 555.725 451.707C552.865 451.707 550.984 453.883 550.984 457.692C550.984 461.501 552.865 463.677 555.725 463.677ZM572.887 443.343H580.427C587.081 443.343 591.014 447.494 591.014 454.552C591.014 461.625 587.096 465.776 580.427 465.776H572.887V443.343ZM575.686 445.862V463.257H580.241C585.324 463.257 588.153 460.148 588.153 454.583C588.153 448.971 585.34 445.862 580.241 445.862H575.686ZM594.216 465.776V449.608H596.921V465.776H594.216ZM595.569 446.888C594.651 446.888 593.89 446.126 593.89 445.209C593.89 444.276 594.651 443.53 595.569 443.53C596.501 443.53 597.263 444.276 597.263 445.209C597.263 446.126 596.501 446.888 595.569 446.888ZM600.294 454.07C600.294 451.303 602.766 449.329 606.326 449.329C609.669 449.329 612.125 451.318 612.249 454.054H609.669C609.482 452.5 608.223 451.536 606.233 451.536C604.259 451.536 602.953 452.515 602.953 453.93C602.953 455.049 603.808 455.796 605.642 456.262L608.145 456.868C611.41 457.692 612.591 458.874 612.591 461.252C612.591 464.066 609.933 466.056 606.155 466.056C602.611 466.056 600.139 464.128 599.859 461.268H602.564C602.86 462.947 604.134 463.848 606.326 463.848C608.518 463.848 609.871 462.915 609.871 461.454C609.871 460.304 609.202 459.682 607.383 459.2L604.538 458.469C601.694 457.739 600.294 456.277 600.294 454.07ZM623.255 449.329C627.375 449.329 630.173 452.624 630.173 457.692C630.173 462.76 627.391 466.056 623.318 466.056C621.001 466.056 619.136 464.921 618.172 463.149H618.11V471.17H615.405V449.608H617.97V452.344H618.032C619.027 450.526 620.908 449.329 623.255 449.329ZM622.727 463.677C625.603 463.677 627.406 461.361 627.406 457.692C627.406 454.039 625.603 451.707 622.727 451.707C619.96 451.707 618.094 454.101 618.094 457.692C618.094 461.299 619.96 463.677 622.727 463.677ZM633.049 465.776V443.343H635.754V465.776H633.049ZM644.739 463.755C647.289 463.755 649.248 461.967 649.248 459.635V458.314L644.926 458.578C642.75 458.718 641.506 459.682 641.506 461.205C641.506 462.744 642.796 463.755 644.739 463.755ZM644.133 466.056C640.915 466.056 638.754 464.112 638.754 461.205C638.754 458.438 640.884 456.697 644.615 456.48L649.248 456.215V454.863C649.248 452.888 647.942 451.707 645.703 451.707C643.62 451.707 642.314 452.686 641.972 454.272H639.361C639.547 451.474 641.941 449.329 645.766 449.329C649.559 449.329 651.953 451.381 651.953 454.598V465.776H649.388V462.993H649.325C648.362 464.843 646.31 466.056 644.133 466.056ZM656.725 471.823C656.399 471.823 655.855 471.792 655.559 471.73V469.46C655.855 469.522 656.274 469.538 656.616 469.538C658.124 469.538 658.964 468.807 659.586 466.926L659.959 465.791L653.989 449.608H656.881L661.358 463.071H661.404L665.882 449.608H668.726L662.368 466.911C660.985 470.688 659.648 471.823 656.725 471.823ZM680.619 445.831V454.427H685.982C688.858 454.427 690.49 452.873 690.49 450.121C690.49 447.432 688.749 445.831 685.858 445.831H680.619ZM680.619 456.899V465.776H677.821V443.343H686.231C690.553 443.343 693.382 445.986 693.382 450.028C693.382 453.153 691.687 455.578 688.874 456.464L694.066 465.776H690.786L685.982 456.899H680.619ZM702.974 451.676C700.44 451.676 698.667 453.619 698.496 456.309H707.28C707.217 453.604 705.523 451.676 702.974 451.676ZM707.217 461.143H709.876C709.409 463.973 706.673 466.056 703.145 466.056C698.512 466.056 695.698 462.838 695.698 457.754C695.698 452.733 698.559 449.329 703.02 449.329C707.388 449.329 710.078 452.5 710.078 457.397V458.423H698.481V458.578C698.481 461.672 700.3 463.708 703.207 463.708C705.259 463.708 706.767 462.667 707.217 461.143ZM719.39 463.522C722.204 463.522 724.085 461.19 724.085 457.63C724.085 454.07 722.204 451.707 719.39 451.707C716.607 451.707 714.788 454.008 714.788 457.63C714.788 461.252 716.607 463.522 719.39 463.522ZM719.483 471.87C715.923 471.87 713.109 469.864 712.658 467.113H715.441C715.97 468.59 717.571 469.569 719.592 469.569C722.39 469.569 724.085 467.952 724.085 465.543V462.993H724.022C723.027 464.75 721.115 465.9 718.846 465.9C714.726 465.9 712.021 462.651 712.021 457.63C712.021 452.562 714.726 449.329 718.908 449.329C721.193 449.329 723.09 450.448 724.162 452.329H724.209V449.608H726.789V465.449C726.789 469.305 723.945 471.87 719.483 471.87ZM743.594 449.608V465.776H741.029V463.149H740.967C740.003 465.014 738.324 466.056 735.837 466.056C732.308 466.056 730.241 463.77 730.241 460.102V449.608H732.946V459.62C732.946 462.247 734.174 463.662 736.677 463.662C739.304 463.662 740.889 461.858 740.889 459.107V449.608H743.594ZM747.248 465.776V443.343H749.952V465.776H747.248ZM758.938 463.755C761.487 463.755 763.446 461.967 763.446 459.635V458.314L759.124 458.578C756.948 458.718 755.704 459.682 755.704 461.205C755.704 462.744 756.995 463.755 758.938 463.755ZM758.332 466.056C755.114 466.056 752.953 464.112 752.953 461.205C752.953 458.438 755.083 456.697 758.814 456.48L763.446 456.215V454.863C763.446 452.888 762.14 451.707 759.902 451.707C757.819 451.707 756.513 452.686 756.171 454.272H753.559C753.746 451.474 756.14 449.329 759.964 449.329C763.757 449.329 766.151 451.381 766.151 454.598V465.776H763.586V462.993H763.524C762.56 464.843 760.508 466.056 758.332 466.056ZM769.587 465.776V449.608H772.136V452.251H772.198C772.727 450.463 774.219 449.329 776.116 449.329C776.582 449.329 776.986 449.406 777.204 449.437V452.065C776.986 451.987 776.411 451.909 775.758 451.909C773.66 451.909 772.292 453.417 772.292 455.702V465.776H769.587Z" fill="#121212"/>
<path d="M2120.93 927.33L2122.2 921.065H2117.1L2115.83 927.33H2113.62L2114.88 921.065H2111.24L2111.68 918.826H2115.36L2116.5 913.168H2112.66L2113.11 910.945H2116.95L2118.21 904.897H2120.42L2119.2 910.945H2124.27L2125.53 904.897H2127.75L2126.51 910.945H2130.38L2129.95 913.168H2126.04L2124.88 918.826H2128.93L2128.5 921.065H2124.43L2123.15 927.33H2120.93ZM2117.54 918.873H2122.67L2123.84 913.137H2118.71L2117.54 918.873ZM2139.93 927.703C2135.18 927.703 2131.8 925.013 2131.8 921.267C2131.8 918.469 2133.72 916.168 2136.61 915.5V915.437C2134.19 914.691 2132.68 912.779 2132.68 910.416C2132.68 907.027 2135.76 904.524 2139.93 904.524C2144.12 904.524 2147.15 907.012 2147.15 910.432C2147.15 912.763 2145.68 914.66 2143.24 915.437V915.5C2146.14 916.184 2148.07 918.484 2148.07 921.267C2148.07 925.029 2144.68 927.703 2139.93 927.703ZM2139.93 925.262C2143.02 925.262 2145.21 923.506 2145.21 921.065C2145.21 918.593 2143.02 916.852 2139.93 916.852C2136.85 916.852 2134.64 918.609 2134.64 921.065C2134.64 923.506 2136.85 925.262 2139.93 925.262ZM2139.93 914.396C2142.54 914.396 2144.39 912.857 2144.39 910.68C2144.39 908.473 2142.55 906.934 2139.93 906.934C2137.3 906.934 2135.46 908.488 2135.46 910.68C2135.46 912.857 2137.3 914.396 2139.93 914.396ZM2159.16 927.703C2153.92 927.703 2150.89 923.195 2150.89 916.106C2150.89 909.079 2153.95 904.524 2159.16 904.524C2164.36 904.524 2167.39 909.048 2167.39 916.09C2167.39 923.179 2164.38 927.703 2159.16 927.703ZM2159.16 925.262C2162.65 925.262 2164.58 921.702 2164.58 916.106C2164.58 910.587 2162.62 906.981 2159.16 906.981C2155.69 906.981 2153.7 910.618 2153.7 916.09C2153.7 921.687 2155.64 925.262 2159.16 925.262ZM2178.32 927.703C2173.58 927.703 2170.19 925.013 2170.19 921.267C2170.19 918.469 2172.12 916.168 2175.01 915.5V915.437C2172.59 914.691 2171.08 912.779 2171.08 910.416C2171.08 907.027 2174.16 904.524 2178.32 904.524C2182.52 904.524 2185.55 907.012 2185.55 910.432C2185.55 912.763 2184.08 914.66 2181.63 915.437V915.5C2184.54 916.184 2186.47 918.484 2186.47 921.267C2186.47 925.029 2183.08 927.703 2178.32 927.703ZM2178.32 925.262C2181.42 925.262 2183.61 923.506 2183.61 921.065C2183.61 918.593 2181.42 916.852 2178.32 916.852C2175.25 916.852 2173.04 918.609 2173.04 921.065C2173.04 923.506 2175.25 925.262 2178.32 925.262ZM2178.32 914.396C2180.93 914.396 2182.78 912.857 2182.78 910.68C2182.78 908.473 2180.95 906.934 2178.32 906.934C2175.7 906.934 2173.86 908.488 2173.86 910.68C2173.86 912.857 2175.7 914.396 2178.32 914.396ZM2197.55 927.703C2192.31 927.703 2189.28 923.195 2189.28 916.106C2189.28 909.079 2192.35 904.524 2197.55 904.524C2202.76 904.524 2205.79 909.048 2205.79 916.09C2205.79 923.179 2202.78 927.703 2197.55 927.703ZM2197.55 925.262C2201.05 925.262 2202.98 921.702 2202.98 916.106C2202.98 910.587 2201.02 906.981 2197.55 906.981C2194.09 906.981 2192.1 910.618 2192.1 916.09C2192.1 921.687 2194.04 925.262 2197.55 925.262ZM2216.72 927.703C2211.98 927.703 2208.59 925.013 2208.59 921.267C2208.59 918.469 2210.52 916.168 2213.41 915.5V915.437C2210.98 914.691 2209.48 912.779 2209.48 910.416C2209.48 907.027 2212.55 904.524 2216.72 904.524C2220.92 904.524 2223.95 907.012 2223.95 910.432C2223.95 912.763 2222.47 914.66 2220.03 915.437V915.5C2222.94 916.184 2224.87 918.484 2224.87 921.267C2224.87 925.029 2221.48 927.703 2216.72 927.703ZM2216.72 925.262C2219.81 925.262 2222.01 923.506 2222.01 921.065C2222.01 918.593 2219.81 916.852 2216.72 916.852C2213.64 916.852 2211.44 918.609 2211.44 921.065C2211.44 923.506 2213.64 925.262 2216.72 925.262ZM2216.72 914.396C2219.33 914.396 2221.18 912.857 2221.18 910.68C2221.18 908.473 2219.35 906.934 2216.72 906.934C2214.09 906.934 2212.26 908.488 2212.26 910.68C2212.26 912.857 2214.09 914.396 2216.72 914.396ZM2235.95 927.703C2230.71 927.703 2227.68 923.195 2227.68 916.106C2227.68 909.079 2230.74 904.524 2235.95 904.524C2241.16 904.524 2244.19 909.048 2244.19 916.09C2244.19 923.179 2241.17 927.703 2235.95 927.703ZM2235.95 925.262C2239.45 925.262 2241.38 921.702 2241.38 916.106C2241.38 910.587 2239.42 906.981 2235.95 906.981C2232.48 906.981 2230.49 910.618 2230.49 916.09C2230.49 921.687 2232.44 925.262 2235.95 925.262Z" fill="#121212"/>
<path d="M1426.47 1140.24L1427.75 1133.98H1422.65L1421.37 1140.24H1419.17L1420.43 1133.98H1416.79L1417.22 1131.74H1420.91L1422.04 1126.08H1418.2L1418.65 1123.86H1422.49L1423.75 1117.81H1425.96L1424.75 1123.86H1429.82L1431.07 1117.81H1433.3L1432.05 1123.86H1435.92L1435.49 1126.08H1431.59L1430.42 1131.74H1434.48L1434.04 1133.98H1429.97L1428.7 1140.24H1426.47ZM1423.08 1131.79H1428.21L1429.38 1126.05H1424.25L1423.08 1131.79ZM1447.35 1140.62C1441.16 1140.62 1437.25 1136.12 1437.25 1129.02C1437.25 1121.98 1441.21 1117.44 1447.35 1117.44C1452.23 1117.44 1455.95 1120.41 1456.66 1124.88H1453.83C1453.12 1121.95 1450.55 1120.02 1447.35 1120.02C1442.97 1120.02 1440.12 1123.56 1440.12 1129.02C1440.12 1134.52 1442.94 1138.04 1447.37 1138.04C1450.66 1138.04 1453.03 1136.45 1453.83 1133.71H1456.66C1455.64 1138.14 1452.31 1140.62 1447.35 1140.62ZM1466.75 1140.62C1462.93 1140.62 1459.99 1138.32 1459.31 1134.8H1462.15C1462.74 1136.84 1464.56 1138.18 1466.78 1138.18C1470.51 1138.18 1472.66 1134.79 1472.74 1128.83H1472.72C1472.71 1128.83 1472.71 1128.83 1472.69 1128.83C1471.74 1131.06 1469.29 1132.5 1466.43 1132.5C1462.15 1132.5 1458.98 1129.35 1458.98 1125.09C1458.98 1120.66 1462.32 1117.42 1466.92 1117.42C1470.3 1117.42 1472.97 1119.24 1474.34 1122.46C1475.08 1124.18 1475.44 1126.21 1475.44 1128.65C1475.44 1136.2 1472.24 1140.62 1466.75 1140.62ZM1466.91 1130.04C1469.88 1130.04 1472.08 1127.93 1472.08 1125.07C1472.08 1122.19 1469.85 1119.94 1466.95 1119.94C1464.08 1119.94 1461.81 1122.18 1461.81 1124.99C1461.81 1127.92 1463.97 1130.04 1466.91 1130.04ZM1486.39 1140.62C1482.1 1140.62 1478.92 1137.94 1478.69 1134.12H1481.44C1481.69 1136.51 1483.73 1138.16 1486.42 1138.16C1489.46 1138.16 1491.58 1136.05 1491.58 1133.03C1491.58 1130.01 1489.45 1127.85 1486.46 1127.85C1484.37 1127.85 1482.58 1128.8 1481.66 1130.37H1479.03L1480.26 1117.81H1493.1V1120.3H1482.56L1481.88 1127.6H1481.94C1482.95 1126.25 1484.82 1125.44 1486.96 1125.44C1491.27 1125.44 1494.38 1128.6 1494.38 1132.95C1494.38 1137.46 1491.07 1140.62 1486.39 1140.62ZM1505.01 1140.62C1500.72 1140.62 1497.55 1137.94 1497.31 1134.12H1500.07C1500.31 1136.51 1502.35 1138.16 1505.04 1138.16C1508.09 1138.16 1510.2 1136.05 1510.2 1133.03C1510.2 1130.01 1508.07 1127.85 1505.09 1127.85C1502.99 1127.85 1501.2 1128.8 1500.28 1130.37H1497.66L1498.88 1117.81H1511.73V1120.3H1501.19L1500.5 1127.6H1500.56C1501.57 1126.25 1503.44 1125.44 1505.58 1125.44C1509.89 1125.44 1513 1128.6 1513 1132.95C1513 1137.46 1509.69 1140.62 1505.01 1140.62ZM1523.63 1140.62C1519.34 1140.62 1516.17 1137.94 1515.94 1134.12H1518.69C1518.94 1136.51 1520.98 1138.16 1523.66 1138.16C1526.71 1138.16 1528.83 1136.05 1528.83 1133.03C1528.83 1130.01 1526.7 1127.85 1523.71 1127.85C1521.61 1127.85 1519.82 1128.8 1518.91 1130.37H1516.28L1517.51 1117.81H1530.35V1120.3H1519.81L1519.13 1127.6H1519.19C1520.2 1126.25 1522.06 1125.44 1524.21 1125.44C1528.51 1125.44 1531.62 1128.6 1531.62 1132.95C1531.62 1137.46 1528.31 1140.62 1523.63 1140.62ZM1542.26 1140.62C1537.97 1140.62 1534.8 1137.94 1534.56 1134.12H1537.31C1537.56 1136.51 1539.6 1138.16 1542.29 1138.16C1545.34 1138.16 1547.45 1136.05 1547.45 1133.03C1547.45 1130.01 1545.32 1127.85 1542.33 1127.85C1540.24 1127.85 1538.45 1128.8 1537.53 1130.37H1534.9L1536.13 1117.81H1548.97V1120.3H1538.43L1537.75 1127.6H1537.81C1538.82 1126.25 1540.69 1125.44 1542.83 1125.44C1547.14 1125.44 1550.25 1128.6 1550.25 1132.95C1550.25 1137.46 1546.94 1140.62 1542.26 1140.62Z" fill="#121212"/>
<path d="M1426.47 869.624L1427.75 863.359H1422.65L1421.37 869.624H1419.17L1420.43 863.359H1416.79L1417.22 861.121H1420.91L1422.04 855.462H1418.2L1418.65 853.239H1422.49L1423.75 847.192H1425.96L1424.75 853.239H1429.82L1431.07 847.192H1433.3L1432.05 853.239H1435.92L1435.49 855.462H1431.59L1430.42 861.121H1434.48L1434.04 863.359H1429.97L1428.7 869.624H1426.47ZM1423.08 861.167H1428.21L1429.38 855.431H1424.25L1423.08 861.167ZM1443.48 869.624V850.161H1443.42L1437.48 854.436V851.482L1443.45 847.192H1446.18V869.624H1443.48ZM1451.73 853.659C1451.73 849.741 1454.91 846.819 1459.13 846.819C1463.15 846.819 1466.3 849.539 1466.3 852.975C1466.3 855.478 1465.17 857.343 1461.42 861.214L1455.75 867.075V867.137H1466.67V869.624H1451.87V867.697L1459.77 859.38C1462.79 856.208 1463.5 855.011 1463.5 853.146C1463.5 850.985 1461.53 849.259 1459.06 849.259C1456.43 849.259 1454.44 851.156 1454.44 853.659V853.674H1451.73V853.659ZM1475.63 869.624V850.161H1475.57L1469.63 854.436V851.482L1475.6 847.192H1478.33V869.624H1475.63ZM1483.88 853.659C1483.88 849.741 1487.05 846.819 1491.28 846.819C1495.29 846.819 1498.45 849.539 1498.45 852.975C1498.45 855.478 1497.31 857.343 1493.57 861.214L1487.89 867.075V867.137H1498.82V869.624H1484.02V867.697L1491.92 859.38C1494.94 856.208 1495.65 855.011 1495.65 853.146C1495.65 850.985 1493.68 849.259 1491.21 849.259C1488.58 849.259 1486.59 851.156 1486.59 853.659V853.674H1483.88V853.659ZM1507.78 869.624V850.161H1507.71L1501.78 854.436V851.482L1507.75 847.192H1510.48V869.624H1507.78ZM1516.03 853.659C1516.03 849.741 1519.2 846.819 1523.43 846.819C1527.44 846.819 1530.6 849.539 1530.6 852.975C1530.6 855.478 1529.46 857.343 1525.72 861.214L1520.04 867.075V867.137H1530.97V869.624H1516.17V867.697L1524.07 859.38C1527.08 856.208 1527.8 855.011 1527.8 853.146C1527.8 850.985 1525.83 849.259 1523.35 849.259C1520.73 849.259 1518.74 851.156 1518.74 853.659V853.674H1516.03V853.659Z" fill="#121212"/>
<path d="M21.0128 237.423H28.6538V270.852H21.0128V257.576H10.5064V270.852H2.86538V237.423H10.5064V250.222H21.0128V237.423ZM40.7435 237.423H47.4294V270.852H39.7884V245.494L33.8666 247.118L32.0042 240.575L40.7435 237.423Z" fill="#121212"/>
<path d="M30.827 375.314H25.6037V360.414H8.3247V375.314H3.10136V341.666H8.3247V355.89H25.6037V341.666H30.827V375.314ZM36.2369 351.529C36.2369 345.467 41.1105 341.036 47.8029 341.036C54.2155 341.036 58.9958 345.117 58.9958 350.457C58.9958 354.374 56.8971 357.289 51.9769 362.326L43.5589 370.79V370.907H59.5321V375.314H36.5167V371.77L48.6657 359.388C52.7697 355.12 53.8424 353.348 53.8424 350.713C53.8424 347.728 51.1374 345.35 47.6397 345.35C43.9553 345.35 41.1804 348.008 41.1804 351.506V351.576H36.2369V351.529Z" fill="#121212"/>
<path d="M9.60721 449.329C13.7268 449.329 16.525 452.624 16.525 457.692C16.525 462.76 13.7424 466.056 9.6694 466.056C7.35309 466.056 5.48762 464.921 4.52379 463.149H4.4616V471.17H1.75666V449.608H4.32169V452.344H4.38387C5.3788 450.526 7.25982 449.329 9.60721 449.329ZM9.07866 463.677C11.9546 463.677 13.7579 461.361 13.7579 457.692C13.7579 454.039 11.9546 451.707 9.07866 451.707C6.31154 451.707 4.44606 454.101 4.44606 457.692C4.44606 461.299 6.31154 463.677 9.07866 463.677Z" fill="#121212"/>
<path d="M211.973 270.852V265.313L223.196 253.66C225.154 251.654 226.587 249.696 226.587 247.738C226.587 245.637 225.25 244.204 223.005 244.204C220.665 244.204 218.994 245.733 218.086 247.834L211.639 244.061C213.788 239.095 218.277 236.754 222.91 236.754C228.879 236.754 234.228 240.67 234.228 247.404C234.228 251.416 232.079 254.854 229.022 257.91L223.483 263.498H234.705V270.852H211.973ZM263.141 258.436V265.504H259.798V270.852H252.062V265.504H236.875V258.436L247.525 237.423H255.739L245.089 258.436H252.062V251.272H259.798V258.436H263.141ZM280.528 246.306C286.784 246.306 291.942 251.798 291.942 258.913C291.942 266.029 286.784 271.521 280.528 271.521C277.329 271.521 274.989 270.423 273.413 268.608V280.404H266.249V246.974H273.413V249.219C274.989 247.404 277.329 246.306 280.528 246.306ZM279.096 264.74C282.391 264.74 284.779 262.495 284.779 258.913C284.779 255.332 282.391 253.087 279.096 253.087C275.8 253.087 273.413 255.332 273.413 258.913C273.413 262.495 275.8 264.74 279.096 264.74ZM317.009 270.852H308.795L304.353 264.549L299.912 270.852H291.698L300.246 258.722L291.985 246.974H300.199L304.353 252.896L308.508 246.974H316.722L308.461 258.722L317.009 270.852Z" fill="#121212"/>
<path d="M212.095 341.361V341.385H214.579V341.349C214.579 339.592 215.974 338.256 217.825 338.256C219.583 338.256 220.942 339.451 220.942 340.951C220.942 342.275 220.403 343.166 218.341 345.31L212.235 351.533V353.314H223.802V351.099H215.774V351.041L220.005 346.787C222.478 344.256 223.532 342.791 223.532 340.822C223.532 338.138 221.13 336.088 217.907 336.088C214.544 336.088 212.095 338.314 212.095 341.361ZM233.681 353.314H236.2V349.974H238.521V347.771H236.2V336.404H232.403C228.595 341.912 226.673 344.947 225.22 347.677V349.974H233.681V353.314ZM227.669 347.748C229.017 345.299 230.728 342.662 233.657 338.431H233.704V347.806H227.669V347.748ZM246.911 340.787C245.13 340.787 243.712 341.689 242.985 343.107H242.938V340.986H240.489V357.392H243.021V351.287H243.079C243.782 352.658 245.188 353.525 246.958 353.525C250.052 353.525 252.103 351.052 252.103 347.15C252.103 343.248 250.04 340.787 246.911 340.787ZM246.243 351.381C244.298 351.381 243.009 349.717 243.009 347.15C243.009 344.607 244.31 342.92 246.243 342.92C248.247 342.92 249.501 344.572 249.501 347.15C249.501 349.74 248.247 351.381 246.243 351.381ZM258.419 348.779L261.138 353.314H263.927L259.931 347.08L263.974 340.986H261.185L258.524 345.451H258.478L255.782 340.986H252.946L256.954 347.162L252.888 353.314H255.63L258.36 348.779H258.419Z" fill="#121212"/>
<path d="M218.462 465.776V446.313H218.4L212.462 450.588V447.634L218.431 443.343H221.167V465.776H218.462ZM234.972 466.164C231.614 466.164 228.94 464.346 227.557 461.112C226.811 459.387 226.453 457.366 226.453 454.94C226.453 447.385 229.671 442.955 235.159 442.955C238.967 442.955 241.89 445.24 242.605 448.769H239.76C239.154 446.732 237.35 445.427 235.127 445.427C231.381 445.427 229.251 448.753 229.158 454.723H229.205C230.215 452.531 232.687 451.085 235.469 451.085C239.744 451.085 242.916 454.241 242.916 458.5C242.916 462.931 239.573 466.164 234.972 466.164ZM234.941 463.677C237.801 463.677 240.071 461.423 240.071 458.594C240.071 455.656 237.957 453.541 234.988 453.541C232.018 453.541 229.826 455.656 229.826 458.516C229.826 461.392 232.065 463.677 234.941 463.677ZM253.704 449.329C257.824 449.329 260.622 452.624 260.622 457.692C260.622 462.76 257.84 466.056 253.767 466.056C251.45 466.056 249.585 464.921 248.621 463.149H248.559V471.17H245.854V449.608H248.419V452.344H248.481C249.476 450.526 251.357 449.329 253.704 449.329ZM253.176 463.677C256.052 463.677 257.855 461.361 257.855 457.692C257.855 454.039 256.052 451.707 253.176 451.707C250.409 451.707 248.543 454.101 248.543 457.692C248.543 461.299 250.409 463.677 253.176 463.677ZM268.768 459.62H268.706L264.804 465.776H261.804L267.307 457.692L261.897 449.608H264.913L268.799 455.671H268.862L272.701 449.608H275.717L270.261 457.583L275.639 465.776H272.639L268.768 459.62Z" fill="#121212"/>
<rect x="5.98984" y="767.99" width="234.802" height="234.802" rx="62.0102" fill="#C95555" stroke="black" stroke-width="3.97969"/>
<rect x="1148.16" y="767.99" width="234.802" height="234.802" rx="62.0102" fill="#121212" stroke="black" stroke-width="3.97969"/>
<rect x="5.98984" y="1038.61" width="234.802" height="234.802" rx="62.0102" fill="#D9D9D9" stroke="black" stroke-width="3.97969"/>
<rect x="1148.16" y="1038.61" width="234.802" height="234.802" rx="62.0102" fill="#C95555" stroke="black" stroke-width="3.97969"/>
<rect x="1842.62" y="767.99" width="234.802" height="234.802" rx="62.0102" fill="#808080" stroke="black" stroke-width="3.97969"/>
<rect x="596.972" y="767.99" width="234.802" height="234.802" rx="62.0102" fill="#F6F6F6" stroke="black" stroke-width="3.97969"/>
<rect x="596.972" y="1041.53" width="234.802" height="234.802" rx="62.0102" fill="#121212" stroke="black" stroke-width="3.97969"/>
<rect x="0.994922" y="0.994922" width="2354.01" height="1285.01" stroke="white" stroke-width="1.98984"/>
</svg>
