<svg width="160" height="160" viewBox="0 0 160 160" fill="none" xmlns="http://www.w3.org/2000/svg">
<rect width="160" height="160" rx="32" fill="#F7F7F7"/>
<path d="M29.4636 84.3419V72.5195H26V87.6763H34.8762V84.3419H29.4636ZM44.0489 76.85V77.8677C43.335 77.0449 42.2736 76.5469 40.8232 76.5469C37.9866 76.5469 35.6467 79.0369 35.6467 82.2631C35.6467 85.4893 37.9866 87.9794 40.8232 87.9794C42.2736 87.9794 43.335 87.4814 44.0489 86.6585V87.6763H47.2972V76.85H44.0489ZM41.4729 84.9048C39.9791 84.9048 38.895 83.8871 38.895 82.2631C38.895 80.6392 39.9791 79.6216 41.4729 79.6216C42.9667 79.6216 44.0489 80.6392 44.0489 82.2631C44.0489 83.8871 42.9667 84.9048 41.4729 84.9048ZM52.6474 80.0112C52.6474 79.6216 52.995 79.405 53.5577 79.405C54.2716 79.405 54.706 79.7948 55.0081 80.3578L57.7805 78.8637C56.8703 77.3265 55.3122 76.5469 53.5577 76.5469C51.3066 76.5469 49.3142 77.7378 49.3142 80.0979C49.3142 83.8439 54.6399 83.2159 54.6399 84.4068C54.6399 84.8399 54.2508 85.078 53.4709 85.078C52.519 85.078 51.9128 84.6233 51.6314 83.8004L48.8156 85.4028C49.6598 87.1566 51.3066 87.9794 53.4709 87.9794C55.8089 87.9794 57.9751 86.9184 57.9751 84.4284C57.9751 80.4227 52.6474 81.2454 52.6474 80.0112ZM65.6237 79.968V76.85H63.3933V73.8187L60.145 74.793V76.85H58.4132V79.968H60.145V83.8004C60.145 86.8319 61.3801 88.1093 65.6237 87.6763V84.7315C64.1941 84.8182 63.3933 84.7315 63.3933 83.8004V79.968H65.6237Z" fill="#121212"/>
<path d="M82.9388 72.5197H79.4733L75.36 79.2535L71.2448 72.5197H67.7812V87.6765H71.2448V78.8639L75.1655 85.2946H75.5545L79.4733 78.8639V87.6765H82.9388V72.5197ZM87.0577 75.8976C88.1191 75.8976 89.0067 75.0098 89.0067 73.9488C89.0067 72.8878 88.1191 72 87.0577 72C85.9982 72 85.1106 72.8878 85.1106 73.9488C85.1106 75.0098 85.9982 75.8976 87.0577 75.8976ZM85.4354 87.6765H88.6818V76.8502H85.4354V87.6765ZM97.4032 76.5471C95.9735 76.5471 94.8914 77.0668 94.3078 77.8679V76.8502H91.0595V87.6765H94.3078V81.7653C94.3078 80.228 95.1294 79.5351 96.321 79.5351C97.3597 79.5351 98.2039 80.1631 98.2039 81.5055V87.6765H101.452V81.0292C101.452 78.1061 99.5901 76.5471 97.4032 76.5471ZM110.676 76.8502V82.7613C110.676 84.2986 109.854 84.9915 108.663 84.9915C107.624 84.9915 106.78 84.3636 106.78 83.0212V76.8502H103.532V83.4975C103.532 86.4206 105.394 87.9796 107.581 87.9796C109.01 87.9796 110.092 87.4599 110.676 86.6587V87.6765H113.924V76.8502H110.676ZM122.651 79.9682V76.8502H120.421V73.8189L117.173 74.7932V76.8502H115.441V79.9682H117.173V83.8006C117.173 86.8321 118.408 88.1095 122.651 87.6765V84.7317C121.222 84.8184 120.421 84.7317 120.421 83.8006V79.9682H122.651ZM127.18 83.5625H134.866C134.953 83.1511 134.997 82.7181 134.997 82.2633C134.997 78.9939 132.657 76.5471 129.497 76.5471C126.075 76.5471 123.737 79.0371 123.737 82.2633C123.737 85.4895 126.032 87.9796 129.735 87.9796C131.792 87.9796 133.393 87.2217 134.455 85.7494L131.856 84.2554C131.424 84.7317 130.666 85.0782 129.779 85.0782C128.587 85.0782 127.592 84.6884 127.18 83.5625ZM127.114 81.1374C127.418 80.0331 128.241 79.4269 129.475 79.4269C130.449 79.4269 131.424 79.8815 131.769 81.1374H127.114Z" fill="#C95555"/>
<g filter="url(#filter0_d_1607_139)">
<path d="M113.971 56.0254C105.127 56.0148 97.9662 48.8373 97.9766 39.9937C97.987 31.1501 105.164 23.9895 114.008 24C122.851 24.0104 130.013 31.1879 130.002 40.0315C129.992 48.8751 122.813 56.0358 113.971 56.0254Z" fill="#F7F7F7"/>
</g>
<g filter="url(#filter1_d_1607_139)">
<path d="M113.971 56.0253C111.867 56.0228 109.785 55.6061 107.844 54.7991C105.902 53.9921 104.138 52.8105 102.653 51.3219C101.168 49.8332 99.9901 48.0666 99.1886 46.1229C98.3858 44.1792 97.974 42.0964 97.9766 39.9937L113.989 40.0126L113.971 56.0253Z" fill="#C95555"/>
</g>
<g filter="url(#filter2_d_1607_139)">
<path d="M50.1795 104.555C58.7182 106.853 63.778 115.64 61.4787 124.179C59.1794 132.719 50.3939 137.778 41.8539 135.479C33.3139 133.18 28.2554 124.394 30.5547 115.854C32.854 107.314 41.6395 102.256 50.1795 104.555Z" fill="#F7F7F7"/>
</g>
<g filter="url(#filter3_d_1607_139)">
<path d="M50.1869 105.105C52.2173 105.652 54.1205 106.593 55.7871 107.875C57.4538 109.157 58.8516 110.755 59.9012 112.577L46.0234 120.567L50.1869 105.105Z" fill="#C95555"/>
</g>
<defs>
<filter id="filter0_d_1607_139" x="87.9766" y="14" width="52.0234" height="52.0254" filterUnits="userSpaceOnUse" color-interpolation-filters="sRGB">
<feFlood flood-opacity="0" result="BackgroundImageFix"/>
<feColorMatrix in="SourceAlpha" type="matrix" values="0 0 0 0 0 0 0 0 0 0 0 0 0 0 0 0 0 0 127 0" result="hardAlpha"/>
<feOffset/>
<feGaussianBlur stdDeviation="5"/>
<feComposite in2="hardAlpha" operator="out"/>
<feColorMatrix type="matrix" values="0 0 0 0 0 0 0 0 0 0 0 0 0 0 0 0 0 0 0.25 0"/>
<feBlend mode="normal" in2="BackgroundImageFix" result="effect1_dropShadow_1607_139"/>
<feBlend mode="normal" in="SourceGraphic" in2="effect1_dropShadow_1607_139" result="shape"/>
</filter>
<filter id="filter1_d_1607_139" x="87.9766" y="29.9937" width="36.0156" height="36.0317" filterUnits="userSpaceOnUse" color-interpolation-filters="sRGB">
<feFlood flood-opacity="0" result="BackgroundImageFix"/>
<feColorMatrix in="SourceAlpha" type="matrix" values="0 0 0 0 0 0 0 0 0 0 0 0 0 0 0 0 0 0 127 0" result="hardAlpha"/>
<feOffset/>
<feGaussianBlur stdDeviation="5"/>
<feComposite in2="hardAlpha" operator="out"/>
<feColorMatrix type="matrix" values="0 0 0 0 0 0 0 0 0 0 0 0 0 0 0 0 0 0 0.25 0"/>
<feBlend mode="normal" in2="BackgroundImageFix" result="effect1_dropShadow_1607_139"/>
<feBlend mode="normal" in="SourceGraphic" in2="effect1_dropShadow_1607_139" result="shape"/>
</filter>
<filter id="filter2_d_1607_139" x="20" y="94" width="52.0312" height="52.0337" filterUnits="userSpaceOnUse" color-interpolation-filters="sRGB">
<feFlood flood-opacity="0" result="BackgroundImageFix"/>
<feColorMatrix in="SourceAlpha" type="matrix" values="0 0 0 0 0 0 0 0 0 0 0 0 0 0 0 0 0 0 127 0" result="hardAlpha"/>
<feOffset/>
<feGaussianBlur stdDeviation="5"/>
<feComposite in2="hardAlpha" operator="out"/>
<feColorMatrix type="matrix" values="0 0 0 0 0 0 0 0 0 0 0 0 0 0 0 0 0 0 0.25 0"/>
<feBlend mode="normal" in2="BackgroundImageFix" result="effect1_dropShadow_1607_139"/>
<feBlend mode="normal" in="SourceGraphic" in2="effect1_dropShadow_1607_139" result="shape"/>
</filter>
<filter id="filter3_d_1607_139" x="36.0234" y="95.105" width="33.875" height="35.4619" filterUnits="userSpaceOnUse" color-interpolation-filters="sRGB">
<feFlood flood-opacity="0" result="BackgroundImageFix"/>
<feColorMatrix in="SourceAlpha" type="matrix" values="0 0 0 0 0 0 0 0 0 0 0 0 0 0 0 0 0 0 127 0" result="hardAlpha"/>
<feOffset/>
<feGaussianBlur stdDeviation="5"/>
<feComposite in2="hardAlpha" operator="out"/>
<feColorMatrix type="matrix" values="0 0 0 0 0 0 0 0 0 0 0 0 0 0 0 0 0 0 0.25 0"/>
<feBlend mode="normal" in2="BackgroundImageFix" result="effect1_dropShadow_1607_139"/>
<feBlend mode="normal" in="SourceGraphic" in2="effect1_dropShadow_1607_139" result="shape"/>
</filter>
</defs>
</svg>
